  0
SECTION
  2
HEADER
  9
$ANGBASE
  50
0.0
  9
$ANGDIR
  70
1
  9
$MEASUREMENT
  70
1
  0
ENDSEC
  0
SECTION
  2
TABLES
  0
TABLE
  2
LTYPE
  70
4
  0
LTYPE
  5
40F
  2
CONTINUOUS
  70
0
  3
Solid line
  72
65
  73
0
  40
0.0
  0
LTYPE
  5
410
  2
DASHDOT
 70
0
  3
Dash Dot ____ _ ____ _
 72
65
 73
4
 40
2.0
 49
1.25
 49
-0.25
 49
0.25
 49
-0.25
  0
LTYPE
  5
411
  2
DASHED
 70
0
  3
Dashed __ __ __ __ __
 72
65
 73
2
 40
0.75
 49
0.5
 49
-0.25
  0
LTYPE
  5
43B
  2
DOTTED
 70
0
  3
Dotted .  .  .  .
 72
65
 73
2
 40
0.2
 49
0.0
 49
-0.2
  0
ENDTAB
  0
TABLE
  2
STYLE
  70
4
  0
STYLE
  2
KICAD
  70
0
  40
0
  41
1
  42
1
  50
0
  71
0
  3
isocp.shx
  0
STYLE
  2
KICADB
  70
0
  40
0
  41
1
  42
1
  50
0
  71
0
  3
isocp.shx
  0
STYLE
  2
KICADI
  70
0
  40
0
  41
1
  42
1
  50
15
  71
0
  3
isocp.shx
  0
STYLE
  2
KICADBI
  70
0
  40
0
  41
1
  42
1
  50
15
  71
0
  3
isocp.shx
  0
ENDTAB
  0
TABLE
  2
LAYER
  70
1
  0
LAYER
  2
BLACK
  70
0
  62
7
  6
CONTINUOUS
  0
ENDTAB
  0
ENDSEC
  0
SECTION
  2
ENTITIES
0
LINE
8
BLACK
6
CONTINUOUS
10
250.827
20
-34.9001
11
250.829
21
-34.9002
0
LINE
8
BLACK
6
CONTINUOUS
10
250.829
20
-34.9002
11
250.829
21
-34.9003
0
LINE
8
BLACK
6
CONTINUOUS
10
250.829
20
-34.9003
11
250.83
21
-34.9004
0
LINE
8
BLACK
6
CONTINUOUS
10
250.83
20
-34.9004
11
250.832
21
-34.901
0
LINE
8
BLACK
6
CONTINUOUS
10
250.832
20
-34.901
11
250.833
21
-34.9014
0
LINE
8
BLACK
6
CONTINUOUS
10
250.833
20
-34.9014
11
250.834
21
-34.9017
0
LINE
8
BLACK
6
CONTINUOUS
10
250.834
20
-34.9017
11
250.835
21
-34.9019
0
LINE
8
BLACK
6
CONTINUOUS
10
250.835
20
-34.9019
11
250.836
21
-34.9028
0
LINE
8
BLACK
6
CONTINUOUS
10
250.836
20
-34.9028
11
250.837
21
-34.9029
0
LINE
8
BLACK
6
CONTINUOUS
10
250.837
20
-34.9029
11
250.837
21
-34.9033
0
LINE
8
BLACK
6
CONTINUOUS
10
250.837
20
-34.9033
11
250.839
21
-34.9043
0
LINE
8
BLACK
6
CONTINUOUS
10
250.839
20
-34.9043
11
250.84
21
-34.9046
0
LINE
8
BLACK
6
CONTINUOUS
10
250.84
20
-34.9046
11
254.013
21
-36.8085
0
LINE
8
BLACK
6
CONTINUOUS
10
254.013
20
-36.8085
11
254.015
21
-36.8096
0
LINE
8
BLACK
6
CONTINUOUS
10
254.015
20
-36.8096
11
254.016
21
-36.8106
0
LINE
8
BLACK
6
CONTINUOUS
10
254.016
20
-36.8106
11
254.017
21
-36.8114
0
LINE
8
BLACK
6
CONTINUOUS
10
254.017
20
-36.8114
11
254.018
21
-36.8122
0
LINE
8
BLACK
6
CONTINUOUS
10
254.018
20
-36.8122
11
254.018
21
-36.8129
0
LINE
8
BLACK
6
CONTINUOUS
10
254.018
20
-36.8129
11
254.019
21
-36.814
0
LINE
8
BLACK
6
CONTINUOUS
10
254.019
20
-36.814
11
254.02
21
-36.815
0
LINE
8
BLACK
6
CONTINUOUS
10
254.02
20
-36.815
11
254.021
21
-36.816
0
LINE
8
BLACK
6
CONTINUOUS
10
254.021
20
-36.816
11
254.021
21
-36.8168
0
LINE
8
BLACK
6
CONTINUOUS
10
254.021
20
-36.8168
11
254.022
21
-36.8181
0
LINE
8
BLACK
6
CONTINUOUS
10
254.022
20
-36.8181
11
254.023
21
-36.8193
0
LINE
8
BLACK
6
CONTINUOUS
10
254.023
20
-36.8193
11
254.023
21
-36.8203
0
LINE
8
BLACK
6
CONTINUOUS
10
254.023
20
-36.8203
11
254.024
21
-36.8212
0
LINE
8
BLACK
6
CONTINUOUS
10
254.024
20
-36.8212
11
254.024
21
-36.8226
0
LINE
8
BLACK
6
CONTINUOUS
10
254.024
20
-36.8226
11
254.024
21
-36.8239
0
LINE
8
BLACK
6
CONTINUOUS
10
254.024
20
-36.8239
11
254.025
21
-36.8262
0
LINE
8
BLACK
6
CONTINUOUS
10
254.025
20
-36.8262
11
262.914
21
-92.0694
0
LINE
8
BLACK
6
CONTINUOUS
10
262.914
20
-92.0694
11
262.915
21
-92.0701
0
LINE
8
BLACK
6
CONTINUOUS
10
262.915
20
-92.0701
11
262.915
21
-92.0718
0
LINE
8
BLACK
6
CONTINUOUS
10
262.915
20
-92.0718
11
262.915
21
-92.0722
0
LINE
8
BLACK
6
CONTINUOUS
10
262.915
20
-92.0722
11
262.915
21
-92.073
0
LINE
8
BLACK
6
CONTINUOUS
10
262.915
20
-92.073
11
262.915
21
-92.075
0
LINE
8
BLACK
6
CONTINUOUS
10
262.915
20
-92.075
11
262.915
21
-92.0755
0
LINE
8
BLACK
6
CONTINUOUS
10
262.915
20
-92.0755
11
262.915
21
-92.0759
0
LINE
8
BLACK
6
CONTINUOUS
10
262.915
20
-92.0759
11
262.915
21
-92.0779
0
LINE
8
BLACK
6
CONTINUOUS
10
262.915
20
-92.0779
11
262.915
21
-92.0799
0
LINE
8
BLACK
6
CONTINUOUS
10
262.915
20
-92.0799
11
262.915
21
-92.0803
0
LINE
8
BLACK
6
CONTINUOUS
10
262.915
20
-92.0803
11
262.914
21
-92.0808
0
LINE
8
BLACK
6
CONTINUOUS
10
262.914
20
-92.0808
11
262.914
21
-92.0827
0
LINE
8
BLACK
6
CONTINUOUS
10
262.914
20
-92.0827
11
262.913
21
-92.0846
0
LINE
8
BLACK
6
CONTINUOUS
10
262.913
20
-92.0846
11
262.913
21
-92.085
0
LINE
8
BLACK
6
CONTINUOUS
10
262.913
20
-92.085
11
262.913
21
-92.0855
0
LINE
8
BLACK
6
CONTINUOUS
10
262.913
20
-92.0855
11
262.912
21
-92.0872
0
LINE
8
BLACK
6
CONTINUOUS
10
262.912
20
-92.0872
11
262.911
21
-92.0879
0
LINE
8
BLACK
6
CONTINUOUS
10
262.911
20
-92.0879
11
262.911
21
-92.0882
0
LINE
8
BLACK
6
CONTINUOUS
10
262.911
20
-92.0882
11
262.91
21
-92.0897
0
LINE
8
BLACK
6
CONTINUOUS
10
262.91
20
-92.0897
11
262.91
21
-92.0903
0
LINE
8
BLACK
6
CONTINUOUS
10
262.91
20
-92.0903
11
261.641
21
-93.9931
0
LINE
8
BLACK
6
CONTINUOUS
10
261.641
20
-93.9931
11
261.64
21
-93.9945
0
LINE
8
BLACK
6
CONTINUOUS
10
261.64
20
-93.9945
11
261.639
21
-93.9961
0
LINE
8
BLACK
6
CONTINUOUS
10
261.639
20
-93.9961
11
261.638
21
-93.9977
0
LINE
8
BLACK
6
CONTINUOUS
10
261.638
20
-93.9977
11
261.638
21
-93.998
0
LINE
8
BLACK
6
CONTINUOUS
10
261.638
20
-93.998
11
261.637
21
-93.9982
0
LINE
8
BLACK
6
CONTINUOUS
10
261.637
20
-93.9982
11
261.636
21
-93.9996
0
LINE
8
BLACK
6
CONTINUOUS
10
261.636
20
-93.9996
11
261.634
21
-94.0009
0
LINE
8
BLACK
6
CONTINUOUS
10
261.634
20
-94.0009
11
261.634
21
-94.001
0
LINE
8
BLACK
6
CONTINUOUS
10
261.634
20
-94.001
11
261.633
21
-94.0013
0
LINE
8
BLACK
6
CONTINUOUS
10
261.633
20
-94.0013
11
261.631
21
-94.0022
0
LINE
8
BLACK
6
CONTINUOUS
10
261.631
20
-94.0022
11
261.63
21
-94.0032
0
LINE
8
BLACK
6
CONTINUOUS
10
261.63
20
-94.0032
11
261.629
21
-94.0033
0
LINE
8
BLACK
6
CONTINUOUS
10
261.629
20
-94.0033
11
261.629
21
-94.0035
0
LINE
8
BLACK
6
CONTINUOUS
10
261.629
20
-94.0035
11
261.627
21
-94.004
0
LINE
8
BLACK
6
CONTINUOUS
10
261.627
20
-94.004
11
261.625
21
-94.0046
0
LINE
8
BLACK
6
CONTINUOUS
10
261.625
20
-94.0046
11
261.623
21
-94.0048
0
LINE
8
BLACK
6
CONTINUOUS
10
261.623
20
-94.0048
11
209.562
21
-102.893
0
LINE
8
BLACK
6
CONTINUOUS
10
209.562
20
-102.893
11
207.672
21
-104.784
0
LINE
8
BLACK
6
CONTINUOUS
10
207.672
20
-104.784
11
210.21
21
-120.01
0
LINE
8
BLACK
6
CONTINUOUS
10
210.21
20
-120.01
11
210.21
21
-120.012
0
LINE
8
BLACK
6
CONTINUOUS
10
210.21
20
-120.012
11
210.21
21
-120.014
0
LINE
8
BLACK
6
CONTINUOUS
10
210.21
20
-120.014
11
210.21
21
-120.016
0
LINE
8
BLACK
6
CONTINUOUS
10
210.21
20
-120.016
11
210.21
21
-120.016
0
LINE
8
BLACK
6
CONTINUOUS
10
210.21
20
-120.016
11
210.21
21
-120.017
0
LINE
8
BLACK
6
CONTINUOUS
10
210.21
20
-120.017
11
210.21
21
-120.019
0
LINE
8
BLACK
6
CONTINUOUS
10
210.21
20
-120.019
11
210.209
21
-120.021
0
LINE
8
BLACK
6
CONTINUOUS
10
210.209
20
-120.021
11
210.209
21
-120.021
0
LINE
8
BLACK
6
CONTINUOUS
10
210.209
20
-120.021
11
210.209
21
-120.022
0
LINE
8
BLACK
6
CONTINUOUS
10
210.209
20
-120.022
11
210.209
21
-120.023
0
LINE
8
BLACK
6
CONTINUOUS
10
210.209
20
-120.023
11
210.208
21
-120.025
0
LINE
8
BLACK
6
CONTINUOUS
10
210.208
20
-120.025
11
210.207
21
-120.027
0
LINE
8
BLACK
6
CONTINUOUS
10
210.207
20
-120.027
11
208.938
21
-122.564
0
LINE
8
BLACK
6
CONTINUOUS
10
208.938
20
-122.564
11
208.938
21
-122.565
0
LINE
8
BLACK
6
CONTINUOUS
10
208.938
20
-122.565
11
208.937
21
-122.567
0
LINE
8
BLACK
6
CONTINUOUS
10
208.937
20
-122.567
11
208.937
21
-122.567
0
LINE
8
BLACK
6
CONTINUOUS
10
208.937
20
-122.567
11
208.937
21
-122.568
0
LINE
8
BLACK
6
CONTINUOUS
10
208.937
20
-122.568
11
208.936
21
-122.569
0
LINE
8
BLACK
6
CONTINUOUS
10
208.936
20
-122.569
11
208.935
21
-122.57
0
LINE
8
BLACK
6
CONTINUOUS
10
208.935
20
-122.57
11
208.935
21
-122.57
0
LINE
8
BLACK
6
CONTINUOUS
10
208.935
20
-122.57
11
208.934
21
-122.572
0
LINE
8
BLACK
6
CONTINUOUS
10
208.934
20
-122.572
11
208.933
21
-122.573
0
LINE
8
BLACK
6
CONTINUOUS
10
208.933
20
-122.573
11
208.932
21
-122.573
0
LINE
8
BLACK
6
CONTINUOUS
10
208.932
20
-122.573
11
208.931
21
-122.574
0
LINE
8
BLACK
6
CONTINUOUS
10
208.931
20
-122.574
11
208.93
21
-122.575
0
LINE
8
BLACK
6
CONTINUOUS
10
208.93
20
-122.575
11
208.929
21
-122.576
0
LINE
8
BLACK
6
CONTINUOUS
10
208.929
20
-122.576
11
208.928
21
-122.576
0
LINE
8
BLACK
6
CONTINUOUS
10
208.928
20
-122.576
11
208.927
21
-122.577
0
LINE
8
BLACK
6
CONTINUOUS
10
208.927
20
-122.577
11
208.926
21
-122.577
0
LINE
8
BLACK
6
CONTINUOUS
10
208.926
20
-122.577
11
208.924
21
-122.578
0
LINE
8
BLACK
6
CONTINUOUS
10
208.924
20
-122.578
11
208.924
21
-122.578
0
LINE
8
BLACK
6
CONTINUOUS
10
208.924
20
-122.578
11
208.923
21
-122.579
0
LINE
8
BLACK
6
CONTINUOUS
10
208.923
20
-122.579
11
208.921
21
-122.579
0
LINE
8
BLACK
6
CONTINUOUS
10
208.921
20
-122.579
11
208.921
21
-122.579
0
LINE
8
BLACK
6
CONTINUOUS
10
208.921
20
-122.579
11
208.92
21
-122.579
0
LINE
8
BLACK
6
CONTINUOUS
10
208.92
20
-122.579
11
208.918
21
-122.58
0
LINE
8
BLACK
6
CONTINUOUS
10
208.918
20
-122.58
11
208.918
21
-122.58
0
LINE
8
BLACK
6
CONTINUOUS
10
208.918
20
-122.58
11
172.726
21
-129.564
0
LINE
8
BLACK
6
CONTINUOUS
10
172.726
20
-129.564
11
172.725
21
-129.565
0
LINE
8
BLACK
6
CONTINUOUS
10
172.725
20
-129.565
11
172.724
21
-129.565
0
LINE
8
BLACK
6
CONTINUOUS
10
172.724
20
-129.565
11
172.724
21
-129.565
0
LINE
8
BLACK
6
CONTINUOUS
10
172.724
20
-129.565
11
172.723
21
-129.565
0
LINE
8
BLACK
6
CONTINUOUS
10
172.723
20
-129.565
11
172.721
21
-129.565
0
LINE
8
BLACK
6
CONTINUOUS
10
172.721
20
-129.565
11
172.721
21
-129.565
0
LINE
8
BLACK
6
CONTINUOUS
10
172.721
20
-129.565
11
172.72
21
-129.565
0
LINE
8
BLACK
6
CONTINUOUS
10
172.72
20
-129.565
11
172.719
21
-129.565
0
LINE
8
BLACK
6
CONTINUOUS
10
172.719
20
-129.565
11
116.841
21
-129.565
0
LINE
8
BLACK
6
CONTINUOUS
10
116.841
20
-129.565
11
116.841
21
-129.565
0
LINE
8
BLACK
6
CONTINUOUS
10
116.841
20
-129.565
11
116.839
21
-129.565
0
LINE
8
BLACK
6
CONTINUOUS
10
116.839
20
-129.565
11
116.839
21
-129.565
0
LINE
8
BLACK
6
CONTINUOUS
10
116.839
20
-129.565
11
116.838
21
-129.565
0
LINE
8
BLACK
6
CONTINUOUS
10
116.838
20
-129.565
11
116.837
21
-129.565
0
LINE
8
BLACK
6
CONTINUOUS
10
116.837
20
-129.565
11
116.837
21
-129.565
0
LINE
8
BLACK
6
CONTINUOUS
10
116.837
20
-129.565
11
116.835
21
-129.565
0
LINE
8
BLACK
6
CONTINUOUS
10
116.835
20
-129.565
11
116.834
21
-129.564
0
LINE
8
BLACK
6
CONTINUOUS
10
116.834
20
-129.564
11
80.6429
21
-123.215
0
LINE
8
BLACK
6
CONTINUOUS
10
80.6429
20
-123.215
11
80.6427
21
-123.215
0
LINE
8
BLACK
6
CONTINUOUS
10
80.6427
20
-123.215
11
80.6405
21
-123.215
0
LINE
8
BLACK
6
CONTINUOUS
10
80.6405
20
-123.215
11
80.6395
21
-123.214
0
LINE
8
BLACK
6
CONTINUOUS
10
80.6395
20
-123.214
11
80.6393
21
-123.214
0
LINE
8
BLACK
6
CONTINUOUS
10
80.6393
20
-123.214
11
80.6379
21
-123.214
0
LINE
8
BLACK
6
CONTINUOUS
10
80.6379
20
-123.214
11
80.6369
21
-123.214
0
LINE
8
BLACK
6
CONTINUOUS
10
80.6369
20
-123.214
11
80.6359
21
-123.213
0
LINE
8
BLACK
6
CONTINUOUS
10
80.6359
20
-123.213
11
80.6347
21
-123.213
0
LINE
8
BLACK
6
CONTINUOUS
10
80.6347
20
-123.213
11
80.6333
21
-123.212
0
LINE
8
BLACK
6
CONTINUOUS
10
80.6333
20
-123.212
11
80.6324
21
-123.212
0
LINE
8
BLACK
6
CONTINUOUS
10
80.6324
20
-123.212
11
80.6315
21
-123.211
0
LINE
8
BLACK
6
CONTINUOUS
10
80.6315
20
-123.211
11
80.6304
21
-123.21
0
LINE
8
BLACK
6
CONTINUOUS
10
80.6304
20
-123.21
11
80.6292
21
-123.21
0
LINE
8
BLACK
6
CONTINUOUS
10
80.6292
20
-123.21
11
80.6285
21
-123.209
0
LINE
8
BLACK
6
CONTINUOUS
10
80.6285
20
-123.209
11
80.6276
21
-123.208
0
LINE
8
BLACK
6
CONTINUOUS
10
80.6276
20
-123.208
11
80.6267
21
-123.207
0
LINE
8
BLACK
6
CONTINUOUS
10
80.6267
20
-123.207
11
80.6266
21
-123.207
0
LINE
8
BLACK
6
CONTINUOUS
10
80.6266
20
-123.207
11
80.6259
21
-123.206
0
LINE
8
BLACK
6
CONTINUOUS
10
80.6259
20
-123.206
11
80.6244
21
-123.204
0
LINE
8
BLACK
6
CONTINUOUS
10
80.6244
20
-123.204
11
80.6243
21
-123.204
0
LINE
8
BLACK
6
CONTINUOUS
10
80.6243
20
-123.204
11
77.451
21
-119.396
0
LINE
8
BLACK
6
CONTINUOUS
10
77.451
20
-119.396
11
77.4497
21
-119.395
0
LINE
8
BLACK
6
CONTINUOUS
10
77.4497
20
-119.395
11
77.4489
21
-119.393
0
LINE
8
BLACK
6
CONTINUOUS
10
77.4489
20
-119.393
11
77.4479
21
-119.392
0
LINE
8
BLACK
6
CONTINUOUS
10
77.4479
20
-119.392
11
77.4476
21
-119.391
0
LINE
8
BLACK
6
CONTINUOUS
10
77.4476
20
-119.391
11
77.4472
21
-119.391
0
LINE
8
BLACK
6
CONTINUOUS
10
77.4472
20
-119.391
11
77.4467
21
-119.389
0
LINE
8
BLACK
6
CONTINUOUS
10
77.4467
20
-119.389
11
77.446
21
-119.387
0
LINE
8
BLACK
6
CONTINUOUS
10
77.446
20
-119.387
11
77.4459
21
-119.387
0
LINE
8
BLACK
6
CONTINUOUS
10
77.4459
20
-119.387
11
77.4456
21
-119.386
0
LINE
8
BLACK
6
CONTINUOUS
10
77.4456
20
-119.386
11
77.4454
21
-119.384
0
LINE
8
BLACK
6
CONTINUOUS
10
77.4454
20
-119.384
11
77.445
21
-119.383
0
LINE
8
BLACK
6
CONTINUOUS
10
77.445
20
-119.383
11
77.445
21
-119.382
0
LINE
8
BLACK
6
CONTINUOUS
10
77.445
20
-119.382
11
77.4449
21
-119.381
0
LINE
8
BLACK
6
CONTINUOUS
10
77.4449
20
-119.381
11
77.445
21
-119.379
0
LINE
8
BLACK
6
CONTINUOUS
10
77.445
20
-119.379
11
77.445
21
-119.378
0
LINE
8
BLACK
6
CONTINUOUS
10
77.445
20
-119.378
11
77.4454
21
-119.376
0
LINE
8
BLACK
6
CONTINUOUS
10
77.4454
20
-119.376
11
79.3491
21
-107.319
0
LINE
8
BLACK
6
CONTINUOUS
10
79.3491
20
-107.319
11
77.4533
21
-103.528
0
LINE
8
BLACK
6
CONTINUOUS
10
77.4533
20
-103.528
11
27.3033
21
-95.2751
0
LINE
8
BLACK
6
CONTINUOUS
10
27.3033
20
-95.2751
11
27.3032
21
-95.2751
0
LINE
8
BLACK
6
CONTINUOUS
10
27.3032
20
-95.2751
11
27.3009
21
-95.2747
0
LINE
8
BLACK
6
CONTINUOUS
10
27.3009
20
-95.2747
11
27.2997
21
-95.2745
0
LINE
8
BLACK
6
CONTINUOUS
10
27.2997
20
-95.2745
11
27.2997
21
-95.2745
0
LINE
8
BLACK
6
CONTINUOUS
10
27.2997
20
-95.2745
11
27.2984
21
-95.2742
0
LINE
8
BLACK
6
CONTINUOUS
10
27.2984
20
-95.2742
11
27.2973
21
-95.2738
0
LINE
8
BLACK
6
CONTINUOUS
10
27.2973
20
-95.2738
11
27.2962
21
-95.2735
0
LINE
8
BLACK
6
CONTINUOUS
10
27.2962
20
-95.2735
11
27.295
21
-95.2729
0
LINE
8
BLACK
6
CONTINUOUS
10
27.295
20
-95.2729
11
27.2938
21
-95.2725
0
LINE
8
BLACK
6
CONTINUOUS
10
27.2938
20
-95.2725
11
27.2928
21
-95.2719
0
LINE
8
BLACK
6
CONTINUOUS
10
27.2928
20
-95.2719
11
27.2917
21
-95.2713
0
LINE
8
BLACK
6
CONTINUOUS
10
27.2917
20
-95.2713
11
27.2907
21
-95.2706
0
LINE
8
BLACK
6
CONTINUOUS
10
27.2907
20
-95.2706
11
27.2896
21
-95.2699
0
LINE
8
BLACK
6
CONTINUOUS
10
27.2896
20
-95.2699
11
27.2888
21
-95.2691
0
LINE
8
BLACK
6
CONTINUOUS
10
27.2888
20
-95.2691
11
27.2878
21
-95.2683
0
LINE
8
BLACK
6
CONTINUOUS
10
27.2878
20
-95.2683
11
27.287
21
-95.2674
0
LINE
8
BLACK
6
CONTINUOUS
10
27.287
20
-95.2674
11
27.286
21
-95.2665
0
LINE
8
BLACK
6
CONTINUOUS
10
27.286
20
-95.2665
11
27.2854
21
-95.2655
0
LINE
8
BLACK
6
CONTINUOUS
10
27.2854
20
-95.2655
11
27.2846
21
-95.2646
0
LINE
8
BLACK
6
CONTINUOUS
10
27.2846
20
-95.2646
11
27.2839
21
-95.2635
0
LINE
8
BLACK
6
CONTINUOUS
10
27.2839
20
-95.2635
11
27.2839
21
-95.2635
0
LINE
8
BLACK
6
CONTINUOUS
10
27.2839
20
-95.2635
11
27.2832
21
-95.2622
0
LINE
8
BLACK
6
CONTINUOUS
10
27.2832
20
-95.2622
11
27.2821
21
-95.2604
0
LINE
8
BLACK
6
CONTINUOUS
10
27.2821
20
-95.2604
11
27.2821
21
-95.2603
0
LINE
8
BLACK
6
CONTINUOUS
10
27.2821
20
-95.2603
11
24.7444
21
-90.8193
0
LINE
8
BLACK
6
CONTINUOUS
10
24.7444
20
-90.8193
11
24.7443
21
-90.8192
0
LINE
8
BLACK
6
CONTINUOUS
10
24.7443
20
-90.8192
11
24.7432
21
-90.8172
0
LINE
8
BLACK
6
CONTINUOUS
10
24.7432
20
-90.8172
11
24.7427
21
-90.8163
0
LINE
8
BLACK
6
CONTINUOUS
10
24.7427
20
-90.8163
11
24.7426
21
-90.8161
0
LINE
8
BLACK
6
CONTINUOUS
10
24.7426
20
-90.8161
11
24.7419
21
-90.8149
0
LINE
8
BLACK
6
CONTINUOUS
10
24.7419
20
-90.8149
11
24.7416
21
-90.8139
0
LINE
8
BLACK
6
CONTINUOUS
10
24.7416
20
-90.8139
11
24.7412
21
-90.813
0
LINE
8
BLACK
6
CONTINUOUS
10
24.7412
20
-90.813
11
24.7409
21
-90.8115
0
LINE
8
BLACK
6
CONTINUOUS
10
24.7409
20
-90.8115
11
24.7404
21
-90.8102
0
LINE
8
BLACK
6
CONTINUOUS
10
24.7404
20
-90.8102
11
24.7403
21
-90.8092
0
LINE
8
BLACK
6
CONTINUOUS
10
24.7403
20
-90.8092
11
24.7401
21
-90.8082
0
LINE
8
BLACK
6
CONTINUOUS
10
24.7401
20
-90.8082
11
24.74
21
-90.8067
0
LINE
8
BLACK
6
CONTINUOUS
10
24.74
20
-90.8067
11
24.7399
21
-90.8053
0
LINE
8
BLACK
6
CONTINUOUS
10
24.7399
20
-90.8053
11
24.74
21
-90.8043
0
LINE
8
BLACK
6
CONTINUOUS
10
24.74
20
-90.8043
11
24.7399
21
-90.8032
0
LINE
8
BLACK
6
CONTINUOUS
10
24.7399
20
-90.8032
11
24.7402
21
-90.8018
0
LINE
8
BLACK
6
CONTINUOUS
10
24.7402
20
-90.8018
11
24.7402
21
-90.8016
0
LINE
8
BLACK
6
CONTINUOUS
10
24.7402
20
-90.8016
11
24.7404
21
-90.8006
0
LINE
8
BLACK
6
CONTINUOUS
10
24.7404
20
-90.8006
11
24.7408
21
-90.7984
0
LINE
8
BLACK
6
CONTINUOUS
10
24.7408
20
-90.7984
11
24.7408
21
-90.7982
0
LINE
8
BLACK
6
CONTINUOUS
10
24.7408
20
-90.7982
11
34.9001
21
-36.8271
0
LINE
8
BLACK
6
CONTINUOUS
10
34.9001
20
-36.8271
11
34.9001
21
-36.8264
0
LINE
8
BLACK
6
CONTINUOUS
10
34.9001
20
-36.8264
11
34.9006
21
-36.8247
0
LINE
8
BLACK
6
CONTINUOUS
10
34.9006
20
-36.8247
11
34.9007
21
-36.8242
0
LINE
8
BLACK
6
CONTINUOUS
10
34.9007
20
-36.8242
11
34.9008
21
-36.8235
0
LINE
8
BLACK
6
CONTINUOUS
10
34.9008
20
-36.8235
11
34.9013
21
-36.8217
0
LINE
8
BLACK
6
CONTINUOUS
10
34.9013
20
-36.8217
11
34.9015
21
-36.8212
0
LINE
8
BLACK
6
CONTINUOUS
10
34.9015
20
-36.8212
11
34.9017
21
-36.8206
0
LINE
8
BLACK
6
CONTINUOUS
10
34.9017
20
-36.8206
11
34.9026
21
-36.8189
0
LINE
8
BLACK
6
CONTINUOUS
10
34.9026
20
-36.8189
11
34.9034
21
-36.8172
0
LINE
8
BLACK
6
CONTINUOUS
10
34.9034
20
-36.8172
11
34.9037
21
-36.8168
0
LINE
8
BLACK
6
CONTINUOUS
10
34.9037
20
-36.8168
11
34.904
21
-36.8163
0
LINE
8
BLACK
6
CONTINUOUS
10
34.904
20
-36.8163
11
34.9052
21
-36.8148
0
LINE
8
BLACK
6
CONTINUOUS
10
34.9052
20
-36.8148
11
34.9063
21
-36.8132
0
LINE
8
BLACK
6
CONTINUOUS
10
34.9063
20
-36.8132
11
34.9067
21
-36.8129
0
LINE
8
BLACK
6
CONTINUOUS
10
34.9067
20
-36.8129
11
34.9071
21
-36.8124
0
LINE
8
BLACK
6
CONTINUOUS
10
34.9071
20
-36.8124
11
34.9085
21
-36.8112
0
LINE
8
BLACK
6
CONTINUOUS
10
34.9085
20
-36.8112
11
34.909
21
-36.8107
0
LINE
8
BLACK
6
CONTINUOUS
10
34.909
20
-36.8107
11
34.9095
21
-36.8104
0
LINE
8
BLACK
6
CONTINUOUS
10
34.9095
20
-36.8104
11
34.9108
21
-36.8093
0
LINE
8
BLACK
6
CONTINUOUS
10
34.9108
20
-36.8093
11
34.9114
21
-36.8089
0
LINE
8
BLACK
6
CONTINUOUS
10
34.9114
20
-36.8089
11
37.4494
21
-34.9055
0
LINE
8
BLACK
6
CONTINUOUS
10
37.4494
20
-34.9055
11
37.4507
21
-34.9044
0
LINE
8
BLACK
6
CONTINUOUS
10
37.4507
20
-34.9044
11
37.4524
21
-34.9034
0
LINE
8
BLACK
6
CONTINUOUS
10
37.4524
20
-34.9034
11
37.4541
21
-34.9023
0
LINE
8
BLACK
6
CONTINUOUS
10
37.4541
20
-34.9023
11
37.4546
21
-34.9022
0
LINE
8
BLACK
6
CONTINUOUS
10
37.4546
20
-34.9022
11
37.455
21
-34.902
0
LINE
8
BLACK
6
CONTINUOUS
10
37.455
20
-34.902
11
37.4569
21
-34.9014
0
LINE
8
BLACK
6
CONTINUOUS
10
37.4569
20
-34.9014
11
37.4588
21
-34.9007
0
LINE
8
BLACK
6
CONTINUOUS
10
37.4588
20
-34.9007
11
37.4592
21
-34.9006
0
LINE
8
BLACK
6
CONTINUOUS
10
37.4592
20
-34.9006
11
37.4597
21
-34.9005
0
LINE
8
BLACK
6
CONTINUOUS
10
37.4597
20
-34.9005
11
37.4616
21
-34.9002
0
LINE
8
BLACK
6
CONTINUOUS
10
37.4616
20
-34.9002
11
37.4636
21
-34.8999
0
LINE
8
BLACK
6
CONTINUOUS
10
37.4636
20
-34.8999
11
37.4641
21
-34.8999
0
LINE
8
BLACK
6
CONTINUOUS
10
37.4641
20
-34.8999
11
37.4646
21
-34.8999
0
LINE
8
BLACK
6
CONTINUOUS
10
37.4646
20
-34.8999
11
37.4665
21
-34.9
0
LINE
8
BLACK
6
CONTINUOUS
10
37.4665
20
-34.9
11
37.4686
21
-34.9001
0
LINE
8
BLACK
6
CONTINUOUS
10
37.4686
20
-34.9001
11
37.4702
21
-34.9005
0
LINE
8
BLACK
6
CONTINUOUS
10
37.4702
20
-34.9005
11
135.892
21
-52.68
0
LINE
8
BLACK
6
CONTINUOUS
10
135.892
20
-52.68
11
153.668
21
-52.68
0
LINE
8
BLACK
6
CONTINUOUS
10
153.668
20
-52.68
11
250.819
21
-34.9008
0
LINE
8
BLACK
6
CONTINUOUS
10
250.819
20
-34.9008
11
250.819
21
-34.9006
0
LINE
8
BLACK
6
CONTINUOUS
10
250.819
20
-34.9006
11
250.821
21
-34.9003
0
LINE
8
BLACK
6
CONTINUOUS
10
250.821
20
-34.9003
11
250.822
21
-34.9002
0
LINE
8
BLACK
6
CONTINUOUS
10
250.822
20
-34.9002
11
250.822
21
-34.9002
0
LINE
8
BLACK
6
CONTINUOUS
10
250.822
20
-34.9002
11
250.824
21
-34.8999
0
LINE
8
BLACK
6
CONTINUOUS
10
250.824
20
-34.8999
11
250.825
21
-34.8999
0
LINE
8
BLACK
6
CONTINUOUS
10
250.825
20
-34.8999
11
250.825
21
-34.8999
0
LINE
8
BLACK
6
CONTINUOUS
10
250.825
20
-34.8999
11
250.827
21
-34.9001
0
LINE
8
BLACK
6
CONTINUOUS
10
153.676
20
-52.7293
11
153.675
21
-52.7296
0
LINE
8
BLACK
6
CONTINUOUS
10
153.675
20
-52.7296
11
153.673
21
-52.7298
0
LINE
8
BLACK
6
CONTINUOUS
10
153.673
20
-52.7298
11
153.673
21
-52.7298
0
LINE
8
BLACK
6
CONTINUOUS
10
153.673
20
-52.7298
11
153.672
21
-52.7299
0
LINE
8
BLACK
6
CONTINUOUS
10
153.672
20
-52.7299
11
153.671
21
-52.73
0
LINE
8
BLACK
6
CONTINUOUS
10
153.671
20
-52.73
11
153.671
21
-52.73
0
LINE
8
BLACK
6
CONTINUOUS
10
153.671
20
-52.73
11
153.67
21
-52.7301
0
LINE
8
BLACK
6
CONTINUOUS
10
153.67
20
-52.7301
11
153.669
21
-52.73
0
LINE
8
BLACK
6
CONTINUOUS
10
153.669
20
-52.73
11
135.891
21
-52.73
0
LINE
8
BLACK
6
CONTINUOUS
10
135.891
20
-52.73
11
135.89
21
-52.7301
0
LINE
8
BLACK
6
CONTINUOUS
10
135.89
20
-52.7301
11
135.889
21
-52.73
0
LINE
8
BLACK
6
CONTINUOUS
10
135.889
20
-52.73
11
135.889
21
-52.73
0
LINE
8
BLACK
6
CONTINUOUS
10
135.889
20
-52.73
11
135.888
21
-52.7299
0
LINE
8
BLACK
6
CONTINUOUS
10
135.888
20
-52.7299
11
135.887
21
-52.7298
0
LINE
8
BLACK
6
CONTINUOUS
10
135.887
20
-52.7298
11
135.887
21
-52.7298
0
LINE
8
BLACK
6
CONTINUOUS
10
135.887
20
-52.7298
11
135.885
21
-52.7296
0
LINE
8
BLACK
6
CONTINUOUS
10
135.885
20
-52.7296
11
135.884
21
-52.7293
0
LINE
8
BLACK
6
CONTINUOUS
10
135.884
20
-52.7293
11
37.4713
21
-34.9515
0
LINE
8
BLACK
6
CONTINUOUS
10
37.4713
20
-34.9515
11
34.9478
21
-36.8442
0
LINE
8
BLACK
6
CONTINUOUS
10
34.9478
20
-36.8442
11
24.7913
21
-90.8006
0
LINE
8
BLACK
6
CONTINUOUS
10
24.7913
20
-90.8006
11
27.3208
21
-95.2273
0
LINE
8
BLACK
6
CONTINUOUS
10
27.3208
20
-95.2273
11
77.4724
21
-103.48
0
LINE
8
BLACK
6
CONTINUOUS
10
77.4724
20
-103.48
11
77.4731
21
-103.48
0
LINE
8
BLACK
6
CONTINUOUS
10
77.4731
20
-103.48
11
77.4748
21
-103.48
0
LINE
8
BLACK
6
CONTINUOUS
10
77.4748
20
-103.48
11
77.4753
21
-103.481
0
LINE
8
BLACK
6
CONTINUOUS
10
77.4753
20
-103.481
11
77.476
21
-103.481
0
LINE
8
BLACK
6
CONTINUOUS
10
77.476
20
-103.481
11
77.4779
21
-103.481
0
LINE
8
BLACK
6
CONTINUOUS
10
77.4779
20
-103.481
11
77.4784
21
-103.481
0
LINE
8
BLACK
6
CONTINUOUS
10
77.4784
20
-103.481
11
77.4788
21
-103.481
0
LINE
8
BLACK
6
CONTINUOUS
10
77.4788
20
-103.481
11
77.4806
21
-103.482
0
LINE
8
BLACK
6
CONTINUOUS
10
77.4806
20
-103.482
11
77.4824
21
-103.483
0
LINE
8
BLACK
6
CONTINUOUS
10
77.4824
20
-103.483
11
77.4828
21
-103.483
0
LINE
8
BLACK
6
CONTINUOUS
10
77.4828
20
-103.483
11
77.4833
21
-103.484
0
LINE
8
BLACK
6
CONTINUOUS
10
77.4833
20
-103.484
11
77.4849
21
-103.485
0
LINE
8
BLACK
6
CONTINUOUS
10
77.4849
20
-103.485
11
77.4865
21
-103.486
0
LINE
8
BLACK
6
CONTINUOUS
10
77.4865
20
-103.486
11
77.4868
21
-103.486
0
LINE
8
BLACK
6
CONTINUOUS
10
77.4868
20
-103.486
11
77.4872
21
-103.487
0
LINE
8
BLACK
6
CONTINUOUS
10
77.4872
20
-103.487
11
77.4885
21
-103.488
0
LINE
8
BLACK
6
CONTINUOUS
10
77.4885
20
-103.488
11
77.4898
21
-103.49
0
LINE
8
BLACK
6
CONTINUOUS
10
77.4898
20
-103.49
11
77.4901
21
-103.49
0
LINE
8
BLACK
6
CONTINUOUS
10
77.4901
20
-103.49
11
77.4904
21
-103.49
0
LINE
8
BLACK
6
CONTINUOUS
10
77.4904
20
-103.49
11
77.4914
21
-103.492
0
LINE
8
BLACK
6
CONTINUOUS
10
77.4914
20
-103.492
11
77.4918
21
-103.493
0
LINE
8
BLACK
6
CONTINUOUS
10
77.4918
20
-103.493
11
77.492
21
-103.493
0
LINE
8
BLACK
6
CONTINUOUS
10
77.492
20
-103.493
11
77.4929
21
-103.495
0
LINE
8
BLACK
6
CONTINUOUS
10
77.4929
20
-103.495
11
77.4931
21
-103.495
0
LINE
8
BLACK
6
CONTINUOUS
10
77.4931
20
-103.495
11
79.397
21
-107.303
0
LINE
8
BLACK
6
CONTINUOUS
10
79.397
20
-107.303
11
79.3978
21
-107.304
0
LINE
8
BLACK
6
CONTINUOUS
10
79.3978
20
-107.304
11
79.3985
21
-107.306
0
LINE
8
BLACK
6
CONTINUOUS
10
79.3985
20
-107.306
11
79.3992
21
-107.308
0
LINE
8
BLACK
6
CONTINUOUS
10
79.3992
20
-107.308
11
79.3993
21
-107.309
0
LINE
8
BLACK
6
CONTINUOUS
10
79.3993
20
-107.309
11
79.3994
21
-107.309
0
LINE
8
BLACK
6
CONTINUOUS
10
79.3994
20
-107.309
11
79.3997
21
-107.311
0
LINE
8
BLACK
6
CONTINUOUS
10
79.3997
20
-107.311
11
79.4001
21
-107.313
0
LINE
8
BLACK
6
CONTINUOUS
10
79.4001
20
-107.313
11
79.4
21
-107.314
0
LINE
8
BLACK
6
CONTINUOUS
10
79.4
20
-107.314
11
79.4001
21
-107.314
0
LINE
8
BLACK
6
CONTINUOUS
10
79.4001
20
-107.314
11
79.4
21
-107.316
0
LINE
8
BLACK
6
CONTINUOUS
10
79.4
20
-107.316
11
79.3999
21
-107.318
0
LINE
8
BLACK
6
CONTINUOUS
10
79.3999
20
-107.318
11
79.3996
21
-107.32
0
LINE
8
BLACK
6
CONTINUOUS
10
79.3996
20
-107.32
11
77.4965
21
-119.373
0
LINE
8
BLACK
6
CONTINUOUS
10
77.4965
20
-119.373
11
80.6583
21
-123.167
0
LINE
8
BLACK
6
CONTINUOUS
10
80.6583
20
-123.167
11
116.842
21
-129.515
0
LINE
8
BLACK
6
CONTINUOUS
10
116.842
20
-129.515
11
172.718
21
-129.515
0
LINE
8
BLACK
6
CONTINUOUS
10
172.718
20
-129.515
11
208.898
21
-122.533
0
LINE
8
BLACK
6
CONTINUOUS
10
208.898
20
-122.533
11
210.159
21
-120.011
0
LINE
8
BLACK
6
CONTINUOUS
10
210.159
20
-120.011
11
207.621
21
-104.781
0
LINE
8
BLACK
6
CONTINUOUS
10
207.621
20
-104.781
11
207.62
21
-104.78
0
LINE
8
BLACK
6
CONTINUOUS
10
207.62
20
-104.78
11
207.62
21
-104.778
0
LINE
8
BLACK
6
CONTINUOUS
10
207.62
20
-104.778
11
207.62
21
-104.778
0
LINE
8
BLACK
6
CONTINUOUS
10
207.62
20
-104.778
11
207.62
21
-104.777
0
LINE
8
BLACK
6
CONTINUOUS
10
207.62
20
-104.777
11
207.62
21
-104.775
0
LINE
8
BLACK
6
CONTINUOUS
10
207.62
20
-104.775
11
207.62
21
-104.775
0
LINE
8
BLACK
6
CONTINUOUS
10
207.62
20
-104.775
11
207.62
21
-104.774
0
LINE
8
BLACK
6
CONTINUOUS
10
207.62
20
-104.774
11
207.62
21
-104.772
0
LINE
8
BLACK
6
CONTINUOUS
10
207.62
20
-104.772
11
207.62
21
-104.77
0
LINE
8
BLACK
6
CONTINUOUS
10
207.62
20
-104.77
11
207.62
21
-104.77
0
LINE
8
BLACK
6
CONTINUOUS
10
207.62
20
-104.77
11
207.621
21
-104.769
0
LINE
8
BLACK
6
CONTINUOUS
10
207.621
20
-104.769
11
207.621
21
-104.767
0
LINE
8
BLACK
6
CONTINUOUS
10
207.621
20
-104.767
11
207.622
21
-104.765
0
LINE
8
BLACK
6
CONTINUOUS
10
207.622
20
-104.765
11
207.622
21
-104.765
0
LINE
8
BLACK
6
CONTINUOUS
10
207.622
20
-104.765
11
207.622
21
-104.765
0
LINE
8
BLACK
6
CONTINUOUS
10
207.622
20
-104.765
11
207.623
21
-104.763
0
LINE
8
BLACK
6
CONTINUOUS
10
207.623
20
-104.763
11
207.624
21
-104.761
0
LINE
8
BLACK
6
CONTINUOUS
10
207.624
20
-104.761
11
207.624
21
-104.761
0
LINE
8
BLACK
6
CONTINUOUS
10
207.624
20
-104.761
11
207.625
21
-104.76
0
LINE
8
BLACK
6
CONTINUOUS
10
207.625
20
-104.76
11
207.626
21
-104.759
0
LINE
8
BLACK
6
CONTINUOUS
10
207.626
20
-104.759
11
207.626
21
-104.758
0
LINE
8
BLACK
6
CONTINUOUS
10
207.626
20
-104.758
11
207.627
21
-104.758
0
LINE
8
BLACK
6
CONTINUOUS
10
207.627
20
-104.758
11
207.628
21
-104.757
0
LINE
8
BLACK
6
CONTINUOUS
10
207.628
20
-104.757
11
207.628
21
-104.756
0
LINE
8
BLACK
6
CONTINUOUS
10
207.628
20
-104.756
11
209.532
21
-102.853
0
LINE
8
BLACK
6
CONTINUOUS
10
209.532
20
-102.853
11
209.533
21
-102.852
0
LINE
8
BLACK
6
CONTINUOUS
10
209.533
20
-102.852
11
209.534
21
-102.85
0
LINE
8
BLACK
6
CONTINUOUS
10
209.534
20
-102.85
11
209.536
21
-102.849
0
LINE
8
BLACK
6
CONTINUOUS
10
209.536
20
-102.849
11
209.536
21
-102.849
0
LINE
8
BLACK
6
CONTINUOUS
10
209.536
20
-102.849
11
209.537
21
-102.849
0
LINE
8
BLACK
6
CONTINUOUS
10
209.537
20
-102.849
11
209.538
21
-102.848
0
LINE
8
BLACK
6
CONTINUOUS
10
209.538
20
-102.848
11
209.54
21
-102.847
0
LINE
8
BLACK
6
CONTINUOUS
10
209.54
20
-102.847
11
209.541
21
-102.847
0
LINE
8
BLACK
6
CONTINUOUS
10
209.541
20
-102.847
11
209.541
21
-102.847
0
LINE
8
BLACK
6
CONTINUOUS
10
209.541
20
-102.847
11
209.543
21
-102.846
0
LINE
8
BLACK
6
CONTINUOUS
10
209.543
20
-102.846
11
209.545
21
-102.845
0
LINE
8
BLACK
6
CONTINUOUS
10
209.545
20
-102.845
11
209.547
21
-102.845
0
LINE
8
BLACK
6
CONTINUOUS
10
209.547
20
-102.845
11
261.605
21
-93.9572
0
LINE
8
BLACK
6
CONTINUOUS
10
261.605
20
-93.9572
11
262.864
21
-92.0693
0
LINE
8
BLACK
6
CONTINUOUS
10
262.864
20
-92.0693
11
253.977
21
-36.8455
0
LINE
8
BLACK
6
CONTINUOUS
10
253.977
20
-36.8455
11
250.82
21
-34.9513
0
LINE
8
BLACK
6
CONTINUOUS
10
250.82
20
-34.9513
11
153.676
21
-52.7293
  0
ENDSEC
  0
EOF
