G04 #@! TF.GenerationSoftware,KiCad,Pcbnew,5.1.7*
G04 #@! TF.CreationDate,2020-10-25T02:46:25-04:00*
G04 #@! TF.ProjectId,pcb,7063622e-6b69-4636-9164-5f7063625858,rev?*
G04 #@! TF.SameCoordinates,Original*
G04 #@! TF.FileFunction,Soldermask,Top*
G04 #@! TF.FilePolarity,Negative*
%FSLAX46Y46*%
G04 Gerber Fmt 4.6, Leading zero omitted, Abs format (unit mm)*
G04 Created by KiCad (PCBNEW 5.1.7) date 2020-10-25 02:46:25*
%MOMM*%
%LPD*%
G01*
G04 APERTURE LIST*
%ADD10R,2.000000X2.000000*%
%ADD11C,2.000000*%
%ADD12R,2.000000X3.200000*%
%ADD13C,1.750000*%
%ADD14C,3.987800*%
%ADD15C,3.048000*%
%ADD16C,1.397000*%
%ADD17O,1.000000X1.600000*%
%ADD18C,0.650000*%
%ADD19O,1.000000X2.100000*%
G04 APERTURE END LIST*
D10*
X137200000Y-127642000D03*
D11*
X139700000Y-127642000D03*
X142200000Y-127642000D03*
D12*
X134100000Y-120142000D03*
X145300000Y-120142000D03*
D11*
X137200000Y-113142000D03*
X142200000Y-113142000D03*
D13*
X250496657Y-119362094D03*
X240491011Y-121126360D03*
D14*
X245493834Y-120244227D03*
D13*
X247188660Y-100601507D03*
X237183014Y-102365773D03*
D14*
X242185837Y-101483640D03*
D13*
X243880662Y-81840919D03*
X233875016Y-83605185D03*
D14*
X238877839Y-82723052D03*
D13*
X231736070Y-122670092D03*
X221730424Y-124434358D03*
D14*
X226733247Y-123552225D03*
D13*
X228428072Y-103909504D03*
X218422426Y-105673770D03*
D14*
X223425249Y-104791637D03*
D13*
X225120074Y-85148917D03*
X215114428Y-86913183D03*
D14*
X220117251Y-86031050D03*
D13*
X212975482Y-125978090D03*
X202969836Y-127742356D03*
D14*
X207972659Y-126860223D03*
D13*
X209667484Y-107217502D03*
X199661838Y-108981768D03*
D14*
X204664661Y-108099635D03*
D13*
X206359486Y-88456915D03*
X196353840Y-90221181D03*
D14*
X201356663Y-89339048D03*
D13*
X194214894Y-129286088D03*
X184209248Y-131050354D03*
D14*
X189212071Y-130168221D03*
D13*
X190906896Y-110525500D03*
X180901250Y-112289766D03*
D14*
X185904073Y-111407633D03*
D13*
X187598899Y-91764912D03*
X177593253Y-93529178D03*
D14*
X182596076Y-92647045D03*
X196298608Y-156644896D03*
X172847873Y-160779894D03*
D15*
X193652210Y-141636426D03*
X170201475Y-145771423D03*
D13*
X188142598Y-149700674D03*
X178136952Y-151464940D03*
D14*
X183139775Y-150582807D03*
D13*
X175454307Y-132594086D03*
X165448661Y-134358352D03*
D14*
X170451484Y-133476219D03*
D13*
X172146309Y-113833498D03*
X162140663Y-115597764D03*
D14*
X167143486Y-114715631D03*
D13*
X168838311Y-95072910D03*
X158832665Y-96837176D03*
D14*
X163835488Y-95955043D03*
X104964627Y-160779894D03*
X81513892Y-156644896D03*
D15*
X107611025Y-145771423D03*
X84160290Y-141636426D03*
D13*
X99675548Y-151464940D03*
X89669902Y-149700674D03*
D14*
X94672725Y-150582807D03*
D13*
X112363839Y-134358352D03*
X102358193Y-132594086D03*
D14*
X107361016Y-133476219D03*
D13*
X115671837Y-115597764D03*
X105666191Y-113833498D03*
D14*
X110669014Y-114715631D03*
D13*
X118979835Y-96837176D03*
X108974189Y-95072910D03*
D14*
X113977012Y-95955043D03*
D13*
X93603252Y-131050354D03*
X83597606Y-129286088D03*
D14*
X88600429Y-130168221D03*
D13*
X96911250Y-112289766D03*
X86905604Y-110525500D03*
D14*
X91908427Y-111407633D03*
D13*
X100219247Y-93529178D03*
X90213601Y-91764912D03*
D14*
X95216424Y-92647045D03*
D13*
X74842664Y-127742356D03*
X64837018Y-125978090D03*
D14*
X69839841Y-126860223D03*
D13*
X78150662Y-108981768D03*
X68145016Y-107217502D03*
D14*
X73147839Y-108099635D03*
D13*
X81458660Y-90221181D03*
X71453014Y-88456915D03*
D14*
X76455837Y-89339048D03*
D13*
X56082076Y-124434358D03*
X46076430Y-122670092D03*
D14*
X51079253Y-123552225D03*
D13*
X59390074Y-105673770D03*
X49384428Y-103909504D03*
D14*
X54387251Y-104791637D03*
D13*
X62698072Y-86913183D03*
X52692426Y-85148917D03*
D14*
X57695249Y-86031050D03*
D13*
X37321489Y-121126360D03*
X27315843Y-119362094D03*
D14*
X32318666Y-120244227D03*
D13*
X40629486Y-102365773D03*
X30623840Y-100601507D03*
D14*
X35626663Y-101483640D03*
D13*
X43937484Y-83605185D03*
X33931838Y-81840919D03*
D14*
X38934661Y-82723052D03*
D11*
X122270000Y-161440000D03*
X128770000Y-161440000D03*
D16*
X135890000Y-156210000D03*
X138430000Y-156210000D03*
X140970000Y-156210000D03*
X143510000Y-156210000D03*
D17*
X143340000Y-91070000D03*
D18*
X141910000Y-94720000D03*
D17*
X134700000Y-91070000D03*
D18*
X136130000Y-94720000D03*
D19*
X134700000Y-95250000D03*
X143340000Y-95250000D03*
M02*
