M48
; DRILL file {KiCad 5.1.8} date Sat Nov  7 11:10:46 2020
; FORMAT={-:-/ absolute / inch / decimal}
; #@! TF.CreationDate,2020-11-07T11:10:46-05:00
; #@! TF.GenerationSoftware,Kicad,Pcbnew,5.1.8
; #@! TF.FileFunction,NonPlated,1,2,NPTH
FMAT,2
INCH
T1C0.0689
T2C0.1200
T3C0.1570
%
G90
G05
T1
X1.4856Y-2.5565
X1.8795Y-2.626
X3.8301Y-2.2091
X4.224Y-2.2785
X9.5336Y-2.6374
X9.9275Y-2.5679
X2.3547Y-1.9482
X2.7486Y-2.0177
X2.835Y-3.5545
X3.2289Y-3.624
X8.7944Y-2.7683
X9.1883Y-2.6989
X9.6625Y-3.3736
X10.0564Y-3.3042
X4.3075Y-3.8164
X4.7014Y-3.8858
X7.3141Y-3.0301
X7.708Y-2.9607
X1.3547Y-3.2957
X1.7486Y-3.3651
X3.5712Y-3.6845
X3.9652Y-3.7539
X3.7002Y-2.9473
X4.0941Y-3.0167
X2.0949Y-3.4256
X2.4888Y-3.4951
X2.2248Y-2.6864
X2.6187Y-2.7559
X8.0552Y-2.8982
X8.4491Y-2.8288
X8.663Y-2.031
X9.057Y-1.9615
X6.442Y-2.4199
X6.8359Y-2.3504
X7.1822Y-2.289
X7.5761Y-2.2195
X7.4469Y-3.7663
X7.8409Y-3.6969
X1.6165Y-1.8183
X2.0104Y-1.8878
X9.4026Y-1.903
X9.7966Y-1.8336
X7.2058Y-4.5705
X7.5997Y-4.501
X6.5741Y-3.1597
X6.968Y-3.0903
X3.8075Y-4.4915
X4.2014Y-4.561
X6.7048Y-3.8972
X7.0987Y-3.8278
X7.9233Y-2.1581
X8.3172Y-2.0886
X3.0919Y-2.0782
X3.4858Y-2.1476
X2.963Y-2.8164
X3.3569Y-2.8858
X4.5683Y-2.339
X4.9622Y-2.4085
X8.9233Y-3.5055
X9.3172Y-3.4361
X4.4374Y-3.0782
X4.8313Y-3.1476
X8.1861Y-3.6354
X8.58Y-3.566
T2
X6.8934Y-4.3463
X7.8166Y-4.1835
X3.5906Y-4.1741
X4.5138Y-4.3369
T3
X1.6826Y-2.5912
X4.0271Y-2.2438
X9.7305Y-2.6027
X2.5517Y-1.983
X3.032Y-3.5893
X8.9913Y-2.7336
X9.8594Y-3.3389
X4.5044Y-3.8511
X7.511Y-2.9954
X1.5517Y-3.3304
X3.7682Y-3.7192
X3.8971Y-2.982
X2.2918Y-3.4603
X2.4218Y-2.7212
X8.2522Y-2.8635
X8.86Y-1.9963
X6.639Y-2.3852
X7.3791Y-2.2543
X7.6439Y-3.7316
X1.8135Y-1.8531
X9.5996Y-1.8683
X6.9976Y-4.9372
X7.4028Y-4.5357
X7.9208Y-4.7744
X6.771Y-3.125
X3.4864Y-4.7649
X4.0044Y-4.5263
X4.4096Y-4.9277
X6.9018Y-3.8625
X8.1203Y-2.1233
X3.2889Y-2.1129
X3.1599Y-2.8511
X4.7653Y-2.3737
X9.1203Y-3.4708
X4.6344Y-3.1129
X8.3831Y-3.6007
T0
M30
