G04 #@! TF.GenerationSoftware,KiCad,Pcbnew,5.1.4*
G04 #@! TF.CreationDate,2020-08-17T23:01:33-04:00*
G04 #@! TF.ProjectId,pcb,7063622e-6b69-4636-9164-5f7063625858,rev?*
G04 #@! TF.SameCoordinates,Original*
G04 #@! TF.FileFunction,Soldermask,Top*
G04 #@! TF.FilePolarity,Negative*
%FSLAX46Y46*%
G04 Gerber Fmt 4.6, Leading zero omitted, Abs format (unit mm)*
G04 Created by KiCad (PCBNEW 5.1.4) date 2020-08-17 23:01:33*
%MOMM*%
%LPD*%
G04 APERTURE LIST*
%ADD10C,0.100000*%
G04 APERTURE END LIST*
D10*
G36*
X178334572Y-123438771D02*
G01*
X178552572Y-123529070D01*
X178706721Y-123592920D01*
X179041646Y-123816710D01*
X179326475Y-124101539D01*
X179550265Y-124436464D01*
X179614115Y-124590613D01*
X179704414Y-124808613D01*
X179782998Y-125203681D01*
X179782998Y-125606493D01*
X179704414Y-126001561D01*
X179649883Y-126133210D01*
X179550265Y-126373710D01*
X179326475Y-126708635D01*
X179041646Y-126993464D01*
X178706721Y-127217254D01*
X178552572Y-127281104D01*
X178334572Y-127371403D01*
X177939504Y-127449987D01*
X177536692Y-127449987D01*
X177141624Y-127371403D01*
X176923624Y-127281104D01*
X176769475Y-127217254D01*
X176434550Y-126993464D01*
X176149721Y-126708635D01*
X175925931Y-126373710D01*
X175826313Y-126133210D01*
X175771782Y-126001561D01*
X175693198Y-125606493D01*
X175693198Y-125203681D01*
X175771782Y-124808613D01*
X175862081Y-124590613D01*
X175925931Y-124436464D01*
X176149721Y-124101539D01*
X176434550Y-123816710D01*
X176769475Y-123592920D01*
X176923624Y-123529070D01*
X177141624Y-123438771D01*
X177536692Y-123360187D01*
X177939504Y-123360187D01*
X178334572Y-123438771D01*
X178334572Y-123438771D01*
G37*
G36*
X112600876Y-123198271D02*
G01*
X112692939Y-123236405D01*
X112973025Y-123352420D01*
X113307950Y-123576210D01*
X113592779Y-123861039D01*
X113816569Y-124195964D01*
X113849261Y-124274890D01*
X113970718Y-124568113D01*
X114049302Y-124963181D01*
X114049302Y-125365993D01*
X113970718Y-125761061D01*
X113890190Y-125955473D01*
X113816569Y-126133210D01*
X113592779Y-126468135D01*
X113307950Y-126752964D01*
X112973025Y-126976754D01*
X112932683Y-126993464D01*
X112600876Y-127130903D01*
X112205808Y-127209487D01*
X111802996Y-127209487D01*
X111407928Y-127130903D01*
X111076121Y-126993464D01*
X111035779Y-126976754D01*
X110700854Y-126752964D01*
X110416025Y-126468135D01*
X110192235Y-126133210D01*
X110118614Y-125955473D01*
X110038086Y-125761061D01*
X109959502Y-125365993D01*
X109959502Y-124963181D01*
X110038086Y-124568113D01*
X110159543Y-124274890D01*
X110192235Y-124195964D01*
X110416025Y-123861039D01*
X110700854Y-123576210D01*
X111035779Y-123352420D01*
X111315865Y-123236405D01*
X111407928Y-123198271D01*
X111802996Y-123119687D01*
X112205808Y-123119687D01*
X112600876Y-123198271D01*
X112600876Y-123198271D01*
G37*
G36*
X159285164Y-124274889D02*
G01*
X159476433Y-124354115D01*
X159476435Y-124354116D01*
X159599677Y-124436464D01*
X159648573Y-124469135D01*
X159794965Y-124615527D01*
X159909985Y-124787667D01*
X159989211Y-124978936D01*
X160029600Y-125181984D01*
X160029600Y-125389016D01*
X159989211Y-125592064D01*
X159983234Y-125606493D01*
X159909984Y-125783335D01*
X159794965Y-125955473D01*
X159648573Y-126101865D01*
X159476435Y-126216884D01*
X159476434Y-126216885D01*
X159476433Y-126216885D01*
X159285164Y-126296111D01*
X159082116Y-126336500D01*
X158875084Y-126336500D01*
X158672036Y-126296111D01*
X158480767Y-126216885D01*
X158480766Y-126216885D01*
X158480765Y-126216884D01*
X158308627Y-126101865D01*
X158162235Y-125955473D01*
X158047216Y-125783335D01*
X157973966Y-125606493D01*
X157967989Y-125592064D01*
X157927600Y-125389016D01*
X157927600Y-125181984D01*
X157967989Y-124978936D01*
X158047215Y-124787667D01*
X158162235Y-124615527D01*
X158308627Y-124469135D01*
X158357523Y-124436464D01*
X158480765Y-124354116D01*
X158480767Y-124354115D01*
X158672036Y-124274889D01*
X158875084Y-124234500D01*
X159082116Y-124234500D01*
X159285164Y-124274889D01*
X159285164Y-124274889D01*
G37*
G36*
X165785164Y-124274889D02*
G01*
X165976433Y-124354115D01*
X165976435Y-124354116D01*
X166099677Y-124436464D01*
X166148573Y-124469135D01*
X166294965Y-124615527D01*
X166409985Y-124787667D01*
X166489211Y-124978936D01*
X166529600Y-125181984D01*
X166529600Y-125389016D01*
X166489211Y-125592064D01*
X166483234Y-125606493D01*
X166409984Y-125783335D01*
X166294965Y-125955473D01*
X166148573Y-126101865D01*
X165976435Y-126216884D01*
X165976434Y-126216885D01*
X165976433Y-126216885D01*
X165785164Y-126296111D01*
X165582116Y-126336500D01*
X165375084Y-126336500D01*
X165172036Y-126296111D01*
X164980767Y-126216885D01*
X164980766Y-126216885D01*
X164980765Y-126216884D01*
X164808627Y-126101865D01*
X164662235Y-125955473D01*
X164547216Y-125783335D01*
X164473966Y-125606493D01*
X164467989Y-125592064D01*
X164427600Y-125389016D01*
X164427600Y-125181984D01*
X164467989Y-124978936D01*
X164547215Y-124787667D01*
X164662235Y-124615527D01*
X164808627Y-124469135D01*
X164857523Y-124436464D01*
X164980765Y-124354116D01*
X164980767Y-124354115D01*
X165172036Y-124274889D01*
X165375084Y-124234500D01*
X165582116Y-124234500D01*
X165785164Y-124274889D01*
X165785164Y-124274889D01*
G37*
G36*
X201785307Y-119303773D02*
G01*
X202003307Y-119394072D01*
X202157456Y-119457922D01*
X202492381Y-119681712D01*
X202777210Y-119966541D01*
X203001000Y-120301466D01*
X203059170Y-120441901D01*
X203155149Y-120673615D01*
X203233733Y-121068683D01*
X203233733Y-121471495D01*
X203155149Y-121866563D01*
X203100618Y-121998212D01*
X203001000Y-122238712D01*
X202777210Y-122573637D01*
X202492381Y-122858466D01*
X202157456Y-123082256D01*
X202067089Y-123119687D01*
X201785307Y-123236405D01*
X201390239Y-123314989D01*
X200987427Y-123314989D01*
X200592359Y-123236405D01*
X200310577Y-123119687D01*
X200220210Y-123082256D01*
X199885285Y-122858466D01*
X199600456Y-122573637D01*
X199376666Y-122238712D01*
X199277048Y-121998212D01*
X199222517Y-121866563D01*
X199143933Y-121471495D01*
X199143933Y-121068683D01*
X199222517Y-120673615D01*
X199318496Y-120441901D01*
X199376666Y-120301466D01*
X199600456Y-119966541D01*
X199885285Y-119681712D01*
X200220210Y-119457922D01*
X200374359Y-119394072D01*
X200592359Y-119303773D01*
X200987427Y-119225189D01*
X201390239Y-119225189D01*
X201785307Y-119303773D01*
X201785307Y-119303773D01*
G37*
G36*
X89150141Y-119063273D02*
G01*
X89368141Y-119153572D01*
X89522290Y-119217422D01*
X89857215Y-119441212D01*
X90142044Y-119726041D01*
X90365834Y-120060966D01*
X90395557Y-120132724D01*
X90519983Y-120433115D01*
X90598567Y-120828183D01*
X90598567Y-121230995D01*
X90519983Y-121626063D01*
X90429684Y-121844063D01*
X90365834Y-121998212D01*
X90142044Y-122333137D01*
X89857215Y-122617966D01*
X89522290Y-122841756D01*
X89481948Y-122858466D01*
X89150141Y-122995905D01*
X88755073Y-123074489D01*
X88352261Y-123074489D01*
X87957193Y-122995905D01*
X87625386Y-122858466D01*
X87585044Y-122841756D01*
X87250119Y-122617966D01*
X86965290Y-122333137D01*
X86741500Y-121998212D01*
X86677650Y-121844063D01*
X86587351Y-121626063D01*
X86508767Y-121230995D01*
X86508767Y-120828183D01*
X86587351Y-120433115D01*
X86711777Y-120132724D01*
X86741500Y-120060966D01*
X86965290Y-119726041D01*
X87250119Y-119441212D01*
X87585044Y-119217422D01*
X87739193Y-119153572D01*
X87957193Y-119063273D01*
X88352261Y-118984689D01*
X88755073Y-118984689D01*
X89150141Y-119063273D01*
X89150141Y-119063273D01*
G37*
G36*
X112985980Y-120051522D02*
G01*
X113110176Y-120076225D01*
X113246577Y-120132724D01*
X113369334Y-120214748D01*
X113473730Y-120319144D01*
X113555754Y-120441901D01*
X113612253Y-120578302D01*
X113641055Y-120723104D01*
X113641055Y-120870742D01*
X113612253Y-121015544D01*
X113555754Y-121151945D01*
X113473730Y-121274702D01*
X113369334Y-121379098D01*
X113246577Y-121461122D01*
X113110176Y-121517621D01*
X112985980Y-121542324D01*
X112965375Y-121546423D01*
X112817735Y-121546423D01*
X112797130Y-121542324D01*
X112672934Y-121517621D01*
X112536533Y-121461122D01*
X112413776Y-121379098D01*
X112309380Y-121274702D01*
X112227356Y-121151945D01*
X112170857Y-121015544D01*
X112142055Y-120870742D01*
X112142055Y-120723104D01*
X112170857Y-120578302D01*
X112227356Y-120441901D01*
X112309380Y-120319144D01*
X112413776Y-120214748D01*
X112536533Y-120132724D01*
X112672934Y-120076225D01*
X112797130Y-120051522D01*
X112817735Y-120047423D01*
X112965375Y-120047423D01*
X112985980Y-120051522D01*
X112985980Y-120051522D01*
G37*
G36*
X200695370Y-116192022D02*
G01*
X200819566Y-116216725D01*
X200955967Y-116273224D01*
X201078724Y-116355248D01*
X201183120Y-116459644D01*
X201265144Y-116582401D01*
X201321643Y-116718802D01*
X201350445Y-116863604D01*
X201350445Y-117011242D01*
X201321643Y-117156044D01*
X201265144Y-117292445D01*
X201183120Y-117415202D01*
X201078724Y-117519598D01*
X200955967Y-117601622D01*
X200819566Y-117658121D01*
X200695370Y-117682824D01*
X200674765Y-117686923D01*
X200527125Y-117686923D01*
X200506520Y-117682824D01*
X200382324Y-117658121D01*
X200245923Y-117601622D01*
X200123166Y-117519598D01*
X200018770Y-117415202D01*
X199936746Y-117292445D01*
X199880247Y-117156044D01*
X199851445Y-117011242D01*
X199851445Y-116863604D01*
X199880247Y-116718802D01*
X199936746Y-116582401D01*
X200018770Y-116459644D01*
X200123166Y-116355248D01*
X200245923Y-116273224D01*
X200382324Y-116216725D01*
X200506520Y-116192022D01*
X200527125Y-116187923D01*
X200674765Y-116187923D01*
X200695370Y-116192022D01*
X200695370Y-116192022D01*
G37*
G36*
X188626474Y-113241684D02*
G01*
X188844474Y-113331983D01*
X188998623Y-113395833D01*
X189333548Y-113619623D01*
X189618377Y-113904452D01*
X189842167Y-114239377D01*
X189906017Y-114393526D01*
X189996316Y-114611526D01*
X190074900Y-115006594D01*
X190074900Y-115409406D01*
X189996316Y-115804474D01*
X189906017Y-116022474D01*
X189842167Y-116176623D01*
X189618377Y-116511548D01*
X189333548Y-116796377D01*
X188998623Y-117020167D01*
X188844474Y-117084017D01*
X188626474Y-117174316D01*
X188231406Y-117252900D01*
X187828594Y-117252900D01*
X187433526Y-117174316D01*
X187215526Y-117084017D01*
X187061377Y-117020167D01*
X186726452Y-116796377D01*
X186441623Y-116511548D01*
X186217833Y-116176623D01*
X186153983Y-116022474D01*
X186063684Y-115804474D01*
X185985100Y-115409406D01*
X185985100Y-115006594D01*
X186063684Y-114611526D01*
X186153983Y-114393526D01*
X186217833Y-114239377D01*
X186441623Y-113904452D01*
X186726452Y-113619623D01*
X187061377Y-113395833D01*
X187215526Y-113331983D01*
X187433526Y-113241684D01*
X187828594Y-113163100D01*
X188231406Y-113163100D01*
X188626474Y-113241684D01*
X188626474Y-113241684D01*
G37*
G36*
X183297281Y-115199718D02*
G01*
X183465803Y-115269522D01*
X183617468Y-115370861D01*
X183746449Y-115499842D01*
X183847788Y-115651507D01*
X183917592Y-115820029D01*
X183953177Y-115998930D01*
X183953177Y-116181336D01*
X183917592Y-116360237D01*
X183847788Y-116528759D01*
X183746449Y-116680424D01*
X183617468Y-116809405D01*
X183465803Y-116910744D01*
X183297281Y-116980548D01*
X183118380Y-117016133D01*
X182935974Y-117016133D01*
X182757073Y-116980548D01*
X182588551Y-116910744D01*
X182436886Y-116809405D01*
X182307905Y-116680424D01*
X182206566Y-116528759D01*
X182136762Y-116360237D01*
X182101177Y-116181336D01*
X182101177Y-115998930D01*
X182136762Y-115820029D01*
X182206566Y-115651507D01*
X182307905Y-115499842D01*
X182436886Y-115370861D01*
X182588551Y-115269522D01*
X182757073Y-115199718D01*
X182935974Y-115164133D01*
X183118380Y-115164133D01*
X183297281Y-115199718D01*
X183297281Y-115199718D01*
G37*
G36*
X102308974Y-113001184D02*
G01*
X102526974Y-113091483D01*
X102681123Y-113155333D01*
X103016048Y-113379123D01*
X103300877Y-113663952D01*
X103524667Y-113998877D01*
X103524667Y-113998878D01*
X103678816Y-114371026D01*
X103757400Y-114766094D01*
X103757400Y-115168906D01*
X103678816Y-115563974D01*
X103588517Y-115781974D01*
X103524667Y-115936123D01*
X103300877Y-116271048D01*
X103016048Y-116555877D01*
X102681123Y-116779667D01*
X102526974Y-116843517D01*
X102308974Y-116933816D01*
X101913906Y-117012400D01*
X101511094Y-117012400D01*
X101116026Y-116933816D01*
X100898026Y-116843517D01*
X100743877Y-116779667D01*
X100408952Y-116555877D01*
X100124123Y-116271048D01*
X99900333Y-115936123D01*
X99836483Y-115781974D01*
X99746184Y-115563974D01*
X99667600Y-115168906D01*
X99667600Y-114766094D01*
X99746184Y-114371026D01*
X99900333Y-113998878D01*
X99900333Y-113998877D01*
X100124123Y-113663952D01*
X100408952Y-113379123D01*
X100743877Y-113155333D01*
X100898026Y-113091483D01*
X101116026Y-113001184D01*
X101511094Y-112922600D01*
X101913906Y-112922600D01*
X102308974Y-113001184D01*
X102308974Y-113001184D01*
G37*
G36*
X106985427Y-114959218D02*
G01*
X107153949Y-115029022D01*
X107305614Y-115130361D01*
X107434595Y-115259342D01*
X107535934Y-115411007D01*
X107605738Y-115579529D01*
X107641323Y-115758430D01*
X107641323Y-115940836D01*
X107605738Y-116119737D01*
X107535934Y-116288259D01*
X107434595Y-116439924D01*
X107305614Y-116568905D01*
X107153949Y-116670244D01*
X106985427Y-116740048D01*
X106806526Y-116775633D01*
X106624120Y-116775633D01*
X106445219Y-116740048D01*
X106276697Y-116670244D01*
X106125032Y-116568905D01*
X105996051Y-116439924D01*
X105894712Y-116288259D01*
X105824908Y-116119737D01*
X105789323Y-115940836D01*
X105789323Y-115758430D01*
X105824908Y-115579529D01*
X105894712Y-115411007D01*
X105996051Y-115259342D01*
X106125032Y-115130361D01*
X106276697Y-115029022D01*
X106445219Y-114959218D01*
X106624120Y-114923633D01*
X106806526Y-114923633D01*
X106985427Y-114959218D01*
X106985427Y-114959218D01*
G37*
G36*
X114801708Y-114280113D02*
G01*
X114541409Y-115756340D01*
X113065182Y-115496041D01*
X113325481Y-114019814D01*
X114801708Y-114280113D01*
X114801708Y-114280113D01*
G37*
G36*
X193302927Y-113435452D02*
G01*
X193471449Y-113505256D01*
X193623114Y-113606595D01*
X193752095Y-113735576D01*
X193853434Y-113887241D01*
X193923238Y-114055763D01*
X193958823Y-114234664D01*
X193958823Y-114417070D01*
X193923238Y-114595971D01*
X193853434Y-114764493D01*
X193752095Y-114916158D01*
X193623114Y-115045139D01*
X193471449Y-115146478D01*
X193302927Y-115216282D01*
X193124026Y-115251867D01*
X192941620Y-115251867D01*
X192762719Y-115216282D01*
X192594197Y-115146478D01*
X192442532Y-115045139D01*
X192313551Y-114916158D01*
X192212212Y-114764493D01*
X192142408Y-114595971D01*
X192106823Y-114417070D01*
X192106823Y-114234664D01*
X192142408Y-114055763D01*
X192212212Y-113887241D01*
X192313551Y-113735576D01*
X192442532Y-113606595D01*
X192594197Y-113505256D01*
X192762719Y-113435452D01*
X192941620Y-113399867D01*
X193124026Y-113399867D01*
X193302927Y-113435452D01*
X193302927Y-113435452D01*
G37*
G36*
X96979781Y-113194952D02*
G01*
X97148303Y-113264756D01*
X97299968Y-113366095D01*
X97428949Y-113495076D01*
X97530288Y-113646741D01*
X97600092Y-113815263D01*
X97635677Y-113994164D01*
X97635677Y-114176570D01*
X97600092Y-114355471D01*
X97530288Y-114523993D01*
X97428949Y-114675658D01*
X97299968Y-114804639D01*
X97148303Y-114905978D01*
X96979781Y-114975782D01*
X96800880Y-115011367D01*
X96618474Y-115011367D01*
X96439573Y-114975782D01*
X96271051Y-114905978D01*
X96119386Y-114804639D01*
X95990405Y-114675658D01*
X95889066Y-114523993D01*
X95819262Y-114355471D01*
X95783677Y-114176570D01*
X95783677Y-113994164D01*
X95819262Y-113815263D01*
X95889066Y-113646741D01*
X95990405Y-113495076D01*
X96119386Y-113366095D01*
X96271051Y-113264756D01*
X96439573Y-113194952D01*
X96618474Y-113159367D01*
X96800880Y-113159367D01*
X96979781Y-113194952D01*
X96979781Y-113194952D01*
G37*
G36*
X175398967Y-108851879D02*
G01*
X175551111Y-108882142D01*
X175669837Y-108931320D01*
X175837741Y-109000868D01*
X175837742Y-109000869D01*
X176095704Y-109173233D01*
X176315083Y-109392612D01*
X176326751Y-109410075D01*
X176487448Y-109650575D01*
X176606174Y-109937206D01*
X176666700Y-110241491D01*
X176666700Y-110551741D01*
X176606174Y-110856026D01*
X176487448Y-111142657D01*
X176430253Y-111228255D01*
X176315083Y-111400620D01*
X176095704Y-111619999D01*
X175929405Y-111731116D01*
X175837741Y-111792364D01*
X175669837Y-111861912D01*
X175551111Y-111911090D01*
X175398967Y-111941353D01*
X175246825Y-111971616D01*
X174936575Y-111971616D01*
X174784433Y-111941353D01*
X174632289Y-111911090D01*
X174513563Y-111861912D01*
X174345659Y-111792364D01*
X174253995Y-111731116D01*
X174087696Y-111619999D01*
X173868317Y-111400620D01*
X173753147Y-111228255D01*
X173695952Y-111142657D01*
X173577226Y-110856026D01*
X173516700Y-110551741D01*
X173516700Y-110241491D01*
X173577226Y-109937206D01*
X173695952Y-109650575D01*
X173856649Y-109410075D01*
X173868317Y-109392612D01*
X174087696Y-109173233D01*
X174345658Y-109000869D01*
X174345659Y-109000868D01*
X174513563Y-108931320D01*
X174632289Y-108882142D01*
X174784433Y-108851879D01*
X174936575Y-108821616D01*
X175246825Y-108821616D01*
X175398967Y-108851879D01*
X175398967Y-108851879D01*
G37*
G36*
X200427318Y-111636541D02*
G01*
X198951091Y-111896840D01*
X198690792Y-110420613D01*
X200167019Y-110160314D01*
X200427318Y-111636541D01*
X200427318Y-111636541D01*
G37*
G36*
X114958067Y-108611379D02*
G01*
X115110211Y-108641642D01*
X115228937Y-108690820D01*
X115396841Y-108760368D01*
X115396842Y-108760369D01*
X115654804Y-108932733D01*
X115874183Y-109152112D01*
X115989353Y-109324477D01*
X116046548Y-109410075D01*
X116165274Y-109696706D01*
X116225800Y-110000991D01*
X116225800Y-110311241D01*
X116165274Y-110615526D01*
X116046548Y-110902157D01*
X116046547Y-110902158D01*
X115874183Y-111160120D01*
X115654804Y-111379499D01*
X115482439Y-111494669D01*
X115396841Y-111551864D01*
X115232348Y-111619999D01*
X115110211Y-111670590D01*
X114805925Y-111731116D01*
X114495675Y-111731116D01*
X114191389Y-111670590D01*
X114069252Y-111619999D01*
X113904759Y-111551864D01*
X113819161Y-111494669D01*
X113646796Y-111379499D01*
X113427417Y-111160120D01*
X113255053Y-110902158D01*
X113255052Y-110902157D01*
X113136326Y-110615526D01*
X113075800Y-110311241D01*
X113075800Y-110000991D01*
X113136326Y-109696706D01*
X113255052Y-109410075D01*
X113312247Y-109324477D01*
X113427417Y-109152112D01*
X113646796Y-108932733D01*
X113904758Y-108760369D01*
X113904759Y-108760368D01*
X114072663Y-108690820D01*
X114191389Y-108641642D01*
X114343533Y-108611379D01*
X114495675Y-108581116D01*
X114805925Y-108581116D01*
X114958067Y-108611379D01*
X114958067Y-108611379D01*
G37*
G36*
X198849702Y-104716882D02*
G01*
X199001846Y-104747145D01*
X199120572Y-104796323D01*
X199288476Y-104865871D01*
X199288477Y-104865872D01*
X199546439Y-105038236D01*
X199765818Y-105257615D01*
X199777486Y-105275078D01*
X199938183Y-105515578D01*
X200056909Y-105802209D01*
X200117435Y-106106494D01*
X200117435Y-106416744D01*
X200056909Y-106721029D01*
X199938183Y-107007660D01*
X199880988Y-107093258D01*
X199765818Y-107265623D01*
X199546439Y-107485002D01*
X199380140Y-107596119D01*
X199288476Y-107657367D01*
X199120572Y-107726915D01*
X199001846Y-107776093D01*
X198849702Y-107806356D01*
X198697560Y-107836619D01*
X198387310Y-107836619D01*
X198235168Y-107806356D01*
X198083024Y-107776093D01*
X197964298Y-107726915D01*
X197796394Y-107657367D01*
X197704730Y-107596119D01*
X197538431Y-107485002D01*
X197319052Y-107265623D01*
X197203882Y-107093258D01*
X197146687Y-107007660D01*
X197027961Y-106721029D01*
X196967435Y-106416744D01*
X196967435Y-106106494D01*
X197027961Y-105802209D01*
X197146687Y-105515578D01*
X197307384Y-105275078D01*
X197319052Y-105257615D01*
X197538431Y-105038236D01*
X197796393Y-104865872D01*
X197796394Y-104865871D01*
X197964298Y-104796323D01*
X198083024Y-104747145D01*
X198387310Y-104686619D01*
X198697560Y-104686619D01*
X198849702Y-104716882D01*
X198849702Y-104716882D01*
G37*
G36*
X91659476Y-104506645D02*
G01*
X91778202Y-104555823D01*
X91946106Y-104625371D01*
X91946107Y-104625372D01*
X92204069Y-104797736D01*
X92423448Y-105017115D01*
X92538618Y-105189480D01*
X92595813Y-105275078D01*
X92714539Y-105561709D01*
X92775065Y-105865994D01*
X92775065Y-106176244D01*
X92714539Y-106480529D01*
X92595813Y-106767160D01*
X92595812Y-106767161D01*
X92423448Y-107025123D01*
X92204069Y-107244502D01*
X92031704Y-107359672D01*
X91946106Y-107416867D01*
X91781613Y-107485002D01*
X91659476Y-107535593D01*
X91355190Y-107596119D01*
X91044940Y-107596119D01*
X90740654Y-107535593D01*
X90618517Y-107485002D01*
X90454024Y-107416867D01*
X90368426Y-107359672D01*
X90196061Y-107244502D01*
X89976682Y-107025123D01*
X89804318Y-106767161D01*
X89804317Y-106767160D01*
X89685591Y-106480529D01*
X89625065Y-106176244D01*
X89625065Y-105865994D01*
X89685591Y-105561709D01*
X89804317Y-105275078D01*
X89861512Y-105189480D01*
X89976682Y-105017115D01*
X90196061Y-104797736D01*
X90454023Y-104625372D01*
X90454024Y-104625371D01*
X90621928Y-104555823D01*
X90740654Y-104506645D01*
X90892798Y-104476382D01*
X91044940Y-104446119D01*
X91355190Y-104446119D01*
X91659476Y-104506645D01*
X91659476Y-104506645D01*
G37*
G36*
X122236337Y-104290026D02*
G01*
X121976038Y-105766253D01*
X120499811Y-105505954D01*
X120760110Y-104029727D01*
X122236337Y-104290026D01*
X122236337Y-104290026D01*
G37*
G36*
X147434164Y-101404489D02*
G01*
X147625433Y-101483715D01*
X147625435Y-101483716D01*
X147797573Y-101598735D01*
X147943965Y-101745127D01*
X148058985Y-101917267D01*
X148138211Y-102108536D01*
X148178600Y-102311584D01*
X148178600Y-102518616D01*
X148138211Y-102721664D01*
X148058985Y-102912933D01*
X148058984Y-102912935D01*
X147943965Y-103085073D01*
X147797573Y-103231465D01*
X147625435Y-103346484D01*
X147625434Y-103346485D01*
X147625433Y-103346485D01*
X147434164Y-103425711D01*
X147231116Y-103466100D01*
X147024084Y-103466100D01*
X146821036Y-103425711D01*
X146629767Y-103346485D01*
X146629766Y-103346485D01*
X146629765Y-103346484D01*
X146457627Y-103231465D01*
X146311235Y-103085073D01*
X146196216Y-102912935D01*
X146196215Y-102912933D01*
X146116989Y-102721664D01*
X146076600Y-102518616D01*
X146076600Y-102311584D01*
X146116989Y-102108536D01*
X146196215Y-101917267D01*
X146311235Y-101745127D01*
X146457627Y-101598735D01*
X146629765Y-101483716D01*
X146629767Y-101483715D01*
X146821036Y-101404489D01*
X147024084Y-101364100D01*
X147231116Y-101364100D01*
X147434164Y-101404489D01*
X147434164Y-101404489D01*
G37*
G36*
X142434164Y-101404489D02*
G01*
X142625433Y-101483715D01*
X142625435Y-101483716D01*
X142797573Y-101598735D01*
X142943965Y-101745127D01*
X143058985Y-101917267D01*
X143138211Y-102108536D01*
X143178600Y-102311584D01*
X143178600Y-102518616D01*
X143138211Y-102721664D01*
X143058985Y-102912933D01*
X143058984Y-102912935D01*
X142943965Y-103085073D01*
X142797573Y-103231465D01*
X142625435Y-103346484D01*
X142625434Y-103346485D01*
X142625433Y-103346485D01*
X142434164Y-103425711D01*
X142231116Y-103466100D01*
X142024084Y-103466100D01*
X141821036Y-103425711D01*
X141629767Y-103346485D01*
X141629766Y-103346485D01*
X141629765Y-103346484D01*
X141457627Y-103231465D01*
X141311235Y-103085073D01*
X141196216Y-102912935D01*
X141196215Y-102912933D01*
X141116989Y-102721664D01*
X141076600Y-102518616D01*
X141076600Y-102311584D01*
X141116989Y-102108536D01*
X141196215Y-101917267D01*
X141311235Y-101745127D01*
X141457627Y-101598735D01*
X141629765Y-101483716D01*
X141629767Y-101483715D01*
X141821036Y-101404489D01*
X142024084Y-101364100D01*
X142231116Y-101364100D01*
X142434164Y-101404489D01*
X142434164Y-101404489D01*
G37*
G36*
X185125689Y-102902454D02*
G01*
X183649462Y-103162753D01*
X183389163Y-101686526D01*
X184865390Y-101426227D01*
X185125689Y-102902454D01*
X185125689Y-102902454D01*
G37*
G36*
X103502299Y-100935892D02*
G01*
X103242000Y-102412119D01*
X101765773Y-102151820D01*
X102026072Y-100675593D01*
X103502299Y-100935892D01*
X103502299Y-100935892D01*
G37*
G36*
X175901474Y-96141684D02*
G01*
X176081118Y-96216095D01*
X176273623Y-96295833D01*
X176608548Y-96519623D01*
X176893377Y-96804452D01*
X177117167Y-97139377D01*
X177150987Y-97221026D01*
X177271316Y-97511526D01*
X177349900Y-97906594D01*
X177349900Y-98309406D01*
X177271316Y-98704474D01*
X177181017Y-98922474D01*
X177117167Y-99076623D01*
X176893377Y-99411548D01*
X176608548Y-99696377D01*
X176273623Y-99920167D01*
X176119474Y-99984017D01*
X175901474Y-100074316D01*
X175506406Y-100152900D01*
X175103594Y-100152900D01*
X174708526Y-100074316D01*
X174490526Y-99984017D01*
X174336377Y-99920167D01*
X174001452Y-99696377D01*
X173716623Y-99411548D01*
X173492833Y-99076623D01*
X173428983Y-98922474D01*
X173338684Y-98704474D01*
X173260100Y-98309406D01*
X173260100Y-97906594D01*
X173338684Y-97511526D01*
X173459013Y-97221026D01*
X173492833Y-97139377D01*
X173716623Y-96804452D01*
X174001452Y-96519623D01*
X174336377Y-96295833D01*
X174528882Y-96216095D01*
X174708526Y-96141684D01*
X175103594Y-96063100D01*
X175506406Y-96063100D01*
X175901474Y-96141684D01*
X175901474Y-96141684D01*
G37*
G36*
X170572281Y-98099718D02*
G01*
X170740803Y-98169522D01*
X170892468Y-98270861D01*
X171021449Y-98399842D01*
X171122788Y-98551507D01*
X171192592Y-98720029D01*
X171228177Y-98898930D01*
X171228177Y-99081336D01*
X171192592Y-99260237D01*
X171122788Y-99428759D01*
X171021449Y-99580424D01*
X170892468Y-99709405D01*
X170740803Y-99810744D01*
X170572281Y-99880548D01*
X170393380Y-99916133D01*
X170210974Y-99916133D01*
X170032073Y-99880548D01*
X169863551Y-99810744D01*
X169711886Y-99709405D01*
X169582905Y-99580424D01*
X169481566Y-99428759D01*
X169411762Y-99260237D01*
X169376177Y-99081336D01*
X169376177Y-98898930D01*
X169411762Y-98720029D01*
X169481566Y-98551507D01*
X169582905Y-98399842D01*
X169711886Y-98270861D01*
X169863551Y-98169522D01*
X170032073Y-98099718D01*
X170210974Y-98064133D01*
X170393380Y-98064133D01*
X170572281Y-98099718D01*
X170572281Y-98099718D01*
G37*
G36*
X115008974Y-95851184D02*
G01*
X115223209Y-95939923D01*
X115381123Y-96005333D01*
X115716048Y-96229123D01*
X116000877Y-96513952D01*
X116224667Y-96848877D01*
X116224667Y-96848878D01*
X116378816Y-97221026D01*
X116457400Y-97616094D01*
X116457400Y-98018906D01*
X116378816Y-98413974D01*
X116288517Y-98631974D01*
X116224667Y-98786123D01*
X116000877Y-99121048D01*
X115716048Y-99405877D01*
X115381123Y-99629667D01*
X115226974Y-99693517D01*
X115008974Y-99783816D01*
X114613906Y-99862400D01*
X114211094Y-99862400D01*
X113816026Y-99783816D01*
X113598026Y-99693517D01*
X113443877Y-99629667D01*
X113108952Y-99405877D01*
X112824123Y-99121048D01*
X112600333Y-98786123D01*
X112536483Y-98631974D01*
X112446184Y-98413974D01*
X112367600Y-98018906D01*
X112367600Y-97616094D01*
X112446184Y-97221026D01*
X112600333Y-96848878D01*
X112600333Y-96848877D01*
X112824123Y-96513952D01*
X113108952Y-96229123D01*
X113443877Y-96005333D01*
X113601791Y-95939923D01*
X113816026Y-95851184D01*
X114211094Y-95772600D01*
X114613906Y-95772600D01*
X115008974Y-95851184D01*
X115008974Y-95851184D01*
G37*
G36*
X122504389Y-98243743D02*
G01*
X122628585Y-98268446D01*
X122764986Y-98324945D01*
X122887743Y-98406969D01*
X122992139Y-98511365D01*
X123074163Y-98634122D01*
X123130662Y-98770523D01*
X123155365Y-98894719D01*
X123159464Y-98915324D01*
X123159464Y-99062964D01*
X123155365Y-99083569D01*
X123130662Y-99207765D01*
X123074163Y-99344166D01*
X122992139Y-99466923D01*
X122887743Y-99571319D01*
X122764986Y-99653343D01*
X122628585Y-99709842D01*
X122508372Y-99733753D01*
X122483784Y-99738644D01*
X122336144Y-99738644D01*
X122311556Y-99733753D01*
X122191343Y-99709842D01*
X122054942Y-99653343D01*
X121932185Y-99571319D01*
X121827789Y-99466923D01*
X121745765Y-99344166D01*
X121689266Y-99207765D01*
X121664563Y-99083569D01*
X121660464Y-99062964D01*
X121660464Y-98915324D01*
X121664563Y-98894719D01*
X121689266Y-98770523D01*
X121745765Y-98634122D01*
X121827789Y-98511365D01*
X121932185Y-98406969D01*
X122054942Y-98324945D01*
X122191343Y-98268446D01*
X122315539Y-98243743D01*
X122336144Y-98239644D01*
X122483784Y-98239644D01*
X122504389Y-98243743D01*
X122504389Y-98243743D01*
G37*
G36*
X203794689Y-99473454D02*
G01*
X202318462Y-99733753D01*
X202058163Y-98257526D01*
X203534390Y-97997227D01*
X203794689Y-99473454D01*
X203794689Y-99473454D01*
G37*
G36*
X119685427Y-97809218D02*
G01*
X119853949Y-97879022D01*
X120005614Y-97980361D01*
X120134595Y-98109342D01*
X120235934Y-98261007D01*
X120305738Y-98429529D01*
X120341323Y-98608430D01*
X120341323Y-98790836D01*
X120305738Y-98969737D01*
X120235934Y-99138259D01*
X120134595Y-99289924D01*
X120005614Y-99418905D01*
X119853949Y-99520244D01*
X119685427Y-99590048D01*
X119506526Y-99625633D01*
X119324120Y-99625633D01*
X119145219Y-99590048D01*
X118976697Y-99520244D01*
X118825032Y-99418905D01*
X118696051Y-99289924D01*
X118594712Y-99138259D01*
X118524908Y-98969737D01*
X118489323Y-98790836D01*
X118489323Y-98608430D01*
X118524908Y-98429529D01*
X118594712Y-98261007D01*
X118696051Y-98109342D01*
X118825032Y-97980361D01*
X118976697Y-97879022D01*
X119145219Y-97809218D01*
X119324120Y-97773633D01*
X119506526Y-97773633D01*
X119685427Y-97809218D01*
X119685427Y-97809218D01*
G37*
G36*
X84833299Y-97633892D02*
G01*
X84573000Y-99110119D01*
X83096773Y-98849820D01*
X83357072Y-97373593D01*
X84833299Y-97633892D01*
X84833299Y-97633892D01*
G37*
G36*
X180577927Y-96335452D02*
G01*
X180746449Y-96405256D01*
X180898114Y-96506595D01*
X181027095Y-96635576D01*
X181128434Y-96787241D01*
X181198238Y-96955763D01*
X181233823Y-97134664D01*
X181233823Y-97317070D01*
X181198238Y-97495971D01*
X181128434Y-97664493D01*
X181027095Y-97816158D01*
X180898114Y-97945139D01*
X180746449Y-98046478D01*
X180577927Y-98116282D01*
X180399026Y-98151867D01*
X180216620Y-98151867D01*
X180037719Y-98116282D01*
X179869197Y-98046478D01*
X179717532Y-97945139D01*
X179588551Y-97816158D01*
X179487212Y-97664493D01*
X179417408Y-97495971D01*
X179381823Y-97317070D01*
X179381823Y-97134664D01*
X179417408Y-96955763D01*
X179487212Y-96787241D01*
X179588551Y-96635576D01*
X179717532Y-96506595D01*
X179869197Y-96405256D01*
X180037719Y-96335452D01*
X180216620Y-96299867D01*
X180399026Y-96299867D01*
X180577927Y-96335452D01*
X180577927Y-96335452D01*
G37*
G36*
X109679781Y-96044952D02*
G01*
X109848303Y-96114756D01*
X109999968Y-96216095D01*
X110128949Y-96345076D01*
X110230288Y-96496741D01*
X110300092Y-96665263D01*
X110335677Y-96844164D01*
X110335677Y-97026570D01*
X110300092Y-97205471D01*
X110230288Y-97373993D01*
X110128949Y-97525658D01*
X109999968Y-97654639D01*
X109848303Y-97755978D01*
X109679781Y-97825782D01*
X109500880Y-97861367D01*
X109318474Y-97861367D01*
X109139573Y-97825782D01*
X108971051Y-97755978D01*
X108819386Y-97654639D01*
X108690405Y-97525658D01*
X108589066Y-97373993D01*
X108519262Y-97205471D01*
X108483677Y-97026570D01*
X108483677Y-96844164D01*
X108519262Y-96665263D01*
X108589066Y-96496741D01*
X108690405Y-96345076D01*
X108819386Y-96216095D01*
X108971051Y-96114756D01*
X109139573Y-96044952D01*
X109318474Y-96009367D01*
X109500880Y-96009367D01*
X109679781Y-96044952D01*
X109679781Y-96044952D01*
G37*
G36*
X183309961Y-95640243D02*
G01*
X183434157Y-95664946D01*
X183570558Y-95721445D01*
X183693315Y-95803469D01*
X183797711Y-95907865D01*
X183879735Y-96030622D01*
X183936234Y-96167023D01*
X183960937Y-96291219D01*
X183962658Y-96299867D01*
X183965036Y-96311825D01*
X183965036Y-96459463D01*
X183936234Y-96604265D01*
X183879735Y-96740666D01*
X183797711Y-96863423D01*
X183693315Y-96967819D01*
X183570558Y-97049843D01*
X183434157Y-97106342D01*
X183309961Y-97131045D01*
X183289356Y-97135144D01*
X183141716Y-97135144D01*
X183121111Y-97131045D01*
X182996915Y-97106342D01*
X182860514Y-97049843D01*
X182737757Y-96967819D01*
X182633361Y-96863423D01*
X182551337Y-96740666D01*
X182494838Y-96604265D01*
X182466036Y-96459463D01*
X182466036Y-96311825D01*
X182468415Y-96299867D01*
X182470135Y-96291219D01*
X182494838Y-96167023D01*
X182551337Y-96030622D01*
X182633361Y-95907865D01*
X182737757Y-95803469D01*
X182860514Y-95721445D01*
X182996915Y-95664946D01*
X183121111Y-95640243D01*
X183141716Y-95636144D01*
X183289356Y-95636144D01*
X183309961Y-95640243D01*
X183309961Y-95640243D01*
G37*
G36*
X151278600Y-97066100D02*
G01*
X149176600Y-97066100D01*
X149176600Y-93764100D01*
X151278600Y-93764100D01*
X151278600Y-97066100D01*
X151278600Y-97066100D01*
G37*
G36*
X140078600Y-97066100D02*
G01*
X137976600Y-97066100D01*
X137976600Y-93764100D01*
X140078600Y-93764100D01*
X140078600Y-97066100D01*
X140078600Y-97066100D01*
G37*
G36*
X194751474Y-92816684D02*
G01*
X194911152Y-92882825D01*
X195123623Y-92970833D01*
X195458548Y-93194623D01*
X195743377Y-93479452D01*
X195967167Y-93814377D01*
X196031017Y-93968526D01*
X196121316Y-94186526D01*
X196199900Y-94581594D01*
X196199900Y-94984406D01*
X196121316Y-95379474D01*
X196031017Y-95597474D01*
X195967167Y-95751623D01*
X195743377Y-96086548D01*
X195458548Y-96371377D01*
X195123623Y-96595167D01*
X195026064Y-96635577D01*
X194751474Y-96749316D01*
X194356406Y-96827900D01*
X193953594Y-96827900D01*
X193558526Y-96749316D01*
X193283936Y-96635577D01*
X193186377Y-96595167D01*
X192851452Y-96371377D01*
X192566623Y-96086548D01*
X192342833Y-95751623D01*
X192278983Y-95597474D01*
X192188684Y-95379474D01*
X192110100Y-94984406D01*
X192110100Y-94581594D01*
X192188684Y-94186526D01*
X192278983Y-93968526D01*
X192342833Y-93814377D01*
X192566623Y-93479452D01*
X192851452Y-93194623D01*
X193186377Y-92970833D01*
X193398848Y-92882825D01*
X193558526Y-92816684D01*
X193953594Y-92738100D01*
X194356406Y-92738100D01*
X194751474Y-92816684D01*
X194751474Y-92816684D01*
G37*
G36*
X189422281Y-94774718D02*
G01*
X189590803Y-94844522D01*
X189742468Y-94945861D01*
X189871449Y-95074842D01*
X189972788Y-95226507D01*
X190042592Y-95395029D01*
X190078177Y-95573930D01*
X190078177Y-95756336D01*
X190042592Y-95935237D01*
X189972788Y-96103759D01*
X189871449Y-96255424D01*
X189742468Y-96384405D01*
X189590803Y-96485744D01*
X189422281Y-96555548D01*
X189243380Y-96591133D01*
X189060974Y-96591133D01*
X188882073Y-96555548D01*
X188713551Y-96485744D01*
X188561886Y-96384405D01*
X188432905Y-96255424D01*
X188331566Y-96103759D01*
X188261762Y-95935237D01*
X188226177Y-95756336D01*
X188226177Y-95573930D01*
X188261762Y-95395029D01*
X188331566Y-95226507D01*
X188432905Y-95074842D01*
X188561886Y-94945861D01*
X188713551Y-94844522D01*
X188882073Y-94774718D01*
X189060974Y-94739133D01*
X189243380Y-94739133D01*
X189422281Y-94774718D01*
X189422281Y-94774718D01*
G37*
G36*
X222717689Y-96298454D02*
G01*
X221241462Y-96558753D01*
X220981163Y-95082526D01*
X222457390Y-94822227D01*
X222717689Y-96298454D01*
X222717689Y-96298454D01*
G37*
G36*
X96308974Y-92501184D02*
G01*
X96526974Y-92591483D01*
X96681123Y-92655333D01*
X97016048Y-92879123D01*
X97300877Y-93163952D01*
X97524667Y-93498877D01*
X97524667Y-93498878D01*
X97678816Y-93871026D01*
X97757400Y-94266094D01*
X97757400Y-94668906D01*
X97678816Y-95063974D01*
X97589340Y-95279988D01*
X97524667Y-95436123D01*
X97300877Y-95771048D01*
X97016048Y-96055877D01*
X96681123Y-96279667D01*
X96603486Y-96311825D01*
X96308974Y-96433816D01*
X95913906Y-96512400D01*
X95511094Y-96512400D01*
X95116026Y-96433816D01*
X94821514Y-96311825D01*
X94743877Y-96279667D01*
X94408952Y-96055877D01*
X94124123Y-95771048D01*
X93900333Y-95436123D01*
X93835660Y-95279988D01*
X93746184Y-95063974D01*
X93667600Y-94668906D01*
X93667600Y-94266094D01*
X93746184Y-93871026D01*
X93900333Y-93498878D01*
X93900333Y-93498877D01*
X94124123Y-93163952D01*
X94408952Y-92879123D01*
X94743877Y-92655333D01*
X94898026Y-92591483D01*
X95116026Y-92501184D01*
X95511094Y-92422600D01*
X95913906Y-92422600D01*
X96308974Y-92501184D01*
X96308974Y-92501184D01*
G37*
G36*
X103770351Y-94889609D02*
G01*
X103894547Y-94914312D01*
X104030948Y-94970811D01*
X104153705Y-95052835D01*
X104258101Y-95157231D01*
X104340125Y-95279988D01*
X104396624Y-95416389D01*
X104425426Y-95561191D01*
X104425426Y-95708829D01*
X104396624Y-95853631D01*
X104340125Y-95990032D01*
X104258101Y-96112789D01*
X104153705Y-96217185D01*
X104030948Y-96299209D01*
X103894547Y-96355708D01*
X103770351Y-96380411D01*
X103749746Y-96384510D01*
X103602106Y-96384510D01*
X103581501Y-96380411D01*
X103457305Y-96355708D01*
X103320904Y-96299209D01*
X103198147Y-96217185D01*
X103093751Y-96112789D01*
X103011727Y-95990032D01*
X102955228Y-95853631D01*
X102926426Y-95708829D01*
X102926426Y-95561191D01*
X102955228Y-95416389D01*
X103011727Y-95279988D01*
X103093751Y-95157231D01*
X103198147Y-95052835D01*
X103320904Y-94970811D01*
X103457305Y-94914312D01*
X103581501Y-94889609D01*
X103602106Y-94885510D01*
X103749746Y-94885510D01*
X103770351Y-94889609D01*
X103770351Y-94889609D01*
G37*
G36*
X100985427Y-94459218D02*
G01*
X101153949Y-94529022D01*
X101305614Y-94630361D01*
X101434595Y-94759342D01*
X101535934Y-94911007D01*
X101605738Y-95079529D01*
X101641323Y-95258430D01*
X101641323Y-95440836D01*
X101605738Y-95619737D01*
X101535934Y-95788259D01*
X101434595Y-95939924D01*
X101305614Y-96068905D01*
X101153949Y-96170244D01*
X100985427Y-96240048D01*
X100806526Y-96275633D01*
X100624120Y-96275633D01*
X100445219Y-96240048D01*
X100276697Y-96170244D01*
X100125032Y-96068905D01*
X99996051Y-95939924D01*
X99894712Y-95788259D01*
X99824908Y-95619737D01*
X99789323Y-95440836D01*
X99789323Y-95258430D01*
X99824908Y-95079529D01*
X99894712Y-94911007D01*
X99996051Y-94759342D01*
X100125032Y-94630361D01*
X100276697Y-94529022D01*
X100445219Y-94459218D01*
X100624120Y-94423633D01*
X100806526Y-94423633D01*
X100985427Y-94459218D01*
X100985427Y-94459218D01*
G37*
G36*
X66164299Y-94331892D02*
G01*
X65904000Y-95808119D01*
X64427773Y-95547820D01*
X64688072Y-94071593D01*
X66164299Y-94331892D01*
X66164299Y-94331892D01*
G37*
G36*
X199427927Y-93010452D02*
G01*
X199596449Y-93080256D01*
X199748114Y-93181595D01*
X199877095Y-93310576D01*
X199978434Y-93462241D01*
X200048238Y-93630763D01*
X200083823Y-93809664D01*
X200083823Y-93992070D01*
X200048238Y-94170971D01*
X199978434Y-94339493D01*
X199877095Y-94491158D01*
X199748114Y-94620139D01*
X199596449Y-94721478D01*
X199427927Y-94791282D01*
X199249026Y-94826867D01*
X199066620Y-94826867D01*
X198887719Y-94791282D01*
X198719197Y-94721478D01*
X198567532Y-94620139D01*
X198438551Y-94491158D01*
X198337212Y-94339493D01*
X198267408Y-94170971D01*
X198231823Y-93992070D01*
X198231823Y-93809664D01*
X198267408Y-93630763D01*
X198337212Y-93462241D01*
X198438551Y-93310576D01*
X198567532Y-93181595D01*
X198719197Y-93080256D01*
X198887719Y-93010452D01*
X199066620Y-92974867D01*
X199249026Y-92974867D01*
X199427927Y-93010452D01*
X199427927Y-93010452D01*
G37*
G36*
X90979781Y-92694952D02*
G01*
X91148303Y-92764756D01*
X91299968Y-92866095D01*
X91428949Y-92995076D01*
X91530288Y-93146741D01*
X91600092Y-93315263D01*
X91635677Y-93494164D01*
X91635677Y-93676570D01*
X91600092Y-93855471D01*
X91530288Y-94023993D01*
X91428949Y-94175658D01*
X91299968Y-94304639D01*
X91148303Y-94405978D01*
X90979781Y-94475782D01*
X90800880Y-94511367D01*
X90618474Y-94511367D01*
X90439573Y-94475782D01*
X90271051Y-94405978D01*
X90119386Y-94304639D01*
X89990405Y-94175658D01*
X89889066Y-94023993D01*
X89819262Y-93855471D01*
X89783677Y-93676570D01*
X89783677Y-93494164D01*
X89819262Y-93315263D01*
X89889066Y-93146741D01*
X89990405Y-92995076D01*
X90119386Y-92866095D01*
X90271051Y-92764756D01*
X90439573Y-92694952D01*
X90618474Y-92659367D01*
X90800880Y-92659367D01*
X90979781Y-92694952D01*
X90979781Y-92694952D01*
G37*
G36*
X201978961Y-92211243D02*
G01*
X202103157Y-92235946D01*
X202239558Y-92292445D01*
X202362315Y-92374469D01*
X202466711Y-92478865D01*
X202548735Y-92601622D01*
X202605234Y-92738023D01*
X202620880Y-92816684D01*
X202630709Y-92866096D01*
X202634036Y-92882825D01*
X202634036Y-93030463D01*
X202605234Y-93175265D01*
X202548735Y-93311666D01*
X202466711Y-93434423D01*
X202362315Y-93538819D01*
X202239558Y-93620843D01*
X202103157Y-93677342D01*
X201978961Y-93702045D01*
X201958356Y-93706144D01*
X201810716Y-93706144D01*
X201790111Y-93702045D01*
X201665915Y-93677342D01*
X201529514Y-93620843D01*
X201406757Y-93538819D01*
X201302361Y-93434423D01*
X201220337Y-93311666D01*
X201163838Y-93175265D01*
X201135036Y-93030463D01*
X201135036Y-92882825D01*
X201138364Y-92866096D01*
X201148192Y-92816684D01*
X201163838Y-92738023D01*
X201220337Y-92601622D01*
X201302361Y-92478865D01*
X201406757Y-92374469D01*
X201529514Y-92292445D01*
X201665915Y-92235946D01*
X201790111Y-92211243D01*
X201810716Y-92207144D01*
X201958356Y-92207144D01*
X201978961Y-92211243D01*
X201978961Y-92211243D01*
G37*
G36*
X213526474Y-89491684D02*
G01*
X213737570Y-89579123D01*
X213898623Y-89645833D01*
X214233548Y-89869623D01*
X214518377Y-90154452D01*
X214742167Y-90489377D01*
X214775987Y-90571026D01*
X214896316Y-90861526D01*
X214974900Y-91256594D01*
X214974900Y-91659406D01*
X214896316Y-92054474D01*
X214811520Y-92259190D01*
X214742167Y-92426623D01*
X214518377Y-92761548D01*
X214233548Y-93046377D01*
X213898623Y-93270167D01*
X213744474Y-93334017D01*
X213526474Y-93424316D01*
X213131406Y-93502900D01*
X212728594Y-93502900D01*
X212333526Y-93424316D01*
X212115526Y-93334017D01*
X211961377Y-93270167D01*
X211626452Y-93046377D01*
X211341623Y-92761548D01*
X211117833Y-92426623D01*
X211048480Y-92259190D01*
X210963684Y-92054474D01*
X210885100Y-91659406D01*
X210885100Y-91256594D01*
X210963684Y-90861526D01*
X211084013Y-90571026D01*
X211117833Y-90489377D01*
X211341623Y-90154452D01*
X211626452Y-89869623D01*
X211961377Y-89645833D01*
X212122430Y-89579123D01*
X212333526Y-89491684D01*
X212728594Y-89413100D01*
X213131406Y-89413100D01*
X213526474Y-89491684D01*
X213526474Y-89491684D01*
G37*
G36*
X208197281Y-91449718D02*
G01*
X208365803Y-91519522D01*
X208517468Y-91620861D01*
X208646449Y-91749842D01*
X208747788Y-91901507D01*
X208817592Y-92070029D01*
X208853177Y-92248930D01*
X208853177Y-92431336D01*
X208817592Y-92610237D01*
X208747788Y-92778759D01*
X208646449Y-92930424D01*
X208517468Y-93059405D01*
X208365803Y-93160744D01*
X208197281Y-93230548D01*
X208018380Y-93266133D01*
X207835974Y-93266133D01*
X207657073Y-93230548D01*
X207488551Y-93160744D01*
X207336886Y-93059405D01*
X207207905Y-92930424D01*
X207106566Y-92778759D01*
X207036762Y-92610237D01*
X207001177Y-92431336D01*
X207001177Y-92248930D01*
X207036762Y-92070029D01*
X207106566Y-91901507D01*
X207207905Y-91749842D01*
X207336886Y-91620861D01*
X207488551Y-91519522D01*
X207657073Y-91449718D01*
X207835974Y-91414133D01*
X208018380Y-91414133D01*
X208197281Y-91449718D01*
X208197281Y-91449718D01*
G37*
G36*
X77608974Y-89201184D02*
G01*
X77725935Y-89249631D01*
X77981123Y-89355333D01*
X78316048Y-89579123D01*
X78600877Y-89863952D01*
X78824667Y-90198877D01*
X78849746Y-90259423D01*
X78978816Y-90571026D01*
X79057400Y-90966094D01*
X79057400Y-91368906D01*
X78978816Y-91763974D01*
X78890168Y-91977988D01*
X78824667Y-92136123D01*
X78600877Y-92471048D01*
X78316048Y-92755877D01*
X77981123Y-92979667D01*
X77826974Y-93043517D01*
X77608974Y-93133816D01*
X77213906Y-93212400D01*
X76811094Y-93212400D01*
X76416026Y-93133816D01*
X76198026Y-93043517D01*
X76043877Y-92979667D01*
X75708952Y-92755877D01*
X75424123Y-92471048D01*
X75200333Y-92136123D01*
X75134832Y-91977988D01*
X75046184Y-91763974D01*
X74967600Y-91368906D01*
X74967600Y-90966094D01*
X75046184Y-90571026D01*
X75175254Y-90259423D01*
X75200333Y-90198877D01*
X75424123Y-89863952D01*
X75708952Y-89579123D01*
X76043877Y-89355333D01*
X76299065Y-89249631D01*
X76416026Y-89201184D01*
X76811094Y-89122600D01*
X77213906Y-89122600D01*
X77608974Y-89201184D01*
X77608974Y-89201184D01*
G37*
G36*
X241386689Y-92869454D02*
G01*
X239910462Y-93129753D01*
X239650163Y-91653526D01*
X241126390Y-91393227D01*
X241386689Y-92869454D01*
X241386689Y-92869454D01*
G37*
G36*
X85101351Y-91587609D02*
G01*
X85225547Y-91612312D01*
X85361948Y-91668811D01*
X85484705Y-91750835D01*
X85589101Y-91855231D01*
X85671125Y-91977988D01*
X85727624Y-92114389D01*
X85756426Y-92259191D01*
X85756426Y-92406829D01*
X85727624Y-92551631D01*
X85671125Y-92688032D01*
X85589101Y-92810789D01*
X85484705Y-92915185D01*
X85361948Y-92997209D01*
X85225547Y-93053708D01*
X85101351Y-93078411D01*
X85080746Y-93082510D01*
X84933106Y-93082510D01*
X84912501Y-93078411D01*
X84788305Y-93053708D01*
X84651904Y-92997209D01*
X84529147Y-92915185D01*
X84424751Y-92810789D01*
X84342727Y-92688032D01*
X84286228Y-92551631D01*
X84257426Y-92406829D01*
X84257426Y-92259191D01*
X84286228Y-92114389D01*
X84342727Y-91977988D01*
X84424751Y-91855231D01*
X84529147Y-91750835D01*
X84651904Y-91668811D01*
X84788305Y-91612312D01*
X84912501Y-91587609D01*
X84933106Y-91583510D01*
X85080746Y-91583510D01*
X85101351Y-91587609D01*
X85101351Y-91587609D01*
G37*
G36*
X82285427Y-91159218D02*
G01*
X82453949Y-91229022D01*
X82605614Y-91330361D01*
X82734595Y-91459342D01*
X82835934Y-91611007D01*
X82905738Y-91779529D01*
X82941323Y-91958430D01*
X82941323Y-92140836D01*
X82905738Y-92319737D01*
X82835934Y-92488259D01*
X82734595Y-92639924D01*
X82605614Y-92768905D01*
X82453949Y-92870244D01*
X82285427Y-92940048D01*
X82106526Y-92975633D01*
X81924120Y-92975633D01*
X81745219Y-92940048D01*
X81576697Y-92870244D01*
X81425032Y-92768905D01*
X81296051Y-92639924D01*
X81194712Y-92488259D01*
X81124908Y-92319737D01*
X81089323Y-92140836D01*
X81089323Y-91958430D01*
X81124908Y-91779529D01*
X81194712Y-91611007D01*
X81296051Y-91459342D01*
X81425032Y-91330361D01*
X81576697Y-91229022D01*
X81745219Y-91159218D01*
X81924120Y-91123633D01*
X82106526Y-91123633D01*
X82285427Y-91159218D01*
X82285427Y-91159218D01*
G37*
G36*
X47241299Y-91029892D02*
G01*
X46981000Y-92506119D01*
X45504773Y-92245820D01*
X45765072Y-90769593D01*
X47241299Y-91029892D01*
X47241299Y-91029892D01*
G37*
G36*
X218202927Y-89685452D02*
G01*
X218371449Y-89755256D01*
X218523114Y-89856595D01*
X218652095Y-89985576D01*
X218753434Y-90137241D01*
X218823238Y-90305763D01*
X218858823Y-90484664D01*
X218858823Y-90667070D01*
X218823238Y-90845971D01*
X218753434Y-91014493D01*
X218652095Y-91166158D01*
X218523114Y-91295139D01*
X218371449Y-91396478D01*
X218202927Y-91466282D01*
X218024026Y-91501867D01*
X217841620Y-91501867D01*
X217662719Y-91466282D01*
X217494197Y-91396478D01*
X217342532Y-91295139D01*
X217213551Y-91166158D01*
X217112212Y-91014493D01*
X217042408Y-90845971D01*
X217006823Y-90667070D01*
X217006823Y-90484664D01*
X217042408Y-90305763D01*
X217112212Y-90137241D01*
X217213551Y-89985576D01*
X217342532Y-89856595D01*
X217494197Y-89755256D01*
X217662719Y-89685452D01*
X217841620Y-89649867D01*
X218024026Y-89649867D01*
X218202927Y-89685452D01*
X218202927Y-89685452D01*
G37*
G36*
X72279781Y-89394952D02*
G01*
X72448303Y-89464756D01*
X72599968Y-89566095D01*
X72728949Y-89695076D01*
X72830288Y-89846741D01*
X72900092Y-90015263D01*
X72935677Y-90194164D01*
X72935677Y-90376570D01*
X72900092Y-90555471D01*
X72830288Y-90723993D01*
X72728949Y-90875658D01*
X72599968Y-91004639D01*
X72448303Y-91105978D01*
X72279781Y-91175782D01*
X72100880Y-91211367D01*
X71918474Y-91211367D01*
X71739573Y-91175782D01*
X71571051Y-91105978D01*
X71419386Y-91004639D01*
X71290405Y-90875658D01*
X71189066Y-90723993D01*
X71119262Y-90555471D01*
X71083677Y-90376570D01*
X71083677Y-90194164D01*
X71119262Y-90015263D01*
X71189066Y-89846741D01*
X71290405Y-89695076D01*
X71419386Y-89566095D01*
X71571051Y-89464756D01*
X71739573Y-89394952D01*
X71918474Y-89359367D01*
X72100880Y-89359367D01*
X72279781Y-89394952D01*
X72279781Y-89394952D01*
G37*
G36*
X220901961Y-89036243D02*
G01*
X221026157Y-89060946D01*
X221162558Y-89117445D01*
X221285315Y-89199469D01*
X221389711Y-89303865D01*
X221471735Y-89426622D01*
X221528234Y-89563023D01*
X221548527Y-89665047D01*
X221557036Y-89707824D01*
X221557036Y-89855464D01*
X221552937Y-89876069D01*
X221528234Y-90000265D01*
X221471735Y-90136666D01*
X221389711Y-90259423D01*
X221285315Y-90363819D01*
X221162558Y-90445843D01*
X221026157Y-90502342D01*
X220901961Y-90527045D01*
X220881356Y-90531144D01*
X220733716Y-90531144D01*
X220713111Y-90527045D01*
X220588915Y-90502342D01*
X220452514Y-90445843D01*
X220329757Y-90363819D01*
X220225361Y-90259423D01*
X220143337Y-90136666D01*
X220086838Y-90000265D01*
X220062135Y-89876069D01*
X220058036Y-89855464D01*
X220058036Y-89707824D01*
X220066545Y-89665047D01*
X220086838Y-89563023D01*
X220143337Y-89426622D01*
X220225361Y-89303865D01*
X220329757Y-89199469D01*
X220452514Y-89117445D01*
X220588915Y-89060946D01*
X220713111Y-89036243D01*
X220733716Y-89032144D01*
X220881356Y-89032144D01*
X220901961Y-89036243D01*
X220901961Y-89036243D01*
G37*
G36*
X232251474Y-86191684D02*
G01*
X232461848Y-86278824D01*
X232623623Y-86345833D01*
X232958548Y-86569623D01*
X233243377Y-86854452D01*
X233467167Y-87189377D01*
X233467167Y-87189378D01*
X233621316Y-87561526D01*
X233699900Y-87956594D01*
X233699900Y-88359406D01*
X233621316Y-88754474D01*
X233537348Y-88957190D01*
X233467167Y-89126623D01*
X233243377Y-89461548D01*
X232958548Y-89746377D01*
X232623623Y-89970167D01*
X232469474Y-90034017D01*
X232251474Y-90124316D01*
X231856406Y-90202900D01*
X231453594Y-90202900D01*
X231058526Y-90124316D01*
X230840526Y-90034017D01*
X230686377Y-89970167D01*
X230351452Y-89746377D01*
X230066623Y-89461548D01*
X229842833Y-89126623D01*
X229772652Y-88957190D01*
X229688684Y-88754474D01*
X229610100Y-88359406D01*
X229610100Y-87956594D01*
X229688684Y-87561526D01*
X229842833Y-87189378D01*
X229842833Y-87189377D01*
X230066623Y-86854452D01*
X230351452Y-86569623D01*
X230686377Y-86345833D01*
X230848152Y-86278824D01*
X231058526Y-86191684D01*
X231453594Y-86113100D01*
X231856406Y-86113100D01*
X232251474Y-86191684D01*
X232251474Y-86191684D01*
G37*
G36*
X226922281Y-88149718D02*
G01*
X227090803Y-88219522D01*
X227242468Y-88320861D01*
X227371449Y-88449842D01*
X227472788Y-88601507D01*
X227542592Y-88770029D01*
X227578177Y-88948930D01*
X227578177Y-89131336D01*
X227542592Y-89310237D01*
X227472788Y-89478759D01*
X227371449Y-89630424D01*
X227242468Y-89759405D01*
X227090803Y-89860744D01*
X226922281Y-89930548D01*
X226743380Y-89966133D01*
X226560974Y-89966133D01*
X226382073Y-89930548D01*
X226213551Y-89860744D01*
X226061886Y-89759405D01*
X225932905Y-89630424D01*
X225831566Y-89478759D01*
X225761762Y-89310237D01*
X225726177Y-89131336D01*
X225726177Y-88948930D01*
X225761762Y-88770029D01*
X225831566Y-88601507D01*
X225932905Y-88449842D01*
X226061886Y-88320861D01*
X226213551Y-88219522D01*
X226382073Y-88149718D01*
X226560974Y-88114133D01*
X226743380Y-88114133D01*
X226922281Y-88149718D01*
X226922281Y-88149718D01*
G37*
G36*
X58808974Y-85926184D02*
G01*
X59026974Y-86016483D01*
X59181123Y-86080333D01*
X59516048Y-86304123D01*
X59800877Y-86588952D01*
X60024667Y-86923877D01*
X60086577Y-87073341D01*
X60178816Y-87296026D01*
X60257400Y-87691094D01*
X60257400Y-88093906D01*
X60178816Y-88488974D01*
X60088517Y-88706974D01*
X60024667Y-88861123D01*
X59800877Y-89196048D01*
X59516048Y-89480877D01*
X59181123Y-89704667D01*
X59048973Y-89759405D01*
X58808974Y-89858816D01*
X58413906Y-89937400D01*
X58011094Y-89937400D01*
X57616026Y-89858816D01*
X57376027Y-89759405D01*
X57243877Y-89704667D01*
X56908952Y-89480877D01*
X56624123Y-89196048D01*
X56400333Y-88861123D01*
X56336483Y-88706974D01*
X56246184Y-88488974D01*
X56167600Y-88093906D01*
X56167600Y-87691094D01*
X56246184Y-87296026D01*
X56338423Y-87073341D01*
X56400333Y-86923877D01*
X56624123Y-86588952D01*
X56908952Y-86304123D01*
X57243877Y-86080333D01*
X57398026Y-86016483D01*
X57616026Y-85926184D01*
X58011094Y-85847600D01*
X58413906Y-85847600D01*
X58808974Y-85926184D01*
X58808974Y-85926184D01*
G37*
G36*
X260182689Y-89567454D02*
G01*
X258706462Y-89827753D01*
X258446163Y-88351526D01*
X259922390Y-88091227D01*
X260182689Y-89567454D01*
X260182689Y-89567454D01*
G37*
G36*
X66432351Y-88285609D02*
G01*
X66556547Y-88310312D01*
X66692948Y-88366811D01*
X66815705Y-88448835D01*
X66920101Y-88553231D01*
X67002125Y-88675988D01*
X67058624Y-88812389D01*
X67087426Y-88957191D01*
X67087426Y-89104829D01*
X67058624Y-89249631D01*
X67002125Y-89386032D01*
X66920101Y-89508789D01*
X66815705Y-89613185D01*
X66692948Y-89695209D01*
X66556547Y-89751708D01*
X66432351Y-89776411D01*
X66411746Y-89780510D01*
X66264106Y-89780510D01*
X66243501Y-89776411D01*
X66119305Y-89751708D01*
X65982904Y-89695209D01*
X65860147Y-89613185D01*
X65755751Y-89508789D01*
X65673727Y-89386032D01*
X65617228Y-89249631D01*
X65588426Y-89104829D01*
X65588426Y-88957191D01*
X65617228Y-88812389D01*
X65673727Y-88675988D01*
X65755751Y-88553231D01*
X65860147Y-88448835D01*
X65982904Y-88366811D01*
X66119305Y-88310312D01*
X66243501Y-88285609D01*
X66264106Y-88281510D01*
X66411746Y-88281510D01*
X66432351Y-88285609D01*
X66432351Y-88285609D01*
G37*
G36*
X63485427Y-87884218D02*
G01*
X63653949Y-87954022D01*
X63805614Y-88055361D01*
X63934595Y-88184342D01*
X64035934Y-88336007D01*
X64105738Y-88504529D01*
X64141323Y-88683430D01*
X64141323Y-88865836D01*
X64105738Y-89044737D01*
X64035934Y-89213259D01*
X63934595Y-89364924D01*
X63805614Y-89493905D01*
X63653949Y-89595244D01*
X63485427Y-89665048D01*
X63306526Y-89700633D01*
X63124120Y-89700633D01*
X62945219Y-89665048D01*
X62776697Y-89595244D01*
X62625032Y-89493905D01*
X62496051Y-89364924D01*
X62394712Y-89213259D01*
X62324908Y-89044737D01*
X62289323Y-88865836D01*
X62289323Y-88683430D01*
X62324908Y-88504529D01*
X62394712Y-88336007D01*
X62496051Y-88184342D01*
X62625032Y-88055361D01*
X62776697Y-87954022D01*
X62945219Y-87884218D01*
X63124120Y-87848633D01*
X63306526Y-87848633D01*
X63485427Y-87884218D01*
X63485427Y-87884218D01*
G37*
G36*
X144934164Y-86904489D02*
G01*
X145125433Y-86983715D01*
X145125435Y-86983716D01*
X145158432Y-87005764D01*
X145297573Y-87098735D01*
X145443965Y-87245127D01*
X145558985Y-87417267D01*
X145638211Y-87608536D01*
X145678600Y-87811584D01*
X145678600Y-88018616D01*
X145638211Y-88221664D01*
X145578089Y-88366811D01*
X145558984Y-88412935D01*
X145443965Y-88585073D01*
X145297573Y-88731465D01*
X145125435Y-88846484D01*
X145125434Y-88846485D01*
X145125433Y-88846485D01*
X144934164Y-88925711D01*
X144731116Y-88966100D01*
X144524084Y-88966100D01*
X144321036Y-88925711D01*
X144129767Y-88846485D01*
X144129766Y-88846485D01*
X144129765Y-88846484D01*
X143957627Y-88731465D01*
X143811235Y-88585073D01*
X143696216Y-88412935D01*
X143677111Y-88366811D01*
X143616989Y-88221664D01*
X143576600Y-88018616D01*
X143576600Y-87811584D01*
X143616989Y-87608536D01*
X143696215Y-87417267D01*
X143811235Y-87245127D01*
X143957627Y-87098735D01*
X144096768Y-87005764D01*
X144129765Y-86983716D01*
X144129767Y-86983715D01*
X144321036Y-86904489D01*
X144524084Y-86864100D01*
X144731116Y-86864100D01*
X144934164Y-86904489D01*
X144934164Y-86904489D01*
G37*
G36*
X142434164Y-86904489D02*
G01*
X142625433Y-86983715D01*
X142625435Y-86983716D01*
X142658432Y-87005764D01*
X142797573Y-87098735D01*
X142943965Y-87245127D01*
X143058985Y-87417267D01*
X143138211Y-87608536D01*
X143178600Y-87811584D01*
X143178600Y-88018616D01*
X143138211Y-88221664D01*
X143078089Y-88366811D01*
X143058984Y-88412935D01*
X142943965Y-88585073D01*
X142797573Y-88731465D01*
X142625435Y-88846484D01*
X142625434Y-88846485D01*
X142625433Y-88846485D01*
X142434164Y-88925711D01*
X142231116Y-88966100D01*
X142024084Y-88966100D01*
X141821036Y-88925711D01*
X141629767Y-88846485D01*
X141629766Y-88846485D01*
X141629765Y-88846484D01*
X141457627Y-88731465D01*
X141311235Y-88585073D01*
X141196216Y-88412935D01*
X141177111Y-88366811D01*
X141116989Y-88221664D01*
X141076600Y-88018616D01*
X141076600Y-87811584D01*
X141116989Y-87608536D01*
X141196215Y-87417267D01*
X141311235Y-87245127D01*
X141457627Y-87098735D01*
X141596768Y-87005764D01*
X141629765Y-86983716D01*
X141629767Y-86983715D01*
X141821036Y-86904489D01*
X142024084Y-86864100D01*
X142231116Y-86864100D01*
X142434164Y-86904489D01*
X142434164Y-86904489D01*
G37*
G36*
X148178600Y-88966100D02*
G01*
X146076600Y-88966100D01*
X146076600Y-86864100D01*
X148178600Y-86864100D01*
X148178600Y-88966100D01*
X148178600Y-88966100D01*
G37*
G36*
X236927927Y-86385452D02*
G01*
X237096449Y-86455256D01*
X237248114Y-86556595D01*
X237377095Y-86685576D01*
X237478434Y-86837241D01*
X237548238Y-87005763D01*
X237583823Y-87184664D01*
X237583823Y-87367070D01*
X237548238Y-87545971D01*
X237478434Y-87714493D01*
X237377095Y-87866158D01*
X237248114Y-87995139D01*
X237096449Y-88096478D01*
X236927927Y-88166282D01*
X236749026Y-88201867D01*
X236566620Y-88201867D01*
X236387719Y-88166282D01*
X236219197Y-88096478D01*
X236067532Y-87995139D01*
X235938551Y-87866158D01*
X235837212Y-87714493D01*
X235767408Y-87545971D01*
X235731823Y-87367070D01*
X235731823Y-87184664D01*
X235767408Y-87005763D01*
X235837212Y-86837241D01*
X235938551Y-86685576D01*
X236067532Y-86556595D01*
X236219197Y-86455256D01*
X236387719Y-86385452D01*
X236566620Y-86349867D01*
X236749026Y-86349867D01*
X236927927Y-86385452D01*
X236927927Y-86385452D01*
G37*
G36*
X53479781Y-86119952D02*
G01*
X53648303Y-86189756D01*
X53799968Y-86291095D01*
X53928949Y-86420076D01*
X54030288Y-86571741D01*
X54100092Y-86740263D01*
X54135677Y-86919164D01*
X54135677Y-87101570D01*
X54100092Y-87280471D01*
X54030288Y-87448993D01*
X53928949Y-87600658D01*
X53799968Y-87729639D01*
X53648303Y-87830978D01*
X53479781Y-87900782D01*
X53300880Y-87936367D01*
X53118474Y-87936367D01*
X52939573Y-87900782D01*
X52771051Y-87830978D01*
X52619386Y-87729639D01*
X52490405Y-87600658D01*
X52389066Y-87448993D01*
X52319262Y-87280471D01*
X52283677Y-87101570D01*
X52283677Y-86919164D01*
X52319262Y-86740263D01*
X52389066Y-86571741D01*
X52490405Y-86420076D01*
X52619386Y-86291095D01*
X52771051Y-86189756D01*
X52939573Y-86119952D01*
X53118474Y-86084367D01*
X53300880Y-86084367D01*
X53479781Y-86119952D01*
X53479781Y-86119952D01*
G37*
G36*
X239570961Y-85607243D02*
G01*
X239695157Y-85631946D01*
X239831558Y-85688445D01*
X239954315Y-85770469D01*
X240058711Y-85874865D01*
X240140735Y-85997622D01*
X240197234Y-86134023D01*
X240226036Y-86278825D01*
X240226036Y-86426463D01*
X240197234Y-86571265D01*
X240140735Y-86707666D01*
X240058711Y-86830423D01*
X239954315Y-86934819D01*
X239831558Y-87016843D01*
X239695157Y-87073342D01*
X239570961Y-87098045D01*
X239550356Y-87102144D01*
X239402716Y-87102144D01*
X239382111Y-87098045D01*
X239257915Y-87073342D01*
X239121514Y-87016843D01*
X238998757Y-86934819D01*
X238894361Y-86830423D01*
X238812337Y-86707666D01*
X238755838Y-86571265D01*
X238727036Y-86426463D01*
X238727036Y-86278825D01*
X238755838Y-86134023D01*
X238812337Y-85997622D01*
X238894361Y-85874865D01*
X238998757Y-85770469D01*
X239121514Y-85688445D01*
X239257915Y-85631946D01*
X239382111Y-85607243D01*
X239402716Y-85603144D01*
X239550356Y-85603144D01*
X239570961Y-85607243D01*
X239570961Y-85607243D01*
G37*
G36*
X125600299Y-85441892D02*
G01*
X125340000Y-86918119D01*
X123863773Y-86657820D01*
X124124072Y-85181593D01*
X125600299Y-85441892D01*
X125600299Y-85441892D01*
G37*
G36*
X251026474Y-82841684D02*
G01*
X251244474Y-82931983D01*
X251398623Y-82995833D01*
X251733548Y-83219623D01*
X252018377Y-83504452D01*
X252242167Y-83839377D01*
X252242167Y-83839378D01*
X252396316Y-84211526D01*
X252474900Y-84606594D01*
X252474900Y-85009406D01*
X252396316Y-85404474D01*
X252314024Y-85603144D01*
X252242167Y-85776623D01*
X252018377Y-86111548D01*
X251733548Y-86396377D01*
X251398623Y-86620167D01*
X251307720Y-86657820D01*
X251026474Y-86774316D01*
X250631406Y-86852900D01*
X250228594Y-86852900D01*
X249833526Y-86774316D01*
X249552280Y-86657820D01*
X249461377Y-86620167D01*
X249126452Y-86396377D01*
X248841623Y-86111548D01*
X248617833Y-85776623D01*
X248545976Y-85603144D01*
X248463684Y-85404474D01*
X248385100Y-85009406D01*
X248385100Y-84606594D01*
X248463684Y-84211526D01*
X248617833Y-83839378D01*
X248617833Y-83839377D01*
X248841623Y-83504452D01*
X249126452Y-83219623D01*
X249461377Y-82995833D01*
X249615526Y-82931983D01*
X249833526Y-82841684D01*
X250228594Y-82763100D01*
X250631406Y-82763100D01*
X251026474Y-82841684D01*
X251026474Y-82841684D01*
G37*
G36*
X40008974Y-82626184D02*
G01*
X40176612Y-82695622D01*
X40381123Y-82780333D01*
X40716048Y-83004123D01*
X41000877Y-83288952D01*
X41224667Y-83623877D01*
X41245115Y-83673243D01*
X41378816Y-83996026D01*
X41457400Y-84391094D01*
X41457400Y-84793906D01*
X41378816Y-85188974D01*
X41289553Y-85404474D01*
X41224667Y-85561123D01*
X41000877Y-85896048D01*
X40716048Y-86180877D01*
X40381123Y-86404667D01*
X40272386Y-86449707D01*
X40008974Y-86558816D01*
X39613906Y-86637400D01*
X39211094Y-86637400D01*
X38816026Y-86558816D01*
X38552614Y-86449707D01*
X38443877Y-86404667D01*
X38108952Y-86180877D01*
X37824123Y-85896048D01*
X37600333Y-85561123D01*
X37535447Y-85404474D01*
X37446184Y-85188974D01*
X37367600Y-84793906D01*
X37367600Y-84391094D01*
X37446184Y-83996026D01*
X37579885Y-83673243D01*
X37600333Y-83623877D01*
X37824123Y-83288952D01*
X38108952Y-83004123D01*
X38443877Y-82780333D01*
X38648388Y-82695622D01*
X38816026Y-82626184D01*
X39211094Y-82547600D01*
X39613906Y-82547600D01*
X40008974Y-82626184D01*
X40008974Y-82626184D01*
G37*
G36*
X245697281Y-84799718D02*
G01*
X245865803Y-84869522D01*
X246017468Y-84970861D01*
X246146449Y-85099842D01*
X246247788Y-85251507D01*
X246317592Y-85420029D01*
X246353177Y-85598930D01*
X246353177Y-85781336D01*
X246317592Y-85960237D01*
X246247788Y-86128759D01*
X246146449Y-86280424D01*
X246017468Y-86409405D01*
X245865803Y-86510744D01*
X245697281Y-86580548D01*
X245518380Y-86616133D01*
X245335974Y-86616133D01*
X245157073Y-86580548D01*
X244988551Y-86510744D01*
X244836886Y-86409405D01*
X244707905Y-86280424D01*
X244606566Y-86128759D01*
X244536762Y-85960237D01*
X244501177Y-85781336D01*
X244501177Y-85598930D01*
X244536762Y-85420029D01*
X244606566Y-85251507D01*
X244707905Y-85099842D01*
X244836886Y-84970861D01*
X244988551Y-84869522D01*
X245157073Y-84799718D01*
X245335974Y-84764133D01*
X245518380Y-84764133D01*
X245697281Y-84799718D01*
X245697281Y-84799718D01*
G37*
G36*
X47509351Y-84983609D02*
G01*
X47633547Y-85008312D01*
X47769948Y-85064811D01*
X47892705Y-85146835D01*
X47997101Y-85251231D01*
X48079125Y-85373988D01*
X48135624Y-85510389D01*
X48164426Y-85655191D01*
X48164426Y-85802829D01*
X48135624Y-85947631D01*
X48079125Y-86084032D01*
X47997101Y-86206789D01*
X47892705Y-86311185D01*
X47769948Y-86393209D01*
X47633547Y-86449708D01*
X47509351Y-86474411D01*
X47488746Y-86478510D01*
X47341106Y-86478510D01*
X47320501Y-86474411D01*
X47196305Y-86449708D01*
X47059904Y-86393209D01*
X46937147Y-86311185D01*
X46832751Y-86206789D01*
X46750727Y-86084032D01*
X46694228Y-85947631D01*
X46665426Y-85802829D01*
X46665426Y-85655191D01*
X46694228Y-85510389D01*
X46750727Y-85373988D01*
X46832751Y-85251231D01*
X46937147Y-85146835D01*
X47059904Y-85064811D01*
X47196305Y-85008312D01*
X47320501Y-84983609D01*
X47341106Y-84979510D01*
X47488746Y-84979510D01*
X47509351Y-84983609D01*
X47509351Y-84983609D01*
G37*
G36*
X44685427Y-84584218D02*
G01*
X44853949Y-84654022D01*
X45005614Y-84755361D01*
X45134595Y-84884342D01*
X45235934Y-85036007D01*
X45305738Y-85204529D01*
X45341323Y-85383430D01*
X45341323Y-85565836D01*
X45305738Y-85744737D01*
X45235934Y-85913259D01*
X45134595Y-86064924D01*
X45005614Y-86193905D01*
X44853949Y-86295244D01*
X44685427Y-86365048D01*
X44506526Y-86400633D01*
X44324120Y-86400633D01*
X44145219Y-86365048D01*
X43976697Y-86295244D01*
X43825032Y-86193905D01*
X43696051Y-86064924D01*
X43594712Y-85913259D01*
X43524908Y-85744737D01*
X43489323Y-85565836D01*
X43489323Y-85383430D01*
X43524908Y-85204529D01*
X43594712Y-85036007D01*
X43696051Y-84884342D01*
X43825032Y-84755361D01*
X43976697Y-84654022D01*
X44145219Y-84584218D01*
X44324120Y-84548633D01*
X44506526Y-84548633D01*
X44685427Y-84584218D01*
X44685427Y-84584218D01*
G37*
G36*
X152625742Y-83673242D02*
G01*
X152773701Y-83734529D01*
X152906855Y-83823499D01*
X153020101Y-83936745D01*
X153109071Y-84069899D01*
X153170358Y-84217858D01*
X153201600Y-84374925D01*
X153201600Y-84535075D01*
X153170358Y-84692142D01*
X153109071Y-84840101D01*
X153020101Y-84973255D01*
X152906855Y-85086501D01*
X152773701Y-85175471D01*
X152625742Y-85236758D01*
X152468675Y-85268000D01*
X152308525Y-85268000D01*
X152151458Y-85236758D01*
X152003499Y-85175471D01*
X151870345Y-85086501D01*
X151757099Y-84973255D01*
X151668129Y-84840101D01*
X151606842Y-84692142D01*
X151575600Y-84535075D01*
X151575600Y-84374925D01*
X151606842Y-84217858D01*
X151668129Y-84069899D01*
X151757099Y-83936745D01*
X151870345Y-83823499D01*
X152003499Y-83734529D01*
X152151458Y-83673242D01*
X152308525Y-83642000D01*
X152468675Y-83642000D01*
X152625742Y-83673242D01*
X152625742Y-83673242D01*
G37*
G36*
X137405742Y-83673242D02*
G01*
X137553701Y-83734529D01*
X137686855Y-83823499D01*
X137800101Y-83936745D01*
X137889071Y-84069899D01*
X137950358Y-84217858D01*
X137981600Y-84374925D01*
X137981600Y-84535075D01*
X137950358Y-84692142D01*
X137889071Y-84840101D01*
X137800101Y-84973255D01*
X137686855Y-85086501D01*
X137553701Y-85175471D01*
X137405742Y-85236758D01*
X137248675Y-85268000D01*
X137088525Y-85268000D01*
X136931458Y-85236758D01*
X136783499Y-85175471D01*
X136650345Y-85086501D01*
X136537099Y-84973255D01*
X136448129Y-84840101D01*
X136386842Y-84692142D01*
X136355600Y-84535075D01*
X136355600Y-84374925D01*
X136386842Y-84217858D01*
X136448129Y-84069899D01*
X136537099Y-83936745D01*
X136650345Y-83823499D01*
X136783499Y-83734529D01*
X136931458Y-83673242D01*
X137088525Y-83642000D01*
X137248675Y-83642000D01*
X137405742Y-83673242D01*
X137405742Y-83673242D01*
G37*
G36*
X255702927Y-83035452D02*
G01*
X255871449Y-83105256D01*
X256023114Y-83206595D01*
X256152095Y-83335576D01*
X256253434Y-83487241D01*
X256323238Y-83655763D01*
X256358823Y-83834664D01*
X256358823Y-84017070D01*
X256323238Y-84195971D01*
X256253434Y-84364493D01*
X256152095Y-84516158D01*
X256023114Y-84645139D01*
X255871449Y-84746478D01*
X255702927Y-84816282D01*
X255524026Y-84851867D01*
X255341620Y-84851867D01*
X255162719Y-84816282D01*
X254994197Y-84746478D01*
X254842532Y-84645139D01*
X254713551Y-84516158D01*
X254612212Y-84364493D01*
X254542408Y-84195971D01*
X254506823Y-84017070D01*
X254506823Y-83834664D01*
X254542408Y-83655763D01*
X254612212Y-83487241D01*
X254713551Y-83335576D01*
X254842532Y-83206595D01*
X254994197Y-83105256D01*
X255162719Y-83035452D01*
X255341620Y-82999867D01*
X255524026Y-82999867D01*
X255702927Y-83035452D01*
X255702927Y-83035452D01*
G37*
G36*
X34679781Y-82819952D02*
G01*
X34848303Y-82889756D01*
X34999968Y-82991095D01*
X35128949Y-83120076D01*
X35230288Y-83271741D01*
X35300092Y-83440263D01*
X35335677Y-83619164D01*
X35335677Y-83801570D01*
X35300092Y-83980471D01*
X35230288Y-84148993D01*
X35128949Y-84300658D01*
X34999968Y-84429639D01*
X34848303Y-84530978D01*
X34679781Y-84600782D01*
X34500880Y-84636367D01*
X34318474Y-84636367D01*
X34139573Y-84600782D01*
X33971051Y-84530978D01*
X33819386Y-84429639D01*
X33690405Y-84300658D01*
X33589066Y-84148993D01*
X33519262Y-83980471D01*
X33483677Y-83801570D01*
X33483677Y-83619164D01*
X33519262Y-83440263D01*
X33589066Y-83271741D01*
X33690405Y-83120076D01*
X33819386Y-82991095D01*
X33971051Y-82889756D01*
X34139573Y-82819952D01*
X34318474Y-82784367D01*
X34500880Y-82784367D01*
X34679781Y-82819952D01*
X34679781Y-82819952D01*
G37*
G36*
X181823689Y-84233454D02*
G01*
X180347462Y-84493753D01*
X180087163Y-83017526D01*
X181563390Y-82757227D01*
X181823689Y-84233454D01*
X181823689Y-84233454D01*
G37*
G36*
X258366961Y-82305243D02*
G01*
X258491157Y-82329946D01*
X258627558Y-82386445D01*
X258750315Y-82468469D01*
X258854711Y-82572865D01*
X258936735Y-82695622D01*
X258993234Y-82832023D01*
X259022036Y-82976825D01*
X259022036Y-83124463D01*
X258993234Y-83269265D01*
X258936735Y-83405666D01*
X258854711Y-83528423D01*
X258750315Y-83632819D01*
X258627558Y-83714843D01*
X258491157Y-83771342D01*
X258366961Y-83796045D01*
X258346356Y-83800144D01*
X258198716Y-83800144D01*
X258178111Y-83796045D01*
X258053915Y-83771342D01*
X257917514Y-83714843D01*
X257794757Y-83632819D01*
X257690361Y-83528423D01*
X257608337Y-83405666D01*
X257551838Y-83269265D01*
X257523036Y-83124463D01*
X257523036Y-82976825D01*
X257551838Y-82832023D01*
X257608337Y-82695622D01*
X257690361Y-82572865D01*
X257794757Y-82468469D01*
X257917514Y-82386445D01*
X258053915Y-82329946D01*
X258178111Y-82305243D01*
X258198716Y-82301144D01*
X258346356Y-82301144D01*
X258366961Y-82305243D01*
X258366961Y-82305243D01*
G37*
G36*
X106931299Y-82139892D02*
G01*
X106671000Y-83616119D01*
X105194773Y-83355820D01*
X105455072Y-81879593D01*
X106931299Y-82139892D01*
X106931299Y-82139892D01*
G37*
G36*
X152625742Y-81133242D02*
G01*
X152773701Y-81194529D01*
X152906855Y-81283499D01*
X153020101Y-81396745D01*
X153109071Y-81529899D01*
X153170358Y-81677858D01*
X153201600Y-81834925D01*
X153201600Y-81995075D01*
X153170358Y-82152142D01*
X153109071Y-82300101D01*
X153020101Y-82433255D01*
X152906855Y-82546501D01*
X152773701Y-82635471D01*
X152625742Y-82696758D01*
X152468675Y-82728000D01*
X152308525Y-82728000D01*
X152151458Y-82696758D01*
X152003499Y-82635471D01*
X151870345Y-82546501D01*
X151757099Y-82433255D01*
X151668129Y-82300101D01*
X151606842Y-82152142D01*
X151575600Y-81995075D01*
X151575600Y-81834925D01*
X151606842Y-81677858D01*
X151668129Y-81529899D01*
X151757099Y-81396745D01*
X151870345Y-81283499D01*
X152003499Y-81194529D01*
X152151458Y-81133242D01*
X152308525Y-81102000D01*
X152468675Y-81102000D01*
X152625742Y-81133242D01*
X152625742Y-81133242D01*
G37*
G36*
X137405742Y-81133242D02*
G01*
X137553701Y-81194529D01*
X137686855Y-81283499D01*
X137800101Y-81396745D01*
X137889071Y-81529899D01*
X137950358Y-81677858D01*
X137981600Y-81834925D01*
X137981600Y-81995075D01*
X137950358Y-82152142D01*
X137889071Y-82300101D01*
X137800101Y-82433255D01*
X137686855Y-82546501D01*
X137553701Y-82635471D01*
X137405742Y-82696758D01*
X137248675Y-82728000D01*
X137088525Y-82728000D01*
X136931458Y-82696758D01*
X136783499Y-82635471D01*
X136650345Y-82546501D01*
X136537099Y-82433255D01*
X136448129Y-82300101D01*
X136386842Y-82152142D01*
X136355600Y-81995075D01*
X136355600Y-81834925D01*
X136386842Y-81677858D01*
X136448129Y-81529899D01*
X136537099Y-81396745D01*
X136650345Y-81283499D01*
X136783499Y-81194529D01*
X136931458Y-81133242D01*
X137088525Y-81102000D01*
X137248675Y-81102000D01*
X137405742Y-81133242D01*
X137405742Y-81133242D01*
G37*
G36*
X172580360Y-77408960D02*
G01*
X172718298Y-77466096D01*
X172952509Y-77563109D01*
X173287434Y-77786899D01*
X173572263Y-78071728D01*
X173796053Y-78406653D01*
X173859903Y-78560802D01*
X173950202Y-78778802D01*
X174028786Y-79173870D01*
X174028786Y-79576682D01*
X173950202Y-79971750D01*
X173860628Y-80188000D01*
X173796053Y-80343899D01*
X173572263Y-80678824D01*
X173287434Y-80963653D01*
X172952509Y-81187443D01*
X172798360Y-81251293D01*
X172580360Y-81341592D01*
X172185292Y-81420176D01*
X171782480Y-81420176D01*
X171387412Y-81341592D01*
X171169412Y-81251293D01*
X171015263Y-81187443D01*
X170680338Y-80963653D01*
X170395509Y-80678824D01*
X170171719Y-80343899D01*
X170107144Y-80188000D01*
X170017570Y-79971750D01*
X169938986Y-79576682D01*
X169938986Y-79173870D01*
X170017570Y-78778802D01*
X170107869Y-78560802D01*
X170171719Y-78406653D01*
X170395509Y-78071728D01*
X170680338Y-77786899D01*
X171015263Y-77563109D01*
X171249474Y-77466096D01*
X171387412Y-77408960D01*
X171782480Y-77330376D01*
X172185292Y-77330376D01*
X172580360Y-77408960D01*
X172580360Y-77408960D01*
G37*
G36*
X167251167Y-79366994D02*
G01*
X167419689Y-79436798D01*
X167571354Y-79538137D01*
X167700335Y-79667118D01*
X167801674Y-79818783D01*
X167871478Y-79987305D01*
X167907063Y-80166206D01*
X167907063Y-80348612D01*
X167871478Y-80527513D01*
X167801674Y-80696035D01*
X167700335Y-80847700D01*
X167571354Y-80976681D01*
X167419689Y-81078020D01*
X167251167Y-81147824D01*
X167072266Y-81183409D01*
X166889860Y-81183409D01*
X166710959Y-81147824D01*
X166542437Y-81078020D01*
X166390772Y-80976681D01*
X166261791Y-80847700D01*
X166160452Y-80696035D01*
X166090648Y-80527513D01*
X166055063Y-80348612D01*
X166055063Y-80166206D01*
X166090648Y-79987305D01*
X166160452Y-79818783D01*
X166261791Y-79667118D01*
X166390772Y-79538137D01*
X166542437Y-79436798D01*
X166710959Y-79366994D01*
X166889860Y-79331409D01*
X167072266Y-79331409D01*
X167251167Y-79366994D01*
X167251167Y-79366994D01*
G37*
G36*
X118308974Y-77101184D02*
G01*
X118526974Y-77191483D01*
X118681123Y-77255333D01*
X119016048Y-77479123D01*
X119300877Y-77763952D01*
X119524667Y-78098877D01*
X119564242Y-78194420D01*
X119678816Y-78471026D01*
X119757400Y-78866094D01*
X119757400Y-79268906D01*
X119678816Y-79663974D01*
X119588517Y-79881974D01*
X119524667Y-80036123D01*
X119300877Y-80371048D01*
X119016048Y-80655877D01*
X118681123Y-80879667D01*
X118526974Y-80943517D01*
X118308974Y-81033816D01*
X117913906Y-81112400D01*
X117511094Y-81112400D01*
X117116026Y-81033816D01*
X116898026Y-80943517D01*
X116743877Y-80879667D01*
X116408952Y-80655877D01*
X116124123Y-80371048D01*
X115900333Y-80036123D01*
X115836483Y-79881974D01*
X115746184Y-79663974D01*
X115667600Y-79268906D01*
X115667600Y-78866094D01*
X115746184Y-78471026D01*
X115860758Y-78194420D01*
X115900333Y-78098877D01*
X116124123Y-77763952D01*
X116408952Y-77479123D01*
X116743877Y-77255333D01*
X116898026Y-77191483D01*
X117116026Y-77101184D01*
X117511094Y-77022600D01*
X117913906Y-77022600D01*
X118308974Y-77101184D01*
X118308974Y-77101184D01*
G37*
G36*
X200619689Y-80804454D02*
G01*
X199143462Y-81064753D01*
X198883163Y-79588526D01*
X200359390Y-79328227D01*
X200619689Y-80804454D01*
X200619689Y-80804454D01*
G37*
G36*
X125868351Y-79395609D02*
G01*
X125992547Y-79420312D01*
X126128948Y-79476811D01*
X126251705Y-79558835D01*
X126356101Y-79663231D01*
X126438125Y-79785988D01*
X126494624Y-79922389D01*
X126523426Y-80067191D01*
X126523426Y-80214829D01*
X126494624Y-80359631D01*
X126438125Y-80496032D01*
X126356101Y-80618789D01*
X126251705Y-80723185D01*
X126128948Y-80805209D01*
X125992547Y-80861708D01*
X125868351Y-80886411D01*
X125847746Y-80890510D01*
X125700106Y-80890510D01*
X125679501Y-80886411D01*
X125555305Y-80861708D01*
X125418904Y-80805209D01*
X125296147Y-80723185D01*
X125191751Y-80618789D01*
X125109727Y-80496032D01*
X125053228Y-80359631D01*
X125024426Y-80214829D01*
X125024426Y-80067191D01*
X125053228Y-79922389D01*
X125109727Y-79785988D01*
X125191751Y-79663231D01*
X125296147Y-79558835D01*
X125418904Y-79476811D01*
X125555305Y-79420312D01*
X125679501Y-79395609D01*
X125700106Y-79391510D01*
X125847746Y-79391510D01*
X125868351Y-79395609D01*
X125868351Y-79395609D01*
G37*
G36*
X122985427Y-79059218D02*
G01*
X123153949Y-79129022D01*
X123305614Y-79230361D01*
X123434595Y-79359342D01*
X123535934Y-79511007D01*
X123605738Y-79679529D01*
X123641323Y-79858430D01*
X123641323Y-80040836D01*
X123605738Y-80219737D01*
X123535934Y-80388259D01*
X123434595Y-80539924D01*
X123305614Y-80668905D01*
X123153949Y-80770244D01*
X122985427Y-80840048D01*
X122806526Y-80875633D01*
X122624120Y-80875633D01*
X122445219Y-80840048D01*
X122276697Y-80770244D01*
X122125032Y-80668905D01*
X121996051Y-80539924D01*
X121894712Y-80388259D01*
X121824908Y-80219737D01*
X121789323Y-80040836D01*
X121789323Y-79858430D01*
X121824908Y-79679529D01*
X121894712Y-79511007D01*
X121996051Y-79359342D01*
X122125032Y-79230361D01*
X122276697Y-79129022D01*
X122445219Y-79059218D01*
X122624120Y-79023633D01*
X122806526Y-79023633D01*
X122985427Y-79059218D01*
X122985427Y-79059218D01*
G37*
G36*
X88167818Y-78736959D02*
G01*
X87907519Y-80213186D01*
X86431292Y-79952887D01*
X86691591Y-78476660D01*
X88167818Y-78736959D01*
X88167818Y-78736959D01*
G37*
G36*
X152625742Y-78593242D02*
G01*
X152773701Y-78654529D01*
X152906855Y-78743499D01*
X153020101Y-78856745D01*
X153109071Y-78989899D01*
X153170358Y-79137858D01*
X153201600Y-79294925D01*
X153201600Y-79455075D01*
X153170358Y-79612142D01*
X153109071Y-79760101D01*
X153020101Y-79893255D01*
X152906855Y-80006501D01*
X152773701Y-80095471D01*
X152625742Y-80156758D01*
X152468675Y-80188000D01*
X152308525Y-80188000D01*
X152151458Y-80156758D01*
X152003499Y-80095471D01*
X151870345Y-80006501D01*
X151757099Y-79893255D01*
X151668129Y-79760101D01*
X151606842Y-79612142D01*
X151575600Y-79455075D01*
X151575600Y-79294925D01*
X151606842Y-79137858D01*
X151668129Y-78989899D01*
X151757099Y-78856745D01*
X151870345Y-78743499D01*
X152003499Y-78654529D01*
X152151458Y-78593242D01*
X152308525Y-78562000D01*
X152468675Y-78562000D01*
X152625742Y-78593242D01*
X152625742Y-78593242D01*
G37*
G36*
X137405742Y-78593242D02*
G01*
X137553701Y-78654529D01*
X137686855Y-78743499D01*
X137800101Y-78856745D01*
X137889071Y-78989899D01*
X137950358Y-79137858D01*
X137981600Y-79294925D01*
X137981600Y-79455075D01*
X137950358Y-79612142D01*
X137889071Y-79760101D01*
X137800101Y-79893255D01*
X137686855Y-80006501D01*
X137553701Y-80095471D01*
X137405742Y-80156758D01*
X137248675Y-80188000D01*
X137088525Y-80188000D01*
X136931458Y-80156758D01*
X136783499Y-80095471D01*
X136650345Y-80006501D01*
X136537099Y-79893255D01*
X136448129Y-79760101D01*
X136386842Y-79612142D01*
X136355600Y-79455075D01*
X136355600Y-79294925D01*
X136386842Y-79137858D01*
X136448129Y-78989899D01*
X136537099Y-78856745D01*
X136650345Y-78743499D01*
X136783499Y-78654529D01*
X136931458Y-78593242D01*
X137088525Y-78562000D01*
X137248675Y-78562000D01*
X137405742Y-78593242D01*
X137405742Y-78593242D01*
G37*
G36*
X177256813Y-77602728D02*
G01*
X177425335Y-77672532D01*
X177577000Y-77773871D01*
X177705981Y-77902852D01*
X177807320Y-78054517D01*
X177877124Y-78223039D01*
X177912709Y-78401940D01*
X177912709Y-78584346D01*
X177877124Y-78763247D01*
X177807320Y-78931769D01*
X177705981Y-79083434D01*
X177577000Y-79212415D01*
X177425335Y-79313754D01*
X177256813Y-79383558D01*
X177077912Y-79419143D01*
X176895506Y-79419143D01*
X176716605Y-79383558D01*
X176548083Y-79313754D01*
X176396418Y-79212415D01*
X176267437Y-79083434D01*
X176166098Y-78931769D01*
X176096294Y-78763247D01*
X176060709Y-78584346D01*
X176060709Y-78401940D01*
X176096294Y-78223039D01*
X176166098Y-78054517D01*
X176267437Y-77902852D01*
X176396418Y-77773871D01*
X176548083Y-77672532D01*
X176716605Y-77602728D01*
X176895506Y-77567143D01*
X177077912Y-77567143D01*
X177256813Y-77602728D01*
X177256813Y-77602728D01*
G37*
G36*
X112979781Y-77294952D02*
G01*
X113148303Y-77364756D01*
X113299968Y-77466095D01*
X113428949Y-77595076D01*
X113530288Y-77746741D01*
X113600092Y-77915263D01*
X113635677Y-78094164D01*
X113635677Y-78276570D01*
X113600092Y-78455471D01*
X113530288Y-78623993D01*
X113428949Y-78775658D01*
X113299968Y-78904639D01*
X113148303Y-79005978D01*
X112979781Y-79075782D01*
X112800880Y-79111367D01*
X112618474Y-79111367D01*
X112439573Y-79075782D01*
X112271051Y-79005978D01*
X112119386Y-78904639D01*
X111990405Y-78775658D01*
X111889066Y-78623993D01*
X111819262Y-78455471D01*
X111783677Y-78276570D01*
X111783677Y-78094164D01*
X111819262Y-77915263D01*
X111889066Y-77746741D01*
X111990405Y-77595076D01*
X112119386Y-77466095D01*
X112271051Y-77364756D01*
X112439573Y-77294952D01*
X112618474Y-77259367D01*
X112800880Y-77259367D01*
X112979781Y-77294952D01*
X112979781Y-77294952D01*
G37*
G36*
X180007961Y-76971243D02*
G01*
X180132157Y-76995946D01*
X180268558Y-77052445D01*
X180391315Y-77134469D01*
X180495711Y-77238865D01*
X180577735Y-77361622D01*
X180634234Y-77498023D01*
X180663036Y-77642825D01*
X180663036Y-77790463D01*
X180634234Y-77935265D01*
X180577735Y-78071666D01*
X180495711Y-78194423D01*
X180391315Y-78298819D01*
X180268558Y-78380843D01*
X180132157Y-78437342D01*
X180007961Y-78462045D01*
X179987356Y-78466144D01*
X179839716Y-78466144D01*
X179819111Y-78462045D01*
X179694915Y-78437342D01*
X179558514Y-78380843D01*
X179435757Y-78298819D01*
X179331361Y-78194423D01*
X179249337Y-78071666D01*
X179192838Y-77935265D01*
X179164036Y-77790463D01*
X179164036Y-77642825D01*
X179192838Y-77498023D01*
X179249337Y-77361622D01*
X179331361Y-77238865D01*
X179435757Y-77134469D01*
X179558514Y-77052445D01*
X179694915Y-76995946D01*
X179819111Y-76971243D01*
X179839716Y-76967144D01*
X179987356Y-76967144D01*
X180007961Y-76971243D01*
X180007961Y-76971243D01*
G37*
G36*
X191376474Y-74116684D02*
G01*
X191553590Y-74190048D01*
X191748623Y-74270833D01*
X192083548Y-74494623D01*
X192368377Y-74779452D01*
X192592167Y-75114377D01*
X192592167Y-75114378D01*
X192746316Y-75486526D01*
X192824900Y-75881594D01*
X192824900Y-76284406D01*
X192746316Y-76679474D01*
X192657151Y-76894736D01*
X192592167Y-77051623D01*
X192368377Y-77386548D01*
X192083548Y-77671377D01*
X191748623Y-77895167D01*
X191651817Y-77935265D01*
X191376474Y-78049316D01*
X190981406Y-78127900D01*
X190578594Y-78127900D01*
X190183526Y-78049316D01*
X189908183Y-77935265D01*
X189811377Y-77895167D01*
X189476452Y-77671377D01*
X189191623Y-77386548D01*
X188967833Y-77051623D01*
X188902849Y-76894736D01*
X188813684Y-76679474D01*
X188735100Y-76284406D01*
X188735100Y-75881594D01*
X188813684Y-75486526D01*
X188967833Y-75114378D01*
X188967833Y-75114377D01*
X189191623Y-74779452D01*
X189476452Y-74494623D01*
X189811377Y-74270833D01*
X190006410Y-74190048D01*
X190183526Y-74116684D01*
X190578594Y-74038100D01*
X190981406Y-74038100D01*
X191376474Y-74116684D01*
X191376474Y-74116684D01*
G37*
G36*
X186047281Y-76074718D02*
G01*
X186215803Y-76144522D01*
X186367468Y-76245861D01*
X186496449Y-76374842D01*
X186597788Y-76526507D01*
X186667592Y-76695029D01*
X186703177Y-76873930D01*
X186703177Y-77056336D01*
X186667592Y-77235237D01*
X186597788Y-77403759D01*
X186496449Y-77555424D01*
X186367468Y-77684405D01*
X186215803Y-77785744D01*
X186047281Y-77855548D01*
X185868380Y-77891133D01*
X185685974Y-77891133D01*
X185507073Y-77855548D01*
X185338551Y-77785744D01*
X185186886Y-77684405D01*
X185057905Y-77555424D01*
X184956566Y-77403759D01*
X184886762Y-77235237D01*
X184851177Y-77056336D01*
X184851177Y-76873930D01*
X184886762Y-76695029D01*
X184956566Y-76526507D01*
X185057905Y-76374842D01*
X185186886Y-76245861D01*
X185338551Y-76144522D01*
X185507073Y-76074718D01*
X185685974Y-76039133D01*
X185868380Y-76039133D01*
X186047281Y-76074718D01*
X186047281Y-76074718D01*
G37*
G36*
X99583974Y-73776184D02*
G01*
X99801974Y-73866483D01*
X99956123Y-73930333D01*
X100291048Y-74154123D01*
X100575877Y-74438952D01*
X100799667Y-74773877D01*
X100839407Y-74869819D01*
X100953816Y-75146026D01*
X101032400Y-75541094D01*
X101032400Y-75943906D01*
X100953816Y-76338974D01*
X100863517Y-76556974D01*
X100799667Y-76711123D01*
X100575877Y-77046048D01*
X100291048Y-77330877D01*
X99956123Y-77554667D01*
X99806224Y-77616757D01*
X99583974Y-77708816D01*
X99188906Y-77787400D01*
X98786094Y-77787400D01*
X98391026Y-77708816D01*
X98168776Y-77616757D01*
X98018877Y-77554667D01*
X97683952Y-77330877D01*
X97399123Y-77046048D01*
X97175333Y-76711123D01*
X97111483Y-76556974D01*
X97021184Y-76338974D01*
X96942600Y-75943906D01*
X96942600Y-75541094D01*
X97021184Y-75146026D01*
X97135593Y-74869819D01*
X97175333Y-74773877D01*
X97399123Y-74438952D01*
X97683952Y-74154123D01*
X98018877Y-73930333D01*
X98173026Y-73866483D01*
X98391026Y-73776184D01*
X98786094Y-73697600D01*
X99188906Y-73697600D01*
X99583974Y-73776184D01*
X99583974Y-73776184D01*
G37*
G36*
X219288689Y-77502454D02*
G01*
X217812462Y-77762753D01*
X217552163Y-76286526D01*
X219028390Y-76026227D01*
X219288689Y-77502454D01*
X219288689Y-77502454D01*
G37*
G36*
X152625742Y-76053242D02*
G01*
X152773701Y-76114529D01*
X152906855Y-76203499D01*
X153020101Y-76316745D01*
X153109071Y-76449899D01*
X153170358Y-76597858D01*
X153201600Y-76754925D01*
X153201600Y-76915075D01*
X153170358Y-77072142D01*
X153109071Y-77220101D01*
X153020101Y-77353255D01*
X152906855Y-77466501D01*
X152773701Y-77555471D01*
X152625742Y-77616758D01*
X152468675Y-77648000D01*
X152308525Y-77648000D01*
X152151458Y-77616758D01*
X152003499Y-77555471D01*
X151870345Y-77466501D01*
X151757099Y-77353255D01*
X151668129Y-77220101D01*
X151606842Y-77072142D01*
X151575600Y-76915075D01*
X151575600Y-76754925D01*
X151606842Y-76597858D01*
X151668129Y-76449899D01*
X151757099Y-76316745D01*
X151870345Y-76203499D01*
X152003499Y-76114529D01*
X152151458Y-76053242D01*
X152308525Y-76022000D01*
X152468675Y-76022000D01*
X152625742Y-76053242D01*
X152625742Y-76053242D01*
G37*
G36*
X137405742Y-76053242D02*
G01*
X137553701Y-76114529D01*
X137686855Y-76203499D01*
X137800101Y-76316745D01*
X137889071Y-76449899D01*
X137950358Y-76597858D01*
X137981600Y-76754925D01*
X137981600Y-76915075D01*
X137950358Y-77072142D01*
X137889071Y-77220101D01*
X137800101Y-77353255D01*
X137686855Y-77466501D01*
X137553701Y-77555471D01*
X137405742Y-77616758D01*
X137248675Y-77648000D01*
X137088525Y-77648000D01*
X136931458Y-77616758D01*
X136783499Y-77555471D01*
X136650345Y-77466501D01*
X136537099Y-77353255D01*
X136448129Y-77220101D01*
X136386842Y-77072142D01*
X136355600Y-76915075D01*
X136355600Y-76754925D01*
X136386842Y-76597858D01*
X136448129Y-76449899D01*
X136537099Y-76316745D01*
X136650345Y-76203499D01*
X136783499Y-76114529D01*
X136931458Y-76053242D01*
X137088525Y-76022000D01*
X137248675Y-76022000D01*
X137405742Y-76053242D01*
X137405742Y-76053242D01*
G37*
G36*
X107187649Y-76091281D02*
G01*
X107323547Y-76118312D01*
X107459948Y-76174811D01*
X107582705Y-76256835D01*
X107687101Y-76361231D01*
X107769125Y-76483988D01*
X107825624Y-76620389D01*
X107844609Y-76715836D01*
X107854426Y-76765190D01*
X107854426Y-76912830D01*
X107853979Y-76915075D01*
X107825624Y-77057631D01*
X107769125Y-77194032D01*
X107687101Y-77316789D01*
X107582705Y-77421185D01*
X107459948Y-77503209D01*
X107323547Y-77559708D01*
X107199351Y-77584411D01*
X107178746Y-77588510D01*
X107031106Y-77588510D01*
X107010501Y-77584411D01*
X106886305Y-77559708D01*
X106749904Y-77503209D01*
X106627147Y-77421185D01*
X106522751Y-77316789D01*
X106440727Y-77194032D01*
X106384228Y-77057631D01*
X106355873Y-76915075D01*
X106355426Y-76912830D01*
X106355426Y-76765190D01*
X106365243Y-76715836D01*
X106384228Y-76620389D01*
X106440727Y-76483988D01*
X106522751Y-76361231D01*
X106627147Y-76256835D01*
X106749904Y-76174811D01*
X106886305Y-76118312D01*
X107022203Y-76091281D01*
X107031106Y-76089510D01*
X107178746Y-76089510D01*
X107187649Y-76091281D01*
X107187649Y-76091281D01*
G37*
G36*
X104260427Y-75734218D02*
G01*
X104428949Y-75804022D01*
X104580614Y-75905361D01*
X104709595Y-76034342D01*
X104810934Y-76186007D01*
X104880738Y-76354529D01*
X104916323Y-76533430D01*
X104916323Y-76715836D01*
X104880738Y-76894737D01*
X104810934Y-77063259D01*
X104709595Y-77214924D01*
X104580614Y-77343905D01*
X104428949Y-77445244D01*
X104260427Y-77515048D01*
X104081526Y-77550633D01*
X103899120Y-77550633D01*
X103720219Y-77515048D01*
X103551697Y-77445244D01*
X103400032Y-77343905D01*
X103271051Y-77214924D01*
X103169712Y-77063259D01*
X103099908Y-76894737D01*
X103064323Y-76715836D01*
X103064323Y-76533430D01*
X103099908Y-76354529D01*
X103169712Y-76186007D01*
X103271051Y-76034342D01*
X103400032Y-75905361D01*
X103551697Y-75804022D01*
X103720219Y-75734218D01*
X103899120Y-75698633D01*
X104081526Y-75698633D01*
X104260427Y-75734218D01*
X104260427Y-75734218D01*
G37*
G36*
X69339299Y-75535892D02*
G01*
X69079000Y-77012119D01*
X67602773Y-76751820D01*
X67863072Y-75275593D01*
X69339299Y-75535892D01*
X69339299Y-75535892D01*
G37*
G36*
X196052927Y-74310452D02*
G01*
X196221449Y-74380256D01*
X196373114Y-74481595D01*
X196502095Y-74610576D01*
X196603434Y-74762241D01*
X196673238Y-74930763D01*
X196708823Y-75109664D01*
X196708823Y-75292070D01*
X196673238Y-75470971D01*
X196603434Y-75639493D01*
X196502095Y-75791158D01*
X196373114Y-75920139D01*
X196221449Y-76021478D01*
X196052927Y-76091282D01*
X195874026Y-76126867D01*
X195691620Y-76126867D01*
X195512719Y-76091282D01*
X195344197Y-76021478D01*
X195192532Y-75920139D01*
X195063551Y-75791158D01*
X194962212Y-75639493D01*
X194892408Y-75470971D01*
X194856823Y-75292070D01*
X194856823Y-75109664D01*
X194892408Y-74930763D01*
X194962212Y-74762241D01*
X195063551Y-74610576D01*
X195192532Y-74481595D01*
X195344197Y-74380256D01*
X195512719Y-74310452D01*
X195691620Y-74274867D01*
X195874026Y-74274867D01*
X196052927Y-74310452D01*
X196052927Y-74310452D01*
G37*
G36*
X94254781Y-73969952D02*
G01*
X94423303Y-74039756D01*
X94574968Y-74141095D01*
X94703949Y-74270076D01*
X94805288Y-74421741D01*
X94875092Y-74590263D01*
X94910677Y-74769164D01*
X94910677Y-74951570D01*
X94875092Y-75130471D01*
X94805288Y-75298993D01*
X94703949Y-75450658D01*
X94574968Y-75579639D01*
X94423303Y-75680978D01*
X94254781Y-75750782D01*
X94075880Y-75786367D01*
X93893474Y-75786367D01*
X93714573Y-75750782D01*
X93546051Y-75680978D01*
X93394386Y-75579639D01*
X93265405Y-75450658D01*
X93164066Y-75298993D01*
X93094262Y-75130471D01*
X93058677Y-74951570D01*
X93058677Y-74769164D01*
X93094262Y-74590263D01*
X93164066Y-74421741D01*
X93265405Y-74270076D01*
X93394386Y-74141095D01*
X93546051Y-74039756D01*
X93714573Y-73969952D01*
X93893474Y-73934367D01*
X94075880Y-73934367D01*
X94254781Y-73969952D01*
X94254781Y-73969952D01*
G37*
G36*
X152625742Y-73513242D02*
G01*
X152773701Y-73574529D01*
X152906855Y-73663499D01*
X153020101Y-73776745D01*
X153109071Y-73909899D01*
X153170358Y-74057858D01*
X153201600Y-74214925D01*
X153201600Y-74375075D01*
X153170358Y-74532142D01*
X153109071Y-74680101D01*
X153020101Y-74813255D01*
X152906855Y-74926501D01*
X152773701Y-75015471D01*
X152625742Y-75076758D01*
X152468675Y-75108000D01*
X152308525Y-75108000D01*
X152151458Y-75076758D01*
X152003499Y-75015471D01*
X151870345Y-74926501D01*
X151757099Y-74813255D01*
X151668129Y-74680101D01*
X151606842Y-74532142D01*
X151575600Y-74375075D01*
X151575600Y-74214925D01*
X151606842Y-74057858D01*
X151668129Y-73909899D01*
X151757099Y-73776745D01*
X151870345Y-73663499D01*
X152003499Y-73574529D01*
X152151458Y-73513242D01*
X152308525Y-73482000D01*
X152468675Y-73482000D01*
X152625742Y-73513242D01*
X152625742Y-73513242D01*
G37*
G36*
X137405742Y-73513242D02*
G01*
X137553701Y-73574529D01*
X137686855Y-73663499D01*
X137800101Y-73776745D01*
X137889071Y-73909899D01*
X137950358Y-74057858D01*
X137981600Y-74214925D01*
X137981600Y-74375075D01*
X137950358Y-74532142D01*
X137889071Y-74680101D01*
X137800101Y-74813255D01*
X137686855Y-74926501D01*
X137553701Y-75015471D01*
X137405742Y-75076758D01*
X137248675Y-75108000D01*
X137088525Y-75108000D01*
X136931458Y-75076758D01*
X136783499Y-75015471D01*
X136650345Y-74926501D01*
X136537099Y-74813255D01*
X136448129Y-74680101D01*
X136386842Y-74532142D01*
X136355600Y-74375075D01*
X136355600Y-74214925D01*
X136386842Y-74057858D01*
X136448129Y-73909899D01*
X136537099Y-73776745D01*
X136650345Y-73663499D01*
X136783499Y-73574529D01*
X136931458Y-73513242D01*
X137088525Y-73482000D01*
X137248675Y-73482000D01*
X137405742Y-73513242D01*
X137405742Y-73513242D01*
G37*
G36*
X198803961Y-73542243D02*
G01*
X198928157Y-73566946D01*
X199064558Y-73623445D01*
X199187315Y-73705469D01*
X199291711Y-73809865D01*
X199373735Y-73932622D01*
X199430234Y-74069023D01*
X199447161Y-74154123D01*
X199459036Y-74213824D01*
X199459036Y-74361464D01*
X199455298Y-74380256D01*
X199430234Y-74506265D01*
X199373735Y-74642666D01*
X199291711Y-74765423D01*
X199187315Y-74869819D01*
X199064558Y-74951843D01*
X198928157Y-75008342D01*
X198803961Y-75033045D01*
X198783356Y-75037144D01*
X198635716Y-75037144D01*
X198615111Y-75033045D01*
X198490915Y-75008342D01*
X198354514Y-74951843D01*
X198231757Y-74869819D01*
X198127361Y-74765423D01*
X198045337Y-74642666D01*
X197988838Y-74506265D01*
X197963774Y-74380256D01*
X197960036Y-74361464D01*
X197960036Y-74213824D01*
X197971911Y-74154123D01*
X197988838Y-74069023D01*
X198045337Y-73932622D01*
X198127361Y-73809865D01*
X198231757Y-73705469D01*
X198354514Y-73623445D01*
X198490915Y-73566946D01*
X198615111Y-73542243D01*
X198635716Y-73538144D01*
X198783356Y-73538144D01*
X198803961Y-73542243D01*
X198803961Y-73542243D01*
G37*
G36*
X210201474Y-70766684D02*
G01*
X210419474Y-70856983D01*
X210573623Y-70920833D01*
X210908548Y-71144623D01*
X211193377Y-71429452D01*
X211417167Y-71764377D01*
X211446451Y-71835075D01*
X211571316Y-72136526D01*
X211649900Y-72531594D01*
X211649900Y-72934406D01*
X211571316Y-73329474D01*
X211484882Y-73538144D01*
X211417167Y-73701623D01*
X211193377Y-74036548D01*
X210908548Y-74321377D01*
X210573623Y-74545167D01*
X210419474Y-74609017D01*
X210201474Y-74699316D01*
X209806406Y-74777900D01*
X209403594Y-74777900D01*
X209008526Y-74699316D01*
X208790526Y-74609017D01*
X208636377Y-74545167D01*
X208301452Y-74321377D01*
X208016623Y-74036548D01*
X207792833Y-73701623D01*
X207725118Y-73538144D01*
X207638684Y-73329474D01*
X207560100Y-72934406D01*
X207560100Y-72531594D01*
X207638684Y-72136526D01*
X207763549Y-71835075D01*
X207792833Y-71764377D01*
X208016623Y-71429452D01*
X208301452Y-71144623D01*
X208636377Y-70920833D01*
X208790526Y-70856983D01*
X209008526Y-70766684D01*
X209403594Y-70688100D01*
X209806406Y-70688100D01*
X210201474Y-70766684D01*
X210201474Y-70766684D01*
G37*
G36*
X204872281Y-72724718D02*
G01*
X205040803Y-72794522D01*
X205192468Y-72895861D01*
X205321449Y-73024842D01*
X205422788Y-73176507D01*
X205492592Y-73345029D01*
X205528177Y-73523930D01*
X205528177Y-73706336D01*
X205492592Y-73885237D01*
X205422788Y-74053759D01*
X205321449Y-74205424D01*
X205192468Y-74334405D01*
X205040803Y-74435744D01*
X204872281Y-74505548D01*
X204693380Y-74541133D01*
X204510974Y-74541133D01*
X204332073Y-74505548D01*
X204163551Y-74435744D01*
X204011886Y-74334405D01*
X203882905Y-74205424D01*
X203781566Y-74053759D01*
X203711762Y-73885237D01*
X203676177Y-73706336D01*
X203676177Y-73523930D01*
X203711762Y-73345029D01*
X203781566Y-73176507D01*
X203882905Y-73024842D01*
X204011886Y-72895861D01*
X204163551Y-72794522D01*
X204332073Y-72724718D01*
X204510974Y-72689133D01*
X204693380Y-72689133D01*
X204872281Y-72724718D01*
X204872281Y-72724718D01*
G37*
G36*
X80858974Y-70451184D02*
G01*
X80995821Y-70507868D01*
X81231123Y-70605333D01*
X81566048Y-70829123D01*
X81850877Y-71113952D01*
X82074667Y-71448877D01*
X82123934Y-71567819D01*
X82228816Y-71821026D01*
X82307400Y-72216094D01*
X82307400Y-72618906D01*
X82228816Y-73013974D01*
X82144531Y-73217456D01*
X82074667Y-73386123D01*
X81850877Y-73721048D01*
X81566048Y-74005877D01*
X81231123Y-74229667D01*
X81133564Y-74270077D01*
X80858974Y-74383816D01*
X80463906Y-74462400D01*
X80061094Y-74462400D01*
X79666026Y-74383816D01*
X79391436Y-74270077D01*
X79293877Y-74229667D01*
X78958952Y-74005877D01*
X78674123Y-73721048D01*
X78450333Y-73386123D01*
X78380469Y-73217456D01*
X78296184Y-73013974D01*
X78217600Y-72618906D01*
X78217600Y-72216094D01*
X78296184Y-71821026D01*
X78401066Y-71567819D01*
X78450333Y-71448877D01*
X78674123Y-71113952D01*
X78958952Y-70829123D01*
X79293877Y-70605333D01*
X79529179Y-70507868D01*
X79666026Y-70451184D01*
X80061094Y-70372600D01*
X80463906Y-70372600D01*
X80858974Y-70451184D01*
X80858974Y-70451184D01*
G37*
G36*
X238084689Y-74200454D02*
G01*
X236608462Y-74460753D01*
X236348163Y-72984526D01*
X237824390Y-72724227D01*
X238084689Y-74200454D01*
X238084689Y-74200454D01*
G37*
G36*
X85535427Y-72409218D02*
G01*
X85703949Y-72479022D01*
X85855614Y-72580361D01*
X85984595Y-72709342D01*
X86085934Y-72861007D01*
X86155738Y-73029529D01*
X86191323Y-73208430D01*
X86191323Y-73390836D01*
X86155738Y-73569737D01*
X86085934Y-73738259D01*
X85984595Y-73889924D01*
X85855614Y-74018905D01*
X85703949Y-74120244D01*
X85535427Y-74190048D01*
X85356526Y-74225633D01*
X85174120Y-74225633D01*
X84995219Y-74190048D01*
X84826697Y-74120244D01*
X84675032Y-74018905D01*
X84546051Y-73889924D01*
X84444712Y-73738259D01*
X84374908Y-73569737D01*
X84339323Y-73390836D01*
X84339323Y-73208430D01*
X84374908Y-73029529D01*
X84444712Y-72861007D01*
X84546051Y-72709342D01*
X84675032Y-72580361D01*
X84826697Y-72479022D01*
X84995219Y-72409218D01*
X85174120Y-72373633D01*
X85356526Y-72373633D01*
X85535427Y-72409218D01*
X85535427Y-72409218D01*
G37*
G36*
X88435870Y-72690676D02*
G01*
X88560066Y-72715379D01*
X88696467Y-72771878D01*
X88819224Y-72853902D01*
X88923620Y-72958298D01*
X89005644Y-73081055D01*
X89062143Y-73217456D01*
X89084424Y-73329474D01*
X89090945Y-73362257D01*
X89090945Y-73509897D01*
X89090279Y-73513243D01*
X89062143Y-73654698D01*
X89005644Y-73791099D01*
X88923620Y-73913856D01*
X88819224Y-74018252D01*
X88696467Y-74100276D01*
X88560066Y-74156775D01*
X88435870Y-74181478D01*
X88415265Y-74185577D01*
X88267625Y-74185577D01*
X88247020Y-74181478D01*
X88122824Y-74156775D01*
X87986423Y-74100276D01*
X87863666Y-74018252D01*
X87759270Y-73913856D01*
X87677246Y-73791099D01*
X87620747Y-73654698D01*
X87592611Y-73513243D01*
X87591945Y-73509897D01*
X87591945Y-73362257D01*
X87598466Y-73329474D01*
X87620747Y-73217456D01*
X87677246Y-73081055D01*
X87759270Y-72958298D01*
X87863666Y-72853902D01*
X87986423Y-72771878D01*
X88122824Y-72715379D01*
X88247020Y-72690676D01*
X88267625Y-72686577D01*
X88415265Y-72686577D01*
X88435870Y-72690676D01*
X88435870Y-72690676D01*
G37*
G36*
X50670299Y-72233892D02*
G01*
X50410000Y-73710119D01*
X48933773Y-73449820D01*
X49194072Y-71973593D01*
X50670299Y-72233892D01*
X50670299Y-72233892D01*
G37*
G36*
X214877927Y-70960452D02*
G01*
X215046449Y-71030256D01*
X215198114Y-71131595D01*
X215327095Y-71260576D01*
X215428434Y-71412241D01*
X215498238Y-71580763D01*
X215533823Y-71759664D01*
X215533823Y-71942070D01*
X215498238Y-72120971D01*
X215428434Y-72289493D01*
X215327095Y-72441158D01*
X215198114Y-72570139D01*
X215046449Y-72671478D01*
X214877927Y-72741282D01*
X214699026Y-72776867D01*
X214516620Y-72776867D01*
X214337719Y-72741282D01*
X214169197Y-72671478D01*
X214017532Y-72570139D01*
X213888551Y-72441158D01*
X213787212Y-72289493D01*
X213717408Y-72120971D01*
X213681823Y-71942070D01*
X213681823Y-71759664D01*
X213717408Y-71580763D01*
X213787212Y-71412241D01*
X213888551Y-71260576D01*
X214017532Y-71131595D01*
X214169197Y-71030256D01*
X214337719Y-70960452D01*
X214516620Y-70924867D01*
X214699026Y-70924867D01*
X214877927Y-70960452D01*
X214877927Y-70960452D01*
G37*
G36*
X137405742Y-70973242D02*
G01*
X137553701Y-71034529D01*
X137686855Y-71123499D01*
X137800101Y-71236745D01*
X137889071Y-71369899D01*
X137950358Y-71517858D01*
X137981600Y-71674925D01*
X137981600Y-71835075D01*
X137950358Y-71992142D01*
X137889071Y-72140101D01*
X137800101Y-72273255D01*
X137686855Y-72386501D01*
X137553701Y-72475471D01*
X137405742Y-72536758D01*
X137248675Y-72568000D01*
X137088525Y-72568000D01*
X136931458Y-72536758D01*
X136783499Y-72475471D01*
X136650345Y-72386501D01*
X136537099Y-72273255D01*
X136448129Y-72140101D01*
X136386842Y-71992142D01*
X136355600Y-71835075D01*
X136355600Y-71674925D01*
X136386842Y-71517858D01*
X136448129Y-71369899D01*
X136537099Y-71236745D01*
X136650345Y-71123499D01*
X136783499Y-71034529D01*
X136931458Y-70973242D01*
X137088525Y-70942000D01*
X137248675Y-70942000D01*
X137405742Y-70973242D01*
X137405742Y-70973242D01*
G37*
G36*
X152625742Y-70973242D02*
G01*
X152773701Y-71034529D01*
X152906855Y-71123499D01*
X153020101Y-71236745D01*
X153109071Y-71369899D01*
X153170358Y-71517858D01*
X153201600Y-71674925D01*
X153201600Y-71835075D01*
X153170358Y-71992142D01*
X153109071Y-72140101D01*
X153020101Y-72273255D01*
X152906855Y-72386501D01*
X152773701Y-72475471D01*
X152625742Y-72536758D01*
X152468675Y-72568000D01*
X152308525Y-72568000D01*
X152151458Y-72536758D01*
X152003499Y-72475471D01*
X151870345Y-72386501D01*
X151757099Y-72273255D01*
X151668129Y-72140101D01*
X151606842Y-71992142D01*
X151575600Y-71835075D01*
X151575600Y-71674925D01*
X151606842Y-71517858D01*
X151668129Y-71369899D01*
X151757099Y-71236745D01*
X151870345Y-71123499D01*
X152003499Y-71034529D01*
X152151458Y-70973242D01*
X152308525Y-70942000D01*
X152468675Y-70942000D01*
X152625742Y-70973242D01*
X152625742Y-70973242D01*
G37*
G36*
X75529781Y-70644952D02*
G01*
X75698303Y-70714756D01*
X75849968Y-70816095D01*
X75978949Y-70945076D01*
X76080288Y-71096741D01*
X76150092Y-71265263D01*
X76185677Y-71444164D01*
X76185677Y-71626570D01*
X76150092Y-71805471D01*
X76080288Y-71973993D01*
X75978949Y-72125658D01*
X75849968Y-72254639D01*
X75698303Y-72355978D01*
X75529781Y-72425782D01*
X75350880Y-72461367D01*
X75168474Y-72461367D01*
X74989573Y-72425782D01*
X74821051Y-72355978D01*
X74669386Y-72254639D01*
X74540405Y-72125658D01*
X74439066Y-71973993D01*
X74369262Y-71805471D01*
X74333677Y-71626570D01*
X74333677Y-71444164D01*
X74369262Y-71265263D01*
X74439066Y-71096741D01*
X74540405Y-70945076D01*
X74669386Y-70816095D01*
X74821051Y-70714756D01*
X74989573Y-70644952D01*
X75168474Y-70609367D01*
X75350880Y-70609367D01*
X75529781Y-70644952D01*
X75529781Y-70644952D01*
G37*
G36*
X217472961Y-70240243D02*
G01*
X217597157Y-70264946D01*
X217733558Y-70321445D01*
X217856315Y-70403469D01*
X217960711Y-70507865D01*
X218042735Y-70630622D01*
X218099234Y-70767023D01*
X218128036Y-70911825D01*
X218128036Y-71059463D01*
X218099234Y-71204265D01*
X218042735Y-71340666D01*
X217960711Y-71463423D01*
X217856315Y-71567819D01*
X217733558Y-71649843D01*
X217597157Y-71706342D01*
X217472961Y-71731045D01*
X217452356Y-71735144D01*
X217304716Y-71735144D01*
X217284111Y-71731045D01*
X217159915Y-71706342D01*
X217023514Y-71649843D01*
X216900757Y-71567819D01*
X216796361Y-71463423D01*
X216714337Y-71340666D01*
X216657838Y-71204265D01*
X216629036Y-71059463D01*
X216629036Y-70911825D01*
X216657838Y-70767023D01*
X216714337Y-70630622D01*
X216796361Y-70507865D01*
X216900757Y-70403469D01*
X217023514Y-70321445D01*
X217159915Y-70264946D01*
X217284111Y-70240243D01*
X217304716Y-70236144D01*
X217452356Y-70236144D01*
X217472961Y-70240243D01*
X217472961Y-70240243D01*
G37*
G36*
X228976474Y-67466684D02*
G01*
X229194474Y-67556983D01*
X229348623Y-67620833D01*
X229683548Y-67844623D01*
X229968377Y-68129452D01*
X230192167Y-68464377D01*
X230256017Y-68618526D01*
X230346316Y-68836526D01*
X230424900Y-69231594D01*
X230424900Y-69634406D01*
X230346316Y-70029474D01*
X230260710Y-70236144D01*
X230192167Y-70401623D01*
X229968377Y-70736548D01*
X229683548Y-71021377D01*
X229348623Y-71245167D01*
X229300104Y-71265264D01*
X228976474Y-71399316D01*
X228581406Y-71477900D01*
X228178594Y-71477900D01*
X227783526Y-71399316D01*
X227459896Y-71265264D01*
X227411377Y-71245167D01*
X227076452Y-71021377D01*
X226791623Y-70736548D01*
X226567833Y-70401623D01*
X226499290Y-70236144D01*
X226413684Y-70029474D01*
X226335100Y-69634406D01*
X226335100Y-69231594D01*
X226413684Y-68836526D01*
X226503983Y-68618526D01*
X226567833Y-68464377D01*
X226791623Y-68129452D01*
X227076452Y-67844623D01*
X227411377Y-67620833D01*
X227565526Y-67556983D01*
X227783526Y-67466684D01*
X228178594Y-67388100D01*
X228581406Y-67388100D01*
X228976474Y-67466684D01*
X228976474Y-67466684D01*
G37*
G36*
X223647281Y-69424718D02*
G01*
X223815803Y-69494522D01*
X223967468Y-69595861D01*
X224096449Y-69724842D01*
X224197788Y-69876507D01*
X224267592Y-70045029D01*
X224303177Y-70223930D01*
X224303177Y-70406336D01*
X224267592Y-70585237D01*
X224197788Y-70753759D01*
X224096449Y-70905424D01*
X223967468Y-71034405D01*
X223815803Y-71135744D01*
X223647281Y-71205548D01*
X223468380Y-71241133D01*
X223285974Y-71241133D01*
X223107073Y-71205548D01*
X222938551Y-71135744D01*
X222786886Y-71034405D01*
X222657905Y-70905424D01*
X222556566Y-70753759D01*
X222486762Y-70585237D01*
X222451177Y-70406336D01*
X222451177Y-70223930D01*
X222486762Y-70045029D01*
X222556566Y-69876507D01*
X222657905Y-69724842D01*
X222786886Y-69595861D01*
X222938551Y-69494522D01*
X223107073Y-69424718D01*
X223285974Y-69389133D01*
X223468380Y-69389133D01*
X223647281Y-69424718D01*
X223647281Y-69424718D01*
G37*
G36*
X62108974Y-67151184D02*
G01*
X62326974Y-67241483D01*
X62481123Y-67305333D01*
X62816048Y-67529123D01*
X63100877Y-67813952D01*
X63324667Y-68148877D01*
X63335178Y-68174253D01*
X63478816Y-68521026D01*
X63557400Y-68916094D01*
X63557400Y-69318906D01*
X63478816Y-69713974D01*
X63388517Y-69931974D01*
X63324667Y-70086123D01*
X63100877Y-70421048D01*
X62816048Y-70705877D01*
X62481123Y-70929667D01*
X62348720Y-70984510D01*
X62108974Y-71083816D01*
X61713906Y-71162400D01*
X61311094Y-71162400D01*
X60916026Y-71083816D01*
X60676280Y-70984510D01*
X60543877Y-70929667D01*
X60208952Y-70705877D01*
X59924123Y-70421048D01*
X59700333Y-70086123D01*
X59636483Y-69931974D01*
X59546184Y-69713974D01*
X59467600Y-69318906D01*
X59467600Y-68916094D01*
X59546184Y-68521026D01*
X59689822Y-68174253D01*
X59700333Y-68148877D01*
X59924123Y-67813952D01*
X60208952Y-67529123D01*
X60543877Y-67305333D01*
X60698026Y-67241483D01*
X60916026Y-67151184D01*
X61311094Y-67072600D01*
X61713906Y-67072600D01*
X62108974Y-67151184D01*
X62108974Y-67151184D01*
G37*
G36*
X257007689Y-70771454D02*
G01*
X255531462Y-71031753D01*
X255271163Y-69555526D01*
X256747390Y-69295227D01*
X257007689Y-70771454D01*
X257007689Y-70771454D01*
G37*
G36*
X69607351Y-69489609D02*
G01*
X69731547Y-69514312D01*
X69867948Y-69570811D01*
X69990705Y-69652835D01*
X70095101Y-69757231D01*
X70177125Y-69879988D01*
X70233624Y-70016389D01*
X70262426Y-70161191D01*
X70262426Y-70308829D01*
X70233624Y-70453631D01*
X70177125Y-70590032D01*
X70095101Y-70712789D01*
X69990705Y-70817185D01*
X69867948Y-70899209D01*
X69731547Y-70955708D01*
X69607351Y-70980411D01*
X69586746Y-70984510D01*
X69439106Y-70984510D01*
X69418501Y-70980411D01*
X69294305Y-70955708D01*
X69157904Y-70899209D01*
X69035147Y-70817185D01*
X68930751Y-70712789D01*
X68848727Y-70590032D01*
X68792228Y-70453631D01*
X68763426Y-70308829D01*
X68763426Y-70161191D01*
X68792228Y-70016389D01*
X68848727Y-69879988D01*
X68930751Y-69757231D01*
X69035147Y-69652835D01*
X69157904Y-69570811D01*
X69294305Y-69514312D01*
X69418501Y-69489609D01*
X69439106Y-69485510D01*
X69586746Y-69485510D01*
X69607351Y-69489609D01*
X69607351Y-69489609D01*
G37*
G36*
X66785427Y-69109218D02*
G01*
X66953949Y-69179022D01*
X67105614Y-69280361D01*
X67234595Y-69409342D01*
X67335934Y-69561007D01*
X67405738Y-69729529D01*
X67441323Y-69908430D01*
X67441323Y-70090836D01*
X67405738Y-70269737D01*
X67335934Y-70438259D01*
X67234595Y-70589924D01*
X67105614Y-70718905D01*
X66953949Y-70820244D01*
X66785427Y-70890048D01*
X66606526Y-70925633D01*
X66424120Y-70925633D01*
X66245219Y-70890048D01*
X66076697Y-70820244D01*
X65925032Y-70718905D01*
X65796051Y-70589924D01*
X65694712Y-70438259D01*
X65624908Y-70269737D01*
X65589323Y-70090836D01*
X65589323Y-69908430D01*
X65624908Y-69729529D01*
X65694712Y-69561007D01*
X65796051Y-69409342D01*
X65925032Y-69280361D01*
X66076697Y-69179022D01*
X66245219Y-69109218D01*
X66424120Y-69073633D01*
X66606526Y-69073633D01*
X66785427Y-69109218D01*
X66785427Y-69109218D01*
G37*
G36*
X152625742Y-68433242D02*
G01*
X152773701Y-68494529D01*
X152906855Y-68583499D01*
X153020101Y-68696745D01*
X153109071Y-68829899D01*
X153170358Y-68977858D01*
X153201600Y-69134925D01*
X153201600Y-69295075D01*
X153170358Y-69452142D01*
X153109071Y-69600101D01*
X153020101Y-69733255D01*
X152906855Y-69846501D01*
X152773701Y-69935471D01*
X152625742Y-69996758D01*
X152468675Y-70028000D01*
X152308525Y-70028000D01*
X152151458Y-69996758D01*
X152003499Y-69935471D01*
X151870345Y-69846501D01*
X151757099Y-69733255D01*
X151668129Y-69600101D01*
X151606842Y-69452142D01*
X151575600Y-69295075D01*
X151575600Y-69134925D01*
X151606842Y-68977858D01*
X151668129Y-68829899D01*
X151757099Y-68696745D01*
X151870345Y-68583499D01*
X152003499Y-68494529D01*
X152151458Y-68433242D01*
X152308525Y-68402000D01*
X152468675Y-68402000D01*
X152625742Y-68433242D01*
X152625742Y-68433242D01*
G37*
G36*
X137405742Y-68433242D02*
G01*
X137553701Y-68494529D01*
X137686855Y-68583499D01*
X137800101Y-68696745D01*
X137889071Y-68829899D01*
X137950358Y-68977858D01*
X137981600Y-69134925D01*
X137981600Y-69295075D01*
X137950358Y-69452142D01*
X137889071Y-69600101D01*
X137800101Y-69733255D01*
X137686855Y-69846501D01*
X137553701Y-69935471D01*
X137405742Y-69996758D01*
X137248675Y-70028000D01*
X137088525Y-70028000D01*
X136931458Y-69996758D01*
X136783499Y-69935471D01*
X136650345Y-69846501D01*
X136537099Y-69733255D01*
X136448129Y-69600101D01*
X136386842Y-69452142D01*
X136355600Y-69295075D01*
X136355600Y-69134925D01*
X136386842Y-68977858D01*
X136448129Y-68829899D01*
X136537099Y-68696745D01*
X136650345Y-68583499D01*
X136783499Y-68494529D01*
X136931458Y-68433242D01*
X137088525Y-68402000D01*
X137248675Y-68402000D01*
X137405742Y-68433242D01*
X137405742Y-68433242D01*
G37*
G36*
X233652927Y-67660452D02*
G01*
X233821449Y-67730256D01*
X233973114Y-67831595D01*
X234102095Y-67960576D01*
X234203434Y-68112241D01*
X234273238Y-68280763D01*
X234308823Y-68459664D01*
X234308823Y-68642070D01*
X234273238Y-68820971D01*
X234203434Y-68989493D01*
X234102095Y-69141158D01*
X233973114Y-69270139D01*
X233821449Y-69371478D01*
X233652927Y-69441282D01*
X233474026Y-69476867D01*
X233291620Y-69476867D01*
X233112719Y-69441282D01*
X232944197Y-69371478D01*
X232792532Y-69270139D01*
X232663551Y-69141158D01*
X232562212Y-68989493D01*
X232492408Y-68820971D01*
X232456823Y-68642070D01*
X232456823Y-68459664D01*
X232492408Y-68280763D01*
X232562212Y-68112241D01*
X232663551Y-67960576D01*
X232792532Y-67831595D01*
X232944197Y-67730256D01*
X233112719Y-67660452D01*
X233291620Y-67624867D01*
X233474026Y-67624867D01*
X233652927Y-67660452D01*
X233652927Y-67660452D01*
G37*
G36*
X56779781Y-67344952D02*
G01*
X56948303Y-67414756D01*
X57099968Y-67516095D01*
X57228949Y-67645076D01*
X57330288Y-67796741D01*
X57400092Y-67965263D01*
X57435677Y-68144164D01*
X57435677Y-68326570D01*
X57400092Y-68505471D01*
X57330288Y-68673993D01*
X57228949Y-68825658D01*
X57099968Y-68954639D01*
X56948303Y-69055978D01*
X56779781Y-69125782D01*
X56600880Y-69161367D01*
X56418474Y-69161367D01*
X56239573Y-69125782D01*
X56071051Y-69055978D01*
X55919386Y-68954639D01*
X55790405Y-68825658D01*
X55689066Y-68673993D01*
X55619262Y-68505471D01*
X55583677Y-68326570D01*
X55583677Y-68144164D01*
X55619262Y-67965263D01*
X55689066Y-67796741D01*
X55790405Y-67645076D01*
X55919386Y-67516095D01*
X56071051Y-67414756D01*
X56239573Y-67344952D01*
X56418474Y-67309367D01*
X56600880Y-67309367D01*
X56779781Y-67344952D01*
X56779781Y-67344952D01*
G37*
G36*
X236268961Y-66938243D02*
G01*
X236393157Y-66962946D01*
X236529558Y-67019445D01*
X236652315Y-67101469D01*
X236756711Y-67205865D01*
X236838735Y-67328622D01*
X236895234Y-67465023D01*
X236924036Y-67609825D01*
X236924036Y-67757463D01*
X236895234Y-67902265D01*
X236838735Y-68038666D01*
X236756711Y-68161423D01*
X236652315Y-68265819D01*
X236529558Y-68347843D01*
X236393157Y-68404342D01*
X236268961Y-68429045D01*
X236248356Y-68433144D01*
X236100716Y-68433144D01*
X236080111Y-68429045D01*
X235955915Y-68404342D01*
X235819514Y-68347843D01*
X235696757Y-68265819D01*
X235592361Y-68161423D01*
X235510337Y-68038666D01*
X235453838Y-67902265D01*
X235425036Y-67757463D01*
X235425036Y-67609825D01*
X235453838Y-67465023D01*
X235510337Y-67328622D01*
X235592361Y-67205865D01*
X235696757Y-67101469D01*
X235819514Y-67019445D01*
X235955915Y-66962946D01*
X236080111Y-66938243D01*
X236100716Y-66934144D01*
X236248356Y-66934144D01*
X236268961Y-66938243D01*
X236268961Y-66938243D01*
G37*
G36*
X128967337Y-66698026D02*
G01*
X128707038Y-68174253D01*
X127230811Y-67913954D01*
X127491110Y-66437727D01*
X128967337Y-66698026D01*
X128967337Y-66698026D01*
G37*
G36*
X247751474Y-64141684D02*
G01*
X247928653Y-64215074D01*
X248123623Y-64295833D01*
X248458548Y-64519623D01*
X248743377Y-64804452D01*
X248967167Y-65139377D01*
X249000987Y-65221026D01*
X249121316Y-65511526D01*
X249199900Y-65906594D01*
X249199900Y-66309406D01*
X249121316Y-66704474D01*
X249035297Y-66912142D01*
X248967167Y-67076623D01*
X248743377Y-67411548D01*
X248458548Y-67696377D01*
X248123623Y-67920167D01*
X247969474Y-67984017D01*
X247751474Y-68074316D01*
X247356406Y-68152900D01*
X246953594Y-68152900D01*
X246558526Y-68074316D01*
X246340526Y-67984017D01*
X246186377Y-67920167D01*
X245851452Y-67696377D01*
X245566623Y-67411548D01*
X245342833Y-67076623D01*
X245274703Y-66912142D01*
X245188684Y-66704474D01*
X245110100Y-66309406D01*
X245110100Y-65906594D01*
X245188684Y-65511526D01*
X245309013Y-65221026D01*
X245342833Y-65139377D01*
X245566623Y-64804452D01*
X245851452Y-64519623D01*
X246186377Y-64295833D01*
X246381347Y-64215074D01*
X246558526Y-64141684D01*
X246953594Y-64063100D01*
X247356406Y-64063100D01*
X247751474Y-64141684D01*
X247751474Y-64141684D01*
G37*
G36*
X242422281Y-66099718D02*
G01*
X242590803Y-66169522D01*
X242742468Y-66270861D01*
X242871449Y-66399842D01*
X242972788Y-66551507D01*
X243042592Y-66720029D01*
X243078177Y-66898930D01*
X243078177Y-67081336D01*
X243042592Y-67260237D01*
X242972788Y-67428759D01*
X242871449Y-67580424D01*
X242742468Y-67709405D01*
X242590803Y-67810744D01*
X242422281Y-67880548D01*
X242243380Y-67916133D01*
X242060974Y-67916133D01*
X241882073Y-67880548D01*
X241713551Y-67810744D01*
X241561886Y-67709405D01*
X241432905Y-67580424D01*
X241331566Y-67428759D01*
X241261762Y-67260237D01*
X241226177Y-67081336D01*
X241226177Y-66898930D01*
X241261762Y-66720029D01*
X241331566Y-66551507D01*
X241432905Y-66399842D01*
X241561886Y-66270861D01*
X241713551Y-66169522D01*
X241882073Y-66099718D01*
X242060974Y-66064133D01*
X242243380Y-66064133D01*
X242422281Y-66099718D01*
X242422281Y-66099718D01*
G37*
G36*
X43333974Y-63851184D02*
G01*
X43551974Y-63941483D01*
X43706123Y-64005333D01*
X44041048Y-64229123D01*
X44325877Y-64513952D01*
X44549667Y-64848877D01*
X44590725Y-64948000D01*
X44703816Y-65221026D01*
X44782400Y-65616094D01*
X44782400Y-66018906D01*
X44703816Y-66413974D01*
X44613517Y-66631974D01*
X44549667Y-66786123D01*
X44325877Y-67121048D01*
X44041048Y-67405877D01*
X43706123Y-67629667D01*
X43578548Y-67682510D01*
X43333974Y-67783816D01*
X42938906Y-67862400D01*
X42536094Y-67862400D01*
X42141026Y-67783816D01*
X41896452Y-67682510D01*
X41768877Y-67629667D01*
X41433952Y-67405877D01*
X41149123Y-67121048D01*
X40925333Y-66786123D01*
X40861483Y-66631974D01*
X40771184Y-66413974D01*
X40692600Y-66018906D01*
X40692600Y-65616094D01*
X40771184Y-65221026D01*
X40884275Y-64948000D01*
X40925333Y-64848877D01*
X41149123Y-64513952D01*
X41433952Y-64229123D01*
X41768877Y-64005333D01*
X41923026Y-63941483D01*
X42141026Y-63851184D01*
X42536094Y-63772600D01*
X42938906Y-63772600D01*
X43333974Y-63851184D01*
X43333974Y-63851184D01*
G37*
G36*
X50938351Y-66187609D02*
G01*
X51062547Y-66212312D01*
X51198948Y-66268811D01*
X51321705Y-66350835D01*
X51426101Y-66455231D01*
X51508125Y-66577988D01*
X51564624Y-66714389D01*
X51593426Y-66859191D01*
X51593426Y-67006829D01*
X51564624Y-67151631D01*
X51508125Y-67288032D01*
X51426101Y-67410789D01*
X51321705Y-67515185D01*
X51198948Y-67597209D01*
X51062547Y-67653708D01*
X50938351Y-67678411D01*
X50917746Y-67682510D01*
X50770106Y-67682510D01*
X50749501Y-67678411D01*
X50625305Y-67653708D01*
X50488904Y-67597209D01*
X50366147Y-67515185D01*
X50261751Y-67410789D01*
X50179727Y-67288032D01*
X50123228Y-67151631D01*
X50094426Y-67006829D01*
X50094426Y-66859191D01*
X50123228Y-66714389D01*
X50179727Y-66577988D01*
X50261751Y-66455231D01*
X50366147Y-66350835D01*
X50488904Y-66268811D01*
X50625305Y-66212312D01*
X50749501Y-66187609D01*
X50770106Y-66183510D01*
X50917746Y-66183510D01*
X50938351Y-66187609D01*
X50938351Y-66187609D01*
G37*
G36*
X48010427Y-65809218D02*
G01*
X48178949Y-65879022D01*
X48330614Y-65980361D01*
X48459595Y-66109342D01*
X48560934Y-66261007D01*
X48630738Y-66429529D01*
X48666323Y-66608430D01*
X48666323Y-66790836D01*
X48630738Y-66969737D01*
X48560934Y-67138259D01*
X48459595Y-67289924D01*
X48330614Y-67418905D01*
X48178949Y-67520244D01*
X48010427Y-67590048D01*
X47831526Y-67625633D01*
X47649120Y-67625633D01*
X47470219Y-67590048D01*
X47301697Y-67520244D01*
X47150032Y-67418905D01*
X47021051Y-67289924D01*
X46919712Y-67138259D01*
X46849908Y-66969737D01*
X46814323Y-66790836D01*
X46814323Y-66608430D01*
X46849908Y-66429529D01*
X46919712Y-66261007D01*
X47021051Y-66109342D01*
X47150032Y-65980361D01*
X47301697Y-65879022D01*
X47470219Y-65809218D01*
X47649120Y-65773633D01*
X47831526Y-65773633D01*
X48010427Y-65809218D01*
X48010427Y-65809218D01*
G37*
G36*
X137405742Y-65893242D02*
G01*
X137553701Y-65954529D01*
X137686855Y-66043499D01*
X137800101Y-66156745D01*
X137889071Y-66289899D01*
X137950358Y-66437858D01*
X137981600Y-66594925D01*
X137981600Y-66755075D01*
X137950358Y-66912142D01*
X137889071Y-67060101D01*
X137800101Y-67193255D01*
X137686855Y-67306501D01*
X137553701Y-67395471D01*
X137405742Y-67456758D01*
X137248675Y-67488000D01*
X137088525Y-67488000D01*
X136931458Y-67456758D01*
X136783499Y-67395471D01*
X136650345Y-67306501D01*
X136537099Y-67193255D01*
X136448129Y-67060101D01*
X136386842Y-66912142D01*
X136355600Y-66755075D01*
X136355600Y-66594925D01*
X136386842Y-66437858D01*
X136448129Y-66289899D01*
X136537099Y-66156745D01*
X136650345Y-66043499D01*
X136783499Y-65954529D01*
X136931458Y-65893242D01*
X137088525Y-65862000D01*
X137248675Y-65862000D01*
X137405742Y-65893242D01*
X137405742Y-65893242D01*
G37*
G36*
X152625742Y-65893242D02*
G01*
X152773701Y-65954529D01*
X152906855Y-66043499D01*
X153020101Y-66156745D01*
X153109071Y-66289899D01*
X153170358Y-66437858D01*
X153201600Y-66594925D01*
X153201600Y-66755075D01*
X153170358Y-66912142D01*
X153109071Y-67060101D01*
X153020101Y-67193255D01*
X152906855Y-67306501D01*
X152773701Y-67395471D01*
X152625742Y-67456758D01*
X152468675Y-67488000D01*
X152308525Y-67488000D01*
X152151458Y-67456758D01*
X152003499Y-67395471D01*
X151870345Y-67306501D01*
X151757099Y-67193255D01*
X151668129Y-67060101D01*
X151606842Y-66912142D01*
X151575600Y-66755075D01*
X151575600Y-66594925D01*
X151606842Y-66437858D01*
X151668129Y-66289899D01*
X151757099Y-66156745D01*
X151870345Y-66043499D01*
X152003499Y-65954529D01*
X152151458Y-65893242D01*
X152308525Y-65862000D01*
X152468675Y-65862000D01*
X152625742Y-65893242D01*
X152625742Y-65893242D01*
G37*
G36*
X252427927Y-64335452D02*
G01*
X252596449Y-64405256D01*
X252748114Y-64506595D01*
X252877095Y-64635576D01*
X252978434Y-64787241D01*
X253048238Y-64955763D01*
X253083823Y-65134664D01*
X253083823Y-65317070D01*
X253048238Y-65495971D01*
X252978434Y-65664493D01*
X252877095Y-65816158D01*
X252748114Y-65945139D01*
X252596449Y-66046478D01*
X252427927Y-66116282D01*
X252249026Y-66151867D01*
X252066620Y-66151867D01*
X251887719Y-66116282D01*
X251719197Y-66046478D01*
X251567532Y-65945139D01*
X251438551Y-65816158D01*
X251337212Y-65664493D01*
X251267408Y-65495971D01*
X251231823Y-65317070D01*
X251231823Y-65134664D01*
X251267408Y-64955763D01*
X251337212Y-64787241D01*
X251438551Y-64635576D01*
X251567532Y-64506595D01*
X251719197Y-64405256D01*
X251887719Y-64335452D01*
X252066620Y-64299867D01*
X252249026Y-64299867D01*
X252427927Y-64335452D01*
X252427927Y-64335452D01*
G37*
G36*
X38004781Y-64044952D02*
G01*
X38173303Y-64114756D01*
X38324968Y-64216095D01*
X38453949Y-64345076D01*
X38555288Y-64496741D01*
X38625092Y-64665263D01*
X38660677Y-64844164D01*
X38660677Y-65026570D01*
X38625092Y-65205471D01*
X38555288Y-65373993D01*
X38453949Y-65525658D01*
X38324968Y-65654639D01*
X38173303Y-65755978D01*
X38004781Y-65825782D01*
X37825880Y-65861367D01*
X37643474Y-65861367D01*
X37464573Y-65825782D01*
X37296051Y-65755978D01*
X37144386Y-65654639D01*
X37015405Y-65525658D01*
X36914066Y-65373993D01*
X36844262Y-65205471D01*
X36808677Y-65026570D01*
X36808677Y-64844164D01*
X36844262Y-64665263D01*
X36914066Y-64496741D01*
X37015405Y-64345076D01*
X37144386Y-64216095D01*
X37296051Y-64114756D01*
X37464573Y-64044952D01*
X37643474Y-64009367D01*
X37825880Y-64009367D01*
X38004781Y-64044952D01*
X38004781Y-64044952D01*
G37*
G36*
X178427208Y-65284387D02*
G01*
X176950981Y-65544686D01*
X176690682Y-64068459D01*
X178166909Y-63808160D01*
X178427208Y-65284387D01*
X178427208Y-65284387D01*
G37*
G36*
X255191961Y-63509243D02*
G01*
X255316157Y-63533946D01*
X255452558Y-63590445D01*
X255575315Y-63672469D01*
X255679711Y-63776865D01*
X255761735Y-63899622D01*
X255818234Y-64036023D01*
X255847036Y-64180825D01*
X255847036Y-64328463D01*
X255818234Y-64473265D01*
X255761735Y-64609666D01*
X255679711Y-64732423D01*
X255575315Y-64836819D01*
X255452558Y-64918843D01*
X255316157Y-64975342D01*
X255191961Y-65000045D01*
X255171356Y-65004144D01*
X255023716Y-65004144D01*
X255003111Y-65000045D01*
X254878915Y-64975342D01*
X254742514Y-64918843D01*
X254619757Y-64836819D01*
X254515361Y-64732423D01*
X254433337Y-64609666D01*
X254376838Y-64473265D01*
X254348036Y-64328463D01*
X254348036Y-64180825D01*
X254376838Y-64036023D01*
X254433337Y-63899622D01*
X254515361Y-63776865D01*
X254619757Y-63672469D01*
X254742514Y-63590445D01*
X254878915Y-63533946D01*
X255003111Y-63509243D01*
X255023716Y-63505144D01*
X255171356Y-63505144D01*
X255191961Y-63509243D01*
X255191961Y-63509243D01*
G37*
G36*
X152625742Y-63353242D02*
G01*
X152773701Y-63414529D01*
X152906855Y-63503499D01*
X153020101Y-63616745D01*
X153109071Y-63749899D01*
X153170358Y-63897858D01*
X153201600Y-64054925D01*
X153201600Y-64215075D01*
X153170358Y-64372142D01*
X153109071Y-64520101D01*
X153020101Y-64653255D01*
X152906855Y-64766501D01*
X152773701Y-64855471D01*
X152625742Y-64916758D01*
X152468675Y-64948000D01*
X152308525Y-64948000D01*
X152151458Y-64916758D01*
X152003499Y-64855471D01*
X151870345Y-64766501D01*
X151757099Y-64653255D01*
X151668129Y-64520101D01*
X151606842Y-64372142D01*
X151575600Y-64215075D01*
X151575600Y-64054925D01*
X151606842Y-63897858D01*
X151668129Y-63749899D01*
X151757099Y-63616745D01*
X151870345Y-63503499D01*
X152003499Y-63414529D01*
X152151458Y-63353242D01*
X152308525Y-63322000D01*
X152468675Y-63322000D01*
X152625742Y-63353242D01*
X152625742Y-63353242D01*
G37*
G36*
X137405742Y-63353242D02*
G01*
X137553701Y-63414529D01*
X137686855Y-63503499D01*
X137800101Y-63616745D01*
X137889071Y-63749899D01*
X137950358Y-63897858D01*
X137981600Y-64054925D01*
X137981600Y-64215075D01*
X137950358Y-64372142D01*
X137889071Y-64520101D01*
X137800101Y-64653255D01*
X137686855Y-64766501D01*
X137553701Y-64855471D01*
X137405742Y-64916758D01*
X137248675Y-64948000D01*
X137088525Y-64948000D01*
X136931458Y-64916758D01*
X136783499Y-64855471D01*
X136650345Y-64766501D01*
X136537099Y-64653255D01*
X136448129Y-64520101D01*
X136386842Y-64372142D01*
X136355600Y-64215075D01*
X136355600Y-64054925D01*
X136386842Y-63897858D01*
X136448129Y-63749899D01*
X136537099Y-63616745D01*
X136650345Y-63503499D01*
X136783499Y-63414529D01*
X136931458Y-63353242D01*
X137088525Y-63322000D01*
X137248675Y-63322000D01*
X137405742Y-63353242D01*
X137405742Y-63353242D01*
G37*
G36*
X110171337Y-63396026D02*
G01*
X109911038Y-64872253D01*
X108434811Y-64611954D01*
X108695110Y-63135727D01*
X110171337Y-63396026D01*
X110171337Y-63396026D01*
G37*
G36*
X169226474Y-58616684D02*
G01*
X169406118Y-58691095D01*
X169598623Y-58770833D01*
X169933548Y-58994623D01*
X170218377Y-59279452D01*
X170442167Y-59614377D01*
X170475987Y-59696026D01*
X170596316Y-59986526D01*
X170674900Y-60381594D01*
X170674900Y-60784406D01*
X170596316Y-61179474D01*
X170506017Y-61397474D01*
X170442167Y-61551623D01*
X170218377Y-61886548D01*
X169933548Y-62171377D01*
X169598623Y-62395167D01*
X169444474Y-62459017D01*
X169226474Y-62549316D01*
X168831406Y-62627900D01*
X168428594Y-62627900D01*
X168033526Y-62549316D01*
X167815526Y-62459017D01*
X167661377Y-62395167D01*
X167326452Y-62171377D01*
X167041623Y-61886548D01*
X166817833Y-61551623D01*
X166753983Y-61397474D01*
X166663684Y-61179474D01*
X166585100Y-60784406D01*
X166585100Y-60381594D01*
X166663684Y-59986526D01*
X166784013Y-59696026D01*
X166817833Y-59614377D01*
X167041623Y-59279452D01*
X167326452Y-58994623D01*
X167661377Y-58770833D01*
X167853882Y-58691095D01*
X168033526Y-58616684D01*
X168428594Y-58538100D01*
X168831406Y-58538100D01*
X169226474Y-58616684D01*
X169226474Y-58616684D01*
G37*
G36*
X137405742Y-60813242D02*
G01*
X137553701Y-60874529D01*
X137686855Y-60963499D01*
X137800101Y-61076745D01*
X137889071Y-61209899D01*
X137950358Y-61357858D01*
X137981600Y-61514925D01*
X137981600Y-61675075D01*
X137950358Y-61832142D01*
X137889071Y-61980101D01*
X137800101Y-62113255D01*
X137686855Y-62226501D01*
X137553701Y-62315471D01*
X137405742Y-62376758D01*
X137248675Y-62408000D01*
X137088525Y-62408000D01*
X136931458Y-62376758D01*
X136783499Y-62315471D01*
X136650345Y-62226501D01*
X136537099Y-62113255D01*
X136448129Y-61980101D01*
X136386842Y-61832142D01*
X136355600Y-61675075D01*
X136355600Y-61514925D01*
X136386842Y-61357858D01*
X136448129Y-61209899D01*
X136537099Y-61076745D01*
X136650345Y-60963499D01*
X136783499Y-60874529D01*
X136931458Y-60813242D01*
X137088525Y-60782000D01*
X137248675Y-60782000D01*
X137405742Y-60813242D01*
X137405742Y-60813242D01*
G37*
G36*
X152625742Y-60813242D02*
G01*
X152773701Y-60874529D01*
X152906855Y-60963499D01*
X153020101Y-61076745D01*
X153109071Y-61209899D01*
X153170358Y-61357858D01*
X153201600Y-61514925D01*
X153201600Y-61675075D01*
X153170358Y-61832142D01*
X153109071Y-61980101D01*
X153020101Y-62113255D01*
X152906855Y-62226501D01*
X152773701Y-62315471D01*
X152625742Y-62376758D01*
X152468675Y-62408000D01*
X152308525Y-62408000D01*
X152151458Y-62376758D01*
X152003499Y-62315471D01*
X151870345Y-62226501D01*
X151757099Y-62113255D01*
X151668129Y-61980101D01*
X151606842Y-61832142D01*
X151575600Y-61675075D01*
X151575600Y-61514925D01*
X151606842Y-61357858D01*
X151668129Y-61209899D01*
X151757099Y-61076745D01*
X151870345Y-60963499D01*
X152003499Y-60874529D01*
X152151458Y-60813242D01*
X152308525Y-60782000D01*
X152468675Y-60782000D01*
X152625742Y-60813242D01*
X152625742Y-60813242D01*
G37*
G36*
X197190689Y-62135454D02*
G01*
X195714462Y-62395753D01*
X195454163Y-60919526D01*
X196930390Y-60659227D01*
X197190689Y-62135454D01*
X197190689Y-62135454D01*
G37*
G36*
X163897281Y-60574718D02*
G01*
X164065803Y-60644522D01*
X164217468Y-60745861D01*
X164346449Y-60874842D01*
X164447788Y-61026507D01*
X164517592Y-61195029D01*
X164553177Y-61373930D01*
X164553177Y-61556336D01*
X164517592Y-61735237D01*
X164447788Y-61903759D01*
X164346449Y-62055424D01*
X164217468Y-62184405D01*
X164065803Y-62285744D01*
X163897281Y-62355548D01*
X163718380Y-62391133D01*
X163535974Y-62391133D01*
X163357073Y-62355548D01*
X163188551Y-62285744D01*
X163036886Y-62184405D01*
X162907905Y-62055424D01*
X162806566Y-61903759D01*
X162736762Y-61735237D01*
X162701177Y-61556336D01*
X162701177Y-61373930D01*
X162736762Y-61195029D01*
X162806566Y-61026507D01*
X162907905Y-60874842D01*
X163036886Y-60745861D01*
X163188551Y-60644522D01*
X163357073Y-60574718D01*
X163535974Y-60539133D01*
X163718380Y-60539133D01*
X163897281Y-60574718D01*
X163897281Y-60574718D01*
G37*
G36*
X121633974Y-58326184D02*
G01*
X121842492Y-58412555D01*
X122006123Y-58480333D01*
X122341048Y-58704123D01*
X122625877Y-58988952D01*
X122849667Y-59323877D01*
X122893940Y-59430763D01*
X123003816Y-59696026D01*
X123082400Y-60091094D01*
X123082400Y-60493906D01*
X123003816Y-60888974D01*
X122913517Y-61106974D01*
X122849667Y-61261123D01*
X122625877Y-61596048D01*
X122341048Y-61880877D01*
X122006123Y-62104667D01*
X121931796Y-62135454D01*
X121633974Y-62258816D01*
X121238906Y-62337400D01*
X120836094Y-62337400D01*
X120441026Y-62258816D01*
X120143204Y-62135454D01*
X120068877Y-62104667D01*
X119733952Y-61880877D01*
X119449123Y-61596048D01*
X119225333Y-61261123D01*
X119161483Y-61106974D01*
X119071184Y-60888974D01*
X118992600Y-60493906D01*
X118992600Y-60091094D01*
X119071184Y-59696026D01*
X119181060Y-59430763D01*
X119225333Y-59323877D01*
X119449123Y-58988952D01*
X119733952Y-58704123D01*
X120068877Y-58480333D01*
X120232508Y-58412555D01*
X120441026Y-58326184D01*
X120836094Y-58247600D01*
X121238906Y-58247600D01*
X121633974Y-58326184D01*
X121633974Y-58326184D01*
G37*
G36*
X129235389Y-60651743D02*
G01*
X129359585Y-60676446D01*
X129495986Y-60732945D01*
X129618743Y-60814969D01*
X129723139Y-60919365D01*
X129805163Y-61042122D01*
X129861662Y-61178523D01*
X129890464Y-61323325D01*
X129890464Y-61470963D01*
X129861662Y-61615765D01*
X129805163Y-61752166D01*
X129723139Y-61874923D01*
X129618743Y-61979319D01*
X129495986Y-62061343D01*
X129359585Y-62117842D01*
X129235389Y-62142545D01*
X129214784Y-62146644D01*
X129067144Y-62146644D01*
X129046539Y-62142545D01*
X128922343Y-62117842D01*
X128785942Y-62061343D01*
X128663185Y-61979319D01*
X128558789Y-61874923D01*
X128476765Y-61752166D01*
X128420266Y-61615765D01*
X128391464Y-61470963D01*
X128391464Y-61323325D01*
X128420266Y-61178523D01*
X128476765Y-61042122D01*
X128558789Y-60919365D01*
X128663185Y-60814969D01*
X128785942Y-60732945D01*
X128922343Y-60676446D01*
X129046539Y-60651743D01*
X129067144Y-60647644D01*
X129214784Y-60647644D01*
X129235389Y-60651743D01*
X129235389Y-60651743D01*
G37*
G36*
X126310427Y-60284218D02*
G01*
X126478949Y-60354022D01*
X126630614Y-60455361D01*
X126759595Y-60584342D01*
X126860934Y-60736007D01*
X126930738Y-60904529D01*
X126966323Y-61083430D01*
X126966323Y-61265836D01*
X126930738Y-61444737D01*
X126860934Y-61613259D01*
X126759595Y-61764924D01*
X126630614Y-61893905D01*
X126478949Y-61995244D01*
X126310427Y-62065048D01*
X126131526Y-62100633D01*
X125949120Y-62100633D01*
X125770219Y-62065048D01*
X125601697Y-61995244D01*
X125450032Y-61893905D01*
X125321051Y-61764924D01*
X125219712Y-61613259D01*
X125149908Y-61444737D01*
X125114323Y-61265836D01*
X125114323Y-61083430D01*
X125149908Y-60904529D01*
X125219712Y-60736007D01*
X125321051Y-60584342D01*
X125450032Y-60455361D01*
X125601697Y-60354022D01*
X125770219Y-60284218D01*
X125949120Y-60248633D01*
X126131526Y-60248633D01*
X126310427Y-60284218D01*
X126310427Y-60284218D01*
G37*
G36*
X91564299Y-60041892D02*
G01*
X91304000Y-61518119D01*
X89827773Y-61257820D01*
X90088072Y-59781593D01*
X91564299Y-60041892D01*
X91564299Y-60041892D01*
G37*
G36*
X173902927Y-58810452D02*
G01*
X174071449Y-58880256D01*
X174223114Y-58981595D01*
X174352095Y-59110576D01*
X174453434Y-59262241D01*
X174523238Y-59430763D01*
X174558823Y-59609664D01*
X174558823Y-59792070D01*
X174523238Y-59970971D01*
X174453434Y-60139493D01*
X174352095Y-60291158D01*
X174223114Y-60420139D01*
X174071449Y-60521478D01*
X173902927Y-60591282D01*
X173724026Y-60626867D01*
X173541620Y-60626867D01*
X173362719Y-60591282D01*
X173194197Y-60521478D01*
X173042532Y-60420139D01*
X172913551Y-60291158D01*
X172812212Y-60139493D01*
X172742408Y-59970971D01*
X172706823Y-59792070D01*
X172706823Y-59609664D01*
X172742408Y-59430763D01*
X172812212Y-59262241D01*
X172913551Y-59110576D01*
X173042532Y-58981595D01*
X173194197Y-58880256D01*
X173362719Y-58810452D01*
X173541620Y-58774867D01*
X173724026Y-58774867D01*
X173902927Y-58810452D01*
X173902927Y-58810452D01*
G37*
G36*
X116304781Y-58519952D02*
G01*
X116473303Y-58589756D01*
X116624968Y-58691095D01*
X116753949Y-58820076D01*
X116855288Y-58971741D01*
X116925092Y-59140263D01*
X116960677Y-59319164D01*
X116960677Y-59501570D01*
X116925092Y-59680471D01*
X116855288Y-59848993D01*
X116753949Y-60000658D01*
X116624968Y-60129639D01*
X116473303Y-60230978D01*
X116304781Y-60300782D01*
X116125880Y-60336367D01*
X115943474Y-60336367D01*
X115764573Y-60300782D01*
X115596051Y-60230978D01*
X115444386Y-60129639D01*
X115315405Y-60000658D01*
X115214066Y-59848993D01*
X115144262Y-59680471D01*
X115108677Y-59501570D01*
X115108677Y-59319164D01*
X115144262Y-59140263D01*
X115214066Y-58971741D01*
X115315405Y-58820076D01*
X115444386Y-58691095D01*
X115596051Y-58589756D01*
X115764573Y-58519952D01*
X115943474Y-58484367D01*
X116125880Y-58484367D01*
X116304781Y-58519952D01*
X116304781Y-58519952D01*
G37*
G36*
X137405742Y-58273242D02*
G01*
X137553701Y-58334529D01*
X137686855Y-58423499D01*
X137800101Y-58536745D01*
X137889071Y-58669899D01*
X137950358Y-58817858D01*
X137981600Y-58974925D01*
X137981600Y-59135075D01*
X137950358Y-59292142D01*
X137889071Y-59440101D01*
X137800101Y-59573255D01*
X137686855Y-59686501D01*
X137553701Y-59775471D01*
X137405742Y-59836758D01*
X137248675Y-59868000D01*
X137088525Y-59868000D01*
X136931458Y-59836758D01*
X136783499Y-59775471D01*
X136650345Y-59686501D01*
X136537099Y-59573255D01*
X136448129Y-59440101D01*
X136386842Y-59292142D01*
X136355600Y-59135075D01*
X136355600Y-58974925D01*
X136386842Y-58817858D01*
X136448129Y-58669899D01*
X136537099Y-58536745D01*
X136650345Y-58423499D01*
X136783499Y-58334529D01*
X136931458Y-58273242D01*
X137088525Y-58242000D01*
X137248675Y-58242000D01*
X137405742Y-58273242D01*
X137405742Y-58273242D01*
G37*
G36*
X152625742Y-58273242D02*
G01*
X152773701Y-58334529D01*
X152906855Y-58423499D01*
X153020101Y-58536745D01*
X153109071Y-58669899D01*
X153170358Y-58817858D01*
X153201600Y-58974925D01*
X153201600Y-59135075D01*
X153170358Y-59292142D01*
X153109071Y-59440101D01*
X153020101Y-59573255D01*
X152906855Y-59686501D01*
X152773701Y-59775471D01*
X152625742Y-59836758D01*
X152468675Y-59868000D01*
X152308525Y-59868000D01*
X152151458Y-59836758D01*
X152003499Y-59775471D01*
X151870345Y-59686501D01*
X151757099Y-59573255D01*
X151668129Y-59440101D01*
X151606842Y-59292142D01*
X151575600Y-59135075D01*
X151575600Y-58974925D01*
X151606842Y-58817858D01*
X151668129Y-58669899D01*
X151757099Y-58536745D01*
X151870345Y-58423499D01*
X152003499Y-58334529D01*
X152151458Y-58273242D01*
X152308525Y-58242000D01*
X152468675Y-58242000D01*
X152625742Y-58273242D01*
X152625742Y-58273242D01*
G37*
G36*
X176611480Y-58022176D02*
G01*
X176735676Y-58046879D01*
X176872077Y-58103378D01*
X176994834Y-58185402D01*
X177099230Y-58289798D01*
X177181254Y-58412555D01*
X177237753Y-58548956D01*
X177266555Y-58693758D01*
X177266555Y-58841396D01*
X177237753Y-58986198D01*
X177181254Y-59122599D01*
X177099230Y-59245356D01*
X176994834Y-59349752D01*
X176872077Y-59431776D01*
X176735676Y-59488275D01*
X176611480Y-59512978D01*
X176590875Y-59517077D01*
X176443235Y-59517077D01*
X176422630Y-59512978D01*
X176298434Y-59488275D01*
X176162033Y-59431776D01*
X176039276Y-59349752D01*
X175934880Y-59245356D01*
X175852856Y-59122599D01*
X175796357Y-58986198D01*
X175767555Y-58841396D01*
X175767555Y-58693758D01*
X175796357Y-58548956D01*
X175852856Y-58412555D01*
X175934880Y-58289798D01*
X176039276Y-58185402D01*
X176162033Y-58103378D01*
X176298434Y-58046879D01*
X176422630Y-58022176D01*
X176443235Y-58018077D01*
X176590875Y-58018077D01*
X176611480Y-58022176D01*
X176611480Y-58022176D01*
G37*
G36*
X188026474Y-55291684D02*
G01*
X188216134Y-55370244D01*
X188398623Y-55445833D01*
X188733548Y-55669623D01*
X189018377Y-55954452D01*
X189242167Y-56289377D01*
X189262863Y-56339342D01*
X189396316Y-56661526D01*
X189474900Y-57056594D01*
X189474900Y-57459406D01*
X189396316Y-57854474D01*
X189306017Y-58072474D01*
X189242167Y-58226623D01*
X189018377Y-58561548D01*
X188733548Y-58846377D01*
X188398623Y-59070167D01*
X188272040Y-59122599D01*
X188026474Y-59224316D01*
X187631406Y-59302900D01*
X187228594Y-59302900D01*
X186833526Y-59224316D01*
X186587960Y-59122599D01*
X186461377Y-59070167D01*
X186126452Y-58846377D01*
X185841623Y-58561548D01*
X185617833Y-58226623D01*
X185553983Y-58072474D01*
X185463684Y-57854474D01*
X185385100Y-57459406D01*
X185385100Y-57056594D01*
X185463684Y-56661526D01*
X185597137Y-56339342D01*
X185617833Y-56289377D01*
X185841623Y-55954452D01*
X186126452Y-55669623D01*
X186461377Y-55445833D01*
X186643866Y-55370244D01*
X186833526Y-55291684D01*
X187228594Y-55213100D01*
X187631406Y-55213100D01*
X188026474Y-55291684D01*
X188026474Y-55291684D01*
G37*
G36*
X182697281Y-57249718D02*
G01*
X182865803Y-57319522D01*
X183017468Y-57420861D01*
X183146449Y-57549842D01*
X183247788Y-57701507D01*
X183317592Y-57870029D01*
X183353177Y-58048930D01*
X183353177Y-58231336D01*
X183317592Y-58410237D01*
X183247788Y-58578759D01*
X183146449Y-58730424D01*
X183017468Y-58859405D01*
X182865803Y-58960744D01*
X182697281Y-59030548D01*
X182518380Y-59066133D01*
X182335974Y-59066133D01*
X182157073Y-59030548D01*
X181988551Y-58960744D01*
X181836886Y-58859405D01*
X181707905Y-58730424D01*
X181606566Y-58578759D01*
X181536762Y-58410237D01*
X181501177Y-58231336D01*
X181501177Y-58048930D01*
X181536762Y-57870029D01*
X181606566Y-57701507D01*
X181707905Y-57549842D01*
X181836886Y-57420861D01*
X181988551Y-57319522D01*
X182157073Y-57249718D01*
X182335974Y-57214133D01*
X182518380Y-57214133D01*
X182697281Y-57249718D01*
X182697281Y-57249718D01*
G37*
G36*
X102883974Y-55026184D02*
G01*
X103101974Y-55116483D01*
X103256123Y-55180333D01*
X103591048Y-55404123D01*
X103875877Y-55688952D01*
X104099667Y-56023877D01*
X104143583Y-56129900D01*
X104253816Y-56396026D01*
X104332400Y-56791094D01*
X104332400Y-57193906D01*
X104253816Y-57588974D01*
X104163517Y-57806974D01*
X104099667Y-57961123D01*
X103875877Y-58296048D01*
X103591048Y-58580877D01*
X103256123Y-58804667D01*
X103123973Y-58859405D01*
X102883974Y-58958816D01*
X102488906Y-59037400D01*
X102086094Y-59037400D01*
X101691026Y-58958816D01*
X101451027Y-58859405D01*
X101318877Y-58804667D01*
X100983952Y-58580877D01*
X100699123Y-58296048D01*
X100475333Y-57961123D01*
X100411483Y-57806974D01*
X100321184Y-57588974D01*
X100242600Y-57193906D01*
X100242600Y-56791094D01*
X100321184Y-56396026D01*
X100431417Y-56129900D01*
X100475333Y-56023877D01*
X100699123Y-55688952D01*
X100983952Y-55404123D01*
X101318877Y-55180333D01*
X101473026Y-55116483D01*
X101691026Y-55026184D01*
X102086094Y-54947600D01*
X102488906Y-54947600D01*
X102883974Y-55026184D01*
X102883974Y-55026184D01*
G37*
G36*
X215986689Y-58706454D02*
G01*
X214510462Y-58966753D01*
X214250163Y-57490526D01*
X215726390Y-57230227D01*
X215986689Y-58706454D01*
X215986689Y-58706454D01*
G37*
G36*
X110439389Y-57349743D02*
G01*
X110563585Y-57374446D01*
X110699986Y-57430945D01*
X110822743Y-57512969D01*
X110927139Y-57617365D01*
X111009163Y-57740122D01*
X111065662Y-57876523D01*
X111094464Y-58021325D01*
X111094464Y-58168963D01*
X111065662Y-58313765D01*
X111009163Y-58450166D01*
X110927139Y-58572923D01*
X110822743Y-58677319D01*
X110699986Y-58759343D01*
X110563585Y-58815842D01*
X110439389Y-58840545D01*
X110418784Y-58844644D01*
X110271144Y-58844644D01*
X110250539Y-58840545D01*
X110126343Y-58815842D01*
X109989942Y-58759343D01*
X109867185Y-58677319D01*
X109762789Y-58572923D01*
X109680765Y-58450166D01*
X109624266Y-58313765D01*
X109595464Y-58168963D01*
X109595464Y-58021325D01*
X109624266Y-57876523D01*
X109680765Y-57740122D01*
X109762789Y-57617365D01*
X109867185Y-57512969D01*
X109989942Y-57430945D01*
X110126343Y-57374446D01*
X110250539Y-57349743D01*
X110271144Y-57345644D01*
X110418784Y-57345644D01*
X110439389Y-57349743D01*
X110439389Y-57349743D01*
G37*
G36*
X107560427Y-56984218D02*
G01*
X107728949Y-57054022D01*
X107880614Y-57155361D01*
X108009595Y-57284342D01*
X108110934Y-57436007D01*
X108180738Y-57604529D01*
X108216323Y-57783430D01*
X108216323Y-57965836D01*
X108180738Y-58144737D01*
X108110934Y-58313259D01*
X108009595Y-58464924D01*
X107880614Y-58593905D01*
X107728949Y-58695244D01*
X107560427Y-58765048D01*
X107381526Y-58800633D01*
X107199120Y-58800633D01*
X107020219Y-58765048D01*
X106851697Y-58695244D01*
X106700032Y-58593905D01*
X106571051Y-58464924D01*
X106469712Y-58313259D01*
X106399908Y-58144737D01*
X106364323Y-57965836D01*
X106364323Y-57783430D01*
X106399908Y-57604529D01*
X106469712Y-57436007D01*
X106571051Y-57284342D01*
X106700032Y-57155361D01*
X106851697Y-57054022D01*
X107020219Y-56984218D01*
X107199120Y-56948633D01*
X107381526Y-56948633D01*
X107560427Y-56984218D01*
X107560427Y-56984218D01*
G37*
G36*
X72833337Y-56665026D02*
G01*
X72573038Y-58141253D01*
X71096811Y-57880954D01*
X71357110Y-56404727D01*
X72833337Y-56665026D01*
X72833337Y-56665026D01*
G37*
G36*
X152625742Y-55733242D02*
G01*
X152773701Y-55794529D01*
X152906855Y-55883499D01*
X153020101Y-55996745D01*
X153109071Y-56129899D01*
X153170358Y-56277858D01*
X153201600Y-56434925D01*
X153201600Y-56595075D01*
X153170358Y-56752142D01*
X153109071Y-56900101D01*
X153020101Y-57033255D01*
X152906855Y-57146501D01*
X152773701Y-57235471D01*
X152625742Y-57296758D01*
X152468675Y-57328000D01*
X152308525Y-57328000D01*
X152151458Y-57296758D01*
X152003499Y-57235471D01*
X151870345Y-57146501D01*
X151757099Y-57033255D01*
X151668129Y-56900101D01*
X151606842Y-56752142D01*
X151575600Y-56595075D01*
X151575600Y-56434925D01*
X151606842Y-56277858D01*
X151668129Y-56129899D01*
X151757099Y-55996745D01*
X151870345Y-55883499D01*
X152003499Y-55794529D01*
X152151458Y-55733242D01*
X152308525Y-55702000D01*
X152468675Y-55702000D01*
X152625742Y-55733242D01*
X152625742Y-55733242D01*
G37*
G36*
X137405742Y-55733242D02*
G01*
X137553701Y-55794529D01*
X137686855Y-55883499D01*
X137800101Y-55996745D01*
X137889071Y-56129899D01*
X137950358Y-56277858D01*
X137981600Y-56434925D01*
X137981600Y-56595075D01*
X137950358Y-56752142D01*
X137889071Y-56900101D01*
X137800101Y-57033255D01*
X137686855Y-57146501D01*
X137553701Y-57235471D01*
X137405742Y-57296758D01*
X137248675Y-57328000D01*
X137088525Y-57328000D01*
X136931458Y-57296758D01*
X136783499Y-57235471D01*
X136650345Y-57146501D01*
X136537099Y-57033255D01*
X136448129Y-56900101D01*
X136386842Y-56752142D01*
X136355600Y-56595075D01*
X136355600Y-56434925D01*
X136386842Y-56277858D01*
X136448129Y-56129899D01*
X136537099Y-55996745D01*
X136650345Y-55883499D01*
X136783499Y-55794529D01*
X136931458Y-55733242D01*
X137088525Y-55702000D01*
X137248675Y-55702000D01*
X137405742Y-55733242D01*
X137405742Y-55733242D01*
G37*
G36*
X192702927Y-55485452D02*
G01*
X192871449Y-55555256D01*
X193023114Y-55656595D01*
X193152095Y-55785576D01*
X193253434Y-55937241D01*
X193323238Y-56105763D01*
X193358823Y-56284664D01*
X193358823Y-56467070D01*
X193323238Y-56645971D01*
X193253434Y-56814493D01*
X193152095Y-56966158D01*
X193023114Y-57095139D01*
X192871449Y-57196478D01*
X192702927Y-57266282D01*
X192524026Y-57301867D01*
X192341620Y-57301867D01*
X192162719Y-57266282D01*
X191994197Y-57196478D01*
X191842532Y-57095139D01*
X191713551Y-56966158D01*
X191612212Y-56814493D01*
X191542408Y-56645971D01*
X191506823Y-56467070D01*
X191506823Y-56284664D01*
X191542408Y-56105763D01*
X191612212Y-55937241D01*
X191713551Y-55785576D01*
X191842532Y-55656595D01*
X191994197Y-55555256D01*
X192162719Y-55485452D01*
X192341620Y-55449867D01*
X192524026Y-55449867D01*
X192702927Y-55485452D01*
X192702927Y-55485452D01*
G37*
G36*
X97554781Y-55219952D02*
G01*
X97723303Y-55289756D01*
X97874968Y-55391095D01*
X98003949Y-55520076D01*
X98105288Y-55671741D01*
X98175092Y-55840263D01*
X98210677Y-56019164D01*
X98210677Y-56201570D01*
X98175092Y-56380471D01*
X98105288Y-56548993D01*
X98003949Y-56700658D01*
X97874968Y-56829639D01*
X97723303Y-56930978D01*
X97554781Y-57000782D01*
X97375880Y-57036367D01*
X97193474Y-57036367D01*
X97014573Y-57000782D01*
X96846051Y-56930978D01*
X96694386Y-56829639D01*
X96565405Y-56700658D01*
X96464066Y-56548993D01*
X96394262Y-56380471D01*
X96358677Y-56201570D01*
X96358677Y-56019164D01*
X96394262Y-55840263D01*
X96464066Y-55671741D01*
X96565405Y-55520076D01*
X96694386Y-55391095D01*
X96846051Y-55289756D01*
X97014573Y-55219952D01*
X97193474Y-55184367D01*
X97375880Y-55184367D01*
X97554781Y-55219952D01*
X97554781Y-55219952D01*
G37*
G36*
X195374961Y-54873243D02*
G01*
X195499157Y-54897946D01*
X195635558Y-54954445D01*
X195758315Y-55036469D01*
X195862711Y-55140865D01*
X195944735Y-55263622D01*
X196001234Y-55400023D01*
X196030036Y-55544825D01*
X196030036Y-55692463D01*
X196001234Y-55837265D01*
X195944735Y-55973666D01*
X195862711Y-56096423D01*
X195758315Y-56200819D01*
X195635558Y-56282843D01*
X195499157Y-56339342D01*
X195374961Y-56364045D01*
X195354356Y-56368144D01*
X195206716Y-56368144D01*
X195186111Y-56364045D01*
X195061915Y-56339342D01*
X194925514Y-56282843D01*
X194802757Y-56200819D01*
X194698361Y-56096423D01*
X194616337Y-55973666D01*
X194559838Y-55837265D01*
X194531036Y-55692463D01*
X194531036Y-55544825D01*
X194559838Y-55400023D01*
X194616337Y-55263622D01*
X194698361Y-55140865D01*
X194802757Y-55036469D01*
X194925514Y-54954445D01*
X195061915Y-54897946D01*
X195186111Y-54873243D01*
X195206716Y-54869144D01*
X195354356Y-54869144D01*
X195374961Y-54873243D01*
X195374961Y-54873243D01*
G37*
G36*
X206851474Y-51966684D02*
G01*
X207069474Y-52056983D01*
X207223623Y-52120833D01*
X207558548Y-52344623D01*
X207843377Y-52629452D01*
X208067167Y-52964377D01*
X208067167Y-52964378D01*
X208221316Y-53336526D01*
X208299900Y-53731594D01*
X208299900Y-54134406D01*
X208221316Y-54529474D01*
X208131017Y-54747474D01*
X208067167Y-54901623D01*
X207843377Y-55236548D01*
X207558548Y-55521377D01*
X207223623Y-55745167D01*
X207126064Y-55785577D01*
X206851474Y-55899316D01*
X206456406Y-55977900D01*
X206053594Y-55977900D01*
X205658526Y-55899316D01*
X205383936Y-55785577D01*
X205286377Y-55745167D01*
X204951452Y-55521377D01*
X204666623Y-55236548D01*
X204442833Y-54901623D01*
X204378983Y-54747474D01*
X204288684Y-54529474D01*
X204210100Y-54134406D01*
X204210100Y-53731594D01*
X204288684Y-53336526D01*
X204442833Y-52964378D01*
X204442833Y-52964377D01*
X204666623Y-52629452D01*
X204951452Y-52344623D01*
X205286377Y-52120833D01*
X205440526Y-52056983D01*
X205658526Y-51966684D01*
X206053594Y-51888100D01*
X206456406Y-51888100D01*
X206851474Y-51966684D01*
X206851474Y-51966684D01*
G37*
G36*
X201522281Y-53924718D02*
G01*
X201690803Y-53994522D01*
X201842468Y-54095861D01*
X201971449Y-54224842D01*
X202072788Y-54376507D01*
X202142592Y-54545029D01*
X202178177Y-54723930D01*
X202178177Y-54906336D01*
X202142592Y-55085237D01*
X202072788Y-55253759D01*
X201971449Y-55405424D01*
X201842468Y-55534405D01*
X201690803Y-55635744D01*
X201522281Y-55705548D01*
X201343380Y-55741133D01*
X201160974Y-55741133D01*
X200982073Y-55705548D01*
X200813551Y-55635744D01*
X200661886Y-55534405D01*
X200532905Y-55405424D01*
X200431566Y-55253759D01*
X200361762Y-55085237D01*
X200326177Y-54906336D01*
X200326177Y-54723930D01*
X200361762Y-54545029D01*
X200431566Y-54376507D01*
X200532905Y-54224842D01*
X200661886Y-54095861D01*
X200813551Y-53994522D01*
X200982073Y-53924718D01*
X201160974Y-53889133D01*
X201343380Y-53889133D01*
X201522281Y-53924718D01*
X201522281Y-53924718D01*
G37*
G36*
X84133974Y-51701184D02*
G01*
X84351974Y-51791483D01*
X84506123Y-51855333D01*
X84841048Y-52079123D01*
X85125877Y-52363952D01*
X85349667Y-52698877D01*
X85413517Y-52853026D01*
X85503816Y-53071026D01*
X85582400Y-53466094D01*
X85582400Y-53868906D01*
X85503816Y-54263974D01*
X85413517Y-54481974D01*
X85349667Y-54636123D01*
X85125877Y-54971048D01*
X84841048Y-55255877D01*
X84506123Y-55479667D01*
X84373973Y-55534405D01*
X84133974Y-55633816D01*
X83738906Y-55712400D01*
X83336094Y-55712400D01*
X82941026Y-55633816D01*
X82701027Y-55534405D01*
X82568877Y-55479667D01*
X82233952Y-55255877D01*
X81949123Y-54971048D01*
X81725333Y-54636123D01*
X81661483Y-54481974D01*
X81571184Y-54263974D01*
X81492600Y-53868906D01*
X81492600Y-53466094D01*
X81571184Y-53071026D01*
X81661483Y-52853026D01*
X81725333Y-52698877D01*
X81949123Y-52363952D01*
X82233952Y-52079123D01*
X82568877Y-51855333D01*
X82723026Y-51791483D01*
X82941026Y-51701184D01*
X83336094Y-51622600D01*
X83738906Y-51622600D01*
X84133974Y-51701184D01*
X84133974Y-51701184D01*
G37*
G36*
X234782689Y-55404454D02*
G01*
X233306462Y-55664753D01*
X233046163Y-54188526D01*
X234522390Y-53928227D01*
X234782689Y-55404454D01*
X234782689Y-55404454D01*
G37*
G36*
X91826888Y-53994522D02*
G01*
X91956547Y-54020312D01*
X92092948Y-54076811D01*
X92215705Y-54158835D01*
X92320101Y-54263231D01*
X92402125Y-54385988D01*
X92458624Y-54522389D01*
X92487426Y-54667191D01*
X92487426Y-54814829D01*
X92458624Y-54959631D01*
X92402125Y-55096032D01*
X92320101Y-55218789D01*
X92215705Y-55323185D01*
X92092948Y-55405209D01*
X91956547Y-55461708D01*
X91837174Y-55485452D01*
X91811746Y-55490510D01*
X91664106Y-55490510D01*
X91638678Y-55485452D01*
X91519305Y-55461708D01*
X91382904Y-55405209D01*
X91260147Y-55323185D01*
X91155751Y-55218789D01*
X91073727Y-55096032D01*
X91017228Y-54959631D01*
X90988426Y-54814829D01*
X90988426Y-54667191D01*
X91017228Y-54522389D01*
X91073727Y-54385988D01*
X91155751Y-54263231D01*
X91260147Y-54158835D01*
X91382904Y-54076811D01*
X91519305Y-54020312D01*
X91648964Y-53994522D01*
X91664106Y-53991510D01*
X91811746Y-53991510D01*
X91826888Y-53994522D01*
X91826888Y-53994522D01*
G37*
G36*
X88810427Y-53659218D02*
G01*
X88978949Y-53729022D01*
X89130614Y-53830361D01*
X89259595Y-53959342D01*
X89360934Y-54111007D01*
X89430738Y-54279529D01*
X89466323Y-54458430D01*
X89466323Y-54640836D01*
X89430738Y-54819737D01*
X89360934Y-54988259D01*
X89259595Y-55139924D01*
X89130614Y-55268905D01*
X88978949Y-55370244D01*
X88810427Y-55440048D01*
X88631526Y-55475633D01*
X88449120Y-55475633D01*
X88270219Y-55440048D01*
X88101697Y-55370244D01*
X87950032Y-55268905D01*
X87821051Y-55139924D01*
X87719712Y-54988259D01*
X87649908Y-54819737D01*
X87614323Y-54640836D01*
X87614323Y-54458430D01*
X87649908Y-54279529D01*
X87719712Y-54111007D01*
X87821051Y-53959342D01*
X87950032Y-53830361D01*
X88101697Y-53729022D01*
X88270219Y-53659218D01*
X88449120Y-53623633D01*
X88631526Y-53623633D01*
X88810427Y-53659218D01*
X88810427Y-53659218D01*
G37*
G36*
X54037337Y-53363026D02*
G01*
X53777038Y-54839253D01*
X52300811Y-54578954D01*
X52561110Y-53102727D01*
X54037337Y-53363026D01*
X54037337Y-53363026D01*
G37*
G36*
X211527927Y-52160452D02*
G01*
X211696449Y-52230256D01*
X211848114Y-52331595D01*
X211977095Y-52460576D01*
X212078434Y-52612241D01*
X212148238Y-52780763D01*
X212183823Y-52959664D01*
X212183823Y-53142070D01*
X212148238Y-53320971D01*
X212078434Y-53489493D01*
X211977095Y-53641158D01*
X211848114Y-53770139D01*
X211696449Y-53871478D01*
X211527927Y-53941282D01*
X211349026Y-53976867D01*
X211166620Y-53976867D01*
X210987719Y-53941282D01*
X210819197Y-53871478D01*
X210667532Y-53770139D01*
X210538551Y-53641158D01*
X210437212Y-53489493D01*
X210367408Y-53320971D01*
X210331823Y-53142070D01*
X210331823Y-52959664D01*
X210367408Y-52780763D01*
X210437212Y-52612241D01*
X210538551Y-52460576D01*
X210667532Y-52331595D01*
X210819197Y-52230256D01*
X210987719Y-52160452D01*
X211166620Y-52124867D01*
X211349026Y-52124867D01*
X211527927Y-52160452D01*
X211527927Y-52160452D01*
G37*
G36*
X78804781Y-51894952D02*
G01*
X78973303Y-51964756D01*
X79124968Y-52066095D01*
X79253949Y-52195076D01*
X79355288Y-52346741D01*
X79425092Y-52515263D01*
X79460677Y-52694164D01*
X79460677Y-52876570D01*
X79425092Y-53055471D01*
X79355288Y-53223993D01*
X79253949Y-53375658D01*
X79124968Y-53504639D01*
X78973303Y-53605978D01*
X78804781Y-53675782D01*
X78625880Y-53711367D01*
X78443474Y-53711367D01*
X78264573Y-53675782D01*
X78096051Y-53605978D01*
X77944386Y-53504639D01*
X77815405Y-53375658D01*
X77714066Y-53223993D01*
X77644262Y-53055471D01*
X77608677Y-52876570D01*
X77608677Y-52694164D01*
X77644262Y-52515263D01*
X77714066Y-52346741D01*
X77815405Y-52195076D01*
X77944386Y-52066095D01*
X78096051Y-51964756D01*
X78264573Y-51894952D01*
X78443474Y-51859367D01*
X78625880Y-51859367D01*
X78804781Y-51894952D01*
X78804781Y-51894952D01*
G37*
G36*
X214170961Y-51444243D02*
G01*
X214295157Y-51468946D01*
X214431558Y-51525445D01*
X214554315Y-51607469D01*
X214658711Y-51711865D01*
X214740735Y-51834622D01*
X214797234Y-51971023D01*
X214826036Y-52115825D01*
X214826036Y-52263463D01*
X214797234Y-52408265D01*
X214740735Y-52544666D01*
X214658711Y-52667423D01*
X214554315Y-52771819D01*
X214431558Y-52853843D01*
X214295157Y-52910342D01*
X214170961Y-52935045D01*
X214150356Y-52939144D01*
X214002716Y-52939144D01*
X213982111Y-52935045D01*
X213857915Y-52910342D01*
X213721514Y-52853843D01*
X213598757Y-52771819D01*
X213494361Y-52667423D01*
X213412337Y-52544666D01*
X213355838Y-52408265D01*
X213327036Y-52263463D01*
X213327036Y-52115825D01*
X213355838Y-51971023D01*
X213412337Y-51834622D01*
X213494361Y-51711865D01*
X213598757Y-51607469D01*
X213721514Y-51525445D01*
X213857915Y-51468946D01*
X213982111Y-51444243D01*
X214002716Y-51440144D01*
X214150356Y-51440144D01*
X214170961Y-51444243D01*
X214170961Y-51444243D01*
G37*
G36*
X225640474Y-48738684D02*
G01*
X225821880Y-48813825D01*
X226012623Y-48892833D01*
X226347548Y-49116623D01*
X226632377Y-49401452D01*
X226856167Y-49736377D01*
X226870519Y-49771026D01*
X227010316Y-50108526D01*
X227088900Y-50503594D01*
X227088900Y-50906406D01*
X227010316Y-51301474D01*
X226920017Y-51519474D01*
X226856167Y-51673623D01*
X226632377Y-52008548D01*
X226347548Y-52293377D01*
X226012623Y-52517167D01*
X225946241Y-52544663D01*
X225640474Y-52671316D01*
X225245406Y-52749900D01*
X224842594Y-52749900D01*
X224447526Y-52671316D01*
X224141759Y-52544663D01*
X224075377Y-52517167D01*
X223740452Y-52293377D01*
X223455623Y-52008548D01*
X223231833Y-51673623D01*
X223167983Y-51519474D01*
X223077684Y-51301474D01*
X222999100Y-50906406D01*
X222999100Y-50503594D01*
X223077684Y-50108526D01*
X223217481Y-49771026D01*
X223231833Y-49736377D01*
X223455623Y-49401452D01*
X223740452Y-49116623D01*
X224075377Y-48892833D01*
X224266120Y-48813825D01*
X224447526Y-48738684D01*
X224842594Y-48660100D01*
X225245406Y-48660100D01*
X225640474Y-48738684D01*
X225640474Y-48738684D01*
G37*
G36*
X253451689Y-52356454D02*
G01*
X251975462Y-52616753D01*
X251715163Y-51140526D01*
X253191390Y-50880227D01*
X253451689Y-52356454D01*
X253451689Y-52356454D01*
G37*
G36*
X220311281Y-50696718D02*
G01*
X220479803Y-50766522D01*
X220631468Y-50867861D01*
X220760449Y-50996842D01*
X220861788Y-51148507D01*
X220931592Y-51317029D01*
X220967177Y-51495930D01*
X220967177Y-51678336D01*
X220931592Y-51857237D01*
X220861788Y-52025759D01*
X220760449Y-52177424D01*
X220631468Y-52306405D01*
X220479803Y-52407744D01*
X220311281Y-52477548D01*
X220132380Y-52513133D01*
X219949974Y-52513133D01*
X219771073Y-52477548D01*
X219602551Y-52407744D01*
X219450886Y-52306405D01*
X219321905Y-52177424D01*
X219220566Y-52025759D01*
X219150762Y-51857237D01*
X219115177Y-51678336D01*
X219115177Y-51495930D01*
X219150762Y-51317029D01*
X219220566Y-51148507D01*
X219321905Y-50996842D01*
X219450886Y-50867861D01*
X219602551Y-50766522D01*
X219771073Y-50696718D01*
X219949974Y-50661133D01*
X220132380Y-50661133D01*
X220311281Y-50696718D01*
X220311281Y-50696718D01*
G37*
G36*
X65408974Y-48401184D02*
G01*
X65626974Y-48491483D01*
X65781123Y-48555333D01*
X66116048Y-48779123D01*
X66400877Y-49063952D01*
X66624667Y-49398877D01*
X66625734Y-49401453D01*
X66778816Y-49771026D01*
X66857400Y-50166094D01*
X66857400Y-50568906D01*
X66778816Y-50963974D01*
X66688517Y-51181974D01*
X66624667Y-51336123D01*
X66400877Y-51671048D01*
X66116048Y-51955877D01*
X65781123Y-52179667D01*
X65658990Y-52230256D01*
X65408974Y-52333816D01*
X65013906Y-52412400D01*
X64611094Y-52412400D01*
X64216026Y-52333816D01*
X63966010Y-52230256D01*
X63843877Y-52179667D01*
X63508952Y-51955877D01*
X63224123Y-51671048D01*
X63000333Y-51336123D01*
X62936483Y-51181974D01*
X62846184Y-50963974D01*
X62767600Y-50568906D01*
X62767600Y-50166094D01*
X62846184Y-49771026D01*
X62999266Y-49401453D01*
X63000333Y-49398877D01*
X63224123Y-49063952D01*
X63508952Y-48779123D01*
X63843877Y-48555333D01*
X63998026Y-48491483D01*
X64216026Y-48401184D01*
X64611094Y-48322600D01*
X65013906Y-48322600D01*
X65408974Y-48401184D01*
X65408974Y-48401184D01*
G37*
G36*
X70085427Y-50359218D02*
G01*
X70253949Y-50429022D01*
X70405614Y-50530361D01*
X70534595Y-50659342D01*
X70635934Y-50811007D01*
X70705738Y-50979529D01*
X70741323Y-51158430D01*
X70741323Y-51340836D01*
X70705738Y-51519737D01*
X70635934Y-51688259D01*
X70534595Y-51839924D01*
X70405614Y-51968905D01*
X70253949Y-52070244D01*
X70085427Y-52140048D01*
X69906526Y-52175633D01*
X69724120Y-52175633D01*
X69545219Y-52140048D01*
X69376697Y-52070244D01*
X69225032Y-51968905D01*
X69096051Y-51839924D01*
X68994712Y-51688259D01*
X68924908Y-51519737D01*
X68889323Y-51340836D01*
X68889323Y-51158430D01*
X68924908Y-50979529D01*
X68994712Y-50811007D01*
X69096051Y-50659342D01*
X69225032Y-50530361D01*
X69376697Y-50429022D01*
X69545219Y-50359218D01*
X69724120Y-50323633D01*
X69906526Y-50323633D01*
X70085427Y-50359218D01*
X70085427Y-50359218D01*
G37*
G36*
X73101389Y-50618743D02*
G01*
X73225585Y-50643446D01*
X73361986Y-50699945D01*
X73484743Y-50781969D01*
X73589139Y-50886365D01*
X73671163Y-51009122D01*
X73727662Y-51145523D01*
X73756464Y-51290325D01*
X73756464Y-51437963D01*
X73727662Y-51582765D01*
X73671163Y-51719166D01*
X73589139Y-51841923D01*
X73484743Y-51946319D01*
X73361986Y-52028343D01*
X73225585Y-52084842D01*
X73101389Y-52109545D01*
X73080784Y-52113644D01*
X72933144Y-52113644D01*
X72912539Y-52109545D01*
X72788343Y-52084842D01*
X72651942Y-52028343D01*
X72529185Y-51946319D01*
X72424789Y-51841923D01*
X72342765Y-51719166D01*
X72286266Y-51582765D01*
X72257464Y-51437963D01*
X72257464Y-51290325D01*
X72286266Y-51145523D01*
X72342765Y-51009122D01*
X72424789Y-50886365D01*
X72529185Y-50781969D01*
X72651942Y-50699945D01*
X72788343Y-50643446D01*
X72912539Y-50618743D01*
X72933144Y-50614644D01*
X73080784Y-50614644D01*
X73101389Y-50618743D01*
X73101389Y-50618743D01*
G37*
G36*
X230316927Y-48932452D02*
G01*
X230485449Y-49002256D01*
X230637114Y-49103595D01*
X230766095Y-49232576D01*
X230867434Y-49384241D01*
X230937238Y-49552763D01*
X230972823Y-49731664D01*
X230972823Y-49914070D01*
X230937238Y-50092971D01*
X230867434Y-50261493D01*
X230766095Y-50413158D01*
X230637114Y-50542139D01*
X230485449Y-50643478D01*
X230316927Y-50713282D01*
X230138026Y-50748867D01*
X229955620Y-50748867D01*
X229776719Y-50713282D01*
X229608197Y-50643478D01*
X229456532Y-50542139D01*
X229327551Y-50413158D01*
X229226212Y-50261493D01*
X229156408Y-50092971D01*
X229120823Y-49914070D01*
X229120823Y-49731664D01*
X229156408Y-49552763D01*
X229226212Y-49384241D01*
X229327551Y-49232576D01*
X229456532Y-49103595D01*
X229608197Y-49002256D01*
X229776719Y-48932452D01*
X229955620Y-48896867D01*
X230138026Y-48896867D01*
X230316927Y-48932452D01*
X230316927Y-48932452D01*
G37*
G36*
X60079781Y-48594952D02*
G01*
X60248303Y-48664756D01*
X60399968Y-48766095D01*
X60528949Y-48895076D01*
X60630288Y-49046741D01*
X60700092Y-49215263D01*
X60735677Y-49394164D01*
X60735677Y-49576570D01*
X60700092Y-49755471D01*
X60630288Y-49923993D01*
X60528949Y-50075658D01*
X60399968Y-50204639D01*
X60248303Y-50305978D01*
X60079781Y-50375782D01*
X59900880Y-50411367D01*
X59718474Y-50411367D01*
X59539573Y-50375782D01*
X59371051Y-50305978D01*
X59219386Y-50204639D01*
X59090405Y-50075658D01*
X58989066Y-49923993D01*
X58919262Y-49755471D01*
X58883677Y-49576570D01*
X58883677Y-49394164D01*
X58919262Y-49215263D01*
X58989066Y-49046741D01*
X59090405Y-48895076D01*
X59219386Y-48766095D01*
X59371051Y-48664756D01*
X59539573Y-48594952D01*
X59718474Y-48559367D01*
X59900880Y-48559367D01*
X60079781Y-48594952D01*
X60079781Y-48594952D01*
G37*
G36*
X232966961Y-48142243D02*
G01*
X233091157Y-48166946D01*
X233227558Y-48223445D01*
X233350315Y-48305469D01*
X233454711Y-48409865D01*
X233536735Y-48532622D01*
X233593234Y-48669023D01*
X233622036Y-48813825D01*
X233622036Y-48961463D01*
X233593234Y-49106265D01*
X233536735Y-49242666D01*
X233454711Y-49365423D01*
X233350315Y-49469819D01*
X233227558Y-49551843D01*
X233091157Y-49608342D01*
X232966961Y-49633045D01*
X232946356Y-49637144D01*
X232798716Y-49637144D01*
X232778111Y-49633045D01*
X232653915Y-49608342D01*
X232517514Y-49551843D01*
X232394757Y-49469819D01*
X232290361Y-49365423D01*
X232208337Y-49242666D01*
X232151838Y-49106265D01*
X232123036Y-48961463D01*
X232123036Y-48813825D01*
X232151838Y-48669023D01*
X232208337Y-48532622D01*
X232290361Y-48409865D01*
X232394757Y-48305469D01*
X232517514Y-48223445D01*
X232653915Y-48166946D01*
X232778111Y-48142243D01*
X232798716Y-48138144D01*
X232946356Y-48138144D01*
X232966961Y-48142243D01*
X232966961Y-48142243D01*
G37*
G36*
X244426474Y-45488684D02*
G01*
X244644474Y-45578983D01*
X244798623Y-45642833D01*
X245133548Y-45866623D01*
X245418377Y-46151452D01*
X245642167Y-46486377D01*
X245672804Y-46560341D01*
X245796316Y-46858526D01*
X245874900Y-47253594D01*
X245874900Y-47656406D01*
X245796316Y-48051474D01*
X245706017Y-48269474D01*
X245642167Y-48423623D01*
X245418377Y-48758548D01*
X245133548Y-49043377D01*
X244798623Y-49267167D01*
X244644474Y-49331017D01*
X244426474Y-49421316D01*
X244031406Y-49499900D01*
X243628594Y-49499900D01*
X243233526Y-49421316D01*
X243015526Y-49331017D01*
X242861377Y-49267167D01*
X242526452Y-49043377D01*
X242241623Y-48758548D01*
X242017833Y-48423623D01*
X241953983Y-48269474D01*
X241863684Y-48051474D01*
X241785100Y-47656406D01*
X241785100Y-47253594D01*
X241863684Y-46858526D01*
X241987196Y-46560341D01*
X242017833Y-46486377D01*
X242241623Y-46151452D01*
X242526452Y-45866623D01*
X242861377Y-45642833D01*
X243015526Y-45578983D01*
X243233526Y-45488684D01*
X243628594Y-45410100D01*
X244031406Y-45410100D01*
X244426474Y-45488684D01*
X244426474Y-45488684D01*
G37*
G36*
X239097281Y-47446718D02*
G01*
X239265803Y-47516522D01*
X239417468Y-47617861D01*
X239546449Y-47746842D01*
X239647788Y-47898507D01*
X239717592Y-48067029D01*
X239753177Y-48245930D01*
X239753177Y-48428336D01*
X239717592Y-48607237D01*
X239647788Y-48775759D01*
X239546449Y-48927424D01*
X239417468Y-49056405D01*
X239265803Y-49157744D01*
X239097281Y-49227548D01*
X238918380Y-49263133D01*
X238735974Y-49263133D01*
X238557073Y-49227548D01*
X238388551Y-49157744D01*
X238236886Y-49056405D01*
X238107905Y-48927424D01*
X238006566Y-48775759D01*
X237936762Y-48607237D01*
X237901177Y-48428336D01*
X237901177Y-48245930D01*
X237936762Y-48067029D01*
X238006566Y-47898507D01*
X238107905Y-47746842D01*
X238236886Y-47617861D01*
X238388551Y-47516522D01*
X238557073Y-47446718D01*
X238735974Y-47411133D01*
X238918380Y-47411133D01*
X239097281Y-47446718D01*
X239097281Y-47446718D01*
G37*
G36*
X46658974Y-45101184D02*
G01*
X46876974Y-45191483D01*
X47031123Y-45255333D01*
X47366048Y-45479123D01*
X47650877Y-45763952D01*
X47874667Y-46098877D01*
X47914343Y-46194663D01*
X48028816Y-46471026D01*
X48107400Y-46866094D01*
X48107400Y-47268906D01*
X48028816Y-47663974D01*
X47938517Y-47881974D01*
X47874667Y-48036123D01*
X47650877Y-48371048D01*
X47366048Y-48655877D01*
X47031123Y-48879667D01*
X46989598Y-48896867D01*
X46658974Y-49033816D01*
X46263906Y-49112400D01*
X45861094Y-49112400D01*
X45466026Y-49033816D01*
X45135402Y-48896867D01*
X45093877Y-48879667D01*
X44758952Y-48655877D01*
X44474123Y-48371048D01*
X44250333Y-48036123D01*
X44186483Y-47881974D01*
X44096184Y-47663974D01*
X44017600Y-47268906D01*
X44017600Y-46866094D01*
X44096184Y-46471026D01*
X44210657Y-46194663D01*
X44250333Y-46098877D01*
X44474123Y-45763952D01*
X44758952Y-45479123D01*
X45093877Y-45255333D01*
X45248026Y-45191483D01*
X45466026Y-45101184D01*
X45861094Y-45022600D01*
X46263906Y-45022600D01*
X46658974Y-45101184D01*
X46658974Y-45101184D01*
G37*
G36*
X51335427Y-47059218D02*
G01*
X51503949Y-47129022D01*
X51655614Y-47230361D01*
X51784595Y-47359342D01*
X51885934Y-47511007D01*
X51955738Y-47679529D01*
X51991323Y-47858430D01*
X51991323Y-48040836D01*
X51955738Y-48219737D01*
X51885934Y-48388259D01*
X51784595Y-48539924D01*
X51655614Y-48668905D01*
X51503949Y-48770244D01*
X51335427Y-48840048D01*
X51156526Y-48875633D01*
X50974120Y-48875633D01*
X50795219Y-48840048D01*
X50626697Y-48770244D01*
X50475032Y-48668905D01*
X50346051Y-48539924D01*
X50244712Y-48388259D01*
X50174908Y-48219737D01*
X50139323Y-48040836D01*
X50139323Y-47858430D01*
X50174908Y-47679529D01*
X50244712Y-47511007D01*
X50346051Y-47359342D01*
X50475032Y-47230361D01*
X50626697Y-47129022D01*
X50795219Y-47059218D01*
X50974120Y-47023633D01*
X51156526Y-47023633D01*
X51335427Y-47059218D01*
X51335427Y-47059218D01*
G37*
G36*
X54305389Y-47316743D02*
G01*
X54429585Y-47341446D01*
X54565986Y-47397945D01*
X54688743Y-47479969D01*
X54793139Y-47584365D01*
X54875163Y-47707122D01*
X54931662Y-47843523D01*
X54960464Y-47988325D01*
X54960464Y-48135963D01*
X54931662Y-48280765D01*
X54875163Y-48417166D01*
X54793139Y-48539923D01*
X54688743Y-48644319D01*
X54565986Y-48726343D01*
X54429585Y-48782842D01*
X54305389Y-48807545D01*
X54284784Y-48811644D01*
X54137144Y-48811644D01*
X54116539Y-48807545D01*
X53992343Y-48782842D01*
X53855942Y-48726343D01*
X53733185Y-48644319D01*
X53628789Y-48539923D01*
X53546765Y-48417166D01*
X53490266Y-48280765D01*
X53461464Y-48135963D01*
X53461464Y-47988325D01*
X53490266Y-47843523D01*
X53546765Y-47707122D01*
X53628789Y-47584365D01*
X53733185Y-47479969D01*
X53855942Y-47397945D01*
X53992343Y-47341446D01*
X54116539Y-47316743D01*
X54137144Y-47312644D01*
X54284784Y-47312644D01*
X54305389Y-47316743D01*
X54305389Y-47316743D01*
G37*
G36*
X249102927Y-45682452D02*
G01*
X249271449Y-45752256D01*
X249423114Y-45853595D01*
X249552095Y-45982576D01*
X249653434Y-46134241D01*
X249723238Y-46302763D01*
X249758823Y-46481664D01*
X249758823Y-46664070D01*
X249723238Y-46842971D01*
X249653434Y-47011493D01*
X249552095Y-47163158D01*
X249423114Y-47292139D01*
X249271449Y-47393478D01*
X249102927Y-47463282D01*
X248924026Y-47498867D01*
X248741620Y-47498867D01*
X248562719Y-47463282D01*
X248394197Y-47393478D01*
X248242532Y-47292139D01*
X248113551Y-47163158D01*
X248012212Y-47011493D01*
X247942408Y-46842971D01*
X247906823Y-46664070D01*
X247906823Y-46481664D01*
X247942408Y-46302763D01*
X248012212Y-46134241D01*
X248113551Y-45982576D01*
X248242532Y-45853595D01*
X248394197Y-45752256D01*
X248562719Y-45682452D01*
X248741620Y-45646867D01*
X248924026Y-45646867D01*
X249102927Y-45682452D01*
X249102927Y-45682452D01*
G37*
G36*
X41329781Y-45294952D02*
G01*
X41498303Y-45364756D01*
X41649968Y-45466095D01*
X41778949Y-45595076D01*
X41880288Y-45746741D01*
X41950092Y-45915263D01*
X41985677Y-46094164D01*
X41985677Y-46276570D01*
X41950092Y-46455471D01*
X41880288Y-46623993D01*
X41778949Y-46775658D01*
X41649968Y-46904639D01*
X41498303Y-47005978D01*
X41329781Y-47075782D01*
X41150880Y-47111367D01*
X40968474Y-47111367D01*
X40789573Y-47075782D01*
X40621051Y-47005978D01*
X40469386Y-46904639D01*
X40340405Y-46775658D01*
X40239066Y-46623993D01*
X40169262Y-46455471D01*
X40133677Y-46276570D01*
X40133677Y-46094164D01*
X40169262Y-45915263D01*
X40239066Y-45746741D01*
X40340405Y-45595076D01*
X40469386Y-45466095D01*
X40621051Y-45364756D01*
X40789573Y-45294952D01*
X40968474Y-45259367D01*
X41150880Y-45259367D01*
X41329781Y-45294952D01*
X41329781Y-45294952D01*
G37*
G36*
X251635961Y-45094243D02*
G01*
X251760157Y-45118946D01*
X251896558Y-45175445D01*
X252019315Y-45257469D01*
X252123711Y-45361865D01*
X252205735Y-45484622D01*
X252262234Y-45621023D01*
X252286937Y-45745219D01*
X252290664Y-45763952D01*
X252291036Y-45765825D01*
X252291036Y-45913463D01*
X252262234Y-46058265D01*
X252205735Y-46194666D01*
X252123711Y-46317423D01*
X252019315Y-46421819D01*
X251896558Y-46503843D01*
X251760157Y-46560342D01*
X251635961Y-46585045D01*
X251615356Y-46589144D01*
X251467716Y-46589144D01*
X251447111Y-46585045D01*
X251322915Y-46560342D01*
X251186514Y-46503843D01*
X251063757Y-46421819D01*
X250959361Y-46317423D01*
X250877337Y-46194666D01*
X250820838Y-46058265D01*
X250792036Y-45913463D01*
X250792036Y-45765825D01*
X250792409Y-45763952D01*
X250796135Y-45745219D01*
X250820838Y-45621023D01*
X250877337Y-45484622D01*
X250959361Y-45361865D01*
X251063757Y-45257469D01*
X251186514Y-45175445D01*
X251322915Y-45118946D01*
X251447111Y-45094243D01*
X251467716Y-45090144D01*
X251615356Y-45090144D01*
X251635961Y-45094243D01*
X251635961Y-45094243D01*
G37*
M02*
