G04 #@! TF.GenerationSoftware,KiCad,Pcbnew,5.1.4*
G04 #@! TF.CreationDate,2020-08-18T00:09:42-04:00*
G04 #@! TF.ProjectId,pcb,7063622e-6b69-4636-9164-5f7063625858,rev?*
G04 #@! TF.SameCoordinates,Original*
G04 #@! TF.FileFunction,Legend,Top*
G04 #@! TF.FilePolarity,Positive*
%FSLAX46Y46*%
G04 Gerber Fmt 4.6, Leading zero omitted, Abs format (unit mm)*
G04 Created by KiCad (PCBNEW 5.1.4) date 2020-08-18 00:09:42*
%MOMM*%
%LPD*%
G04 APERTURE LIST*
%ADD10C,0.120000*%
%ADD11C,0.150000*%
%ADD12C,1.499000*%
%ADD13C,0.100000*%
%ADD14C,1.626000*%
%ADD15C,2.102000*%
%ADD16C,4.089800*%
%ADD17C,3.150000*%
%ADD18C,1.852000*%
%ADD19R,2.102000X2.102000*%
%ADD20R,2.102000X3.302000*%
G04 APERTURE END LIST*
D10*
X153670000Y-52705000D02*
X135890000Y-52705000D01*
X250825000Y-34925000D02*
X153670000Y-52705000D01*
X254000000Y-36830000D02*
X250825000Y-34925000D01*
X262890000Y-92075000D02*
X254000000Y-36830000D01*
X261620000Y-93980000D02*
X262890000Y-92075000D01*
X209550000Y-102870000D02*
X261620000Y-93980000D01*
X207645000Y-104775000D02*
X209550000Y-102870000D01*
X210185000Y-120015000D02*
X207645000Y-104775000D01*
X208915000Y-122555000D02*
X210185000Y-120015000D01*
X172720000Y-129540000D02*
X208915000Y-122555000D01*
X116840000Y-129540000D02*
X172720000Y-129540000D01*
X80645000Y-123190000D02*
X116840000Y-129540000D01*
X77470000Y-119380000D02*
X80645000Y-123190000D01*
X79375000Y-107315000D02*
X77470000Y-119380000D01*
X77470000Y-103505000D02*
X79375000Y-107315000D01*
X27305000Y-95250000D02*
X77470000Y-103505000D01*
X24765000Y-90805000D02*
X27305000Y-95250000D01*
X34925000Y-36830000D02*
X24765000Y-90805000D01*
X37465000Y-34925000D02*
X34925000Y-36830000D01*
X132080000Y-52070000D02*
X37465000Y-34925000D01*
X135890000Y-52705000D02*
X132080000Y-52070000D01*
D11*
X199500772Y-113577420D02*
X200485580Y-113403772D01*
X200659228Y-114388580D02*
X200010541Y-113589077D01*
X199674420Y-114562228D02*
X200659228Y-114388580D01*
X200010541Y-113589077D02*
X199674420Y-114562228D01*
X113006920Y-117263272D02*
X113991728Y-117436920D01*
X113818080Y-118421728D02*
X113481959Y-117448577D01*
X112833272Y-118248080D02*
X113818080Y-118421728D01*
X113481959Y-117448577D02*
X112833272Y-118248080D01*
X259372709Y-86410647D02*
X258387901Y-86584295D01*
X258214253Y-85599487D02*
X258862940Y-86398990D01*
X259199061Y-85425839D02*
X258214253Y-85599487D01*
X258862940Y-86398990D02*
X259199061Y-85425839D01*
X240576709Y-89712647D02*
X239591901Y-89886295D01*
X239418253Y-88901487D02*
X240066940Y-89700990D01*
X240403061Y-88727839D02*
X239418253Y-88901487D01*
X240066940Y-89700990D02*
X240403061Y-88727839D01*
X221907709Y-93141647D02*
X220922901Y-93315295D01*
X220749253Y-92330487D02*
X221397940Y-93129990D01*
X221734061Y-92156839D02*
X220749253Y-92330487D01*
X221397940Y-93129990D02*
X221734061Y-92156839D01*
X202984709Y-96316647D02*
X201999901Y-96490295D01*
X201826253Y-95505487D02*
X202474940Y-96304990D01*
X202811061Y-95331839D02*
X201826253Y-95505487D01*
X202474940Y-96304990D02*
X202811061Y-95331839D01*
X184315709Y-99745647D02*
X183330901Y-99919295D01*
X183157253Y-98934487D02*
X183805940Y-99733990D01*
X184142061Y-98760839D02*
X183157253Y-98934487D01*
X183805940Y-99733990D02*
X184142061Y-98760839D01*
X122294599Y-102522795D02*
X121309791Y-102349147D01*
X121483439Y-101364339D02*
X121819560Y-102337490D01*
X122468247Y-101537987D02*
X121483439Y-101364339D01*
X121819560Y-102337490D02*
X122468247Y-101537987D01*
X103560561Y-99168661D02*
X102575753Y-98995013D01*
X102749401Y-98010205D02*
X103085522Y-98983356D01*
X103734209Y-98183853D02*
X102749401Y-98010205D01*
X103085522Y-98983356D02*
X103734209Y-98183853D01*
X84891561Y-95866661D02*
X83906753Y-95693013D01*
X84080401Y-94708205D02*
X84416522Y-95681356D01*
X85065209Y-94881853D02*
X84080401Y-94708205D01*
X84416522Y-95681356D02*
X85065209Y-94881853D01*
X66222561Y-92564661D02*
X65237753Y-92391013D01*
X65411401Y-91406205D02*
X65747522Y-92379356D01*
X66396209Y-91579853D02*
X65411401Y-91406205D01*
X65747522Y-92379356D02*
X66396209Y-91579853D01*
X47299561Y-89262661D02*
X46314753Y-89089013D01*
X46488401Y-88104205D02*
X46824522Y-89077356D01*
X47473209Y-88277853D02*
X46488401Y-88104205D01*
X46824522Y-89077356D02*
X47473209Y-88277853D01*
X256197709Y-67614647D02*
X255212901Y-67788295D01*
X255039253Y-66803487D02*
X255687940Y-67602990D01*
X256024061Y-66629839D02*
X255039253Y-66803487D01*
X255687940Y-67602990D02*
X256024061Y-66629839D01*
X237274709Y-71043647D02*
X236289901Y-71217295D01*
X236116253Y-70232487D02*
X236764940Y-71031990D01*
X237101061Y-70058839D02*
X236116253Y-70232487D01*
X236764940Y-71031990D02*
X237101061Y-70058839D01*
X218478709Y-74345647D02*
X217493901Y-74519295D01*
X217320253Y-73534487D02*
X217968940Y-74333990D01*
X218305061Y-73360839D02*
X217320253Y-73534487D01*
X217968940Y-74333990D02*
X218305061Y-73360839D01*
X199809709Y-77647647D02*
X198824901Y-77821295D01*
X198651253Y-76836487D02*
X199299940Y-77635990D01*
X199636061Y-76662839D02*
X198651253Y-76836487D01*
X199299940Y-77635990D02*
X199636061Y-76662839D01*
X181013709Y-81076647D02*
X180028901Y-81250295D01*
X179855253Y-80265487D02*
X180503940Y-81064990D01*
X180840061Y-80091839D02*
X179855253Y-80265487D01*
X180503940Y-81064990D02*
X180840061Y-80091839D01*
X125658561Y-83674661D02*
X124673753Y-83501013D01*
X124847401Y-82516205D02*
X125183522Y-83489356D01*
X125832209Y-82689853D02*
X124847401Y-82516205D01*
X125183522Y-83489356D02*
X125832209Y-82689853D01*
X106989561Y-80372661D02*
X106004753Y-80199013D01*
X106178401Y-79214205D02*
X106514522Y-80187356D01*
X107163209Y-79387853D02*
X106178401Y-79214205D01*
X106514522Y-80187356D02*
X107163209Y-79387853D01*
X88226080Y-76969728D02*
X87241272Y-76796080D01*
X87414920Y-75811272D02*
X87751041Y-76784423D01*
X88399728Y-75984920D02*
X87414920Y-75811272D01*
X87751041Y-76784423D02*
X88399728Y-75984920D01*
X69397561Y-73768661D02*
X68412753Y-73595013D01*
X68586401Y-72610205D02*
X68922522Y-73583356D01*
X69571209Y-72783853D02*
X68586401Y-72610205D01*
X68922522Y-73583356D02*
X69571209Y-72783853D01*
X50728561Y-70466661D02*
X49743753Y-70293013D01*
X49917401Y-69308205D02*
X50253522Y-70281356D01*
X50902209Y-69481853D02*
X49917401Y-69308205D01*
X50253522Y-70281356D02*
X50902209Y-69481853D01*
X252641709Y-49199647D02*
X251656901Y-49373295D01*
X251483253Y-48388487D02*
X252131940Y-49187990D01*
X252468061Y-48214839D02*
X251483253Y-48388487D01*
X252131940Y-49187990D02*
X252468061Y-48214839D01*
X233972709Y-52247647D02*
X232987901Y-52421295D01*
X232814253Y-51436487D02*
X233462940Y-52235990D01*
X233799061Y-51262839D02*
X232814253Y-51436487D01*
X233462940Y-52235990D02*
X233799061Y-51262839D01*
X215176709Y-55549647D02*
X214191901Y-55723295D01*
X214018253Y-54738487D02*
X214666940Y-55537990D01*
X215003061Y-54564839D02*
X214018253Y-54738487D01*
X214666940Y-55537990D02*
X215003061Y-54564839D01*
X196380709Y-58978647D02*
X195395901Y-59152295D01*
X195222253Y-58167487D02*
X195870940Y-58966990D01*
X196207061Y-57993839D02*
X195222253Y-58167487D01*
X195870940Y-58966990D02*
X196207061Y-57993839D01*
X177617228Y-62127580D02*
X176632420Y-62301228D01*
X176458772Y-61316420D02*
X177107459Y-62115923D01*
X177443580Y-61142772D02*
X176458772Y-61316420D01*
X177107459Y-62115923D02*
X177443580Y-61142772D01*
X129025599Y-64930795D02*
X128040791Y-64757147D01*
X128214439Y-63772339D02*
X128550560Y-64745490D01*
X129199247Y-63945987D02*
X128214439Y-63772339D01*
X128550560Y-64745490D02*
X129199247Y-63945987D01*
X110229599Y-61628795D02*
X109244791Y-61455147D01*
X109418439Y-60470339D02*
X109754560Y-61443490D01*
X110403247Y-60643987D02*
X109418439Y-60470339D01*
X109754560Y-61443490D02*
X110403247Y-60643987D01*
X91622561Y-58274661D02*
X90637753Y-58101013D01*
X90811401Y-57116205D02*
X91147522Y-58089356D01*
X91796209Y-57289853D02*
X90811401Y-57116205D01*
X91147522Y-58089356D02*
X91796209Y-57289853D01*
X72891599Y-54897795D02*
X71906791Y-54724147D01*
X72080439Y-53739339D02*
X72416560Y-54712490D01*
X73065247Y-53912987D02*
X72080439Y-53739339D01*
X72416560Y-54712490D02*
X73065247Y-53912987D01*
X54095599Y-51595795D02*
X53110791Y-51422147D01*
X53284439Y-50437339D02*
X53620560Y-51410490D01*
X54269247Y-50610987D02*
X53284439Y-50437339D01*
X53620560Y-51410490D02*
X54269247Y-50610987D01*
D10*
X144627600Y-94915100D02*
X144627600Y-95915100D01*
X145127600Y-95415100D02*
X144127600Y-95415100D01*
X141127600Y-101515100D02*
X138727600Y-101515100D01*
X145927600Y-101515100D02*
X143327600Y-101515100D01*
X150527600Y-101515100D02*
X148127600Y-101515100D01*
X148727600Y-88215100D02*
X148427600Y-87915100D01*
X148727600Y-87615100D02*
X148727600Y-88215100D01*
X148427600Y-87915100D02*
X148727600Y-87615100D01*
X150527600Y-89315100D02*
X138727600Y-89315100D01*
X150527600Y-93415100D02*
X150527600Y-89315100D01*
X138727600Y-93415100D02*
X138727600Y-89315100D01*
X138727600Y-101515100D02*
X138727600Y-97415100D01*
X150527600Y-97415100D02*
X150527600Y-101515100D01*
X147627600Y-95415100D02*
G75*
G03X147627600Y-95415100I-3000000J0D01*
G01*
D11*
X150634700Y-123901200D02*
X150634700Y-126441200D01*
X140474700Y-126441200D02*
X140474700Y-123901200D01*
X150634700Y-126441200D02*
X140474700Y-126441200D01*
X150634700Y-123901200D02*
X140474700Y-123901200D01*
X144112319Y-126723580D02*
X144302795Y-126723580D01*
X144398033Y-126771200D01*
X144493271Y-126866438D01*
X144540890Y-127056914D01*
X144540890Y-127390247D01*
X144493271Y-127580723D01*
X144398033Y-127675961D01*
X144302795Y-127723580D01*
X144112319Y-127723580D01*
X144017080Y-127675961D01*
X143921842Y-127580723D01*
X143874223Y-127390247D01*
X143874223Y-127056914D01*
X143921842Y-126866438D01*
X144017080Y-126771200D01*
X144112319Y-126723580D01*
X145445652Y-127723580D02*
X144969461Y-127723580D01*
X144969461Y-126723580D01*
X145778985Y-127199771D02*
X146112319Y-127199771D01*
X146255176Y-127723580D02*
X145778985Y-127723580D01*
X145778985Y-126723580D01*
X146255176Y-126723580D01*
X146683747Y-127723580D02*
X146683747Y-126723580D01*
X146921842Y-126723580D01*
X147064700Y-126771200D01*
X147159938Y-126866438D01*
X147207557Y-126961676D01*
X147255176Y-127152152D01*
X147255176Y-127295009D01*
X147207557Y-127485485D01*
X147159938Y-127580723D01*
X147064700Y-127675961D01*
X146921842Y-127723580D01*
X146683747Y-127723580D01*
%LPC*%
D12*
X200600945Y-116937423D03*
X199559055Y-111028577D03*
D13*
G36*
X198690792Y-110420613D02*
G01*
X200167019Y-110160314D01*
X200427318Y-111636541D01*
X198951091Y-111896840D01*
X198690792Y-110420613D01*
X198690792Y-110420613D01*
G37*
D12*
X112891555Y-120796923D03*
X113933445Y-114888077D03*
D13*
G36*
X113325481Y-114019814D02*
G01*
X114801708Y-114280113D01*
X114541409Y-115756340D01*
X113065182Y-115496041D01*
X113325481Y-114019814D01*
X113325481Y-114019814D01*
G37*
D12*
X258272536Y-83050644D03*
X259314426Y-88959490D03*
D13*
G36*
X260182689Y-89567454D02*
G01*
X258706462Y-89827753D01*
X258446163Y-88351526D01*
X259922390Y-88091227D01*
X260182689Y-89567454D01*
X260182689Y-89567454D01*
G37*
D12*
X239476536Y-86352644D03*
X240518426Y-92261490D03*
D13*
G36*
X241386689Y-92869454D02*
G01*
X239910462Y-93129753D01*
X239650163Y-91653526D01*
X241126390Y-91393227D01*
X241386689Y-92869454D01*
X241386689Y-92869454D01*
G37*
D12*
X220807536Y-89781644D03*
X221849426Y-95690490D03*
D13*
G36*
X222717689Y-96298454D02*
G01*
X221241462Y-96558753D01*
X220981163Y-95082526D01*
X222457390Y-94822227D01*
X222717689Y-96298454D01*
X222717689Y-96298454D01*
G37*
D12*
X201884536Y-92956644D03*
X202926426Y-98865490D03*
D13*
G36*
X203794689Y-99473454D02*
G01*
X202318462Y-99733753D01*
X202058163Y-98257526D01*
X203534390Y-97997227D01*
X203794689Y-99473454D01*
X203794689Y-99473454D01*
G37*
D12*
X183215536Y-96385644D03*
X184257426Y-102294490D03*
D13*
G36*
X185125689Y-102902454D02*
G01*
X183649462Y-103162753D01*
X183389163Y-101686526D01*
X184865390Y-101426227D01*
X185125689Y-102902454D01*
X185125689Y-102902454D01*
G37*
D12*
X122409964Y-98989144D03*
X121368074Y-104897990D03*
D13*
G36*
X121976038Y-105766253D02*
G01*
X120499811Y-105505954D01*
X120760110Y-104029727D01*
X122236337Y-104290026D01*
X121976038Y-105766253D01*
X121976038Y-105766253D01*
G37*
D12*
X103675926Y-95635010D03*
X102634036Y-101543856D03*
D13*
G36*
X103242000Y-102412119D02*
G01*
X101765773Y-102151820D01*
X102026072Y-100675593D01*
X103502299Y-100935892D01*
X103242000Y-102412119D01*
X103242000Y-102412119D01*
G37*
D12*
X85006926Y-92333010D03*
X83965036Y-98241856D03*
D13*
G36*
X84573000Y-99110119D02*
G01*
X83096773Y-98849820D01*
X83357072Y-97373593D01*
X84833299Y-97633892D01*
X84573000Y-99110119D01*
X84573000Y-99110119D01*
G37*
D12*
X66337926Y-89031010D03*
X65296036Y-94939856D03*
D13*
G36*
X65904000Y-95808119D02*
G01*
X64427773Y-95547820D01*
X64688072Y-94071593D01*
X66164299Y-94331892D01*
X65904000Y-95808119D01*
X65904000Y-95808119D01*
G37*
D12*
X47414926Y-85729010D03*
X46373036Y-91637856D03*
D13*
G36*
X46981000Y-92506119D02*
G01*
X45504773Y-92245820D01*
X45765072Y-90769593D01*
X47241299Y-91029892D01*
X46981000Y-92506119D01*
X46981000Y-92506119D01*
G37*
D12*
X255097536Y-64254644D03*
X256139426Y-70163490D03*
D13*
G36*
X257007689Y-70771454D02*
G01*
X255531462Y-71031753D01*
X255271163Y-69555526D01*
X256747390Y-69295227D01*
X257007689Y-70771454D01*
X257007689Y-70771454D01*
G37*
D12*
X236174536Y-67683644D03*
X237216426Y-73592490D03*
D13*
G36*
X238084689Y-74200454D02*
G01*
X236608462Y-74460753D01*
X236348163Y-72984526D01*
X237824390Y-72724227D01*
X238084689Y-74200454D01*
X238084689Y-74200454D01*
G37*
D12*
X217378536Y-70985644D03*
X218420426Y-76894490D03*
D13*
G36*
X219288689Y-77502454D02*
G01*
X217812462Y-77762753D01*
X217552163Y-76286526D01*
X219028390Y-76026227D01*
X219288689Y-77502454D01*
X219288689Y-77502454D01*
G37*
D12*
X198709536Y-74287644D03*
X199751426Y-80196490D03*
D13*
G36*
X200619689Y-80804454D02*
G01*
X199143462Y-81064753D01*
X198883163Y-79588526D01*
X200359390Y-79328227D01*
X200619689Y-80804454D01*
X200619689Y-80804454D01*
G37*
D12*
X179913536Y-77716644D03*
X180955426Y-83625490D03*
D13*
G36*
X181823689Y-84233454D02*
G01*
X180347462Y-84493753D01*
X180087163Y-83017526D01*
X181563390Y-82757227D01*
X181823689Y-84233454D01*
X181823689Y-84233454D01*
G37*
D12*
X125773926Y-80141010D03*
X124732036Y-86049856D03*
D13*
G36*
X125340000Y-86918119D02*
G01*
X123863773Y-86657820D01*
X124124072Y-85181593D01*
X125600299Y-85441892D01*
X125340000Y-86918119D01*
X125340000Y-86918119D01*
G37*
D12*
X107104926Y-76839010D03*
X106063036Y-82747856D03*
D13*
G36*
X106671000Y-83616119D02*
G01*
X105194773Y-83355820D01*
X105455072Y-81879593D01*
X106931299Y-82139892D01*
X106671000Y-83616119D01*
X106671000Y-83616119D01*
G37*
D12*
X88341445Y-73436077D03*
X87299555Y-79344923D03*
D13*
G36*
X87907519Y-80213186D02*
G01*
X86431292Y-79952887D01*
X86691591Y-78476660D01*
X88167818Y-78736959D01*
X87907519Y-80213186D01*
X87907519Y-80213186D01*
G37*
D12*
X69512926Y-70235010D03*
X68471036Y-76143856D03*
D13*
G36*
X69079000Y-77012119D02*
G01*
X67602773Y-76751820D01*
X67863072Y-75275593D01*
X69339299Y-75535892D01*
X69079000Y-77012119D01*
X69079000Y-77012119D01*
G37*
D12*
X50843926Y-66933010D03*
X49802036Y-72841856D03*
D13*
G36*
X50410000Y-73710119D02*
G01*
X48933773Y-73449820D01*
X49194072Y-71973593D01*
X50670299Y-72233892D01*
X50410000Y-73710119D01*
X50410000Y-73710119D01*
G37*
D12*
X251541536Y-45839644D03*
X252583426Y-51748490D03*
D13*
G36*
X253451689Y-52356454D02*
G01*
X251975462Y-52616753D01*
X251715163Y-51140526D01*
X253191390Y-50880227D01*
X253451689Y-52356454D01*
X253451689Y-52356454D01*
G37*
D12*
X232872536Y-48887644D03*
X233914426Y-54796490D03*
D13*
G36*
X234782689Y-55404454D02*
G01*
X233306462Y-55664753D01*
X233046163Y-54188526D01*
X234522390Y-53928227D01*
X234782689Y-55404454D01*
X234782689Y-55404454D01*
G37*
D12*
X214076536Y-52189644D03*
X215118426Y-58098490D03*
D13*
G36*
X215986689Y-58706454D02*
G01*
X214510462Y-58966753D01*
X214250163Y-57490526D01*
X215726390Y-57230227D01*
X215986689Y-58706454D01*
X215986689Y-58706454D01*
G37*
D12*
X195280536Y-55618644D03*
X196322426Y-61527490D03*
D13*
G36*
X197190689Y-62135454D02*
G01*
X195714462Y-62395753D01*
X195454163Y-60919526D01*
X196930390Y-60659227D01*
X197190689Y-62135454D01*
X197190689Y-62135454D01*
G37*
D12*
X176517055Y-58767577D03*
X177558945Y-64676423D03*
D13*
G36*
X178427208Y-65284387D02*
G01*
X176950981Y-65544686D01*
X176690682Y-64068459D01*
X178166909Y-63808160D01*
X178427208Y-65284387D01*
X178427208Y-65284387D01*
G37*
D12*
X129140964Y-61397144D03*
X128099074Y-67305990D03*
D13*
G36*
X128707038Y-68174253D02*
G01*
X127230811Y-67913954D01*
X127491110Y-66437727D01*
X128967337Y-66698026D01*
X128707038Y-68174253D01*
X128707038Y-68174253D01*
G37*
D12*
X110344964Y-58095144D03*
X109303074Y-64003990D03*
D13*
G36*
X109911038Y-64872253D02*
G01*
X108434811Y-64611954D01*
X108695110Y-63135727D01*
X110171337Y-63396026D01*
X109911038Y-64872253D01*
X109911038Y-64872253D01*
G37*
D12*
X91737926Y-54741010D03*
X90696036Y-60649856D03*
D13*
G36*
X91304000Y-61518119D02*
G01*
X89827773Y-61257820D01*
X90088072Y-59781593D01*
X91564299Y-60041892D01*
X91304000Y-61518119D01*
X91304000Y-61518119D01*
G37*
D12*
X73006964Y-51364144D03*
X71965074Y-57272990D03*
D13*
G36*
X72573038Y-58141253D02*
G01*
X71096811Y-57880954D01*
X71357110Y-56404727D01*
X72833337Y-56665026D01*
X72573038Y-58141253D01*
X72573038Y-58141253D01*
G37*
D12*
X54210964Y-48062144D03*
X53169074Y-53970990D03*
D13*
G36*
X53777038Y-54839253D02*
G01*
X52300811Y-54578954D01*
X52561110Y-53102727D01*
X54037337Y-53363026D01*
X53777038Y-54839253D01*
X53777038Y-54839253D01*
G37*
D14*
X137168600Y-56515000D03*
X137168600Y-59055000D03*
X137168600Y-61595000D03*
X137168600Y-64135000D03*
X137168600Y-66675000D03*
X137168600Y-69215000D03*
X137168600Y-71755000D03*
X137168600Y-74295000D03*
X137168600Y-76835000D03*
X137168600Y-79375000D03*
X137168600Y-81915000D03*
X137168600Y-84455000D03*
X152388600Y-84455000D03*
X152388600Y-81915000D03*
X152388600Y-79375000D03*
X152388600Y-76835000D03*
X152388600Y-74295000D03*
X152388600Y-71755000D03*
X152388600Y-69215000D03*
X152388600Y-66675000D03*
X152388600Y-64135000D03*
X152388600Y-61595000D03*
X152388600Y-59055000D03*
X152388600Y-56515000D03*
D15*
X158978600Y-125285500D03*
X165478600Y-125285500D03*
D16*
X201188833Y-121270089D03*
X177738098Y-125405087D03*
D17*
X198542435Y-106261619D03*
X175091700Y-110396616D03*
D18*
X193032823Y-114325867D03*
X183027177Y-116090133D03*
D16*
X188030000Y-115208000D03*
X112004402Y-125164587D03*
X88553667Y-121029589D03*
D17*
X114650800Y-110156116D03*
X91200065Y-106021119D03*
D18*
X106715323Y-115849633D03*
X96709677Y-114085367D03*
D16*
X101712500Y-114967500D03*
D18*
X173632823Y-59700867D03*
X163627177Y-61465133D03*
D16*
X168630000Y-60583000D03*
D18*
X255432823Y-83925867D03*
X245427177Y-85690133D03*
D16*
X250430000Y-84808000D03*
D18*
X236657823Y-87275867D03*
X226652177Y-89040133D03*
D16*
X231655000Y-88158000D03*
D18*
X217932823Y-90575867D03*
X207927177Y-92340133D03*
D16*
X212930000Y-91458000D03*
D18*
X199157823Y-93900867D03*
X189152177Y-95665133D03*
D16*
X194155000Y-94783000D03*
D18*
X180307823Y-97225867D03*
X170302177Y-98990133D03*
D16*
X175305000Y-98108000D03*
D18*
X119415323Y-98699633D03*
X109409677Y-96935367D03*
D16*
X114412500Y-97817500D03*
D18*
X100715323Y-95349633D03*
X90709677Y-93585367D03*
D16*
X95712500Y-94467500D03*
D18*
X82015323Y-92049633D03*
X72009677Y-90285367D03*
D16*
X77012500Y-91167500D03*
D18*
X63215323Y-88774633D03*
X53209677Y-87010367D03*
D16*
X58212500Y-87892500D03*
D18*
X44415323Y-85474633D03*
X34409677Y-83710367D03*
D16*
X39412500Y-84592500D03*
D18*
X252157823Y-65225867D03*
X242152177Y-66990133D03*
D16*
X247155000Y-66108000D03*
D18*
X233382823Y-68550867D03*
X223377177Y-70315133D03*
D16*
X228380000Y-69433000D03*
D18*
X214607823Y-71850867D03*
X204602177Y-73615133D03*
D16*
X209605000Y-72733000D03*
D18*
X195782823Y-75200867D03*
X185777177Y-76965133D03*
D16*
X190780000Y-76083000D03*
D18*
X176986709Y-78493143D03*
X166981063Y-80257409D03*
D16*
X171983886Y-79375276D03*
D18*
X122715323Y-79949633D03*
X112709677Y-78185367D03*
D16*
X117712500Y-79067500D03*
D18*
X103990323Y-76624633D03*
X93984677Y-74860367D03*
D16*
X98987500Y-75742500D03*
D18*
X85265323Y-73299633D03*
X75259677Y-71535367D03*
D16*
X80262500Y-72417500D03*
D18*
X66515323Y-69999633D03*
X56509677Y-68235367D03*
D16*
X61512500Y-69117500D03*
D18*
X47740323Y-66699633D03*
X37734677Y-64935367D03*
D16*
X42737500Y-65817500D03*
D18*
X248832823Y-46572867D03*
X238827177Y-48337133D03*
D16*
X243830000Y-47455000D03*
D18*
X230046823Y-49822867D03*
X220041177Y-51587133D03*
D16*
X225044000Y-50705000D03*
D18*
X211257823Y-53050867D03*
X201252177Y-54815133D03*
D16*
X206255000Y-53933000D03*
D18*
X192432823Y-56375867D03*
X182427177Y-58140133D03*
D16*
X187430000Y-57258000D03*
D18*
X126040323Y-61174633D03*
X116034677Y-59410367D03*
D16*
X121037500Y-60292500D03*
D18*
X107290323Y-57874633D03*
X97284677Y-56110367D03*
D16*
X102287500Y-56992500D03*
D18*
X88540323Y-54549633D03*
X78534677Y-52785367D03*
D16*
X83537500Y-53667500D03*
D18*
X69815323Y-51249633D03*
X59809677Y-49485367D03*
D16*
X64812500Y-50367500D03*
D18*
X51065323Y-47949633D03*
X41059677Y-46185367D03*
D16*
X46062500Y-47067500D03*
D19*
X147127600Y-87915100D03*
D15*
X144627600Y-87915100D03*
X142127600Y-87915100D03*
D20*
X150227600Y-95415100D03*
X139027600Y-95415100D03*
D15*
X147127600Y-102415100D03*
X142127600Y-102415100D03*
M02*
