M48
; DRILL file {KiCad 5.1.7} date Sun Oct 25 02:46:22 2020
; FORMAT={-:-/ absolute / inch / decimal}
; #@! TF.CreationDate,2020-10-25T02:46:22-04:00
; #@! TF.GenerationSoftware,Kicad,Pcbnew,5.1.7
; #@! TF.FileFunction,Plated,1,2,PTH
FMAT,2
INCH
T1C0.0157
T2C0.0236
T3C0.0320
T4C0.0394
T5C0.0512
T6C0.0579
T7C0.0591
%
G90
G05
T1
X1.689Y-4.685
X1.8031Y-3.9488
X1.9331Y-3.2047
X2.2913Y-4.8189
X2.4055Y-4.0748
X2.4094Y-4.8268
X2.5394Y-3.3346
X2.5551Y-4.0866
X2.6693Y-3.3583
X3.0157Y-4.9567
X3.1496Y-4.2126
X3.1575Y-4.9646
X3.2835Y-3.4764
X3.2913Y-4.2323
X3.4252Y-3.4882
X3.7638Y-5.0906
X3.8819Y-5.1024
X3.8976Y-4.3346
X4.0354Y-3.5945
X4.0354Y-4.3504
X4.1496Y-3.6024
X4.4921Y-5.2047
X4.5276Y-5.8622
X4.6339Y-4.4764
X4.6378Y-5.2244
X4.6488Y-5.4575
X4.748Y-3.7323
X4.7598Y-4.5
X4.7874Y-4.2946
X4.7913Y-4.2373
X4.8622Y-5.9291
X4.8937Y-3.7402
X4.9828Y-5.9636
X5.1142Y-4.3178
X5.1398Y-5.4882
X5.1417Y-6.0057
X5.1457Y-5.9485
X5.1603Y-4.3122
X5.1693Y-5.4094
X5.2087Y-3.8622
X5.2291Y-5.8969
X5.2984Y-5.8827
X5.3425Y-3.9409
X5.3819Y-6.0079
X5.3858Y-3.9094
X5.3858Y-3.9724
X5.3976Y-6.1063
X5.4173Y-5.3386
X5.4685Y-6.2047
X5.473Y-5.216
X5.4758Y-3.8706
X5.4764Y-4.0669
X5.4803Y-5.3583
X5.4921Y-5.8228
X5.5068Y-4.0123
X5.5591Y-5.9252
X5.5642Y-3.9094
X5.5768Y-5.9606
X5.5906Y-6.2087
X5.5945Y-4.3071
X5.6063Y-3.9409
X5.6063Y-6.0197
X5.6339Y-5.1575
X5.6358Y-5.9291
X5.6654Y-5.2047
X5.6831Y-4.1752
X5.689Y-4.4134
X5.6969Y-5.2992
X5.7008Y-5.1614
X5.7283Y-3.9409
X5.7441Y-6.0197
X5.7677Y-4.4252
X5.7717Y-5.6142
X5.8003Y-5.6772
X5.8937Y-4.4252
X6.2579Y-5.9579
X6.5968Y-5.4985
X6.6324Y-5.5182
X6.6693Y-5.5379
X6.7913Y-5.6575
X6.8071Y-3.5984
X6.8307Y-4.374
X6.8638Y-5.6249
X6.8703Y-5.5648
X6.8937Y-5.6535
X6.9048Y-5.5934
X6.9606Y-4.3543
X7.0748Y-5.0748
X7.4213Y-3.5039
X7.5512Y-3.4685
X7.5512Y-4.2441
X7.6929Y-4.2205
X7.6969Y-4.9803
X7.7874Y-5.6575
X7.8228Y-4.9606
X8.1575Y-3.374
X8.2953Y-3.3425
X8.2953Y-4.1142
X8.4173Y-4.0866
X8.4291Y-4.8543
X8.563Y-4.8346
X8.9055Y-3.2441
X9.0394Y-3.2205
X9.0394Y-3.9882
X9.1614Y-4.7244
X9.1693Y-3.9567
X9.3031Y-4.7008
X9.6457Y-3.1142
X9.7717Y-3.8583
X9.9055Y-4.5945
T3
X5.35Y-6.15
X5.45Y-6.15
X5.55Y-6.15
X5.65Y-6.15
T4
X5.4016Y-4.4544
X5.4016Y-5.0253
X5.5Y-5.0253
X5.5984Y-4.4544
X5.5984Y-5.0253
T5
X4.8138Y-6.3559
X5.0697Y-6.3559
T6
X8.6312Y-4.0532
X8.86Y-3.9113
X7.7623Y-3.4449
X7.9912Y-3.303
X9.5Y-4.6616
X9.7289Y-4.5197
X8.7614Y-4.7918
X8.9903Y-4.6499
X6.4154Y-4.4439
X6.6442Y-4.302
X7.154Y-4.3137
X7.3828Y-4.1718
X9.2396Y-3.1844
X9.4684Y-3.0425
X7.0451Y-5.856
X7.274Y-5.7141
X4.2267Y-4.3918
X4.4903Y-4.3368
X1.8806Y-4.7397
X2.1442Y-4.6847
X1.142Y-4.6095
X1.4056Y-4.5544
X2.1411Y-3.2625
X2.4047Y-3.2075
X2.8797Y-3.3928
X3.1433Y-3.3377
X7.0237Y-3.5751
X7.2526Y-3.4332
X8.0228Y-4.9221
X8.2517Y-4.7802
X3.5969Y-5.8039
X3.8605Y-5.7489
X4.3569Y-3.6532
X4.6205Y-3.5982
X6.5456Y-5.1825
X6.7744Y-5.0406
X3.6183Y-3.523
X3.8819Y-3.4679
X4.0965Y-5.1304
X4.36Y-5.0754
X3.4881Y-4.2616
X3.7517Y-4.2065
X9.3698Y-3.923
X9.5986Y-3.7811
X7.2842Y-5.0523
X7.513Y-4.9104
X3.3578Y-5.0002
X3.6214Y-4.9451
X1.2723Y-3.8709
X1.5358Y-3.8158
X1.4025Y-3.1323
X1.6661Y-3.0772
X2.7495Y-4.1314
X3.013Y-4.0763
X8.5009Y-3.3146
X8.7298Y-3.1727
X2.0109Y-4.0011
X2.2744Y-3.9461
X6.2851Y-3.7053
X6.514Y-3.5634
X2.6192Y-4.87
X2.8828Y-4.8149
X7.8926Y-4.1835
X8.1214Y-4.0416
T2
G00X5.3031Y-3.5736
M15
G01X5.3031Y-3.5972
M16
G05
G00X5.3031Y-3.7283
M15
G01X5.3031Y-3.7717
M16
G05
G00X5.6433Y-3.5736
M15
G01X5.6433Y-3.5972
M16
G05
G00X5.6433Y-3.7283
M15
G01X5.6433Y-3.7717
M16
G05
T7
G00X5.2795Y-4.7556
M15
G01X5.2795Y-4.7044
M16
G05
G00X5.7205Y-4.7556
M15
G01X5.7205Y-4.7044
M16
G05
T0
M30
