  0
SECTION
  2
HEADER
  9
$ANGBASE
  50
0.0
  9
$ANGDIR
  70
1
  9
$MEASUREMENT
  70
0
  0
ENDSEC
  0
SECTION
  2
TABLES
  0
TABLE
  2
LTYPE
  70
4
  0
LTYPE
  5
40F
  2
CONTINUOUS
  70
0
  3
Solid line
  72
65
  73
0
  40
0.0
  0
LTYPE
  5
410
  2
DASHDOT
 70
0
  3
Dash Dot ____ _ ____ _
 72
65
 73
4
 40
2.0
 49
1.25
 49
-0.25
 49
0.25
 49
-0.25
  0
LTYPE
  5
411
  2
DASHED
 70
0
  3
Dashed __ __ __ __ __
 72
65
 73
2
 40
0.75
 49
0.5
 49
-0.25
  0
LTYPE
  5
43B
  2
DOTTED
 70
0
  3
Dotted .  .  .  .
 72
65
 73
2
 40
0.2
 49
0.0
 49
-0.2
  0
ENDTAB
  0
TABLE
  2
STYLE
  70
4
  0
STYLE
  2
KICAD
  70
0
  40
0
  41
1
  42
1
  50
0
  71
0
  3
isocp.shx
  0
STYLE
  2
KICADB
  70
0
  40
0
  41
1
  42
1
  50
0
  71
0
  3
isocp.shx
  0
STYLE
  2
KICADI
  70
0
  40
0
  41
1
  42
1
  50
15
  71
0
  3
isocp.shx
  0
STYLE
  2
KICADBI
  70
0
  40
0
  41
1
  42
1
  50
15
  71
0
  3
isocp.shx
  0
ENDTAB
  0
TABLE
  2
LAYER
  70
1
  0
LAYER
  2
BLACK
  70
0
  62
7
  6
CONTINUOUS
  0
ENDTAB
  0
ENDSEC
  0
SECTION
  2
ENTITIES
0
LINE
8
BLACK
6
CONTINUOUS
10
9.87508
20
-1.37402
11
9.87515
21
-1.37402
0
LINE
8
BLACK
6
CONTINUOUS
10
9.87515
20
-1.37402
11
9.87518
21
-1.37403
0
LINE
8
BLACK
6
CONTINUOUS
10
9.87518
20
-1.37403
11
9.87521
21
-1.37403
0
LINE
8
BLACK
6
CONTINUOUS
10
9.87521
20
-1.37403
11
9.87527
21
-1.37405
0
LINE
8
BLACK
6
CONTINUOUS
10
9.87527
20
-1.37405
11
9.87533
21
-1.37407
0
LINE
8
BLACK
6
CONTINUOUS
10
9.87533
20
-1.37407
11
9.87536
21
-1.37408
0
LINE
8
BLACK
6
CONTINUOUS
10
9.87536
20
-1.37408
11
9.87539
21
-1.37409
0
LINE
8
BLACK
6
CONTINUOUS
10
9.87539
20
-1.37409
11
9.87545
21
-1.37412
0
LINE
8
BLACK
6
CONTINUOUS
10
9.87545
20
-1.37412
11
9.87547
21
-1.37413
0
LINE
8
BLACK
6
CONTINUOUS
10
9.87547
20
-1.37413
11
9.87549
21
-1.37415
0
LINE
8
BLACK
6
CONTINUOUS
10
9.87549
20
-1.37415
11
9.87556
21
-1.37419
0
LINE
8
BLACK
6
CONTINUOUS
10
9.87556
20
-1.37419
11
9.87558
21
-1.3742
0
LINE
8
BLACK
6
CONTINUOUS
10
9.87558
20
-1.3742
11
10.0005
21
-1.44915
0
LINE
8
BLACK
6
CONTINUOUS
10
10.0005
20
-1.44915
11
10.0006
21
-1.4492
0
LINE
8
BLACK
6
CONTINUOUS
10
10.0006
20
-1.4492
11
10.0006
21
-1.44924
0
LINE
8
BLACK
6
CONTINUOUS
10
10.0006
20
-1.44924
11
10.0007
21
-1.44927
0
LINE
8
BLACK
6
CONTINUOUS
10
10.0007
20
-1.44927
11
10.0007
21
-1.4493
0
LINE
8
BLACK
6
CONTINUOUS
10
10.0007
20
-1.4493
11
10.0007
21
-1.44933
0
LINE
8
BLACK
6
CONTINUOUS
10
10.0007
20
-1.44933
11
10.0008
21
-1.44937
0
LINE
8
BLACK
6
CONTINUOUS
10
10.0008
20
-1.44937
11
10.0008
21
-1.44941
0
LINE
8
BLACK
6
CONTINUOUS
10
10.0008
20
-1.44941
11
10.0008
21
-1.44945
0
LINE
8
BLACK
6
CONTINUOUS
10
10.0008
20
-1.44945
11
10.0008
21
-1.44948
0
LINE
8
BLACK
6
CONTINUOUS
10
10.0008
20
-1.44948
11
10.0009
21
-1.44953
0
LINE
8
BLACK
6
CONTINUOUS
10
10.0009
20
-1.44953
11
10.0009
21
-1.44958
0
LINE
8
BLACK
6
CONTINUOUS
10
10.0009
20
-1.44958
11
10.0009
21
-1.44962
0
LINE
8
BLACK
6
CONTINUOUS
10
10.0009
20
-1.44962
11
10.0009
21
-1.44966
0
LINE
8
BLACK
6
CONTINUOUS
10
10.0009
20
-1.44966
11
10.0009
21
-1.44971
0
LINE
8
BLACK
6
CONTINUOUS
10
10.0009
20
-1.44971
11
10.001
21
-1.44976
0
LINE
8
BLACK
6
CONTINUOUS
10
10.001
20
-1.44976
11
10.001
21
-1.44985
0
LINE
8
BLACK
6
CONTINUOUS
10
10.001
20
-1.44985
11
10.351
21
-3.62478
0
LINE
8
BLACK
6
CONTINUOUS
10
10.351
20
-3.62478
11
10.351
21
-3.62481
0
LINE
8
BLACK
6
CONTINUOUS
10
10.351
20
-3.62481
11
10.351
21
-3.62487
0
LINE
8
BLACK
6
CONTINUOUS
10
10.351
20
-3.62487
11
10.351
21
-3.62489
0
LINE
8
BLACK
6
CONTINUOUS
10
10.351
20
-3.62489
11
10.351
21
-3.62492
0
LINE
8
BLACK
6
CONTINUOUS
10
10.351
20
-3.62492
11
10.351
21
-3.625
0
LINE
8
BLACK
6
CONTINUOUS
10
10.351
20
-3.625
11
10.351
21
-3.62502
0
LINE
8
BLACK
6
CONTINUOUS
10
10.351
20
-3.62502
11
10.351
21
-3.62504
0
LINE
8
BLACK
6
CONTINUOUS
10
10.351
20
-3.62504
11
10.351
21
-3.62511
0
LINE
8
BLACK
6
CONTINUOUS
10
10.351
20
-3.62511
11
10.351
21
-3.62519
0
LINE
8
BLACK
6
CONTINUOUS
10
10.351
20
-3.62519
11
10.351
21
-3.62521
0
LINE
8
BLACK
6
CONTINUOUS
10
10.351
20
-3.62521
11
10.351
21
-3.62523
0
LINE
8
BLACK
6
CONTINUOUS
10
10.351
20
-3.62523
11
10.3509
21
-3.6253
0
LINE
8
BLACK
6
CONTINUOUS
10
10.3509
20
-3.6253
11
10.3509
21
-3.62538
0
LINE
8
BLACK
6
CONTINUOUS
10
10.3509
20
-3.62538
11
10.3509
21
-3.62539
0
LINE
8
BLACK
6
CONTINUOUS
10
10.3509
20
-3.62539
11
10.3509
21
-3.62541
0
LINE
8
BLACK
6
CONTINUOUS
10
10.3509
20
-3.62541
11
10.3509
21
-3.62548
0
LINE
8
BLACK
6
CONTINUOUS
10
10.3509
20
-3.62548
11
10.3508
21
-3.62551
0
LINE
8
BLACK
6
CONTINUOUS
10
10.3508
20
-3.62551
11
10.3508
21
-3.62552
0
LINE
8
BLACK
6
CONTINUOUS
10
10.3508
20
-3.62552
11
10.3508
21
-3.62558
0
LINE
8
BLACK
6
CONTINUOUS
10
10.3508
20
-3.62558
11
10.3508
21
-3.6256
0
LINE
8
BLACK
6
CONTINUOUS
10
10.3508
20
-3.6256
11
10.3008
21
-3.70052
0
LINE
8
BLACK
6
CONTINUOUS
10
10.3008
20
-3.70052
11
10.3008
21
-3.70057
0
LINE
8
BLACK
6
CONTINUOUS
10
10.3008
20
-3.70057
11
10.3008
21
-3.70064
0
LINE
8
BLACK
6
CONTINUOUS
10
10.3008
20
-3.70064
11
10.3007
21
-3.7007
0
LINE
8
BLACK
6
CONTINUOUS
10
10.3007
20
-3.7007
11
10.3007
21
-3.70071
0
LINE
8
BLACK
6
CONTINUOUS
10
10.3007
20
-3.70071
11
10.3007
21
-3.70072
0
LINE
8
BLACK
6
CONTINUOUS
10
10.3007
20
-3.70072
11
10.3006
21
-3.70077
0
LINE
8
BLACK
6
CONTINUOUS
10
10.3006
20
-3.70077
11
10.3006
21
-3.70082
0
LINE
8
BLACK
6
CONTINUOUS
10
10.3006
20
-3.70082
11
10.3005
21
-3.70083
0
LINE
8
BLACK
6
CONTINUOUS
10
10.3005
20
-3.70083
11
10.3005
21
-3.70084
0
LINE
8
BLACK
6
CONTINUOUS
10
10.3005
20
-3.70084
11
10.3005
21
-3.70087
0
LINE
8
BLACK
6
CONTINUOUS
10
10.3005
20
-3.70087
11
10.3004
21
-3.70091
0
LINE
8
BLACK
6
CONTINUOUS
10
10.3004
20
-3.70091
11
10.3004
21
-3.70092
0
LINE
8
BLACK
6
CONTINUOUS
10
10.3004
20
-3.70092
11
10.3004
21
-3.70092
0
LINE
8
BLACK
6
CONTINUOUS
10
10.3004
20
-3.70092
11
10.3003
21
-3.70095
0
LINE
8
BLACK
6
CONTINUOUS
10
10.3003
20
-3.70095
11
10.3002
21
-3.70097
0
LINE
8
BLACK
6
CONTINUOUS
10
10.3002
20
-3.70097
11
10.3001
21
-3.70098
0
LINE
8
BLACK
6
CONTINUOUS
10
10.3001
20
-3.70098
11
8.25047
21
-4.05092
0
LINE
8
BLACK
6
CONTINUOUS
10
8.25047
20
-4.05092
11
8.17605
21
-4.12534
0
LINE
8
BLACK
6
CONTINUOUS
10
8.17605
20
-4.12534
11
8.27597
21
-4.72481
0
LINE
8
BLACK
6
CONTINUOUS
10
8.27597
20
-4.72481
11
8.27598
21
-4.72488
0
LINE
8
BLACK
6
CONTINUOUS
10
8.27598
20
-4.72488
11
8.27598
21
-4.72495
0
LINE
8
BLACK
6
CONTINUOUS
10
8.27598
20
-4.72495
11
8.27599
21
-4.72503
0
LINE
8
BLACK
6
CONTINUOUS
10
8.27599
20
-4.72503
11
8.27599
21
-4.72505
0
LINE
8
BLACK
6
CONTINUOUS
10
8.27599
20
-4.72505
11
8.27599
21
-4.72507
0
LINE
8
BLACK
6
CONTINUOUS
10
8.27599
20
-4.72507
11
8.27597
21
-4.72515
0
LINE
8
BLACK
6
CONTINUOUS
10
8.27597
20
-4.72515
11
8.27596
21
-4.72522
0
LINE
8
BLACK
6
CONTINUOUS
10
8.27596
20
-4.72522
11
8.27596
21
-4.72524
0
LINE
8
BLACK
6
CONTINUOUS
10
8.27596
20
-4.72524
11
8.27595
21
-4.72526
0
LINE
8
BLACK
6
CONTINUOUS
10
8.27595
20
-4.72526
11
8.27593
21
-4.72533
0
LINE
8
BLACK
6
CONTINUOUS
10
8.27593
20
-4.72533
11
8.2759
21
-4.72541
0
LINE
8
BLACK
6
CONTINUOUS
10
8.2759
20
-4.72541
11
8.27587
21
-4.72547
0
LINE
8
BLACK
6
CONTINUOUS
10
8.27587
20
-4.72547
11
8.22592
21
-4.82537
0
LINE
8
BLACK
6
CONTINUOUS
10
8.22592
20
-4.82537
11
8.22591
21
-4.82538
0
LINE
8
BLACK
6
CONTINUOUS
10
8.22591
20
-4.82538
11
8.22587
21
-4.82545
0
LINE
8
BLACK
6
CONTINUOUS
10
8.22587
20
-4.82545
11
8.22586
21
-4.82548
0
LINE
8
BLACK
6
CONTINUOUS
10
8.22586
20
-4.82548
11
8.22585
21
-4.8255
0
LINE
8
BLACK
6
CONTINUOUS
10
8.22585
20
-4.8255
11
8.22582
21
-4.82555
0
LINE
8
BLACK
6
CONTINUOUS
10
8.22582
20
-4.82555
11
8.2258
21
-4.82558
0
LINE
8
BLACK
6
CONTINUOUS
10
8.2258
20
-4.82558
11
8.22578
21
-4.82561
0
LINE
8
BLACK
6
CONTINUOUS
10
8.22578
20
-4.82561
11
8.22574
21
-4.82565
0
LINE
8
BLACK
6
CONTINUOUS
10
8.22574
20
-4.82565
11
8.2257
21
-4.8257
0
LINE
8
BLACK
6
CONTINUOUS
10
8.2257
20
-4.8257
11
8.22567
21
-4.82572
0
LINE
8
BLACK
6
CONTINUOUS
10
8.22567
20
-4.82572
11
8.22565
21
-4.82575
0
LINE
8
BLACK
6
CONTINUOUS
10
8.22565
20
-4.82575
11
8.2256
21
-4.82578
0
LINE
8
BLACK
6
CONTINUOUS
10
8.2256
20
-4.82578
11
8.22554
21
-4.82583
0
LINE
8
BLACK
6
CONTINUOUS
10
8.22554
20
-4.82583
11
8.22552
21
-4.82584
0
LINE
8
BLACK
6
CONTINUOUS
10
8.22552
20
-4.82584
11
8.22549
21
-4.82586
0
LINE
8
BLACK
6
CONTINUOUS
10
8.22549
20
-4.82586
11
8.22543
21
-4.82589
0
LINE
8
BLACK
6
CONTINUOUS
10
8.22543
20
-4.82589
11
8.22537
21
-4.82592
0
LINE
8
BLACK
6
CONTINUOUS
10
8.22537
20
-4.82592
11
8.22534
21
-4.82593
0
LINE
8
BLACK
6
CONTINUOUS
10
8.22534
20
-4.82593
11
8.22531
21
-4.82594
0
LINE
8
BLACK
6
CONTINUOUS
10
8.22531
20
-4.82594
11
8.22525
21
-4.82595
0
LINE
8
BLACK
6
CONTINUOUS
10
8.22525
20
-4.82595
11
8.22523
21
-4.82596
0
LINE
8
BLACK
6
CONTINUOUS
10
8.22523
20
-4.82596
11
8.2252
21
-4.82596
0
LINE
8
BLACK
6
CONTINUOUS
10
8.2252
20
-4.82596
11
8.22512
21
-4.82598
0
LINE
8
BLACK
6
CONTINUOUS
10
8.22512
20
-4.82598
11
8.22511
21
-4.82598
0
LINE
8
BLACK
6
CONTINUOUS
10
8.22511
20
-4.82598
11
6.80024
21
-5.10096
0
LINE
8
BLACK
6
CONTINUOUS
10
6.80024
20
-5.10096
11
6.80019
21
-5.10097
0
LINE
8
BLACK
6
CONTINUOUS
10
6.80019
20
-5.10097
11
6.80014
21
-5.10098
0
LINE
8
BLACK
6
CONTINUOUS
10
6.80014
20
-5.10098
11
6.80014
21
-5.10098
0
LINE
8
BLACK
6
CONTINUOUS
10
6.80014
20
-5.10098
11
6.8001
21
-5.10098
0
LINE
8
BLACK
6
CONTINUOUS
10
6.8001
20
-5.10098
11
6.80005
21
-5.10098
0
LINE
8
BLACK
6
CONTINUOUS
10
6.80005
20
-5.10098
11
6.80004
21
-5.10098
0
LINE
8
BLACK
6
CONTINUOUS
10
6.80004
20
-5.10098
11
6.79999
21
-5.10099
0
LINE
8
BLACK
6
CONTINUOUS
10
6.79999
20
-5.10099
11
6.79995
21
-5.10098
0
LINE
8
BLACK
6
CONTINUOUS
10
6.79995
20
-5.10098
11
4.60006
21
-5.10098
0
LINE
8
BLACK
6
CONTINUOUS
10
4.60006
20
-5.10098
11
4.60002
21
-5.10099
0
LINE
8
BLACK
6
CONTINUOUS
10
4.60002
20
-5.10099
11
4.59996
21
-5.10098
0
LINE
8
BLACK
6
CONTINUOUS
10
4.59996
20
-5.10098
11
4.59995
21
-5.10098
0
LINE
8
BLACK
6
CONTINUOUS
10
4.59995
20
-5.10098
11
4.59991
21
-5.10098
0
LINE
8
BLACK
6
CONTINUOUS
10
4.59991
20
-5.10098
11
4.59988
21
-5.10098
0
LINE
8
BLACK
6
CONTINUOUS
10
4.59988
20
-5.10098
11
4.59987
21
-5.10098
0
LINE
8
BLACK
6
CONTINUOUS
10
4.59987
20
-5.10098
11
4.59981
21
-5.10097
0
LINE
8
BLACK
6
CONTINUOUS
10
4.59981
20
-5.10097
11
4.59977
21
-5.10096
0
LINE
8
BLACK
6
CONTINUOUS
10
4.59977
20
-5.10096
11
3.17492
21
-4.85098
0
LINE
8
BLACK
6
CONTINUOUS
10
3.17492
20
-4.85098
11
3.17491
21
-4.85098
0
LINE
8
BLACK
6
CONTINUOUS
10
3.17491
20
-4.85098
11
3.17482
21
-4.85097
0
LINE
8
BLACK
6
CONTINUOUS
10
3.17482
20
-4.85097
11
3.17478
21
-4.85096
0
LINE
8
BLACK
6
CONTINUOUS
10
3.17478
20
-4.85096
11
3.17478
21
-4.85096
0
LINE
8
BLACK
6
CONTINUOUS
10
3.17478
20
-4.85096
11
3.17472
21
-4.85095
0
LINE
8
BLACK
6
CONTINUOUS
10
3.17472
20
-4.85095
11
3.17468
21
-4.85093
0
LINE
8
BLACK
6
CONTINUOUS
10
3.17468
20
-4.85093
11
3.17464
21
-4.85092
0
LINE
8
BLACK
6
CONTINUOUS
10
3.17464
20
-4.85092
11
3.17459
21
-4.8509
0
LINE
8
BLACK
6
CONTINUOUS
10
3.17459
20
-4.8509
11
3.17454
21
-4.85088
0
LINE
8
BLACK
6
CONTINUOUS
10
3.17454
20
-4.85088
11
3.17451
21
-4.85085
0
LINE
8
BLACK
6
CONTINUOUS
10
3.17451
20
-4.85085
11
3.17447
21
-4.85083
0
LINE
8
BLACK
6
CONTINUOUS
10
3.17447
20
-4.85083
11
3.17443
21
-4.8508
0
LINE
8
BLACK
6
CONTINUOUS
10
3.17443
20
-4.8508
11
3.17438
21
-4.85077
0
LINE
8
BLACK
6
CONTINUOUS
10
3.17438
20
-4.85077
11
3.17435
21
-4.85074
0
LINE
8
BLACK
6
CONTINUOUS
10
3.17435
20
-4.85074
11
3.17432
21
-4.85072
0
LINE
8
BLACK
6
CONTINUOUS
10
3.17432
20
-4.85072
11
3.17428
21
-4.85067
0
LINE
8
BLACK
6
CONTINUOUS
10
3.17428
20
-4.85067
11
3.17427
21
-4.85067
0
LINE
8
BLACK
6
CONTINUOUS
10
3.17427
20
-4.85067
11
3.17425
21
-4.85063
0
LINE
8
BLACK
6
CONTINUOUS
10
3.17425
20
-4.85063
11
3.17419
21
-4.85057
0
LINE
8
BLACK
6
CONTINUOUS
10
3.17419
20
-4.85057
11
3.17419
21
-4.85056
0
LINE
8
BLACK
6
CONTINUOUS
10
3.17419
20
-4.85056
11
3.04925
21
-4.70064
0
LINE
8
BLACK
6
CONTINUOUS
10
3.04925
20
-4.70064
11
3.0492
21
-4.70058
0
LINE
8
BLACK
6
CONTINUOUS
10
3.0492
20
-4.70058
11
3.04917
21
-4.70053
0
LINE
8
BLACK
6
CONTINUOUS
10
3.04917
20
-4.70053
11
3.04913
21
-4.70047
0
LINE
8
BLACK
6
CONTINUOUS
10
3.04913
20
-4.70047
11
3.04912
21
-4.70044
0
LINE
8
BLACK
6
CONTINUOUS
10
3.04912
20
-4.70044
11
3.0491
21
-4.70041
0
LINE
8
BLACK
6
CONTINUOUS
10
3.0491
20
-4.70041
11
3.04908
21
-4.70035
0
LINE
8
BLACK
6
CONTINUOUS
10
3.04908
20
-4.70035
11
3.04906
21
-4.70029
0
LINE
8
BLACK
6
CONTINUOUS
10
3.04906
20
-4.70029
11
3.04905
21
-4.70026
0
LINE
8
BLACK
6
CONTINUOUS
10
3.04905
20
-4.70026
11
3.04904
21
-4.70023
0
LINE
8
BLACK
6
CONTINUOUS
10
3.04904
20
-4.70023
11
3.04903
21
-4.70017
0
LINE
8
BLACK
6
CONTINUOUS
10
3.04903
20
-4.70017
11
3.04902
21
-4.7001
0
LINE
8
BLACK
6
CONTINUOUS
10
3.04902
20
-4.7001
11
3.04902
21
-4.70007
0
LINE
8
BLACK
6
CONTINUOUS
10
3.04902
20
-4.70007
11
3.04901
21
-4.70004
0
LINE
8
BLACK
6
CONTINUOUS
10
3.04901
20
-4.70004
11
3.04902
21
-4.69998
0
LINE
8
BLACK
6
CONTINUOUS
10
3.04902
20
-4.69998
11
3.04902
21
-4.69991
0
LINE
8
BLACK
6
CONTINUOUS
10
3.04902
20
-4.69991
11
3.04903
21
-4.69983
0
LINE
8
BLACK
6
CONTINUOUS
10
3.04903
20
-4.69983
11
3.12398
21
-4.22516
0
LINE
8
BLACK
6
CONTINUOUS
10
3.12398
20
-4.22516
11
3.04934
21
-4.07589
0
LINE
8
BLACK
6
CONTINUOUS
10
3.04934
20
-4.07589
11
1.07493
21
-3.75099
0
LINE
8
BLACK
6
CONTINUOUS
10
1.07493
20
-3.75099
11
1.07493
21
-3.75099
0
LINE
8
BLACK
6
CONTINUOUS
10
1.07493
20
-3.75099
11
1.07484
21
-3.75097
0
LINE
8
BLACK
6
CONTINUOUS
10
1.07484
20
-3.75097
11
1.07479
21
-3.75096
0
LINE
8
BLACK
6
CONTINUOUS
10
1.07479
20
-3.75096
11
1.07479
21
-3.75096
0
LINE
8
BLACK
6
CONTINUOUS
10
1.07479
20
-3.75096
11
1.07474
21
-3.75095
0
LINE
8
BLACK
6
CONTINUOUS
10
1.07474
20
-3.75095
11
1.0747
21
-3.75094
0
LINE
8
BLACK
6
CONTINUOUS
10
1.0747
20
-3.75094
11
1.07465
21
-3.75093
0
LINE
8
BLACK
6
CONTINUOUS
10
1.07465
20
-3.75093
11
1.07461
21
-3.7509
0
LINE
8
BLACK
6
CONTINUOUS
10
1.07461
20
-3.7509
11
1.07456
21
-3.75089
0
LINE
8
BLACK
6
CONTINUOUS
10
1.07456
20
-3.75089
11
1.07452
21
-3.75086
0
LINE
8
BLACK
6
CONTINUOUS
10
1.07452
20
-3.75086
11
1.07448
21
-3.75084
0
LINE
8
BLACK
6
CONTINUOUS
10
1.07448
20
-3.75084
11
1.07444
21
-3.75081
0
LINE
8
BLACK
6
CONTINUOUS
10
1.07444
20
-3.75081
11
1.07439
21
-3.75078
0
LINE
8
BLACK
6
CONTINUOUS
10
1.07439
20
-3.75078
11
1.07436
21
-3.75075
0
LINE
8
BLACK
6
CONTINUOUS
10
1.07436
20
-3.75075
11
1.07432
21
-3.75072
0
LINE
8
BLACK
6
CONTINUOUS
10
1.07432
20
-3.75072
11
1.07429
21
-3.75068
0
LINE
8
BLACK
6
CONTINUOUS
10
1.07429
20
-3.75068
11
1.07425
21
-3.75065
0
LINE
8
BLACK
6
CONTINUOUS
10
1.07425
20
-3.75065
11
1.07423
21
-3.75061
0
LINE
8
BLACK
6
CONTINUOUS
10
1.07423
20
-3.75061
11
1.0742
21
-3.75058
0
LINE
8
BLACK
6
CONTINUOUS
10
1.0742
20
-3.75058
11
1.07417
21
-3.75053
0
LINE
8
BLACK
6
CONTINUOUS
10
1.07417
20
-3.75053
11
1.07417
21
-3.75053
0
LINE
8
BLACK
6
CONTINUOUS
10
1.07417
20
-3.75053
11
1.07414
21
-3.75048
0
LINE
8
BLACK
6
CONTINUOUS
10
1.07414
20
-3.75048
11
1.0741
21
-3.75041
0
LINE
8
BLACK
6
CONTINUOUS
10
1.0741
20
-3.75041
11
1.0741
21
-3.75041
0
LINE
8
BLACK
6
CONTINUOUS
10
1.0741
20
-3.75041
11
0.974189
21
-3.57556
0
LINE
8
BLACK
6
CONTINUOUS
10
0.974189
20
-3.57556
11
0.974183
21
-3.57556
0
LINE
8
BLACK
6
CONTINUOUS
10
0.974183
20
-3.57556
11
0.974141
21
-3.57548
0
LINE
8
BLACK
6
CONTINUOUS
10
0.974141
20
-3.57548
11
0.974122
21
-3.57545
0
LINE
8
BLACK
6
CONTINUOUS
10
0.974122
20
-3.57545
11
0.974118
21
-3.57544
0
LINE
8
BLACK
6
CONTINUOUS
10
0.974118
20
-3.57544
11
0.97409
21
-3.57539
0
LINE
8
BLACK
6
CONTINUOUS
10
0.97409
20
-3.57539
11
0.974078
21
-3.57535
0
LINE
8
BLACK
6
CONTINUOUS
10
0.974078
20
-3.57535
11
0.974062
21
-3.57531
0
LINE
8
BLACK
6
CONTINUOUS
10
0.974062
20
-3.57531
11
0.974049
21
-3.57526
0
LINE
8
BLACK
6
CONTINUOUS
10
0.974049
20
-3.57526
11
0.974032
21
-3.5752
0
LINE
8
BLACK
6
CONTINUOUS
10
0.974032
20
-3.5752
11
0.974028
21
-3.57516
0
LINE
8
BLACK
6
CONTINUOUS
10
0.974028
20
-3.57516
11
0.974019
21
-3.57512
0
LINE
8
BLACK
6
CONTINUOUS
10
0.974019
20
-3.57512
11
0.974017
21
-3.57507
0
LINE
8
BLACK
6
CONTINUOUS
10
0.974017
20
-3.57507
11
0.974011
21
-3.57501
0
LINE
8
BLACK
6
CONTINUOUS
10
0.974011
20
-3.57501
11
0.974015
21
-3.57497
0
LINE
8
BLACK
6
CONTINUOUS
10
0.974015
20
-3.57497
11
0.974013
21
-3.57493
0
LINE
8
BLACK
6
CONTINUOUS
10
0.974013
20
-3.57493
11
0.974023
21
-3.57487
0
LINE
8
BLACK
6
CONTINUOUS
10
0.974023
20
-3.57487
11
0.974024
21
-3.57487
0
LINE
8
BLACK
6
CONTINUOUS
10
0.974024
20
-3.57487
11
0.974031
21
-3.57483
0
LINE
8
BLACK
6
CONTINUOUS
10
0.974031
20
-3.57483
11
0.974046
21
-3.57474
0
LINE
8
BLACK
6
CONTINUOUS
10
0.974046
20
-3.57474
11
0.974049
21
-3.57473
0
LINE
8
BLACK
6
CONTINUOUS
10
0.974049
20
-3.57473
11
1.37402
21
-1.44989
0
LINE
8
BLACK
6
CONTINUOUS
10
1.37402
20
-1.44989
11
1.37402
21
-1.44986
0
LINE
8
BLACK
6
CONTINUOUS
10
1.37402
20
-1.44986
11
1.37404
21
-1.44979
0
LINE
8
BLACK
6
CONTINUOUS
10
1.37404
20
-1.44979
11
1.37404
21
-1.44977
0
LINE
8
BLACK
6
CONTINUOUS
10
1.37404
20
-1.44977
11
1.37405
21
-1.44974
0
LINE
8
BLACK
6
CONTINUOUS
10
1.37405
20
-1.44974
11
1.37407
21
-1.44967
0
LINE
8
BLACK
6
CONTINUOUS
10
1.37407
20
-1.44967
11
1.37408
21
-1.44965
0
LINE
8
BLACK
6
CONTINUOUS
10
1.37408
20
-1.44965
11
1.37408
21
-1.44963
0
LINE
8
BLACK
6
CONTINUOUS
10
1.37408
20
-1.44963
11
1.37412
21
-1.44956
0
LINE
8
BLACK
6
CONTINUOUS
10
1.37412
20
-1.44956
11
1.37415
21
-1.4495
0
LINE
8
BLACK
6
CONTINUOUS
10
1.37415
20
-1.4495
11
1.37416
21
-1.44948
0
LINE
8
BLACK
6
CONTINUOUS
10
1.37416
20
-1.44948
11
1.37417
21
-1.44946
0
LINE
8
BLACK
6
CONTINUOUS
10
1.37417
20
-1.44946
11
1.37422
21
-1.4494
0
LINE
8
BLACK
6
CONTINUOUS
10
1.37422
20
-1.4494
11
1.37426
21
-1.44934
0
LINE
8
BLACK
6
CONTINUOUS
10
1.37426
20
-1.44934
11
1.37428
21
-1.44933
0
LINE
8
BLACK
6
CONTINUOUS
10
1.37428
20
-1.44933
11
1.37429
21
-1.44931
0
LINE
8
BLACK
6
CONTINUOUS
10
1.37429
20
-1.44931
11
1.37435
21
-1.44926
0
LINE
8
BLACK
6
CONTINUOUS
10
1.37435
20
-1.44926
11
1.37437
21
-1.44924
0
LINE
8
BLACK
6
CONTINUOUS
10
1.37437
20
-1.44924
11
1.37439
21
-1.44923
0
LINE
8
BLACK
6
CONTINUOUS
10
1.37439
20
-1.44923
11
1.37444
21
-1.44918
0
LINE
8
BLACK
6
CONTINUOUS
10
1.37444
20
-1.44918
11
1.37447
21
-1.44917
0
LINE
8
BLACK
6
CONTINUOUS
10
1.37447
20
-1.44917
11
1.47439
21
-1.37423
0
LINE
8
BLACK
6
CONTINUOUS
10
1.47439
20
-1.37423
11
1.47444
21
-1.37419
0
LINE
8
BLACK
6
CONTINUOUS
10
1.47444
20
-1.37419
11
1.47451
21
-1.37415
0
LINE
8
BLACK
6
CONTINUOUS
10
1.47451
20
-1.37415
11
1.47457
21
-1.37411
0
LINE
8
BLACK
6
CONTINUOUS
10
1.47457
20
-1.37411
11
1.47459
21
-1.3741
0
LINE
8
BLACK
6
CONTINUOUS
10
1.47459
20
-1.3741
11
1.47461
21
-1.37409
0
LINE
8
BLACK
6
CONTINUOUS
10
1.47461
20
-1.37409
11
1.47468
21
-1.37407
0
LINE
8
BLACK
6
CONTINUOUS
10
1.47468
20
-1.37407
11
1.47475
21
-1.37404
0
LINE
8
BLACK
6
CONTINUOUS
10
1.47475
20
-1.37404
11
1.47477
21
-1.37404
0
LINE
8
BLACK
6
CONTINUOUS
10
1.47477
20
-1.37404
11
1.47479
21
-1.37403
0
LINE
8
BLACK
6
CONTINUOUS
10
1.47479
20
-1.37403
11
1.47487
21
-1.37402
0
LINE
8
BLACK
6
CONTINUOUS
10
1.47487
20
-1.37402
11
1.47495
21
-1.37401
0
LINE
8
BLACK
6
CONTINUOUS
10
1.47495
20
-1.37401
11
1.47496
21
-1.37401
0
LINE
8
BLACK
6
CONTINUOUS
10
1.47496
20
-1.37401
11
1.47498
21
-1.37401
0
LINE
8
BLACK
6
CONTINUOUS
10
1.47498
20
-1.37401
11
1.47506
21
-1.37402
0
LINE
8
BLACK
6
CONTINUOUS
10
1.47506
20
-1.37402
11
1.47514
21
-1.37402
0
LINE
8
BLACK
6
CONTINUOUS
10
1.47514
20
-1.37402
11
1.4752
21
-1.37404
0
LINE
8
BLACK
6
CONTINUOUS
10
1.4752
20
-1.37404
11
5.35009
21
-2.07402
0
LINE
8
BLACK
6
CONTINUOUS
10
5.35009
20
-2.07402
11
6.04991
21
-2.07402
0
LINE
8
BLACK
6
CONTINUOUS
10
6.04991
20
-2.07402
11
9.87474
21
-1.37405
0
LINE
8
BLACK
6
CONTINUOUS
10
9.87474
20
-1.37405
11
9.87476
21
-1.37404
0
LINE
8
BLACK
6
CONTINUOUS
10
9.87476
20
-1.37404
11
9.87484
21
-1.37403
0
LINE
8
BLACK
6
CONTINUOUS
10
9.87484
20
-1.37403
11
9.87487
21
-1.37402
0
LINE
8
BLACK
6
CONTINUOUS
10
9.87487
20
-1.37402
11
9.87489
21
-1.37402
0
LINE
8
BLACK
6
CONTINUOUS
10
9.87489
20
-1.37402
11
9.87495
21
-1.37401
0
LINE
8
BLACK
6
CONTINUOUS
10
9.87495
20
-1.37401
11
9.87498
21
-1.37401
0
LINE
8
BLACK
6
CONTINUOUS
10
9.87498
20
-1.37401
11
9.87502
21
-1.37401
0
LINE
8
BLACK
6
CONTINUOUS
10
9.87502
20
-1.37401
11
9.87508
21
-1.37402
0
LINE
8
BLACK
6
CONTINUOUS
10
6.05023
20
-2.07596
11
6.05019
21
-2.07597
0
LINE
8
BLACK
6
CONTINUOUS
10
6.05019
20
-2.07597
11
6.05014
21
-2.07598
0
LINE
8
BLACK
6
CONTINUOUS
10
6.05014
20
-2.07598
11
6.05013
21
-2.07598
0
LINE
8
BLACK
6
CONTINUOUS
10
6.05013
20
-2.07598
11
6.05009
21
-2.07598
0
LINE
8
BLACK
6
CONTINUOUS
10
6.05009
20
-2.07598
11
6.05005
21
-2.07598
0
LINE
8
BLACK
6
CONTINUOUS
10
6.05005
20
-2.07598
11
6.05004
21
-2.07598
0
LINE
8
BLACK
6
CONTINUOUS
10
6.05004
20
-2.07598
11
6.04998
21
-2.07599
0
LINE
8
BLACK
6
CONTINUOUS
10
6.04998
20
-2.07599
11
6.04994
21
-2.07598
0
LINE
8
BLACK
6
CONTINUOUS
10
6.04994
20
-2.07598
11
5.35006
21
-2.07598
0
LINE
8
BLACK
6
CONTINUOUS
10
5.35006
20
-2.07598
11
5.35002
21
-2.07599
0
LINE
8
BLACK
6
CONTINUOUS
10
5.35002
20
-2.07599
11
5.34996
21
-2.07598
0
LINE
8
BLACK
6
CONTINUOUS
10
5.34996
20
-2.07598
11
5.34995
21
-2.07598
0
LINE
8
BLACK
6
CONTINUOUS
10
5.34995
20
-2.07598
11
5.34991
21
-2.07598
0
LINE
8
BLACK
6
CONTINUOUS
10
5.34991
20
-2.07598
11
5.34987
21
-2.07598
0
LINE
8
BLACK
6
CONTINUOUS
10
5.34987
20
-2.07598
11
5.34986
21
-2.07598
0
LINE
8
BLACK
6
CONTINUOUS
10
5.34986
20
-2.07598
11
5.34981
21
-2.07597
0
LINE
8
BLACK
6
CONTINUOUS
10
5.34981
20
-2.07597
11
5.34977
21
-2.07596
0
LINE
8
BLACK
6
CONTINUOUS
10
5.34977
20
-2.07596
11
1.47525
21
-1.37604
0
LINE
8
BLACK
6
CONTINUOUS
10
1.47525
20
-1.37604
11
1.3759
21
-1.45056
0
LINE
8
BLACK
6
CONTINUOUS
10
1.3759
20
-1.45056
11
0.976034
21
-3.57483
0
LINE
8
BLACK
6
CONTINUOUS
10
0.976034
20
-3.57483
11
1.07562
21
-3.7491
0
LINE
8
BLACK
6
CONTINUOUS
10
1.07562
20
-3.7491
11
3.05009
21
-4.07402
0
LINE
8
BLACK
6
CONTINUOUS
10
3.05009
20
-4.07402
11
3.05012
21
-4.07402
0
LINE
8
BLACK
6
CONTINUOUS
10
3.05012
20
-4.07402
11
3.05019
21
-4.07403
0
LINE
8
BLACK
6
CONTINUOUS
10
3.05019
20
-4.07403
11
3.05021
21
-4.07404
0
LINE
8
BLACK
6
CONTINUOUS
10
3.05021
20
-4.07404
11
3.05024
21
-4.07404
0
LINE
8
BLACK
6
CONTINUOUS
10
3.05024
20
-4.07404
11
3.05031
21
-4.07406
0
LINE
8
BLACK
6
CONTINUOUS
10
3.05031
20
-4.07406
11
3.05033
21
-4.07407
0
LINE
8
BLACK
6
CONTINUOUS
10
3.05033
20
-4.07407
11
3.05035
21
-4.07407
0
LINE
8
BLACK
6
CONTINUOUS
10
3.05035
20
-4.07407
11
3.05042
21
-4.07411
0
LINE
8
BLACK
6
CONTINUOUS
10
3.05042
20
-4.07411
11
3.05049
21
-4.07414
0
LINE
8
BLACK
6
CONTINUOUS
10
3.05049
20
-4.07414
11
3.0505
21
-4.07415
0
LINE
8
BLACK
6
CONTINUOUS
10
3.0505
20
-4.07415
11
3.05052
21
-4.07416
0
LINE
8
BLACK
6
CONTINUOUS
10
3.05052
20
-4.07416
11
3.05058
21
-4.07421
0
LINE
8
BLACK
6
CONTINUOUS
10
3.05058
20
-4.07421
11
3.05065
21
-4.07425
0
LINE
8
BLACK
6
CONTINUOUS
10
3.05065
20
-4.07425
11
3.05066
21
-4.07427
0
LINE
8
BLACK
6
CONTINUOUS
10
3.05066
20
-4.07427
11
3.05068
21
-4.07428
0
LINE
8
BLACK
6
CONTINUOUS
10
3.05068
20
-4.07428
11
3.05073
21
-4.07434
0
LINE
8
BLACK
6
CONTINUOUS
10
3.05073
20
-4.07434
11
3.05078
21
-4.07439
0
LINE
8
BLACK
6
CONTINUOUS
10
3.05078
20
-4.07439
11
3.05079
21
-4.07441
0
LINE
8
BLACK
6
CONTINUOUS
10
3.05079
20
-4.07441
11
3.0508
21
-4.07442
0
LINE
8
BLACK
6
CONTINUOUS
10
3.0508
20
-4.07442
11
3.05084
21
-4.07449
0
LINE
8
BLACK
6
CONTINUOUS
10
3.05084
20
-4.07449
11
3.05086
21
-4.07452
0
LINE
8
BLACK
6
CONTINUOUS
10
3.05086
20
-4.07452
11
3.05087
21
-4.07453
0
LINE
8
BLACK
6
CONTINUOUS
10
3.05087
20
-4.07453
11
3.0509
21
-4.07459
0
LINE
8
BLACK
6
CONTINUOUS
10
3.0509
20
-4.07459
11
3.05091
21
-4.07462
0
LINE
8
BLACK
6
CONTINUOUS
10
3.05091
20
-4.07462
11
3.12587
21
-4.22453
0
LINE
8
BLACK
6
CONTINUOUS
10
3.12587
20
-4.22453
11
3.1259
21
-4.22459
0
LINE
8
BLACK
6
CONTINUOUS
10
3.1259
20
-4.22459
11
3.12592
21
-4.22466
0
LINE
8
BLACK
6
CONTINUOUS
10
3.12592
20
-4.22466
11
3.12595
21
-4.22474
0
LINE
8
BLACK
6
CONTINUOUS
10
3.12595
20
-4.22474
11
3.12596
21
-4.22475
0
LINE
8
BLACK
6
CONTINUOUS
10
3.12596
20
-4.22475
11
3.12596
21
-4.22477
0
LINE
8
BLACK
6
CONTINUOUS
10
3.12596
20
-4.22477
11
3.12597
21
-4.22485
0
LINE
8
BLACK
6
CONTINUOUS
10
3.12597
20
-4.22485
11
3.12599
21
-4.22493
0
LINE
8
BLACK
6
CONTINUOUS
10
3.12599
20
-4.22493
11
3.12599
21
-4.22495
0
LINE
8
BLACK
6
CONTINUOUS
10
3.12599
20
-4.22495
11
3.12599
21
-4.22496
0
LINE
8
BLACK
6
CONTINUOUS
10
3.12599
20
-4.22496
11
3.12598
21
-4.22504
0
LINE
8
BLACK
6
CONTINUOUS
10
3.12598
20
-4.22504
11
3.12598
21
-4.22512
0
LINE
8
BLACK
6
CONTINUOUS
10
3.12598
20
-4.22512
11
3.12597
21
-4.22519
0
LINE
8
BLACK
6
CONTINUOUS
10
3.12597
20
-4.22519
11
3.05104
21
-4.69971
0
LINE
8
BLACK
6
CONTINUOUS
10
3.05104
20
-4.69971
11
3.17553
21
-4.84909
0
LINE
8
BLACK
6
CONTINUOUS
10
3.17553
20
-4.84909
11
4.60009
21
-5.09902
0
LINE
8
BLACK
6
CONTINUOUS
10
4.60009
20
-5.09902
11
6.79991
21
-5.09902
0
LINE
8
BLACK
6
CONTINUOUS
10
6.79991
20
-5.09902
11
8.22434
21
-4.82413
0
LINE
8
BLACK
6
CONTINUOUS
10
8.22434
20
-4.82413
11
8.27398
21
-4.72485
0
LINE
8
BLACK
6
CONTINUOUS
10
8.27398
20
-4.72485
11
8.17404
21
-4.12522
0
LINE
8
BLACK
6
CONTINUOUS
10
8.17404
20
-4.12522
11
8.17403
21
-4.12519
0
LINE
8
BLACK
6
CONTINUOUS
10
8.17403
20
-4.12519
11
8.17402
21
-4.12513
0
LINE
8
BLACK
6
CONTINUOUS
10
8.17402
20
-4.12513
11
8.17402
21
-4.12511
0
LINE
8
BLACK
6
CONTINUOUS
10
8.17402
20
-4.12511
11
8.17402
21
-4.12508
0
LINE
8
BLACK
6
CONTINUOUS
10
8.17402
20
-4.12508
11
8.17401
21
-4.125
0
LINE
8
BLACK
6
CONTINUOUS
10
8.17401
20
-4.125
11
8.17401
21
-4.12498
0
LINE
8
BLACK
6
CONTINUOUS
10
8.17401
20
-4.12498
11
8.17401
21
-4.12497
0
LINE
8
BLACK
6
CONTINUOUS
10
8.17401
20
-4.12497
11
8.17402
21
-4.12489
0
LINE
8
BLACK
6
CONTINUOUS
10
8.17402
20
-4.12489
11
8.17403
21
-4.12481
0
LINE
8
BLACK
6
CONTINUOUS
10
8.17403
20
-4.12481
11
8.17403
21
-4.12479
0
LINE
8
BLACK
6
CONTINUOUS
10
8.17403
20
-4.12479
11
8.17404
21
-4.12478
0
LINE
8
BLACK
6
CONTINUOUS
10
8.17404
20
-4.12478
11
8.17406
21
-4.1247
0
LINE
8
BLACK
6
CONTINUOUS
10
8.17406
20
-4.1247
11
8.17409
21
-4.12462
0
LINE
8
BLACK
6
CONTINUOUS
10
8.17409
20
-4.12462
11
8.17409
21
-4.12461
0
LINE
8
BLACK
6
CONTINUOUS
10
8.17409
20
-4.12461
11
8.1741
21
-4.12459
0
LINE
8
BLACK
6
CONTINUOUS
10
8.1741
20
-4.12459
11
8.17414
21
-4.12452
0
LINE
8
BLACK
6
CONTINUOUS
10
8.17414
20
-4.12452
11
8.17418
21
-4.12445
0
LINE
8
BLACK
6
CONTINUOUS
10
8.17418
20
-4.12445
11
8.17419
21
-4.12444
0
LINE
8
BLACK
6
CONTINUOUS
10
8.17419
20
-4.12444
11
8.1742
21
-4.12443
0
LINE
8
BLACK
6
CONTINUOUS
10
8.1742
20
-4.12443
11
8.17425
21
-4.12436
0
LINE
8
BLACK
6
CONTINUOUS
10
8.17425
20
-4.12436
11
8.17427
21
-4.12434
0
LINE
8
BLACK
6
CONTINUOUS
10
8.17427
20
-4.12434
11
8.17428
21
-4.12433
0
LINE
8
BLACK
6
CONTINUOUS
10
8.17428
20
-4.12433
11
8.17432
21
-4.12428
0
LINE
8
BLACK
6
CONTINUOUS
10
8.17432
20
-4.12428
11
8.17435
21
-4.12426
0
LINE
8
BLACK
6
CONTINUOUS
10
8.17435
20
-4.12426
11
8.24928
21
-4.04933
0
LINE
8
BLACK
6
CONTINUOUS
10
8.24928
20
-4.04933
11
8.24932
21
-4.04928
0
LINE
8
BLACK
6
CONTINUOUS
10
8.24932
20
-4.04928
11
8.24939
21
-4.04923
0
LINE
8
BLACK
6
CONTINUOUS
10
8.24939
20
-4.04923
11
8.24945
21
-4.04918
0
LINE
8
BLACK
6
CONTINUOUS
10
8.24945
20
-4.04918
11
8.24946
21
-4.04917
0
LINE
8
BLACK
6
CONTINUOUS
10
8.24946
20
-4.04917
11
8.24947
21
-4.04916
0
LINE
8
BLACK
6
CONTINUOUS
10
8.24947
20
-4.04916
11
8.24955
21
-4.04913
0
LINE
8
BLACK
6
CONTINUOUS
10
8.24955
20
-4.04913
11
8.24962
21
-4.04909
0
LINE
8
BLACK
6
CONTINUOUS
10
8.24962
20
-4.04909
11
8.24963
21
-4.04908
0
LINE
8
BLACK
6
CONTINUOUS
10
8.24963
20
-4.04908
11
8.24965
21
-4.04908
0
LINE
8
BLACK
6
CONTINUOUS
10
8.24965
20
-4.04908
11
8.24973
21
-4.04905
0
LINE
8
BLACK
6
CONTINUOUS
10
8.24973
20
-4.04905
11
8.24981
21
-4.04903
0
LINE
8
BLACK
6
CONTINUOUS
10
8.24981
20
-4.04903
11
8.24987
21
-4.04902
0
LINE
8
BLACK
6
CONTINUOUS
10
8.24987
20
-4.04902
11
10.2994
21
-3.6991
0
LINE
8
BLACK
6
CONTINUOUS
10
10.2994
20
-3.6991
11
10.349
21
-3.62478
0
LINE
8
BLACK
6
CONTINUOUS
10
10.349
20
-3.62478
11
9.9991
21
-1.45061
0
LINE
8
BLACK
6
CONTINUOUS
10
9.9991
20
-1.45061
11
9.87481
21
-1.37603
0
LINE
8
BLACK
6
CONTINUOUS
10
9.87481
20
-1.37603
11
6.05023
21
-2.07596
  0
ENDSEC
  0
EOF
