G04 #@! TF.GenerationSoftware,KiCad,Pcbnew,5.1.7*
G04 #@! TF.CreationDate,2020-11-02T13:56:51-05:00*
G04 #@! TF.ProjectId,pcb,7063622e-6b69-4636-9164-5f7063625858,rev?*
G04 #@! TF.SameCoordinates,Original*
G04 #@! TF.FileFunction,Soldermask,Bot*
G04 #@! TF.FilePolarity,Negative*
%FSLAX46Y46*%
G04 Gerber Fmt 4.6, Leading zero omitted, Abs format (unit mm)*
G04 Created by KiCad (PCBNEW 5.1.7) date 2020-11-02 13:56:51*
%MOMM*%
%LPD*%
G01*
G04 APERTURE LIST*
%ADD10C,4.300000*%
%ADD11R,2.000000X2.000000*%
%ADD12C,2.000000*%
%ADD13R,2.000000X3.200000*%
%ADD14C,3.987800*%
%ADD15C,3.048000*%
%ADD16C,1.750000*%
%ADD17C,2.250000*%
%ADD18C,1.397000*%
%ADD19O,1.400000X1.400000*%
%ADD20C,1.400000*%
G04 APERTURE END LIST*
D10*
X123500000Y-124900000D03*
X165200000Y-125400000D03*
X129800000Y-90200000D03*
X159700000Y-90400000D03*
X50500000Y-76900000D03*
X53600000Y-58100000D03*
X236200000Y-58500000D03*
X239500000Y-77000000D03*
D11*
X147200000Y-89700000D03*
D12*
X144700000Y-89700000D03*
X142200000Y-89700000D03*
D13*
X150300000Y-97200000D03*
X139100000Y-97200000D03*
D12*
X147200000Y-104200000D03*
X142200000Y-104200000D03*
D14*
X201188833Y-121270089D03*
X177738098Y-125405087D03*
D15*
X198542435Y-106261619D03*
X175091700Y-110396616D03*
D16*
X193032823Y-114325867D03*
X183027177Y-116090133D03*
D17*
X183836816Y-113368188D03*
D14*
X188030000Y-115208000D03*
D17*
X189649279Y-109764110D03*
D14*
X112004402Y-125164587D03*
X88553667Y-121029589D03*
D15*
X114650800Y-110156116D03*
X91200065Y-106021119D03*
D16*
X106715323Y-115849633D03*
X96709677Y-114085367D03*
D17*
X98401449Y-111804489D03*
D14*
X101712500Y-114967500D03*
D17*
X105096044Y-110405743D03*
D16*
X173632823Y-59700867D03*
X163627177Y-61465133D03*
D17*
X164436816Y-58743188D03*
D14*
X168630000Y-60583000D03*
D17*
X170249279Y-55139110D03*
D16*
X255432823Y-83925867D03*
X245427177Y-85690133D03*
D17*
X246236816Y-82968188D03*
D14*
X250430000Y-84808000D03*
D17*
X252049279Y-79364110D03*
D16*
X236657823Y-87275867D03*
X226652177Y-89040133D03*
D17*
X227461816Y-86318188D03*
D14*
X231655000Y-88158000D03*
D17*
X233274279Y-82714110D03*
D16*
X217932823Y-90575867D03*
X207927177Y-92340133D03*
D17*
X208736816Y-89618188D03*
D14*
X212930000Y-91458000D03*
D17*
X214549279Y-86014110D03*
D16*
X199157823Y-93900867D03*
X189152177Y-95665133D03*
D17*
X189961816Y-92943188D03*
D14*
X194155000Y-94783000D03*
D17*
X195774279Y-89339110D03*
D16*
X180307823Y-97225867D03*
X170302177Y-98990133D03*
D17*
X171111816Y-96268188D03*
D14*
X175305000Y-98108000D03*
D17*
X176924279Y-92664110D03*
D16*
X119415323Y-98699633D03*
X109409677Y-96935367D03*
D17*
X111101449Y-94654489D03*
D14*
X114412500Y-97817500D03*
D17*
X117796044Y-93255743D03*
D16*
X100715323Y-95349633D03*
X90709677Y-93585367D03*
D17*
X92401449Y-91304489D03*
D14*
X95712500Y-94467500D03*
D17*
X99096044Y-89905743D03*
D16*
X82015323Y-92049633D03*
X72009677Y-90285367D03*
D17*
X73701449Y-88004489D03*
D14*
X77012500Y-91167500D03*
D17*
X80396044Y-86605743D03*
D16*
X63215323Y-88774633D03*
X53209677Y-87010367D03*
D17*
X54901449Y-84729489D03*
D14*
X58212500Y-87892500D03*
D17*
X61596044Y-83330743D03*
D16*
X44415323Y-85474633D03*
X34409677Y-83710367D03*
D17*
X36101449Y-81429489D03*
D14*
X39412500Y-84592500D03*
D17*
X42796044Y-80030743D03*
D16*
X252157823Y-65225867D03*
X242152177Y-66990133D03*
D17*
X242961816Y-64268188D03*
D14*
X247155000Y-66108000D03*
D17*
X248774279Y-60664110D03*
D16*
X233382823Y-68550867D03*
X223377177Y-70315133D03*
D17*
X224186816Y-67593188D03*
D14*
X228380000Y-69433000D03*
D17*
X229999279Y-63989110D03*
D16*
X214607823Y-71850867D03*
X204602177Y-73615133D03*
D17*
X205411816Y-70893188D03*
D14*
X209605000Y-72733000D03*
D17*
X211224279Y-67289110D03*
D16*
X195782823Y-75200867D03*
X185777177Y-76965133D03*
D17*
X186586816Y-74243188D03*
D14*
X190780000Y-76083000D03*
D17*
X192399279Y-70639110D03*
D16*
X176986709Y-78493143D03*
X166981063Y-80257409D03*
D17*
X167790702Y-77535464D03*
D14*
X171983886Y-79375276D03*
D17*
X173603165Y-73931386D03*
D16*
X122715323Y-79949633D03*
X112709677Y-78185367D03*
D17*
X114401449Y-75904489D03*
D14*
X117712500Y-79067500D03*
D17*
X121096044Y-74505743D03*
D16*
X103990323Y-76624633D03*
X93984677Y-74860367D03*
D17*
X95676449Y-72579489D03*
D14*
X98987500Y-75742500D03*
D17*
X102371044Y-71180743D03*
D16*
X85265323Y-73299633D03*
X75259677Y-71535367D03*
D17*
X76951449Y-69254489D03*
D14*
X80262500Y-72417500D03*
D17*
X83646044Y-67855743D03*
D16*
X66515323Y-69999633D03*
X56509677Y-68235367D03*
D17*
X58201449Y-65954489D03*
D14*
X61512500Y-69117500D03*
D17*
X64896044Y-64555743D03*
D16*
X47740323Y-66699633D03*
X37734677Y-64935367D03*
D17*
X39426449Y-62654489D03*
D14*
X42737500Y-65817500D03*
D17*
X46121044Y-61255743D03*
D16*
X248832823Y-46572867D03*
X238827177Y-48337133D03*
D17*
X239636816Y-45615188D03*
D14*
X243830000Y-47455000D03*
D17*
X245449279Y-42011110D03*
D16*
X230046823Y-49822867D03*
X220041177Y-51587133D03*
D17*
X220850816Y-48865188D03*
D14*
X225044000Y-50705000D03*
D17*
X226663279Y-45261110D03*
D16*
X211257823Y-53050867D03*
X201252177Y-54815133D03*
D17*
X202061816Y-52093188D03*
D14*
X206255000Y-53933000D03*
D17*
X207874279Y-48489110D03*
D16*
X192432823Y-56375867D03*
X182427177Y-58140133D03*
D17*
X183236816Y-55418188D03*
D14*
X187430000Y-57258000D03*
D17*
X189049279Y-51814110D03*
D16*
X126040323Y-61174633D03*
X116034677Y-59410367D03*
D17*
X117726449Y-57129489D03*
D14*
X121037500Y-60292500D03*
D17*
X124421044Y-55730743D03*
D16*
X107290323Y-57874633D03*
X97284677Y-56110367D03*
D17*
X98976449Y-53829489D03*
D14*
X102287500Y-56992500D03*
D17*
X105671044Y-52430743D03*
D16*
X88540323Y-54549633D03*
X78534677Y-52785367D03*
D17*
X80226449Y-50504489D03*
D14*
X83537500Y-53667500D03*
D17*
X86921044Y-49105743D03*
D16*
X69815323Y-51249633D03*
X59809677Y-49485367D03*
D17*
X61501449Y-47204489D03*
D14*
X64812500Y-50367500D03*
D17*
X68196044Y-45805743D03*
D16*
X51065323Y-47949633D03*
X41059677Y-46185367D03*
D17*
X42751449Y-43904489D03*
D14*
X46062500Y-47067500D03*
D17*
X49446044Y-42505743D03*
D18*
X140460000Y-125171200D03*
X143000000Y-125171200D03*
X145540000Y-125171200D03*
X148080000Y-125171200D03*
D19*
X133000000Y-125900000D03*
D20*
X133000000Y-124000000D03*
D19*
X129000000Y-125900000D03*
D20*
X129000000Y-124000000D03*
M02*
