G04 #@! TF.GenerationSoftware,KiCad,Pcbnew,5.1.4*
G04 #@! TF.CreationDate,2020-08-17T22:54:50-04:00*
G04 #@! TF.ProjectId,pcb,7063622e-6b69-4636-9164-5f7063625858,rev?*
G04 #@! TF.SameCoordinates,Original*
G04 #@! TF.FileFunction,Legend,Bot*
G04 #@! TF.FilePolarity,Positive*
%FSLAX46Y46*%
G04 Gerber Fmt 4.6, Leading zero omitted, Abs format (unit mm)*
G04 Created by KiCad (PCBNEW 5.1.4) date 2020-08-17 22:54:50*
%MOMM*%
%LPD*%
G04 APERTURE LIST*
%ADD10C,0.150000*%
%ADD11C,0.120000*%
%ADD12C,0.125000*%
%ADD13C,4.089800*%
%ADD14C,3.150000*%
%ADD15C,1.852000*%
%ADD16C,2.352000*%
%ADD17R,2.102000X2.102000*%
%ADD18C,2.102000*%
%ADD19R,2.102000X3.302000*%
%ADD20C,1.499000*%
G04 APERTURE END LIST*
D10*
X199500772Y-113577420D02*
X200485580Y-113403772D01*
X200659228Y-114388580D02*
X200010541Y-113589077D01*
X199674420Y-114562228D02*
X200659228Y-114388580D01*
X200010541Y-113589077D02*
X199674420Y-114562228D01*
X113006920Y-117263272D02*
X113991728Y-117436920D01*
X113818080Y-118421728D02*
X113481959Y-117448577D01*
X112833272Y-118248080D02*
X113818080Y-118421728D01*
X113481959Y-117448577D02*
X112833272Y-118248080D01*
X259372709Y-86410647D02*
X258387901Y-86584295D01*
X258214253Y-85599487D02*
X258862940Y-86398990D01*
X259199061Y-85425839D02*
X258214253Y-85599487D01*
X258862940Y-86398990D02*
X259199061Y-85425839D01*
X240576709Y-89712647D02*
X239591901Y-89886295D01*
X239418253Y-88901487D02*
X240066940Y-89700990D01*
X240403061Y-88727839D02*
X239418253Y-88901487D01*
X240066940Y-89700990D02*
X240403061Y-88727839D01*
X221907709Y-93141647D02*
X220922901Y-93315295D01*
X220749253Y-92330487D02*
X221397940Y-93129990D01*
X221734061Y-92156839D02*
X220749253Y-92330487D01*
X221397940Y-93129990D02*
X221734061Y-92156839D01*
X202984709Y-96316647D02*
X201999901Y-96490295D01*
X201826253Y-95505487D02*
X202474940Y-96304990D01*
X202811061Y-95331839D02*
X201826253Y-95505487D01*
X202474940Y-96304990D02*
X202811061Y-95331839D01*
X184315709Y-99745647D02*
X183330901Y-99919295D01*
X183157253Y-98934487D02*
X183805940Y-99733990D01*
X184142061Y-98760839D02*
X183157253Y-98934487D01*
X183805940Y-99733990D02*
X184142061Y-98760839D01*
X122294599Y-102522795D02*
X121309791Y-102349147D01*
X121483439Y-101364339D02*
X121819560Y-102337490D01*
X122468247Y-101537987D02*
X121483439Y-101364339D01*
X121819560Y-102337490D02*
X122468247Y-101537987D01*
X103560561Y-99168661D02*
X102575753Y-98995013D01*
X102749401Y-98010205D02*
X103085522Y-98983356D01*
X103734209Y-98183853D02*
X102749401Y-98010205D01*
X103085522Y-98983356D02*
X103734209Y-98183853D01*
X84891561Y-95866661D02*
X83906753Y-95693013D01*
X84080401Y-94708205D02*
X84416522Y-95681356D01*
X85065209Y-94881853D02*
X84080401Y-94708205D01*
X84416522Y-95681356D02*
X85065209Y-94881853D01*
X66222561Y-92564661D02*
X65237753Y-92391013D01*
X65411401Y-91406205D02*
X65747522Y-92379356D01*
X66396209Y-91579853D02*
X65411401Y-91406205D01*
X65747522Y-92379356D02*
X66396209Y-91579853D01*
X47299561Y-89262661D02*
X46314753Y-89089013D01*
X46488401Y-88104205D02*
X46824522Y-89077356D01*
X47473209Y-88277853D02*
X46488401Y-88104205D01*
X46824522Y-89077356D02*
X47473209Y-88277853D01*
X256197709Y-67614647D02*
X255212901Y-67788295D01*
X255039253Y-66803487D02*
X255687940Y-67602990D01*
X256024061Y-66629839D02*
X255039253Y-66803487D01*
X255687940Y-67602990D02*
X256024061Y-66629839D01*
X237274709Y-71043647D02*
X236289901Y-71217295D01*
X236116253Y-70232487D02*
X236764940Y-71031990D01*
X237101061Y-70058839D02*
X236116253Y-70232487D01*
X236764940Y-71031990D02*
X237101061Y-70058839D01*
X218478709Y-74345647D02*
X217493901Y-74519295D01*
X217320253Y-73534487D02*
X217968940Y-74333990D01*
X218305061Y-73360839D02*
X217320253Y-73534487D01*
X217968940Y-74333990D02*
X218305061Y-73360839D01*
X199809709Y-77647647D02*
X198824901Y-77821295D01*
X198651253Y-76836487D02*
X199299940Y-77635990D01*
X199636061Y-76662839D02*
X198651253Y-76836487D01*
X199299940Y-77635990D02*
X199636061Y-76662839D01*
X181013709Y-81076647D02*
X180028901Y-81250295D01*
X179855253Y-80265487D02*
X180503940Y-81064990D01*
X180840061Y-80091839D02*
X179855253Y-80265487D01*
X180503940Y-81064990D02*
X180840061Y-80091839D01*
X125658561Y-83674661D02*
X124673753Y-83501013D01*
X124847401Y-82516205D02*
X125183522Y-83489356D01*
X125832209Y-82689853D02*
X124847401Y-82516205D01*
X125183522Y-83489356D02*
X125832209Y-82689853D01*
X106989561Y-80372661D02*
X106004753Y-80199013D01*
X106178401Y-79214205D02*
X106514522Y-80187356D01*
X107163209Y-79387853D02*
X106178401Y-79214205D01*
X106514522Y-80187356D02*
X107163209Y-79387853D01*
X88226080Y-76969728D02*
X87241272Y-76796080D01*
X87414920Y-75811272D02*
X87751041Y-76784423D01*
X88399728Y-75984920D02*
X87414920Y-75811272D01*
X87751041Y-76784423D02*
X88399728Y-75984920D01*
X69397561Y-73768661D02*
X68412753Y-73595013D01*
X68586401Y-72610205D02*
X68922522Y-73583356D01*
X69571209Y-72783853D02*
X68586401Y-72610205D01*
X68922522Y-73583356D02*
X69571209Y-72783853D01*
X50728561Y-70466661D02*
X49743753Y-70293013D01*
X49917401Y-69308205D02*
X50253522Y-70281356D01*
X50902209Y-69481853D02*
X49917401Y-69308205D01*
X50253522Y-70281356D02*
X50902209Y-69481853D01*
X252641709Y-49199647D02*
X251656901Y-49373295D01*
X251483253Y-48388487D02*
X252131940Y-49187990D01*
X252468061Y-48214839D02*
X251483253Y-48388487D01*
X252131940Y-49187990D02*
X252468061Y-48214839D01*
X233972709Y-52247647D02*
X232987901Y-52421295D01*
X232814253Y-51436487D02*
X233462940Y-52235990D01*
X233799061Y-51262839D02*
X232814253Y-51436487D01*
X233462940Y-52235990D02*
X233799061Y-51262839D01*
X215176709Y-55549647D02*
X214191901Y-55723295D01*
X214018253Y-54738487D02*
X214666940Y-55537990D01*
X215003061Y-54564839D02*
X214018253Y-54738487D01*
X214666940Y-55537990D02*
X215003061Y-54564839D01*
X196380709Y-58978647D02*
X195395901Y-59152295D01*
X195222253Y-58167487D02*
X195870940Y-58966990D01*
X196207061Y-57993839D02*
X195222253Y-58167487D01*
X195870940Y-58966990D02*
X196207061Y-57993839D01*
X177617228Y-62127580D02*
X176632420Y-62301228D01*
X176458772Y-61316420D02*
X177107459Y-62115923D01*
X177443580Y-61142772D02*
X176458772Y-61316420D01*
X177107459Y-62115923D02*
X177443580Y-61142772D01*
X129025599Y-64930795D02*
X128040791Y-64757147D01*
X128214439Y-63772339D02*
X128550560Y-64745490D01*
X129199247Y-63945987D02*
X128214439Y-63772339D01*
X128550560Y-64745490D02*
X129199247Y-63945987D01*
X110229599Y-61628795D02*
X109244791Y-61455147D01*
X109418439Y-60470339D02*
X109754560Y-61443490D01*
X110403247Y-60643987D02*
X109418439Y-60470339D01*
X109754560Y-61443490D02*
X110403247Y-60643987D01*
X91622561Y-58274661D02*
X90637753Y-58101013D01*
X90811401Y-57116205D02*
X91147522Y-58089356D01*
X91796209Y-57289853D02*
X90811401Y-57116205D01*
X91147522Y-58089356D02*
X91796209Y-57289853D01*
X72891599Y-54897795D02*
X71906791Y-54724147D01*
X72080439Y-53739339D02*
X72416560Y-54712490D01*
X73065247Y-53912987D02*
X72080439Y-53739339D01*
X72416560Y-54712490D02*
X73065247Y-53912987D01*
X54095599Y-51595795D02*
X53110791Y-51422147D01*
X53284439Y-50437339D02*
X53620560Y-51410490D01*
X54269247Y-50610987D02*
X53284439Y-50437339D01*
X53620560Y-51410490D02*
X54269247Y-50610987D01*
X144930000Y-50593000D02*
X144630000Y-50593000D01*
X145030000Y-50443000D02*
X144530000Y-50443000D01*
X145130000Y-50293000D02*
X144430000Y-50293000D01*
X144780000Y-50793000D02*
X145280000Y-50143000D01*
X144280000Y-50143000D02*
X144780000Y-50793000D01*
X145280000Y-50143000D02*
X144280000Y-50143000D01*
X141030000Y-49793000D02*
X148530000Y-49793000D01*
X141030000Y-51093000D02*
X141030000Y-49793000D01*
X148530000Y-51093000D02*
X141030000Y-51093000D01*
X148530000Y-49793000D02*
X148530000Y-51093000D01*
X153680000Y-52693000D02*
X153680000Y-53693000D01*
X135880000Y-52693000D02*
X135880000Y-53693000D01*
X153680000Y-52693000D02*
X152680000Y-52693000D01*
X135880000Y-52693000D02*
X136830000Y-52693000D01*
X153680000Y-84693000D02*
X153680000Y-85743000D01*
X135880000Y-84743000D02*
X135880000Y-85743000D01*
X153680000Y-85743000D02*
X152680000Y-85743000D01*
X135880000Y-85743000D02*
X136890000Y-85743000D01*
X165228600Y-127035500D02*
X165228600Y-126785500D01*
X159228600Y-127035500D02*
X165228600Y-127035500D01*
X159228600Y-127035500D02*
X159228600Y-126785500D01*
X159228600Y-123535500D02*
X159228600Y-123785500D01*
X165228600Y-123535500D02*
X165228600Y-123785500D01*
X159228600Y-123535500D02*
X165228600Y-123535500D01*
D11*
X147276428Y-52382285D02*
X147276428Y-51632285D01*
X147026428Y-52168000D01*
X146776428Y-51632285D01*
X146776428Y-52382285D01*
X146419285Y-52382285D02*
X146419285Y-51882285D01*
X146419285Y-51632285D02*
X146455000Y-51668000D01*
X146419285Y-51703714D01*
X146383571Y-51668000D01*
X146419285Y-51632285D01*
X146419285Y-51703714D01*
X145740714Y-52346571D02*
X145812142Y-52382285D01*
X145955000Y-52382285D01*
X146026428Y-52346571D01*
X146062142Y-52310857D01*
X146097857Y-52239428D01*
X146097857Y-52025142D01*
X146062142Y-51953714D01*
X146026428Y-51918000D01*
X145955000Y-51882285D01*
X145812142Y-51882285D01*
X145740714Y-51918000D01*
X145419285Y-52382285D02*
X145419285Y-51882285D01*
X145419285Y-52025142D02*
X145383571Y-51953714D01*
X145347857Y-51918000D01*
X145276428Y-51882285D01*
X145205000Y-51882285D01*
X144847857Y-52382285D02*
X144919285Y-52346571D01*
X144955000Y-52310857D01*
X144990714Y-52239428D01*
X144990714Y-52025142D01*
X144955000Y-51953714D01*
X144919285Y-51918000D01*
X144847857Y-51882285D01*
X144740714Y-51882285D01*
X144669285Y-51918000D01*
X144633571Y-51953714D01*
X144597857Y-52025142D01*
X144597857Y-52239428D01*
X144633571Y-52310857D01*
X144669285Y-52346571D01*
X144740714Y-52382285D01*
X144847857Y-52382285D01*
X144276428Y-51632285D02*
X144276428Y-52239428D01*
X144240714Y-52310857D01*
X144205000Y-52346571D01*
X144133571Y-52382285D01*
X143990714Y-52382285D01*
X143919285Y-52346571D01*
X143883571Y-52310857D01*
X143847857Y-52239428D01*
X143847857Y-51632285D01*
X143526428Y-52346571D02*
X143419285Y-52382285D01*
X143240714Y-52382285D01*
X143169285Y-52346571D01*
X143133571Y-52310857D01*
X143097857Y-52239428D01*
X143097857Y-52168000D01*
X143133571Y-52096571D01*
X143169285Y-52060857D01*
X143240714Y-52025142D01*
X143383571Y-51989428D01*
X143455000Y-51953714D01*
X143490714Y-51918000D01*
X143526428Y-51846571D01*
X143526428Y-51775142D01*
X143490714Y-51703714D01*
X143455000Y-51668000D01*
X143383571Y-51632285D01*
X143205000Y-51632285D01*
X143097857Y-51668000D01*
X142526428Y-51989428D02*
X142419285Y-52025142D01*
X142383571Y-52060857D01*
X142347857Y-52132285D01*
X142347857Y-52239428D01*
X142383571Y-52310857D01*
X142419285Y-52346571D01*
X142490714Y-52382285D01*
X142776428Y-52382285D01*
X142776428Y-51632285D01*
X142526428Y-51632285D01*
X142455000Y-51668000D01*
X142419285Y-51703714D01*
X142383571Y-51775142D01*
X142383571Y-51846571D01*
X142419285Y-51918000D01*
X142455000Y-51953714D01*
X142526428Y-51989428D01*
X142776428Y-51989428D01*
D12*
X133233809Y-81946571D02*
X133329523Y-81910857D01*
X133361428Y-81875142D01*
X133393333Y-81803714D01*
X133393333Y-81696571D01*
X133361428Y-81625142D01*
X133329523Y-81589428D01*
X133265714Y-81553714D01*
X133010476Y-81553714D01*
X133010476Y-82303714D01*
X133233809Y-82303714D01*
X133297619Y-82268000D01*
X133329523Y-82232285D01*
X133361428Y-82160857D01*
X133361428Y-82089428D01*
X133329523Y-82018000D01*
X133297619Y-81982285D01*
X133233809Y-81946571D01*
X133010476Y-81946571D01*
X133967619Y-82053714D02*
X133967619Y-81553714D01*
X133808095Y-82339428D02*
X133648571Y-81803714D01*
X134063333Y-81803714D01*
X134797142Y-82339428D02*
X134222857Y-81375142D01*
X135116190Y-81982285D02*
X135052380Y-82018000D01*
X135020476Y-82053714D01*
X134988571Y-82125142D01*
X134988571Y-82160857D01*
X135020476Y-82232285D01*
X135052380Y-82268000D01*
X135116190Y-82303714D01*
X135243809Y-82303714D01*
X135307619Y-82268000D01*
X135339523Y-82232285D01*
X135371428Y-82160857D01*
X135371428Y-82125142D01*
X135339523Y-82053714D01*
X135307619Y-82018000D01*
X135243809Y-81982285D01*
X135116190Y-81982285D01*
X135052380Y-81946571D01*
X135020476Y-81910857D01*
X134988571Y-81839428D01*
X134988571Y-81696571D01*
X135020476Y-81625142D01*
X135052380Y-81589428D01*
X135116190Y-81553714D01*
X135243809Y-81553714D01*
X135307619Y-81589428D01*
X135339523Y-81625142D01*
X135371428Y-81696571D01*
X135371428Y-81839428D01*
X135339523Y-81910857D01*
X135307619Y-81946571D01*
X135243809Y-81982285D01*
X131906428Y-58753714D02*
X131906428Y-59503714D01*
X132065952Y-59503714D01*
X132161666Y-59468000D01*
X132225476Y-59396571D01*
X132257380Y-59325142D01*
X132289285Y-59182285D01*
X132289285Y-59075142D01*
X132257380Y-58932285D01*
X132225476Y-58860857D01*
X132161666Y-58789428D01*
X132065952Y-58753714D01*
X131906428Y-58753714D01*
X132544523Y-59432285D02*
X132576428Y-59468000D01*
X132640238Y-59503714D01*
X132799761Y-59503714D01*
X132863571Y-59468000D01*
X132895476Y-59432285D01*
X132927380Y-59360857D01*
X132927380Y-59289428D01*
X132895476Y-59182285D01*
X132512619Y-58753714D01*
X132927380Y-58753714D01*
X133693095Y-59539428D02*
X133118809Y-58575142D01*
X134299285Y-58753714D02*
X134075952Y-59110857D01*
X133916428Y-58753714D02*
X133916428Y-59503714D01*
X134171666Y-59503714D01*
X134235476Y-59468000D01*
X134267380Y-59432285D01*
X134299285Y-59360857D01*
X134299285Y-59253714D01*
X134267380Y-59182285D01*
X134235476Y-59146571D01*
X134171666Y-59110857D01*
X133916428Y-59110857D01*
X134522619Y-59503714D02*
X134969285Y-58753714D01*
X134969285Y-59503714D02*
X134522619Y-58753714D01*
X135575476Y-58753714D02*
X135192619Y-58753714D01*
X135384047Y-58753714D02*
X135384047Y-59503714D01*
X135320238Y-59396571D01*
X135256428Y-59325142D01*
X135192619Y-59289428D01*
X133233809Y-84446571D02*
X133329523Y-84410857D01*
X133361428Y-84375142D01*
X133393333Y-84303714D01*
X133393333Y-84196571D01*
X133361428Y-84125142D01*
X133329523Y-84089428D01*
X133265714Y-84053714D01*
X133010476Y-84053714D01*
X133010476Y-84803714D01*
X133233809Y-84803714D01*
X133297619Y-84768000D01*
X133329523Y-84732285D01*
X133361428Y-84660857D01*
X133361428Y-84589428D01*
X133329523Y-84518000D01*
X133297619Y-84482285D01*
X133233809Y-84446571D01*
X133010476Y-84446571D01*
X133999523Y-84803714D02*
X133680476Y-84803714D01*
X133648571Y-84446571D01*
X133680476Y-84482285D01*
X133744285Y-84518000D01*
X133903809Y-84518000D01*
X133967619Y-84482285D01*
X133999523Y-84446571D01*
X134031428Y-84375142D01*
X134031428Y-84196571D01*
X133999523Y-84125142D01*
X133967619Y-84089428D01*
X133903809Y-84053714D01*
X133744285Y-84053714D01*
X133680476Y-84089428D01*
X133648571Y-84125142D01*
X134797142Y-84839428D02*
X134222857Y-83875142D01*
X135052380Y-84053714D02*
X135180000Y-84053714D01*
X135243809Y-84089428D01*
X135275714Y-84125142D01*
X135339523Y-84232285D01*
X135371428Y-84375142D01*
X135371428Y-84660857D01*
X135339523Y-84732285D01*
X135307619Y-84768000D01*
X135243809Y-84803714D01*
X135116190Y-84803714D01*
X135052380Y-84768000D01*
X135020476Y-84732285D01*
X134988571Y-84660857D01*
X134988571Y-84482285D01*
X135020476Y-84410857D01*
X135052380Y-84375142D01*
X135116190Y-84339428D01*
X135243809Y-84339428D01*
X135307619Y-84375142D01*
X135339523Y-84410857D01*
X135371428Y-84482285D01*
X133393333Y-73975142D02*
X133361428Y-73939428D01*
X133265714Y-73903714D01*
X133201904Y-73903714D01*
X133106190Y-73939428D01*
X133042380Y-74010857D01*
X133010476Y-74082285D01*
X132978571Y-74225142D01*
X132978571Y-74332285D01*
X133010476Y-74475142D01*
X133042380Y-74546571D01*
X133106190Y-74618000D01*
X133201904Y-74653714D01*
X133265714Y-74653714D01*
X133361428Y-74618000D01*
X133393333Y-74582285D01*
X133967619Y-74653714D02*
X133840000Y-74653714D01*
X133776190Y-74618000D01*
X133744285Y-74582285D01*
X133680476Y-74475142D01*
X133648571Y-74332285D01*
X133648571Y-74046571D01*
X133680476Y-73975142D01*
X133712380Y-73939428D01*
X133776190Y-73903714D01*
X133903809Y-73903714D01*
X133967619Y-73939428D01*
X133999523Y-73975142D01*
X134031428Y-74046571D01*
X134031428Y-74225142D01*
X133999523Y-74296571D01*
X133967619Y-74332285D01*
X133903809Y-74368000D01*
X133776190Y-74368000D01*
X133712380Y-74332285D01*
X133680476Y-74296571D01*
X133648571Y-74225142D01*
X134797142Y-74689428D02*
X134222857Y-73725142D01*
X135339523Y-74653714D02*
X135020476Y-74653714D01*
X134988571Y-74296571D01*
X135020476Y-74332285D01*
X135084285Y-74368000D01*
X135243809Y-74368000D01*
X135307619Y-74332285D01*
X135339523Y-74296571D01*
X135371428Y-74225142D01*
X135371428Y-74046571D01*
X135339523Y-73975142D01*
X135307619Y-73939428D01*
X135243809Y-73903714D01*
X135084285Y-73903714D01*
X135020476Y-73939428D01*
X134988571Y-73975142D01*
X130552380Y-68989428D02*
X130648095Y-68953714D01*
X130807619Y-68953714D01*
X130871428Y-68989428D01*
X130903333Y-69025142D01*
X130935238Y-69096571D01*
X130935238Y-69168000D01*
X130903333Y-69239428D01*
X130871428Y-69275142D01*
X130807619Y-69310857D01*
X130680000Y-69346571D01*
X130616190Y-69382285D01*
X130584285Y-69418000D01*
X130552380Y-69489428D01*
X130552380Y-69560857D01*
X130584285Y-69632285D01*
X130616190Y-69668000D01*
X130680000Y-69703714D01*
X130839523Y-69703714D01*
X130935238Y-69668000D01*
X131605238Y-69025142D02*
X131573333Y-68989428D01*
X131477619Y-68953714D01*
X131413809Y-68953714D01*
X131318095Y-68989428D01*
X131254285Y-69060857D01*
X131222380Y-69132285D01*
X131190476Y-69275142D01*
X131190476Y-69382285D01*
X131222380Y-69525142D01*
X131254285Y-69596571D01*
X131318095Y-69668000D01*
X131413809Y-69703714D01*
X131477619Y-69703714D01*
X131573333Y-69668000D01*
X131605238Y-69632285D01*
X132211428Y-68953714D02*
X131892380Y-68953714D01*
X131892380Y-69703714D01*
X132913333Y-69739428D02*
X132339047Y-68775142D01*
X133136666Y-68953714D02*
X133136666Y-69703714D01*
X133296190Y-69703714D01*
X133391904Y-69668000D01*
X133455714Y-69596571D01*
X133487619Y-69525142D01*
X133519523Y-69382285D01*
X133519523Y-69275142D01*
X133487619Y-69132285D01*
X133455714Y-69060857D01*
X133391904Y-68989428D01*
X133296190Y-68953714D01*
X133136666Y-68953714D01*
X133934285Y-69703714D02*
X133998095Y-69703714D01*
X134061904Y-69668000D01*
X134093809Y-69632285D01*
X134125714Y-69560857D01*
X134157619Y-69418000D01*
X134157619Y-69239428D01*
X134125714Y-69096571D01*
X134093809Y-69025142D01*
X134061904Y-68989428D01*
X133998095Y-68953714D01*
X133934285Y-68953714D01*
X133870476Y-68989428D01*
X133838571Y-69025142D01*
X133806666Y-69096571D01*
X133774761Y-69239428D01*
X133774761Y-69418000D01*
X133806666Y-69560857D01*
X133838571Y-69632285D01*
X133870476Y-69668000D01*
X133934285Y-69703714D01*
X134923333Y-69739428D02*
X134349047Y-68775142D01*
X135082857Y-69703714D02*
X135497619Y-69703714D01*
X135274285Y-69418000D01*
X135370000Y-69418000D01*
X135433809Y-69382285D01*
X135465714Y-69346571D01*
X135497619Y-69275142D01*
X135497619Y-69096571D01*
X135465714Y-69025142D01*
X135433809Y-68989428D01*
X135370000Y-68953714D01*
X135178571Y-68953714D01*
X135114761Y-68989428D01*
X135082857Y-69025142D01*
X130536428Y-66489428D02*
X130632142Y-66453714D01*
X130791666Y-66453714D01*
X130855476Y-66489428D01*
X130887380Y-66525142D01*
X130919285Y-66596571D01*
X130919285Y-66668000D01*
X130887380Y-66739428D01*
X130855476Y-66775142D01*
X130791666Y-66810857D01*
X130664047Y-66846571D01*
X130600238Y-66882285D01*
X130568333Y-66918000D01*
X130536428Y-66989428D01*
X130536428Y-67060857D01*
X130568333Y-67132285D01*
X130600238Y-67168000D01*
X130664047Y-67203714D01*
X130823571Y-67203714D01*
X130919285Y-67168000D01*
X131206428Y-66453714D02*
X131206428Y-67203714D01*
X131365952Y-67203714D01*
X131461666Y-67168000D01*
X131525476Y-67096571D01*
X131557380Y-67025142D01*
X131589285Y-66882285D01*
X131589285Y-66775142D01*
X131557380Y-66632285D01*
X131525476Y-66560857D01*
X131461666Y-66489428D01*
X131365952Y-66453714D01*
X131206428Y-66453714D01*
X131844523Y-66668000D02*
X132163571Y-66668000D01*
X131780714Y-66453714D02*
X132004047Y-67203714D01*
X132227380Y-66453714D01*
X132929285Y-67239428D02*
X132355000Y-66275142D01*
X133152619Y-66453714D02*
X133152619Y-67203714D01*
X133312142Y-67203714D01*
X133407857Y-67168000D01*
X133471666Y-67096571D01*
X133503571Y-67025142D01*
X133535476Y-66882285D01*
X133535476Y-66775142D01*
X133503571Y-66632285D01*
X133471666Y-66560857D01*
X133407857Y-66489428D01*
X133312142Y-66453714D01*
X133152619Y-66453714D01*
X134173571Y-66453714D02*
X133790714Y-66453714D01*
X133982142Y-66453714D02*
X133982142Y-67203714D01*
X133918333Y-67096571D01*
X133854523Y-67025142D01*
X133790714Y-66989428D01*
X134939285Y-67239428D02*
X134365000Y-66275142D01*
X135130714Y-67132285D02*
X135162619Y-67168000D01*
X135226428Y-67203714D01*
X135385952Y-67203714D01*
X135449761Y-67168000D01*
X135481666Y-67132285D01*
X135513571Y-67060857D01*
X135513571Y-66989428D01*
X135481666Y-66882285D01*
X135098809Y-66453714D01*
X135513571Y-66453714D01*
X133010476Y-71353714D02*
X133010476Y-72103714D01*
X133170000Y-72103714D01*
X133265714Y-72068000D01*
X133329523Y-71996571D01*
X133361428Y-71925142D01*
X133393333Y-71782285D01*
X133393333Y-71675142D01*
X133361428Y-71532285D01*
X133329523Y-71460857D01*
X133265714Y-71389428D01*
X133170000Y-71353714D01*
X133010476Y-71353714D01*
X133967619Y-71853714D02*
X133967619Y-71353714D01*
X133808095Y-72139428D02*
X133648571Y-71603714D01*
X134063333Y-71603714D01*
X134797142Y-72139428D02*
X134222857Y-71175142D01*
X135307619Y-71853714D02*
X135307619Y-71353714D01*
X135148095Y-72139428D02*
X134988571Y-71603714D01*
X135403333Y-71603714D01*
X131986190Y-56203714D02*
X131986190Y-56953714D01*
X132145714Y-56953714D01*
X132241428Y-56918000D01*
X132305238Y-56846571D01*
X132337142Y-56775142D01*
X132369047Y-56632285D01*
X132369047Y-56525142D01*
X132337142Y-56382285D01*
X132305238Y-56310857D01*
X132241428Y-56239428D01*
X132145714Y-56203714D01*
X131986190Y-56203714D01*
X132592380Y-56953714D02*
X133007142Y-56953714D01*
X132783809Y-56668000D01*
X132879523Y-56668000D01*
X132943333Y-56632285D01*
X132975238Y-56596571D01*
X133007142Y-56525142D01*
X133007142Y-56346571D01*
X132975238Y-56275142D01*
X132943333Y-56239428D01*
X132879523Y-56203714D01*
X132688095Y-56203714D01*
X132624285Y-56239428D01*
X132592380Y-56275142D01*
X133772857Y-56989428D02*
X133198571Y-56025142D01*
X133900476Y-56953714D02*
X134283333Y-56953714D01*
X134091904Y-56203714D02*
X134091904Y-56953714D01*
X134442857Y-56953714D02*
X134889523Y-56203714D01*
X134889523Y-56953714D02*
X134442857Y-56203714D01*
X135272380Y-56953714D02*
X135336190Y-56953714D01*
X135400000Y-56918000D01*
X135431904Y-56882285D01*
X135463809Y-56810857D01*
X135495714Y-56668000D01*
X135495714Y-56489428D01*
X135463809Y-56346571D01*
X135431904Y-56275142D01*
X135400000Y-56239428D01*
X135336190Y-56203714D01*
X135272380Y-56203714D01*
X135208571Y-56239428D01*
X135176666Y-56275142D01*
X135144761Y-56346571D01*
X135112857Y-56489428D01*
X135112857Y-56668000D01*
X135144761Y-56810857D01*
X135176666Y-56882285D01*
X135208571Y-56918000D01*
X135272380Y-56953714D01*
X134164523Y-64518000D02*
X134100714Y-64553714D01*
X134005000Y-64553714D01*
X133909285Y-64518000D01*
X133845476Y-64446571D01*
X133813571Y-64375142D01*
X133781666Y-64232285D01*
X133781666Y-64125142D01*
X133813571Y-63982285D01*
X133845476Y-63910857D01*
X133909285Y-63839428D01*
X134005000Y-63803714D01*
X134068809Y-63803714D01*
X134164523Y-63839428D01*
X134196428Y-63875142D01*
X134196428Y-64125142D01*
X134068809Y-64125142D01*
X134483571Y-63803714D02*
X134483571Y-64553714D01*
X134866428Y-63803714D01*
X134866428Y-64553714D01*
X135185476Y-63803714D02*
X135185476Y-64553714D01*
X135345000Y-64553714D01*
X135440714Y-64518000D01*
X135504523Y-64446571D01*
X135536428Y-64375142D01*
X135568333Y-64232285D01*
X135568333Y-64125142D01*
X135536428Y-63982285D01*
X135504523Y-63910857D01*
X135440714Y-63839428D01*
X135345000Y-63803714D01*
X135185476Y-63803714D01*
X134164523Y-62068000D02*
X134100714Y-62103714D01*
X134005000Y-62103714D01*
X133909285Y-62068000D01*
X133845476Y-61996571D01*
X133813571Y-61925142D01*
X133781666Y-61782285D01*
X133781666Y-61675142D01*
X133813571Y-61532285D01*
X133845476Y-61460857D01*
X133909285Y-61389428D01*
X134005000Y-61353714D01*
X134068809Y-61353714D01*
X134164523Y-61389428D01*
X134196428Y-61425142D01*
X134196428Y-61675142D01*
X134068809Y-61675142D01*
X134483571Y-61353714D02*
X134483571Y-62103714D01*
X134866428Y-61353714D01*
X134866428Y-62103714D01*
X135185476Y-61353714D02*
X135185476Y-62103714D01*
X135345000Y-62103714D01*
X135440714Y-62068000D01*
X135504523Y-61996571D01*
X135536428Y-61925142D01*
X135568333Y-61782285D01*
X135568333Y-61675142D01*
X135536428Y-61532285D01*
X135504523Y-61460857D01*
X135440714Y-61389428D01*
X135345000Y-61353714D01*
X135185476Y-61353714D01*
X133010476Y-76453714D02*
X133010476Y-77203714D01*
X133170000Y-77203714D01*
X133265714Y-77168000D01*
X133329523Y-77096571D01*
X133361428Y-77025142D01*
X133393333Y-76882285D01*
X133393333Y-76775142D01*
X133361428Y-76632285D01*
X133329523Y-76560857D01*
X133265714Y-76489428D01*
X133170000Y-76453714D01*
X133010476Y-76453714D01*
X133616666Y-77203714D02*
X134063333Y-77203714D01*
X133776190Y-76453714D01*
X134797142Y-77239428D02*
X134222857Y-76275142D01*
X135307619Y-77203714D02*
X135180000Y-77203714D01*
X135116190Y-77168000D01*
X135084285Y-77132285D01*
X135020476Y-77025142D01*
X134988571Y-76882285D01*
X134988571Y-76596571D01*
X135020476Y-76525142D01*
X135052380Y-76489428D01*
X135116190Y-76453714D01*
X135243809Y-76453714D01*
X135307619Y-76489428D01*
X135339523Y-76525142D01*
X135371428Y-76596571D01*
X135371428Y-76775142D01*
X135339523Y-76846571D01*
X135307619Y-76882285D01*
X135243809Y-76918000D01*
X135116190Y-76918000D01*
X135052380Y-76882285D01*
X135020476Y-76846571D01*
X134988571Y-76775142D01*
X133042380Y-79396571D02*
X133265714Y-79396571D01*
X133361428Y-79003714D02*
X133042380Y-79003714D01*
X133042380Y-79753714D01*
X133361428Y-79753714D01*
X133935714Y-79753714D02*
X133808095Y-79753714D01*
X133744285Y-79718000D01*
X133712380Y-79682285D01*
X133648571Y-79575142D01*
X133616666Y-79432285D01*
X133616666Y-79146571D01*
X133648571Y-79075142D01*
X133680476Y-79039428D01*
X133744285Y-79003714D01*
X133871904Y-79003714D01*
X133935714Y-79039428D01*
X133967619Y-79075142D01*
X133999523Y-79146571D01*
X133999523Y-79325142D01*
X133967619Y-79396571D01*
X133935714Y-79432285D01*
X133871904Y-79468000D01*
X133744285Y-79468000D01*
X133680476Y-79432285D01*
X133648571Y-79396571D01*
X133616666Y-79325142D01*
X134765238Y-79789428D02*
X134190952Y-78825142D01*
X134924761Y-79753714D02*
X135371428Y-79753714D01*
X135084285Y-79003714D01*
X154492380Y-81603714D02*
X154109523Y-81603714D01*
X154300952Y-81603714D02*
X154300952Y-82353714D01*
X154237142Y-82246571D01*
X154173333Y-82175142D01*
X154109523Y-82139428D01*
X155066666Y-82353714D02*
X154939047Y-82353714D01*
X154875238Y-82318000D01*
X154843333Y-82282285D01*
X154779523Y-82175142D01*
X154747619Y-82032285D01*
X154747619Y-81746571D01*
X154779523Y-81675142D01*
X154811428Y-81639428D01*
X154875238Y-81603714D01*
X155002857Y-81603714D01*
X155066666Y-81639428D01*
X155098571Y-81675142D01*
X155130476Y-81746571D01*
X155130476Y-81925142D01*
X155098571Y-81996571D01*
X155066666Y-82032285D01*
X155002857Y-82068000D01*
X154875238Y-82068000D01*
X154811428Y-82032285D01*
X154779523Y-81996571D01*
X154747619Y-81925142D01*
X155896190Y-82389428D02*
X155321904Y-81425142D01*
X156342857Y-81996571D02*
X156438571Y-81960857D01*
X156470476Y-81925142D01*
X156502380Y-81853714D01*
X156502380Y-81746571D01*
X156470476Y-81675142D01*
X156438571Y-81639428D01*
X156374761Y-81603714D01*
X156119523Y-81603714D01*
X156119523Y-82353714D01*
X156342857Y-82353714D01*
X156406666Y-82318000D01*
X156438571Y-82282285D01*
X156470476Y-82210857D01*
X156470476Y-82139428D01*
X156438571Y-82068000D01*
X156406666Y-82032285D01*
X156342857Y-81996571D01*
X156119523Y-81996571D01*
X156757619Y-82282285D02*
X156789523Y-82318000D01*
X156853333Y-82353714D01*
X157012857Y-82353714D01*
X157076666Y-82318000D01*
X157108571Y-82282285D01*
X157140476Y-82210857D01*
X157140476Y-82139428D01*
X157108571Y-82032285D01*
X156725714Y-81603714D01*
X157140476Y-81603714D01*
X154492380Y-84103714D02*
X154109523Y-84103714D01*
X154300952Y-84103714D02*
X154300952Y-84853714D01*
X154237142Y-84746571D01*
X154173333Y-84675142D01*
X154109523Y-84639428D01*
X154907142Y-84853714D02*
X154970952Y-84853714D01*
X155034761Y-84818000D01*
X155066666Y-84782285D01*
X155098571Y-84710857D01*
X155130476Y-84568000D01*
X155130476Y-84389428D01*
X155098571Y-84246571D01*
X155066666Y-84175142D01*
X155034761Y-84139428D01*
X154970952Y-84103714D01*
X154907142Y-84103714D01*
X154843333Y-84139428D01*
X154811428Y-84175142D01*
X154779523Y-84246571D01*
X154747619Y-84389428D01*
X154747619Y-84568000D01*
X154779523Y-84710857D01*
X154811428Y-84782285D01*
X154843333Y-84818000D01*
X154907142Y-84853714D01*
X155896190Y-84889428D02*
X155321904Y-83925142D01*
X156342857Y-84496571D02*
X156438571Y-84460857D01*
X156470476Y-84425142D01*
X156502380Y-84353714D01*
X156502380Y-84246571D01*
X156470476Y-84175142D01*
X156438571Y-84139428D01*
X156374761Y-84103714D01*
X156119523Y-84103714D01*
X156119523Y-84853714D01*
X156342857Y-84853714D01*
X156406666Y-84818000D01*
X156438571Y-84782285D01*
X156470476Y-84710857D01*
X156470476Y-84639428D01*
X156438571Y-84568000D01*
X156406666Y-84532285D01*
X156342857Y-84496571D01*
X156119523Y-84496571D01*
X157076666Y-84853714D02*
X156949047Y-84853714D01*
X156885238Y-84818000D01*
X156853333Y-84782285D01*
X156789523Y-84675142D01*
X156757619Y-84532285D01*
X156757619Y-84246571D01*
X156789523Y-84175142D01*
X156821428Y-84139428D01*
X156885238Y-84103714D01*
X157012857Y-84103714D01*
X157076666Y-84139428D01*
X157108571Y-84175142D01*
X157140476Y-84246571D01*
X157140476Y-84425142D01*
X157108571Y-84496571D01*
X157076666Y-84532285D01*
X157012857Y-84568000D01*
X156885238Y-84568000D01*
X156821428Y-84532285D01*
X156789523Y-84496571D01*
X156757619Y-84425142D01*
X154492380Y-79053714D02*
X154109523Y-79053714D01*
X154300952Y-79053714D02*
X154300952Y-79803714D01*
X154237142Y-79696571D01*
X154173333Y-79625142D01*
X154109523Y-79589428D01*
X155066666Y-79553714D02*
X155066666Y-79053714D01*
X154907142Y-79839428D02*
X154747619Y-79303714D01*
X155162380Y-79303714D01*
X155896190Y-79839428D02*
X155321904Y-78875142D01*
X156342857Y-79446571D02*
X156438571Y-79410857D01*
X156470476Y-79375142D01*
X156502380Y-79303714D01*
X156502380Y-79196571D01*
X156470476Y-79125142D01*
X156438571Y-79089428D01*
X156374761Y-79053714D01*
X156119523Y-79053714D01*
X156119523Y-79803714D01*
X156342857Y-79803714D01*
X156406666Y-79768000D01*
X156438571Y-79732285D01*
X156470476Y-79660857D01*
X156470476Y-79589428D01*
X156438571Y-79518000D01*
X156406666Y-79482285D01*
X156342857Y-79446571D01*
X156119523Y-79446571D01*
X156725714Y-79803714D02*
X157140476Y-79803714D01*
X156917142Y-79518000D01*
X157012857Y-79518000D01*
X157076666Y-79482285D01*
X157108571Y-79446571D01*
X157140476Y-79375142D01*
X157140476Y-79196571D01*
X157108571Y-79125142D01*
X157076666Y-79089428D01*
X157012857Y-79053714D01*
X156821428Y-79053714D01*
X156757619Y-79089428D01*
X156725714Y-79125142D01*
X154492380Y-76503714D02*
X154109523Y-76503714D01*
X154300952Y-76503714D02*
X154300952Y-77253714D01*
X154237142Y-77146571D01*
X154173333Y-77075142D01*
X154109523Y-77039428D01*
X155098571Y-77253714D02*
X154779523Y-77253714D01*
X154747619Y-76896571D01*
X154779523Y-76932285D01*
X154843333Y-76968000D01*
X155002857Y-76968000D01*
X155066666Y-76932285D01*
X155098571Y-76896571D01*
X155130476Y-76825142D01*
X155130476Y-76646571D01*
X155098571Y-76575142D01*
X155066666Y-76539428D01*
X155002857Y-76503714D01*
X154843333Y-76503714D01*
X154779523Y-76539428D01*
X154747619Y-76575142D01*
X155896190Y-77289428D02*
X155321904Y-76325142D01*
X156342857Y-76896571D02*
X156438571Y-76860857D01*
X156470476Y-76825142D01*
X156502380Y-76753714D01*
X156502380Y-76646571D01*
X156470476Y-76575142D01*
X156438571Y-76539428D01*
X156374761Y-76503714D01*
X156119523Y-76503714D01*
X156119523Y-77253714D01*
X156342857Y-77253714D01*
X156406666Y-77218000D01*
X156438571Y-77182285D01*
X156470476Y-77110857D01*
X156470476Y-77039428D01*
X156438571Y-76968000D01*
X156406666Y-76932285D01*
X156342857Y-76896571D01*
X156119523Y-76896571D01*
X157140476Y-76503714D02*
X156757619Y-76503714D01*
X156949047Y-76503714D02*
X156949047Y-77253714D01*
X156885238Y-77146571D01*
X156821428Y-77075142D01*
X156757619Y-77039428D01*
X154189285Y-74168000D02*
X154508333Y-74168000D01*
X154125476Y-73953714D02*
X154348809Y-74703714D01*
X154572142Y-73953714D01*
X154923095Y-74703714D02*
X154986904Y-74703714D01*
X155050714Y-74668000D01*
X155082619Y-74632285D01*
X155114523Y-74560857D01*
X155146428Y-74418000D01*
X155146428Y-74239428D01*
X155114523Y-74096571D01*
X155082619Y-74025142D01*
X155050714Y-73989428D01*
X154986904Y-73953714D01*
X154923095Y-73953714D01*
X154859285Y-73989428D01*
X154827380Y-74025142D01*
X154795476Y-74096571D01*
X154763571Y-74239428D01*
X154763571Y-74418000D01*
X154795476Y-74560857D01*
X154827380Y-74632285D01*
X154859285Y-74668000D01*
X154923095Y-74703714D01*
X155912142Y-74739428D02*
X155337857Y-73775142D01*
X156358809Y-74346571D02*
X156135476Y-74346571D01*
X156135476Y-73953714D02*
X156135476Y-74703714D01*
X156454523Y-74703714D01*
X156645952Y-74703714D02*
X157092619Y-74703714D01*
X156805476Y-73953714D01*
X154189285Y-71618000D02*
X154508333Y-71618000D01*
X154125476Y-71403714D02*
X154348809Y-72153714D01*
X154572142Y-71403714D01*
X155146428Y-71403714D02*
X154763571Y-71403714D01*
X154955000Y-71403714D02*
X154955000Y-72153714D01*
X154891190Y-72046571D01*
X154827380Y-71975142D01*
X154763571Y-71939428D01*
X155912142Y-72189428D02*
X155337857Y-71225142D01*
X156358809Y-71796571D02*
X156135476Y-71796571D01*
X156135476Y-71403714D02*
X156135476Y-72153714D01*
X156454523Y-72153714D01*
X156996904Y-72153714D02*
X156869285Y-72153714D01*
X156805476Y-72118000D01*
X156773571Y-72082285D01*
X156709761Y-71975142D01*
X156677857Y-71832285D01*
X156677857Y-71546571D01*
X156709761Y-71475142D01*
X156741666Y-71439428D01*
X156805476Y-71403714D01*
X156933095Y-71403714D01*
X156996904Y-71439428D01*
X157028809Y-71475142D01*
X157060714Y-71546571D01*
X157060714Y-71725142D01*
X157028809Y-71796571D01*
X156996904Y-71832285D01*
X156933095Y-71868000D01*
X156805476Y-71868000D01*
X156741666Y-71832285D01*
X156709761Y-71796571D01*
X156677857Y-71725142D01*
X154189285Y-69118000D02*
X154508333Y-69118000D01*
X154125476Y-68903714D02*
X154348809Y-69653714D01*
X154572142Y-68903714D01*
X154763571Y-69582285D02*
X154795476Y-69618000D01*
X154859285Y-69653714D01*
X155018809Y-69653714D01*
X155082619Y-69618000D01*
X155114523Y-69582285D01*
X155146428Y-69510857D01*
X155146428Y-69439428D01*
X155114523Y-69332285D01*
X154731666Y-68903714D01*
X155146428Y-68903714D01*
X155912142Y-69689428D02*
X155337857Y-68725142D01*
X156358809Y-69296571D02*
X156135476Y-69296571D01*
X156135476Y-68903714D02*
X156135476Y-69653714D01*
X156454523Y-69653714D01*
X157028809Y-69653714D02*
X156709761Y-69653714D01*
X156677857Y-69296571D01*
X156709761Y-69332285D01*
X156773571Y-69368000D01*
X156933095Y-69368000D01*
X156996904Y-69332285D01*
X157028809Y-69296571D01*
X157060714Y-69225142D01*
X157060714Y-69046571D01*
X157028809Y-68975142D01*
X156996904Y-68939428D01*
X156933095Y-68903714D01*
X156773571Y-68903714D01*
X156709761Y-68939428D01*
X156677857Y-68975142D01*
X154189285Y-66618000D02*
X154508333Y-66618000D01*
X154125476Y-66403714D02*
X154348809Y-67153714D01*
X154572142Y-66403714D01*
X154731666Y-67153714D02*
X155146428Y-67153714D01*
X154923095Y-66868000D01*
X155018809Y-66868000D01*
X155082619Y-66832285D01*
X155114523Y-66796571D01*
X155146428Y-66725142D01*
X155146428Y-66546571D01*
X155114523Y-66475142D01*
X155082619Y-66439428D01*
X155018809Y-66403714D01*
X154827380Y-66403714D01*
X154763571Y-66439428D01*
X154731666Y-66475142D01*
X155912142Y-67189428D02*
X155337857Y-66225142D01*
X156358809Y-66796571D02*
X156135476Y-66796571D01*
X156135476Y-66403714D02*
X156135476Y-67153714D01*
X156454523Y-67153714D01*
X156996904Y-66903714D02*
X156996904Y-66403714D01*
X156837380Y-67189428D02*
X156677857Y-66653714D01*
X157092619Y-66653714D01*
X154081666Y-64453714D02*
X154305000Y-63703714D01*
X154528333Y-64453714D01*
X155134523Y-63775142D02*
X155102619Y-63739428D01*
X155006904Y-63703714D01*
X154943095Y-63703714D01*
X154847380Y-63739428D01*
X154783571Y-63810857D01*
X154751666Y-63882285D01*
X154719761Y-64025142D01*
X154719761Y-64132285D01*
X154751666Y-64275142D01*
X154783571Y-64346571D01*
X154847380Y-64418000D01*
X154943095Y-64453714D01*
X155006904Y-64453714D01*
X155102619Y-64418000D01*
X155134523Y-64382285D01*
X155804523Y-63775142D02*
X155772619Y-63739428D01*
X155676904Y-63703714D01*
X155613095Y-63703714D01*
X155517380Y-63739428D01*
X155453571Y-63810857D01*
X155421666Y-63882285D01*
X155389761Y-64025142D01*
X155389761Y-64132285D01*
X155421666Y-64275142D01*
X155453571Y-64346571D01*
X155517380Y-64418000D01*
X155613095Y-64453714D01*
X155676904Y-64453714D01*
X155772619Y-64418000D01*
X155804523Y-64382285D01*
X154608095Y-61253714D02*
X154384761Y-61610857D01*
X154225238Y-61253714D02*
X154225238Y-62003714D01*
X154480476Y-62003714D01*
X154544285Y-61968000D01*
X154576190Y-61932285D01*
X154608095Y-61860857D01*
X154608095Y-61753714D01*
X154576190Y-61682285D01*
X154544285Y-61646571D01*
X154480476Y-61610857D01*
X154225238Y-61610857D01*
X154863333Y-61289428D02*
X154959047Y-61253714D01*
X155118571Y-61253714D01*
X155182380Y-61289428D01*
X155214285Y-61325142D01*
X155246190Y-61396571D01*
X155246190Y-61468000D01*
X155214285Y-61539428D01*
X155182380Y-61575142D01*
X155118571Y-61610857D01*
X154990952Y-61646571D01*
X154927142Y-61682285D01*
X154895238Y-61718000D01*
X154863333Y-61789428D01*
X154863333Y-61860857D01*
X154895238Y-61932285D01*
X154927142Y-61968000D01*
X154990952Y-62003714D01*
X155150476Y-62003714D01*
X155246190Y-61968000D01*
X155437619Y-62003714D02*
X155820476Y-62003714D01*
X155629047Y-61253714D02*
X155629047Y-62003714D01*
X154464523Y-59418000D02*
X154400714Y-59453714D01*
X154305000Y-59453714D01*
X154209285Y-59418000D01*
X154145476Y-59346571D01*
X154113571Y-59275142D01*
X154081666Y-59132285D01*
X154081666Y-59025142D01*
X154113571Y-58882285D01*
X154145476Y-58810857D01*
X154209285Y-58739428D01*
X154305000Y-58703714D01*
X154368809Y-58703714D01*
X154464523Y-58739428D01*
X154496428Y-58775142D01*
X154496428Y-59025142D01*
X154368809Y-59025142D01*
X154783571Y-58703714D02*
X154783571Y-59453714D01*
X155166428Y-58703714D01*
X155166428Y-59453714D01*
X155485476Y-58703714D02*
X155485476Y-59453714D01*
X155645000Y-59453714D01*
X155740714Y-59418000D01*
X155804523Y-59346571D01*
X155836428Y-59275142D01*
X155868333Y-59132285D01*
X155868333Y-59025142D01*
X155836428Y-58882285D01*
X155804523Y-58810857D01*
X155740714Y-58739428D01*
X155645000Y-58703714D01*
X155485476Y-58703714D01*
X154512380Y-56153714D02*
X154289047Y-56510857D01*
X154129523Y-56153714D02*
X154129523Y-56903714D01*
X154384761Y-56903714D01*
X154448571Y-56868000D01*
X154480476Y-56832285D01*
X154512380Y-56760857D01*
X154512380Y-56653714D01*
X154480476Y-56582285D01*
X154448571Y-56546571D01*
X154384761Y-56510857D01*
X154129523Y-56510857D01*
X154767619Y-56368000D02*
X155086666Y-56368000D01*
X154703809Y-56153714D02*
X154927142Y-56903714D01*
X155150476Y-56153714D01*
X155310000Y-56903714D02*
X155469523Y-56153714D01*
X155597142Y-56689428D01*
X155724761Y-56153714D01*
X155884285Y-56903714D01*
D10*
X163680980Y-125737880D02*
X164014314Y-125261690D01*
X164252409Y-125737880D02*
X164252409Y-124737880D01*
X163871457Y-124737880D01*
X163776219Y-124785500D01*
X163728600Y-124833119D01*
X163680980Y-124928357D01*
X163680980Y-125071214D01*
X163728600Y-125166452D01*
X163776219Y-125214071D01*
X163871457Y-125261690D01*
X164252409Y-125261690D01*
X163252409Y-125214071D02*
X162919076Y-125214071D01*
X162776219Y-125737880D02*
X163252409Y-125737880D01*
X163252409Y-124737880D01*
X162776219Y-124737880D01*
X162395266Y-125690261D02*
X162252409Y-125737880D01*
X162014314Y-125737880D01*
X161919076Y-125690261D01*
X161871457Y-125642642D01*
X161823838Y-125547404D01*
X161823838Y-125452166D01*
X161871457Y-125356928D01*
X161919076Y-125309309D01*
X162014314Y-125261690D01*
X162204790Y-125214071D01*
X162300028Y-125166452D01*
X162347647Y-125118833D01*
X162395266Y-125023595D01*
X162395266Y-124928357D01*
X162347647Y-124833119D01*
X162300028Y-124785500D01*
X162204790Y-124737880D01*
X161966695Y-124737880D01*
X161823838Y-124785500D01*
X161395266Y-125214071D02*
X161061933Y-125214071D01*
X160919076Y-125737880D02*
X161395266Y-125737880D01*
X161395266Y-124737880D01*
X160919076Y-124737880D01*
X160633361Y-124737880D02*
X160061933Y-124737880D01*
X160347647Y-125737880D02*
X160347647Y-124737880D01*
%LPC*%
D13*
X201188833Y-121270089D03*
X177738098Y-125405087D03*
D14*
X198542435Y-106261619D03*
X175091700Y-110396616D03*
D15*
X193032823Y-114325867D03*
X183027177Y-116090133D03*
D16*
X183836816Y-113368188D03*
D13*
X188030000Y-115208000D03*
D16*
X189649279Y-109764110D03*
D13*
X112004402Y-125164587D03*
X88553667Y-121029589D03*
D14*
X114650800Y-110156116D03*
X91200065Y-106021119D03*
D15*
X106715323Y-115849633D03*
X96709677Y-114085367D03*
D16*
X98401449Y-111804489D03*
D13*
X101712500Y-114967500D03*
D16*
X105096044Y-110405743D03*
D15*
X173632823Y-59700867D03*
X163627177Y-61465133D03*
D16*
X164436816Y-58743188D03*
D13*
X168630000Y-60583000D03*
D16*
X170249279Y-55139110D03*
D15*
X255432823Y-83925867D03*
X245427177Y-85690133D03*
D16*
X246236816Y-82968188D03*
D13*
X250430000Y-84808000D03*
D16*
X252049279Y-79364110D03*
D15*
X236657823Y-87275867D03*
X226652177Y-89040133D03*
D16*
X227461816Y-86318188D03*
D13*
X231655000Y-88158000D03*
D16*
X233274279Y-82714110D03*
D15*
X217932823Y-90575867D03*
X207927177Y-92340133D03*
D16*
X208736816Y-89618188D03*
D13*
X212930000Y-91458000D03*
D16*
X214549279Y-86014110D03*
D15*
X199157823Y-93900867D03*
X189152177Y-95665133D03*
D16*
X189961816Y-92943188D03*
D13*
X194155000Y-94783000D03*
D16*
X195774279Y-89339110D03*
D15*
X180307823Y-97225867D03*
X170302177Y-98990133D03*
D16*
X171111816Y-96268188D03*
D13*
X175305000Y-98108000D03*
D16*
X176924279Y-92664110D03*
D15*
X119415323Y-98699633D03*
X109409677Y-96935367D03*
D16*
X111101449Y-94654489D03*
D13*
X114412500Y-97817500D03*
D16*
X117796044Y-93255743D03*
D15*
X100715323Y-95349633D03*
X90709677Y-93585367D03*
D16*
X92401449Y-91304489D03*
D13*
X95712500Y-94467500D03*
D16*
X99096044Y-89905743D03*
D15*
X82015323Y-92049633D03*
X72009677Y-90285367D03*
D16*
X73701449Y-88004489D03*
D13*
X77012500Y-91167500D03*
D16*
X80396044Y-86605743D03*
D15*
X63215323Y-88774633D03*
X53209677Y-87010367D03*
D16*
X54901449Y-84729489D03*
D13*
X58212500Y-87892500D03*
D16*
X61596044Y-83330743D03*
D15*
X44415323Y-85474633D03*
X34409677Y-83710367D03*
D16*
X36101449Y-81429489D03*
D13*
X39412500Y-84592500D03*
D16*
X42796044Y-80030743D03*
D15*
X252157823Y-65225867D03*
X242152177Y-66990133D03*
D16*
X242961816Y-64268188D03*
D13*
X247155000Y-66108000D03*
D16*
X248774279Y-60664110D03*
D15*
X233382823Y-68550867D03*
X223377177Y-70315133D03*
D16*
X224186816Y-67593188D03*
D13*
X228380000Y-69433000D03*
D16*
X229999279Y-63989110D03*
D15*
X214607823Y-71850867D03*
X204602177Y-73615133D03*
D16*
X205411816Y-70893188D03*
D13*
X209605000Y-72733000D03*
D16*
X211224279Y-67289110D03*
D15*
X195782823Y-75200867D03*
X185777177Y-76965133D03*
D16*
X186586816Y-74243188D03*
D13*
X190780000Y-76083000D03*
D16*
X192399279Y-70639110D03*
D15*
X176986709Y-78493143D03*
X166981063Y-80257409D03*
D16*
X167790702Y-77535464D03*
D13*
X171983886Y-79375276D03*
D16*
X173603165Y-73931386D03*
D15*
X122715323Y-79949633D03*
X112709677Y-78185367D03*
D16*
X114401449Y-75904489D03*
D13*
X117712500Y-79067500D03*
D16*
X121096044Y-74505743D03*
D15*
X103990323Y-76624633D03*
X93984677Y-74860367D03*
D16*
X95676449Y-72579489D03*
D13*
X98987500Y-75742500D03*
D16*
X102371044Y-71180743D03*
D15*
X85265323Y-73299633D03*
X75259677Y-71535367D03*
D16*
X76951449Y-69254489D03*
D13*
X80262500Y-72417500D03*
D16*
X83646044Y-67855743D03*
D15*
X66515323Y-69999633D03*
X56509677Y-68235367D03*
D16*
X58201449Y-65954489D03*
D13*
X61512500Y-69117500D03*
D16*
X64896044Y-64555743D03*
D15*
X47740323Y-66699633D03*
X37734677Y-64935367D03*
D16*
X39426449Y-62654489D03*
D13*
X42737500Y-65817500D03*
D16*
X46121044Y-61255743D03*
D15*
X248832823Y-46572867D03*
X238827177Y-48337133D03*
D16*
X239636816Y-45615188D03*
D13*
X243830000Y-47455000D03*
D16*
X245449279Y-42011110D03*
D15*
X230046823Y-49822867D03*
X220041177Y-51587133D03*
D16*
X220850816Y-48865188D03*
D13*
X225044000Y-50705000D03*
D16*
X226663279Y-45261110D03*
D15*
X211257823Y-53050867D03*
X201252177Y-54815133D03*
D16*
X202061816Y-52093188D03*
D13*
X206255000Y-53933000D03*
D16*
X207874279Y-48489110D03*
D15*
X192432823Y-56375867D03*
X182427177Y-58140133D03*
D16*
X183236816Y-55418188D03*
D13*
X187430000Y-57258000D03*
D16*
X189049279Y-51814110D03*
D15*
X126040323Y-61174633D03*
X116034677Y-59410367D03*
D16*
X117726449Y-57129489D03*
D13*
X121037500Y-60292500D03*
D16*
X124421044Y-55730743D03*
D15*
X107290323Y-57874633D03*
X97284677Y-56110367D03*
D16*
X98976449Y-53829489D03*
D13*
X102287500Y-56992500D03*
D16*
X105671044Y-52430743D03*
D15*
X88540323Y-54549633D03*
X78534677Y-52785367D03*
D16*
X80226449Y-50504489D03*
D13*
X83537500Y-53667500D03*
D16*
X86921044Y-49105743D03*
D15*
X69815323Y-51249633D03*
X59809677Y-49485367D03*
D16*
X61501449Y-47204489D03*
D13*
X64812500Y-50367500D03*
D16*
X68196044Y-45805743D03*
D15*
X51065323Y-47949633D03*
X41059677Y-46185367D03*
D16*
X42751449Y-43904489D03*
D13*
X46062500Y-47067500D03*
D16*
X49446044Y-42505743D03*
D17*
X147127600Y-87915100D03*
D18*
X144627600Y-87915100D03*
X142127600Y-87915100D03*
D19*
X150227600Y-95415100D03*
X139027600Y-95415100D03*
D18*
X147127600Y-102415100D03*
X142127600Y-102415100D03*
D20*
X141744700Y-125171200D03*
X144284700Y-125171200D03*
X146824700Y-125171200D03*
X149364700Y-125171200D03*
M02*
