G04 #@! TF.GenerationSoftware,KiCad,Pcbnew,5.1.7*
G04 #@! TF.CreationDate,2020-11-02T00:43:52-05:00*
G04 #@! TF.ProjectId,pcb,7063622e-6b69-4636-9164-5f7063625858,rev?*
G04 #@! TF.SameCoordinates,Original*
G04 #@! TF.FileFunction,Legend,Bot*
G04 #@! TF.FilePolarity,Positive*
%FSLAX46Y46*%
G04 Gerber Fmt 4.6, Leading zero omitted, Abs format (unit mm)*
G04 Created by KiCad (PCBNEW 5.1.7) date 2020-11-02 00:43:52*
%MOMM*%
%LPD*%
G01*
G04 APERTURE LIST*
%ADD10C,0.150000*%
%ADD11C,0.120000*%
%ADD12C,0.125000*%
%ADD13C,4.300000*%
%ADD14R,2.000000X2.000000*%
%ADD15C,2.000000*%
%ADD16R,2.000000X3.200000*%
%ADD17C,3.987800*%
%ADD18C,3.048000*%
%ADD19C,1.750000*%
%ADD20C,2.250000*%
%ADD21C,1.397000*%
%ADD22O,1.400000X1.400000*%
%ADD23C,1.400000*%
G04 APERTURE END LIST*
D10*
X172143283Y-118736157D02*
X171158475Y-118909805D01*
X170984827Y-117924997D02*
X171633514Y-118724500D01*
X171969635Y-117751349D02*
X170984827Y-117924997D01*
X171633514Y-118724500D02*
X171969635Y-117751349D01*
X118515580Y-118689228D02*
X117530772Y-118515580D01*
X117704420Y-117530772D02*
X118040541Y-118503923D01*
X118689228Y-117704420D02*
X117704420Y-117530772D01*
X118040541Y-118503923D02*
X118689228Y-117704420D01*
X259372709Y-86410647D02*
X258387901Y-86584295D01*
X258214253Y-85599487D02*
X258862940Y-86398990D01*
X259199061Y-85425839D02*
X258214253Y-85599487D01*
X258862940Y-86398990D02*
X259199061Y-85425839D01*
X240576709Y-89712647D02*
X239591901Y-89886295D01*
X239418253Y-88901487D02*
X240066940Y-89700990D01*
X240403061Y-88727839D02*
X239418253Y-88901487D01*
X240066940Y-89700990D02*
X240403061Y-88727839D01*
X221907709Y-93141647D02*
X220922901Y-93315295D01*
X220749253Y-92330487D02*
X221397940Y-93129990D01*
X221734061Y-92156839D02*
X220749253Y-92330487D01*
X221397940Y-93129990D02*
X221734061Y-92156839D01*
X202984709Y-96316647D02*
X201999901Y-96490295D01*
X201826253Y-95505487D02*
X202474940Y-96304990D01*
X202811061Y-95331839D02*
X201826253Y-95505487D01*
X202474940Y-96304990D02*
X202811061Y-95331839D01*
X184315709Y-99745647D02*
X183330901Y-99919295D01*
X183157253Y-98934487D02*
X183805940Y-99733990D01*
X184142061Y-98760839D02*
X183157253Y-98934487D01*
X183805940Y-99733990D02*
X184142061Y-98760839D01*
X122294599Y-102522795D02*
X121309791Y-102349147D01*
X121483439Y-101364339D02*
X121819560Y-102337490D01*
X122468247Y-101537987D02*
X121483439Y-101364339D01*
X121819560Y-102337490D02*
X122468247Y-101537987D01*
X103560561Y-99168661D02*
X102575753Y-98995013D01*
X102749401Y-98010205D02*
X103085522Y-98983356D01*
X103734209Y-98183853D02*
X102749401Y-98010205D01*
X103085522Y-98983356D02*
X103734209Y-98183853D01*
X84891561Y-95866661D02*
X83906753Y-95693013D01*
X84080401Y-94708205D02*
X84416522Y-95681356D01*
X85065209Y-94881853D02*
X84080401Y-94708205D01*
X84416522Y-95681356D02*
X85065209Y-94881853D01*
X66222561Y-92564661D02*
X65237753Y-92391013D01*
X65411401Y-91406205D02*
X65747522Y-92379356D01*
X66396209Y-91579853D02*
X65411401Y-91406205D01*
X65747522Y-92379356D02*
X66396209Y-91579853D01*
X47299561Y-89262661D02*
X46314753Y-89089013D01*
X46488401Y-88104205D02*
X46824522Y-89077356D01*
X47473209Y-88277853D02*
X46488401Y-88104205D01*
X46824522Y-89077356D02*
X47473209Y-88277853D01*
X256197709Y-67614647D02*
X255212901Y-67788295D01*
X255039253Y-66803487D02*
X255687940Y-67602990D01*
X256024061Y-66629839D02*
X255039253Y-66803487D01*
X255687940Y-67602990D02*
X256024061Y-66629839D01*
X237274709Y-71043647D02*
X236289901Y-71217295D01*
X236116253Y-70232487D02*
X236764940Y-71031990D01*
X237101061Y-70058839D02*
X236116253Y-70232487D01*
X236764940Y-71031990D02*
X237101061Y-70058839D01*
X218478709Y-74345647D02*
X217493901Y-74519295D01*
X217320253Y-73534487D02*
X217968940Y-74333990D01*
X218305061Y-73360839D02*
X217320253Y-73534487D01*
X217968940Y-74333990D02*
X218305061Y-73360839D01*
X199809709Y-77647647D02*
X198824901Y-77821295D01*
X198651253Y-76836487D02*
X199299940Y-77635990D01*
X199636061Y-76662839D02*
X198651253Y-76836487D01*
X199299940Y-77635990D02*
X199636061Y-76662839D01*
X181013709Y-81076647D02*
X180028901Y-81250295D01*
X179855253Y-80265487D02*
X180503940Y-81064990D01*
X180840061Y-80091839D02*
X179855253Y-80265487D01*
X180503940Y-81064990D02*
X180840061Y-80091839D01*
X125658561Y-83674661D02*
X124673753Y-83501013D01*
X124847401Y-82516205D02*
X125183522Y-83489356D01*
X125832209Y-82689853D02*
X124847401Y-82516205D01*
X125183522Y-83489356D02*
X125832209Y-82689853D01*
X106989561Y-80372661D02*
X106004753Y-80199013D01*
X106178401Y-79214205D02*
X106514522Y-80187356D01*
X107163209Y-79387853D02*
X106178401Y-79214205D01*
X106514522Y-80187356D02*
X107163209Y-79387853D01*
X88226080Y-76969728D02*
X87241272Y-76796080D01*
X87414920Y-75811272D02*
X87751041Y-76784423D01*
X88399728Y-75984920D02*
X87414920Y-75811272D01*
X87751041Y-76784423D02*
X88399728Y-75984920D01*
X69397561Y-73768661D02*
X68412753Y-73595013D01*
X68586401Y-72610205D02*
X68922522Y-73583356D01*
X69571209Y-72783853D02*
X68586401Y-72610205D01*
X68922522Y-73583356D02*
X69571209Y-72783853D01*
X50728561Y-70466661D02*
X49743753Y-70293013D01*
X49917401Y-69308205D02*
X50253522Y-70281356D01*
X50902209Y-69481853D02*
X49917401Y-69308205D01*
X50253522Y-70281356D02*
X50902209Y-69481853D01*
X252641709Y-49199647D02*
X251656901Y-49373295D01*
X251483253Y-48388487D02*
X252131940Y-49187990D01*
X252468061Y-48214839D02*
X251483253Y-48388487D01*
X252131940Y-49187990D02*
X252468061Y-48214839D01*
X233972709Y-52247647D02*
X232987901Y-52421295D01*
X232814253Y-51436487D02*
X233462940Y-52235990D01*
X233799061Y-51262839D02*
X232814253Y-51436487D01*
X233462940Y-52235990D02*
X233799061Y-51262839D01*
X215176709Y-55549647D02*
X214191901Y-55723295D01*
X214018253Y-54738487D02*
X214666940Y-55537990D01*
X215003061Y-54564839D02*
X214018253Y-54738487D01*
X214666940Y-55537990D02*
X215003061Y-54564839D01*
X196380709Y-58978647D02*
X195395901Y-59152295D01*
X195222253Y-58167487D02*
X195870940Y-58966990D01*
X196207061Y-57993839D02*
X195222253Y-58167487D01*
X195870940Y-58966990D02*
X196207061Y-57993839D01*
X177617228Y-62127580D02*
X176632420Y-62301228D01*
X176458772Y-61316420D02*
X177107459Y-62115923D01*
X177443580Y-61142772D02*
X176458772Y-61316420D01*
X177107459Y-62115923D02*
X177443580Y-61142772D01*
X129025599Y-64930795D02*
X128040791Y-64757147D01*
X128214439Y-63772339D02*
X128550560Y-64745490D01*
X129199247Y-63945987D02*
X128214439Y-63772339D01*
X128550560Y-64745490D02*
X129199247Y-63945987D01*
X110229599Y-61628795D02*
X109244791Y-61455147D01*
X109418439Y-60470339D02*
X109754560Y-61443490D01*
X110403247Y-60643987D02*
X109418439Y-60470339D01*
X109754560Y-61443490D02*
X110403247Y-60643987D01*
X91622561Y-58274661D02*
X90637753Y-58101013D01*
X90811401Y-57116205D02*
X91147522Y-58089356D01*
X91796209Y-57289853D02*
X90811401Y-57116205D01*
X91147522Y-58089356D02*
X91796209Y-57289853D01*
X72891599Y-54897795D02*
X71906791Y-54724147D01*
X72080439Y-53739339D02*
X72416560Y-54712490D01*
X73065247Y-53912987D02*
X72080439Y-53739339D01*
X72416560Y-54712490D02*
X73065247Y-53912987D01*
X54095599Y-51595795D02*
X53110791Y-51422147D01*
X53284439Y-50437339D02*
X53620560Y-51410490D01*
X54269247Y-50610987D02*
X53284439Y-50437339D01*
X53620560Y-51410490D02*
X54269247Y-50610987D01*
X144850000Y-51100000D02*
X144550000Y-51100000D01*
X144950000Y-50950000D02*
X144450000Y-50950000D01*
X145050000Y-50800000D02*
X144350000Y-50800000D01*
X144700000Y-51300000D02*
X145200000Y-50650000D01*
X144200000Y-50650000D02*
X144700000Y-51300000D01*
X145200000Y-50650000D02*
X144200000Y-50650000D01*
X140950000Y-50300000D02*
X148450000Y-50300000D01*
X140950000Y-51600000D02*
X140950000Y-50300000D01*
X148450000Y-51600000D02*
X140950000Y-51600000D01*
X148450000Y-50300000D02*
X148450000Y-51600000D01*
X153600000Y-53200000D02*
X153600000Y-54200000D01*
X135800000Y-53200000D02*
X135800000Y-54200000D01*
X153600000Y-53200000D02*
X152600000Y-53200000D01*
X135800000Y-53200000D02*
X136750000Y-53200000D01*
X153600000Y-85200000D02*
X153600000Y-86250000D01*
X135800000Y-85250000D02*
X135800000Y-86250000D01*
X153600000Y-86250000D02*
X152600000Y-86250000D01*
X135800000Y-86250000D02*
X136810000Y-86250000D01*
X158850000Y-126950000D02*
X158850000Y-126700000D01*
X152850000Y-126950000D02*
X158850000Y-126950000D01*
X152850000Y-126950000D02*
X152850000Y-126700000D01*
X152850000Y-123450000D02*
X152850000Y-123700000D01*
X158850000Y-123450000D02*
X158850000Y-123700000D01*
X152850000Y-123450000D02*
X158850000Y-123450000D01*
D11*
X133749359Y-124320095D02*
G75*
G03*
X132300000Y-124417133I-749359J320095D01*
G01*
X129749359Y-124320095D02*
G75*
G03*
X128300000Y-124417133I-749359J320095D01*
G01*
X147196428Y-52889285D02*
X147196428Y-52139285D01*
X146946428Y-52675000D01*
X146696428Y-52139285D01*
X146696428Y-52889285D01*
X146339285Y-52889285D02*
X146339285Y-52389285D01*
X146339285Y-52139285D02*
X146375000Y-52175000D01*
X146339285Y-52210714D01*
X146303571Y-52175000D01*
X146339285Y-52139285D01*
X146339285Y-52210714D01*
X145660714Y-52853571D02*
X145732142Y-52889285D01*
X145875000Y-52889285D01*
X145946428Y-52853571D01*
X145982142Y-52817857D01*
X146017857Y-52746428D01*
X146017857Y-52532142D01*
X145982142Y-52460714D01*
X145946428Y-52425000D01*
X145875000Y-52389285D01*
X145732142Y-52389285D01*
X145660714Y-52425000D01*
X145339285Y-52889285D02*
X145339285Y-52389285D01*
X145339285Y-52532142D02*
X145303571Y-52460714D01*
X145267857Y-52425000D01*
X145196428Y-52389285D01*
X145125000Y-52389285D01*
X144767857Y-52889285D02*
X144839285Y-52853571D01*
X144875000Y-52817857D01*
X144910714Y-52746428D01*
X144910714Y-52532142D01*
X144875000Y-52460714D01*
X144839285Y-52425000D01*
X144767857Y-52389285D01*
X144660714Y-52389285D01*
X144589285Y-52425000D01*
X144553571Y-52460714D01*
X144517857Y-52532142D01*
X144517857Y-52746428D01*
X144553571Y-52817857D01*
X144589285Y-52853571D01*
X144660714Y-52889285D01*
X144767857Y-52889285D01*
X144196428Y-52139285D02*
X144196428Y-52746428D01*
X144160714Y-52817857D01*
X144125000Y-52853571D01*
X144053571Y-52889285D01*
X143910714Y-52889285D01*
X143839285Y-52853571D01*
X143803571Y-52817857D01*
X143767857Y-52746428D01*
X143767857Y-52139285D01*
X143446428Y-52853571D02*
X143339285Y-52889285D01*
X143160714Y-52889285D01*
X143089285Y-52853571D01*
X143053571Y-52817857D01*
X143017857Y-52746428D01*
X143017857Y-52675000D01*
X143053571Y-52603571D01*
X143089285Y-52567857D01*
X143160714Y-52532142D01*
X143303571Y-52496428D01*
X143375000Y-52460714D01*
X143410714Y-52425000D01*
X143446428Y-52353571D01*
X143446428Y-52282142D01*
X143410714Y-52210714D01*
X143375000Y-52175000D01*
X143303571Y-52139285D01*
X143125000Y-52139285D01*
X143017857Y-52175000D01*
X142446428Y-52496428D02*
X142339285Y-52532142D01*
X142303571Y-52567857D01*
X142267857Y-52639285D01*
X142267857Y-52746428D01*
X142303571Y-52817857D01*
X142339285Y-52853571D01*
X142410714Y-52889285D01*
X142696428Y-52889285D01*
X142696428Y-52139285D01*
X142446428Y-52139285D01*
X142375000Y-52175000D01*
X142339285Y-52210714D01*
X142303571Y-52282142D01*
X142303571Y-52353571D01*
X142339285Y-52425000D01*
X142375000Y-52460714D01*
X142446428Y-52496428D01*
X142696428Y-52496428D01*
D12*
X133153809Y-82453571D02*
X133249523Y-82417857D01*
X133281428Y-82382142D01*
X133313333Y-82310714D01*
X133313333Y-82203571D01*
X133281428Y-82132142D01*
X133249523Y-82096428D01*
X133185714Y-82060714D01*
X132930476Y-82060714D01*
X132930476Y-82810714D01*
X133153809Y-82810714D01*
X133217619Y-82775000D01*
X133249523Y-82739285D01*
X133281428Y-82667857D01*
X133281428Y-82596428D01*
X133249523Y-82525000D01*
X133217619Y-82489285D01*
X133153809Y-82453571D01*
X132930476Y-82453571D01*
X133887619Y-82560714D02*
X133887619Y-82060714D01*
X133728095Y-82846428D02*
X133568571Y-82310714D01*
X133983333Y-82310714D01*
X134717142Y-82846428D02*
X134142857Y-81882142D01*
X135036190Y-82489285D02*
X134972380Y-82525000D01*
X134940476Y-82560714D01*
X134908571Y-82632142D01*
X134908571Y-82667857D01*
X134940476Y-82739285D01*
X134972380Y-82775000D01*
X135036190Y-82810714D01*
X135163809Y-82810714D01*
X135227619Y-82775000D01*
X135259523Y-82739285D01*
X135291428Y-82667857D01*
X135291428Y-82632142D01*
X135259523Y-82560714D01*
X135227619Y-82525000D01*
X135163809Y-82489285D01*
X135036190Y-82489285D01*
X134972380Y-82453571D01*
X134940476Y-82417857D01*
X134908571Y-82346428D01*
X134908571Y-82203571D01*
X134940476Y-82132142D01*
X134972380Y-82096428D01*
X135036190Y-82060714D01*
X135163809Y-82060714D01*
X135227619Y-82096428D01*
X135259523Y-82132142D01*
X135291428Y-82203571D01*
X135291428Y-82346428D01*
X135259523Y-82417857D01*
X135227619Y-82453571D01*
X135163809Y-82489285D01*
X131826428Y-59260714D02*
X131826428Y-60010714D01*
X131985952Y-60010714D01*
X132081666Y-59975000D01*
X132145476Y-59903571D01*
X132177380Y-59832142D01*
X132209285Y-59689285D01*
X132209285Y-59582142D01*
X132177380Y-59439285D01*
X132145476Y-59367857D01*
X132081666Y-59296428D01*
X131985952Y-59260714D01*
X131826428Y-59260714D01*
X132464523Y-59939285D02*
X132496428Y-59975000D01*
X132560238Y-60010714D01*
X132719761Y-60010714D01*
X132783571Y-59975000D01*
X132815476Y-59939285D01*
X132847380Y-59867857D01*
X132847380Y-59796428D01*
X132815476Y-59689285D01*
X132432619Y-59260714D01*
X132847380Y-59260714D01*
X133613095Y-60046428D02*
X133038809Y-59082142D01*
X134219285Y-59260714D02*
X133995952Y-59617857D01*
X133836428Y-59260714D02*
X133836428Y-60010714D01*
X134091666Y-60010714D01*
X134155476Y-59975000D01*
X134187380Y-59939285D01*
X134219285Y-59867857D01*
X134219285Y-59760714D01*
X134187380Y-59689285D01*
X134155476Y-59653571D01*
X134091666Y-59617857D01*
X133836428Y-59617857D01*
X134442619Y-60010714D02*
X134889285Y-59260714D01*
X134889285Y-60010714D02*
X134442619Y-59260714D01*
X135495476Y-59260714D02*
X135112619Y-59260714D01*
X135304047Y-59260714D02*
X135304047Y-60010714D01*
X135240238Y-59903571D01*
X135176428Y-59832142D01*
X135112619Y-59796428D01*
X133153809Y-84953571D02*
X133249523Y-84917857D01*
X133281428Y-84882142D01*
X133313333Y-84810714D01*
X133313333Y-84703571D01*
X133281428Y-84632142D01*
X133249523Y-84596428D01*
X133185714Y-84560714D01*
X132930476Y-84560714D01*
X132930476Y-85310714D01*
X133153809Y-85310714D01*
X133217619Y-85275000D01*
X133249523Y-85239285D01*
X133281428Y-85167857D01*
X133281428Y-85096428D01*
X133249523Y-85025000D01*
X133217619Y-84989285D01*
X133153809Y-84953571D01*
X132930476Y-84953571D01*
X133919523Y-85310714D02*
X133600476Y-85310714D01*
X133568571Y-84953571D01*
X133600476Y-84989285D01*
X133664285Y-85025000D01*
X133823809Y-85025000D01*
X133887619Y-84989285D01*
X133919523Y-84953571D01*
X133951428Y-84882142D01*
X133951428Y-84703571D01*
X133919523Y-84632142D01*
X133887619Y-84596428D01*
X133823809Y-84560714D01*
X133664285Y-84560714D01*
X133600476Y-84596428D01*
X133568571Y-84632142D01*
X134717142Y-85346428D02*
X134142857Y-84382142D01*
X134972380Y-84560714D02*
X135100000Y-84560714D01*
X135163809Y-84596428D01*
X135195714Y-84632142D01*
X135259523Y-84739285D01*
X135291428Y-84882142D01*
X135291428Y-85167857D01*
X135259523Y-85239285D01*
X135227619Y-85275000D01*
X135163809Y-85310714D01*
X135036190Y-85310714D01*
X134972380Y-85275000D01*
X134940476Y-85239285D01*
X134908571Y-85167857D01*
X134908571Y-84989285D01*
X134940476Y-84917857D01*
X134972380Y-84882142D01*
X135036190Y-84846428D01*
X135163809Y-84846428D01*
X135227619Y-84882142D01*
X135259523Y-84917857D01*
X135291428Y-84989285D01*
X133313333Y-74482142D02*
X133281428Y-74446428D01*
X133185714Y-74410714D01*
X133121904Y-74410714D01*
X133026190Y-74446428D01*
X132962380Y-74517857D01*
X132930476Y-74589285D01*
X132898571Y-74732142D01*
X132898571Y-74839285D01*
X132930476Y-74982142D01*
X132962380Y-75053571D01*
X133026190Y-75125000D01*
X133121904Y-75160714D01*
X133185714Y-75160714D01*
X133281428Y-75125000D01*
X133313333Y-75089285D01*
X133887619Y-75160714D02*
X133760000Y-75160714D01*
X133696190Y-75125000D01*
X133664285Y-75089285D01*
X133600476Y-74982142D01*
X133568571Y-74839285D01*
X133568571Y-74553571D01*
X133600476Y-74482142D01*
X133632380Y-74446428D01*
X133696190Y-74410714D01*
X133823809Y-74410714D01*
X133887619Y-74446428D01*
X133919523Y-74482142D01*
X133951428Y-74553571D01*
X133951428Y-74732142D01*
X133919523Y-74803571D01*
X133887619Y-74839285D01*
X133823809Y-74875000D01*
X133696190Y-74875000D01*
X133632380Y-74839285D01*
X133600476Y-74803571D01*
X133568571Y-74732142D01*
X134717142Y-75196428D02*
X134142857Y-74232142D01*
X135259523Y-75160714D02*
X134940476Y-75160714D01*
X134908571Y-74803571D01*
X134940476Y-74839285D01*
X135004285Y-74875000D01*
X135163809Y-74875000D01*
X135227619Y-74839285D01*
X135259523Y-74803571D01*
X135291428Y-74732142D01*
X135291428Y-74553571D01*
X135259523Y-74482142D01*
X135227619Y-74446428D01*
X135163809Y-74410714D01*
X135004285Y-74410714D01*
X134940476Y-74446428D01*
X134908571Y-74482142D01*
X130472380Y-69496428D02*
X130568095Y-69460714D01*
X130727619Y-69460714D01*
X130791428Y-69496428D01*
X130823333Y-69532142D01*
X130855238Y-69603571D01*
X130855238Y-69675000D01*
X130823333Y-69746428D01*
X130791428Y-69782142D01*
X130727619Y-69817857D01*
X130600000Y-69853571D01*
X130536190Y-69889285D01*
X130504285Y-69925000D01*
X130472380Y-69996428D01*
X130472380Y-70067857D01*
X130504285Y-70139285D01*
X130536190Y-70175000D01*
X130600000Y-70210714D01*
X130759523Y-70210714D01*
X130855238Y-70175000D01*
X131525238Y-69532142D02*
X131493333Y-69496428D01*
X131397619Y-69460714D01*
X131333809Y-69460714D01*
X131238095Y-69496428D01*
X131174285Y-69567857D01*
X131142380Y-69639285D01*
X131110476Y-69782142D01*
X131110476Y-69889285D01*
X131142380Y-70032142D01*
X131174285Y-70103571D01*
X131238095Y-70175000D01*
X131333809Y-70210714D01*
X131397619Y-70210714D01*
X131493333Y-70175000D01*
X131525238Y-70139285D01*
X132131428Y-69460714D02*
X131812380Y-69460714D01*
X131812380Y-70210714D01*
X132833333Y-70246428D02*
X132259047Y-69282142D01*
X133056666Y-69460714D02*
X133056666Y-70210714D01*
X133216190Y-70210714D01*
X133311904Y-70175000D01*
X133375714Y-70103571D01*
X133407619Y-70032142D01*
X133439523Y-69889285D01*
X133439523Y-69782142D01*
X133407619Y-69639285D01*
X133375714Y-69567857D01*
X133311904Y-69496428D01*
X133216190Y-69460714D01*
X133056666Y-69460714D01*
X133854285Y-70210714D02*
X133918095Y-70210714D01*
X133981904Y-70175000D01*
X134013809Y-70139285D01*
X134045714Y-70067857D01*
X134077619Y-69925000D01*
X134077619Y-69746428D01*
X134045714Y-69603571D01*
X134013809Y-69532142D01*
X133981904Y-69496428D01*
X133918095Y-69460714D01*
X133854285Y-69460714D01*
X133790476Y-69496428D01*
X133758571Y-69532142D01*
X133726666Y-69603571D01*
X133694761Y-69746428D01*
X133694761Y-69925000D01*
X133726666Y-70067857D01*
X133758571Y-70139285D01*
X133790476Y-70175000D01*
X133854285Y-70210714D01*
X134843333Y-70246428D02*
X134269047Y-69282142D01*
X135002857Y-70210714D02*
X135417619Y-70210714D01*
X135194285Y-69925000D01*
X135290000Y-69925000D01*
X135353809Y-69889285D01*
X135385714Y-69853571D01*
X135417619Y-69782142D01*
X135417619Y-69603571D01*
X135385714Y-69532142D01*
X135353809Y-69496428D01*
X135290000Y-69460714D01*
X135098571Y-69460714D01*
X135034761Y-69496428D01*
X135002857Y-69532142D01*
X130456428Y-66996428D02*
X130552142Y-66960714D01*
X130711666Y-66960714D01*
X130775476Y-66996428D01*
X130807380Y-67032142D01*
X130839285Y-67103571D01*
X130839285Y-67175000D01*
X130807380Y-67246428D01*
X130775476Y-67282142D01*
X130711666Y-67317857D01*
X130584047Y-67353571D01*
X130520238Y-67389285D01*
X130488333Y-67425000D01*
X130456428Y-67496428D01*
X130456428Y-67567857D01*
X130488333Y-67639285D01*
X130520238Y-67675000D01*
X130584047Y-67710714D01*
X130743571Y-67710714D01*
X130839285Y-67675000D01*
X131126428Y-66960714D02*
X131126428Y-67710714D01*
X131285952Y-67710714D01*
X131381666Y-67675000D01*
X131445476Y-67603571D01*
X131477380Y-67532142D01*
X131509285Y-67389285D01*
X131509285Y-67282142D01*
X131477380Y-67139285D01*
X131445476Y-67067857D01*
X131381666Y-66996428D01*
X131285952Y-66960714D01*
X131126428Y-66960714D01*
X131764523Y-67175000D02*
X132083571Y-67175000D01*
X131700714Y-66960714D02*
X131924047Y-67710714D01*
X132147380Y-66960714D01*
X132849285Y-67746428D02*
X132275000Y-66782142D01*
X133072619Y-66960714D02*
X133072619Y-67710714D01*
X133232142Y-67710714D01*
X133327857Y-67675000D01*
X133391666Y-67603571D01*
X133423571Y-67532142D01*
X133455476Y-67389285D01*
X133455476Y-67282142D01*
X133423571Y-67139285D01*
X133391666Y-67067857D01*
X133327857Y-66996428D01*
X133232142Y-66960714D01*
X133072619Y-66960714D01*
X134093571Y-66960714D02*
X133710714Y-66960714D01*
X133902142Y-66960714D02*
X133902142Y-67710714D01*
X133838333Y-67603571D01*
X133774523Y-67532142D01*
X133710714Y-67496428D01*
X134859285Y-67746428D02*
X134285000Y-66782142D01*
X135050714Y-67639285D02*
X135082619Y-67675000D01*
X135146428Y-67710714D01*
X135305952Y-67710714D01*
X135369761Y-67675000D01*
X135401666Y-67639285D01*
X135433571Y-67567857D01*
X135433571Y-67496428D01*
X135401666Y-67389285D01*
X135018809Y-66960714D01*
X135433571Y-66960714D01*
X132930476Y-71860714D02*
X132930476Y-72610714D01*
X133090000Y-72610714D01*
X133185714Y-72575000D01*
X133249523Y-72503571D01*
X133281428Y-72432142D01*
X133313333Y-72289285D01*
X133313333Y-72182142D01*
X133281428Y-72039285D01*
X133249523Y-71967857D01*
X133185714Y-71896428D01*
X133090000Y-71860714D01*
X132930476Y-71860714D01*
X133887619Y-72360714D02*
X133887619Y-71860714D01*
X133728095Y-72646428D02*
X133568571Y-72110714D01*
X133983333Y-72110714D01*
X134717142Y-72646428D02*
X134142857Y-71682142D01*
X135227619Y-72360714D02*
X135227619Y-71860714D01*
X135068095Y-72646428D02*
X134908571Y-72110714D01*
X135323333Y-72110714D01*
X131906190Y-56710714D02*
X131906190Y-57460714D01*
X132065714Y-57460714D01*
X132161428Y-57425000D01*
X132225238Y-57353571D01*
X132257142Y-57282142D01*
X132289047Y-57139285D01*
X132289047Y-57032142D01*
X132257142Y-56889285D01*
X132225238Y-56817857D01*
X132161428Y-56746428D01*
X132065714Y-56710714D01*
X131906190Y-56710714D01*
X132512380Y-57460714D02*
X132927142Y-57460714D01*
X132703809Y-57175000D01*
X132799523Y-57175000D01*
X132863333Y-57139285D01*
X132895238Y-57103571D01*
X132927142Y-57032142D01*
X132927142Y-56853571D01*
X132895238Y-56782142D01*
X132863333Y-56746428D01*
X132799523Y-56710714D01*
X132608095Y-56710714D01*
X132544285Y-56746428D01*
X132512380Y-56782142D01*
X133692857Y-57496428D02*
X133118571Y-56532142D01*
X133820476Y-57460714D02*
X134203333Y-57460714D01*
X134011904Y-56710714D02*
X134011904Y-57460714D01*
X134362857Y-57460714D02*
X134809523Y-56710714D01*
X134809523Y-57460714D02*
X134362857Y-56710714D01*
X135192380Y-57460714D02*
X135256190Y-57460714D01*
X135320000Y-57425000D01*
X135351904Y-57389285D01*
X135383809Y-57317857D01*
X135415714Y-57175000D01*
X135415714Y-56996428D01*
X135383809Y-56853571D01*
X135351904Y-56782142D01*
X135320000Y-56746428D01*
X135256190Y-56710714D01*
X135192380Y-56710714D01*
X135128571Y-56746428D01*
X135096666Y-56782142D01*
X135064761Y-56853571D01*
X135032857Y-56996428D01*
X135032857Y-57175000D01*
X135064761Y-57317857D01*
X135096666Y-57389285D01*
X135128571Y-57425000D01*
X135192380Y-57460714D01*
X134084523Y-65025000D02*
X134020714Y-65060714D01*
X133925000Y-65060714D01*
X133829285Y-65025000D01*
X133765476Y-64953571D01*
X133733571Y-64882142D01*
X133701666Y-64739285D01*
X133701666Y-64632142D01*
X133733571Y-64489285D01*
X133765476Y-64417857D01*
X133829285Y-64346428D01*
X133925000Y-64310714D01*
X133988809Y-64310714D01*
X134084523Y-64346428D01*
X134116428Y-64382142D01*
X134116428Y-64632142D01*
X133988809Y-64632142D01*
X134403571Y-64310714D02*
X134403571Y-65060714D01*
X134786428Y-64310714D01*
X134786428Y-65060714D01*
X135105476Y-64310714D02*
X135105476Y-65060714D01*
X135265000Y-65060714D01*
X135360714Y-65025000D01*
X135424523Y-64953571D01*
X135456428Y-64882142D01*
X135488333Y-64739285D01*
X135488333Y-64632142D01*
X135456428Y-64489285D01*
X135424523Y-64417857D01*
X135360714Y-64346428D01*
X135265000Y-64310714D01*
X135105476Y-64310714D01*
X134084523Y-62575000D02*
X134020714Y-62610714D01*
X133925000Y-62610714D01*
X133829285Y-62575000D01*
X133765476Y-62503571D01*
X133733571Y-62432142D01*
X133701666Y-62289285D01*
X133701666Y-62182142D01*
X133733571Y-62039285D01*
X133765476Y-61967857D01*
X133829285Y-61896428D01*
X133925000Y-61860714D01*
X133988809Y-61860714D01*
X134084523Y-61896428D01*
X134116428Y-61932142D01*
X134116428Y-62182142D01*
X133988809Y-62182142D01*
X134403571Y-61860714D02*
X134403571Y-62610714D01*
X134786428Y-61860714D01*
X134786428Y-62610714D01*
X135105476Y-61860714D02*
X135105476Y-62610714D01*
X135265000Y-62610714D01*
X135360714Y-62575000D01*
X135424523Y-62503571D01*
X135456428Y-62432142D01*
X135488333Y-62289285D01*
X135488333Y-62182142D01*
X135456428Y-62039285D01*
X135424523Y-61967857D01*
X135360714Y-61896428D01*
X135265000Y-61860714D01*
X135105476Y-61860714D01*
X132930476Y-76960714D02*
X132930476Y-77710714D01*
X133090000Y-77710714D01*
X133185714Y-77675000D01*
X133249523Y-77603571D01*
X133281428Y-77532142D01*
X133313333Y-77389285D01*
X133313333Y-77282142D01*
X133281428Y-77139285D01*
X133249523Y-77067857D01*
X133185714Y-76996428D01*
X133090000Y-76960714D01*
X132930476Y-76960714D01*
X133536666Y-77710714D02*
X133983333Y-77710714D01*
X133696190Y-76960714D01*
X134717142Y-77746428D02*
X134142857Y-76782142D01*
X135227619Y-77710714D02*
X135100000Y-77710714D01*
X135036190Y-77675000D01*
X135004285Y-77639285D01*
X134940476Y-77532142D01*
X134908571Y-77389285D01*
X134908571Y-77103571D01*
X134940476Y-77032142D01*
X134972380Y-76996428D01*
X135036190Y-76960714D01*
X135163809Y-76960714D01*
X135227619Y-76996428D01*
X135259523Y-77032142D01*
X135291428Y-77103571D01*
X135291428Y-77282142D01*
X135259523Y-77353571D01*
X135227619Y-77389285D01*
X135163809Y-77425000D01*
X135036190Y-77425000D01*
X134972380Y-77389285D01*
X134940476Y-77353571D01*
X134908571Y-77282142D01*
X132962380Y-79903571D02*
X133185714Y-79903571D01*
X133281428Y-79510714D02*
X132962380Y-79510714D01*
X132962380Y-80260714D01*
X133281428Y-80260714D01*
X133855714Y-80260714D02*
X133728095Y-80260714D01*
X133664285Y-80225000D01*
X133632380Y-80189285D01*
X133568571Y-80082142D01*
X133536666Y-79939285D01*
X133536666Y-79653571D01*
X133568571Y-79582142D01*
X133600476Y-79546428D01*
X133664285Y-79510714D01*
X133791904Y-79510714D01*
X133855714Y-79546428D01*
X133887619Y-79582142D01*
X133919523Y-79653571D01*
X133919523Y-79832142D01*
X133887619Y-79903571D01*
X133855714Y-79939285D01*
X133791904Y-79975000D01*
X133664285Y-79975000D01*
X133600476Y-79939285D01*
X133568571Y-79903571D01*
X133536666Y-79832142D01*
X134685238Y-80296428D02*
X134110952Y-79332142D01*
X134844761Y-80260714D02*
X135291428Y-80260714D01*
X135004285Y-79510714D01*
X154412380Y-82110714D02*
X154029523Y-82110714D01*
X154220952Y-82110714D02*
X154220952Y-82860714D01*
X154157142Y-82753571D01*
X154093333Y-82682142D01*
X154029523Y-82646428D01*
X154986666Y-82860714D02*
X154859047Y-82860714D01*
X154795238Y-82825000D01*
X154763333Y-82789285D01*
X154699523Y-82682142D01*
X154667619Y-82539285D01*
X154667619Y-82253571D01*
X154699523Y-82182142D01*
X154731428Y-82146428D01*
X154795238Y-82110714D01*
X154922857Y-82110714D01*
X154986666Y-82146428D01*
X155018571Y-82182142D01*
X155050476Y-82253571D01*
X155050476Y-82432142D01*
X155018571Y-82503571D01*
X154986666Y-82539285D01*
X154922857Y-82575000D01*
X154795238Y-82575000D01*
X154731428Y-82539285D01*
X154699523Y-82503571D01*
X154667619Y-82432142D01*
X155816190Y-82896428D02*
X155241904Y-81932142D01*
X156262857Y-82503571D02*
X156358571Y-82467857D01*
X156390476Y-82432142D01*
X156422380Y-82360714D01*
X156422380Y-82253571D01*
X156390476Y-82182142D01*
X156358571Y-82146428D01*
X156294761Y-82110714D01*
X156039523Y-82110714D01*
X156039523Y-82860714D01*
X156262857Y-82860714D01*
X156326666Y-82825000D01*
X156358571Y-82789285D01*
X156390476Y-82717857D01*
X156390476Y-82646428D01*
X156358571Y-82575000D01*
X156326666Y-82539285D01*
X156262857Y-82503571D01*
X156039523Y-82503571D01*
X156677619Y-82789285D02*
X156709523Y-82825000D01*
X156773333Y-82860714D01*
X156932857Y-82860714D01*
X156996666Y-82825000D01*
X157028571Y-82789285D01*
X157060476Y-82717857D01*
X157060476Y-82646428D01*
X157028571Y-82539285D01*
X156645714Y-82110714D01*
X157060476Y-82110714D01*
X154412380Y-84610714D02*
X154029523Y-84610714D01*
X154220952Y-84610714D02*
X154220952Y-85360714D01*
X154157142Y-85253571D01*
X154093333Y-85182142D01*
X154029523Y-85146428D01*
X154827142Y-85360714D02*
X154890952Y-85360714D01*
X154954761Y-85325000D01*
X154986666Y-85289285D01*
X155018571Y-85217857D01*
X155050476Y-85075000D01*
X155050476Y-84896428D01*
X155018571Y-84753571D01*
X154986666Y-84682142D01*
X154954761Y-84646428D01*
X154890952Y-84610714D01*
X154827142Y-84610714D01*
X154763333Y-84646428D01*
X154731428Y-84682142D01*
X154699523Y-84753571D01*
X154667619Y-84896428D01*
X154667619Y-85075000D01*
X154699523Y-85217857D01*
X154731428Y-85289285D01*
X154763333Y-85325000D01*
X154827142Y-85360714D01*
X155816190Y-85396428D02*
X155241904Y-84432142D01*
X156262857Y-85003571D02*
X156358571Y-84967857D01*
X156390476Y-84932142D01*
X156422380Y-84860714D01*
X156422380Y-84753571D01*
X156390476Y-84682142D01*
X156358571Y-84646428D01*
X156294761Y-84610714D01*
X156039523Y-84610714D01*
X156039523Y-85360714D01*
X156262857Y-85360714D01*
X156326666Y-85325000D01*
X156358571Y-85289285D01*
X156390476Y-85217857D01*
X156390476Y-85146428D01*
X156358571Y-85075000D01*
X156326666Y-85039285D01*
X156262857Y-85003571D01*
X156039523Y-85003571D01*
X156996666Y-85360714D02*
X156869047Y-85360714D01*
X156805238Y-85325000D01*
X156773333Y-85289285D01*
X156709523Y-85182142D01*
X156677619Y-85039285D01*
X156677619Y-84753571D01*
X156709523Y-84682142D01*
X156741428Y-84646428D01*
X156805238Y-84610714D01*
X156932857Y-84610714D01*
X156996666Y-84646428D01*
X157028571Y-84682142D01*
X157060476Y-84753571D01*
X157060476Y-84932142D01*
X157028571Y-85003571D01*
X156996666Y-85039285D01*
X156932857Y-85075000D01*
X156805238Y-85075000D01*
X156741428Y-85039285D01*
X156709523Y-85003571D01*
X156677619Y-84932142D01*
X154412380Y-79560714D02*
X154029523Y-79560714D01*
X154220952Y-79560714D02*
X154220952Y-80310714D01*
X154157142Y-80203571D01*
X154093333Y-80132142D01*
X154029523Y-80096428D01*
X154986666Y-80060714D02*
X154986666Y-79560714D01*
X154827142Y-80346428D02*
X154667619Y-79810714D01*
X155082380Y-79810714D01*
X155816190Y-80346428D02*
X155241904Y-79382142D01*
X156262857Y-79953571D02*
X156358571Y-79917857D01*
X156390476Y-79882142D01*
X156422380Y-79810714D01*
X156422380Y-79703571D01*
X156390476Y-79632142D01*
X156358571Y-79596428D01*
X156294761Y-79560714D01*
X156039523Y-79560714D01*
X156039523Y-80310714D01*
X156262857Y-80310714D01*
X156326666Y-80275000D01*
X156358571Y-80239285D01*
X156390476Y-80167857D01*
X156390476Y-80096428D01*
X156358571Y-80025000D01*
X156326666Y-79989285D01*
X156262857Y-79953571D01*
X156039523Y-79953571D01*
X156645714Y-80310714D02*
X157060476Y-80310714D01*
X156837142Y-80025000D01*
X156932857Y-80025000D01*
X156996666Y-79989285D01*
X157028571Y-79953571D01*
X157060476Y-79882142D01*
X157060476Y-79703571D01*
X157028571Y-79632142D01*
X156996666Y-79596428D01*
X156932857Y-79560714D01*
X156741428Y-79560714D01*
X156677619Y-79596428D01*
X156645714Y-79632142D01*
X154412380Y-77010714D02*
X154029523Y-77010714D01*
X154220952Y-77010714D02*
X154220952Y-77760714D01*
X154157142Y-77653571D01*
X154093333Y-77582142D01*
X154029523Y-77546428D01*
X155018571Y-77760714D02*
X154699523Y-77760714D01*
X154667619Y-77403571D01*
X154699523Y-77439285D01*
X154763333Y-77475000D01*
X154922857Y-77475000D01*
X154986666Y-77439285D01*
X155018571Y-77403571D01*
X155050476Y-77332142D01*
X155050476Y-77153571D01*
X155018571Y-77082142D01*
X154986666Y-77046428D01*
X154922857Y-77010714D01*
X154763333Y-77010714D01*
X154699523Y-77046428D01*
X154667619Y-77082142D01*
X155816190Y-77796428D02*
X155241904Y-76832142D01*
X156262857Y-77403571D02*
X156358571Y-77367857D01*
X156390476Y-77332142D01*
X156422380Y-77260714D01*
X156422380Y-77153571D01*
X156390476Y-77082142D01*
X156358571Y-77046428D01*
X156294761Y-77010714D01*
X156039523Y-77010714D01*
X156039523Y-77760714D01*
X156262857Y-77760714D01*
X156326666Y-77725000D01*
X156358571Y-77689285D01*
X156390476Y-77617857D01*
X156390476Y-77546428D01*
X156358571Y-77475000D01*
X156326666Y-77439285D01*
X156262857Y-77403571D01*
X156039523Y-77403571D01*
X157060476Y-77010714D02*
X156677619Y-77010714D01*
X156869047Y-77010714D02*
X156869047Y-77760714D01*
X156805238Y-77653571D01*
X156741428Y-77582142D01*
X156677619Y-77546428D01*
X154109285Y-74675000D02*
X154428333Y-74675000D01*
X154045476Y-74460714D02*
X154268809Y-75210714D01*
X154492142Y-74460714D01*
X154843095Y-75210714D02*
X154906904Y-75210714D01*
X154970714Y-75175000D01*
X155002619Y-75139285D01*
X155034523Y-75067857D01*
X155066428Y-74925000D01*
X155066428Y-74746428D01*
X155034523Y-74603571D01*
X155002619Y-74532142D01*
X154970714Y-74496428D01*
X154906904Y-74460714D01*
X154843095Y-74460714D01*
X154779285Y-74496428D01*
X154747380Y-74532142D01*
X154715476Y-74603571D01*
X154683571Y-74746428D01*
X154683571Y-74925000D01*
X154715476Y-75067857D01*
X154747380Y-75139285D01*
X154779285Y-75175000D01*
X154843095Y-75210714D01*
X155832142Y-75246428D02*
X155257857Y-74282142D01*
X156278809Y-74853571D02*
X156055476Y-74853571D01*
X156055476Y-74460714D02*
X156055476Y-75210714D01*
X156374523Y-75210714D01*
X156565952Y-75210714D02*
X157012619Y-75210714D01*
X156725476Y-74460714D01*
X154109285Y-72125000D02*
X154428333Y-72125000D01*
X154045476Y-71910714D02*
X154268809Y-72660714D01*
X154492142Y-71910714D01*
X155066428Y-71910714D02*
X154683571Y-71910714D01*
X154875000Y-71910714D02*
X154875000Y-72660714D01*
X154811190Y-72553571D01*
X154747380Y-72482142D01*
X154683571Y-72446428D01*
X155832142Y-72696428D02*
X155257857Y-71732142D01*
X156278809Y-72303571D02*
X156055476Y-72303571D01*
X156055476Y-71910714D02*
X156055476Y-72660714D01*
X156374523Y-72660714D01*
X156916904Y-72660714D02*
X156789285Y-72660714D01*
X156725476Y-72625000D01*
X156693571Y-72589285D01*
X156629761Y-72482142D01*
X156597857Y-72339285D01*
X156597857Y-72053571D01*
X156629761Y-71982142D01*
X156661666Y-71946428D01*
X156725476Y-71910714D01*
X156853095Y-71910714D01*
X156916904Y-71946428D01*
X156948809Y-71982142D01*
X156980714Y-72053571D01*
X156980714Y-72232142D01*
X156948809Y-72303571D01*
X156916904Y-72339285D01*
X156853095Y-72375000D01*
X156725476Y-72375000D01*
X156661666Y-72339285D01*
X156629761Y-72303571D01*
X156597857Y-72232142D01*
X154109285Y-69625000D02*
X154428333Y-69625000D01*
X154045476Y-69410714D02*
X154268809Y-70160714D01*
X154492142Y-69410714D01*
X154683571Y-70089285D02*
X154715476Y-70125000D01*
X154779285Y-70160714D01*
X154938809Y-70160714D01*
X155002619Y-70125000D01*
X155034523Y-70089285D01*
X155066428Y-70017857D01*
X155066428Y-69946428D01*
X155034523Y-69839285D01*
X154651666Y-69410714D01*
X155066428Y-69410714D01*
X155832142Y-70196428D02*
X155257857Y-69232142D01*
X156278809Y-69803571D02*
X156055476Y-69803571D01*
X156055476Y-69410714D02*
X156055476Y-70160714D01*
X156374523Y-70160714D01*
X156948809Y-70160714D02*
X156629761Y-70160714D01*
X156597857Y-69803571D01*
X156629761Y-69839285D01*
X156693571Y-69875000D01*
X156853095Y-69875000D01*
X156916904Y-69839285D01*
X156948809Y-69803571D01*
X156980714Y-69732142D01*
X156980714Y-69553571D01*
X156948809Y-69482142D01*
X156916904Y-69446428D01*
X156853095Y-69410714D01*
X156693571Y-69410714D01*
X156629761Y-69446428D01*
X156597857Y-69482142D01*
X154109285Y-67125000D02*
X154428333Y-67125000D01*
X154045476Y-66910714D02*
X154268809Y-67660714D01*
X154492142Y-66910714D01*
X154651666Y-67660714D02*
X155066428Y-67660714D01*
X154843095Y-67375000D01*
X154938809Y-67375000D01*
X155002619Y-67339285D01*
X155034523Y-67303571D01*
X155066428Y-67232142D01*
X155066428Y-67053571D01*
X155034523Y-66982142D01*
X155002619Y-66946428D01*
X154938809Y-66910714D01*
X154747380Y-66910714D01*
X154683571Y-66946428D01*
X154651666Y-66982142D01*
X155832142Y-67696428D02*
X155257857Y-66732142D01*
X156278809Y-67303571D02*
X156055476Y-67303571D01*
X156055476Y-66910714D02*
X156055476Y-67660714D01*
X156374523Y-67660714D01*
X156916904Y-67410714D02*
X156916904Y-66910714D01*
X156757380Y-67696428D02*
X156597857Y-67160714D01*
X157012619Y-67160714D01*
X154001666Y-64960714D02*
X154225000Y-64210714D01*
X154448333Y-64960714D01*
X155054523Y-64282142D02*
X155022619Y-64246428D01*
X154926904Y-64210714D01*
X154863095Y-64210714D01*
X154767380Y-64246428D01*
X154703571Y-64317857D01*
X154671666Y-64389285D01*
X154639761Y-64532142D01*
X154639761Y-64639285D01*
X154671666Y-64782142D01*
X154703571Y-64853571D01*
X154767380Y-64925000D01*
X154863095Y-64960714D01*
X154926904Y-64960714D01*
X155022619Y-64925000D01*
X155054523Y-64889285D01*
X155724523Y-64282142D02*
X155692619Y-64246428D01*
X155596904Y-64210714D01*
X155533095Y-64210714D01*
X155437380Y-64246428D01*
X155373571Y-64317857D01*
X155341666Y-64389285D01*
X155309761Y-64532142D01*
X155309761Y-64639285D01*
X155341666Y-64782142D01*
X155373571Y-64853571D01*
X155437380Y-64925000D01*
X155533095Y-64960714D01*
X155596904Y-64960714D01*
X155692619Y-64925000D01*
X155724523Y-64889285D01*
X154528095Y-61760714D02*
X154304761Y-62117857D01*
X154145238Y-61760714D02*
X154145238Y-62510714D01*
X154400476Y-62510714D01*
X154464285Y-62475000D01*
X154496190Y-62439285D01*
X154528095Y-62367857D01*
X154528095Y-62260714D01*
X154496190Y-62189285D01*
X154464285Y-62153571D01*
X154400476Y-62117857D01*
X154145238Y-62117857D01*
X154783333Y-61796428D02*
X154879047Y-61760714D01*
X155038571Y-61760714D01*
X155102380Y-61796428D01*
X155134285Y-61832142D01*
X155166190Y-61903571D01*
X155166190Y-61975000D01*
X155134285Y-62046428D01*
X155102380Y-62082142D01*
X155038571Y-62117857D01*
X154910952Y-62153571D01*
X154847142Y-62189285D01*
X154815238Y-62225000D01*
X154783333Y-62296428D01*
X154783333Y-62367857D01*
X154815238Y-62439285D01*
X154847142Y-62475000D01*
X154910952Y-62510714D01*
X155070476Y-62510714D01*
X155166190Y-62475000D01*
X155357619Y-62510714D02*
X155740476Y-62510714D01*
X155549047Y-61760714D02*
X155549047Y-62510714D01*
X154384523Y-59925000D02*
X154320714Y-59960714D01*
X154225000Y-59960714D01*
X154129285Y-59925000D01*
X154065476Y-59853571D01*
X154033571Y-59782142D01*
X154001666Y-59639285D01*
X154001666Y-59532142D01*
X154033571Y-59389285D01*
X154065476Y-59317857D01*
X154129285Y-59246428D01*
X154225000Y-59210714D01*
X154288809Y-59210714D01*
X154384523Y-59246428D01*
X154416428Y-59282142D01*
X154416428Y-59532142D01*
X154288809Y-59532142D01*
X154703571Y-59210714D02*
X154703571Y-59960714D01*
X155086428Y-59210714D01*
X155086428Y-59960714D01*
X155405476Y-59210714D02*
X155405476Y-59960714D01*
X155565000Y-59960714D01*
X155660714Y-59925000D01*
X155724523Y-59853571D01*
X155756428Y-59782142D01*
X155788333Y-59639285D01*
X155788333Y-59532142D01*
X155756428Y-59389285D01*
X155724523Y-59317857D01*
X155660714Y-59246428D01*
X155565000Y-59210714D01*
X155405476Y-59210714D01*
X154432380Y-56660714D02*
X154209047Y-57017857D01*
X154049523Y-56660714D02*
X154049523Y-57410714D01*
X154304761Y-57410714D01*
X154368571Y-57375000D01*
X154400476Y-57339285D01*
X154432380Y-57267857D01*
X154432380Y-57160714D01*
X154400476Y-57089285D01*
X154368571Y-57053571D01*
X154304761Y-57017857D01*
X154049523Y-57017857D01*
X154687619Y-56875000D02*
X155006666Y-56875000D01*
X154623809Y-56660714D02*
X154847142Y-57410714D01*
X155070476Y-56660714D01*
X155230000Y-57410714D02*
X155389523Y-56660714D01*
X155517142Y-57196428D01*
X155644761Y-56660714D01*
X155804285Y-57410714D01*
D10*
X157302380Y-125652380D02*
X157635714Y-125176190D01*
X157873809Y-125652380D02*
X157873809Y-124652380D01*
X157492857Y-124652380D01*
X157397619Y-124700000D01*
X157350000Y-124747619D01*
X157302380Y-124842857D01*
X157302380Y-124985714D01*
X157350000Y-125080952D01*
X157397619Y-125128571D01*
X157492857Y-125176190D01*
X157873809Y-125176190D01*
X156873809Y-125128571D02*
X156540476Y-125128571D01*
X156397619Y-125652380D02*
X156873809Y-125652380D01*
X156873809Y-124652380D01*
X156397619Y-124652380D01*
X156016666Y-125604761D02*
X155873809Y-125652380D01*
X155635714Y-125652380D01*
X155540476Y-125604761D01*
X155492857Y-125557142D01*
X155445238Y-125461904D01*
X155445238Y-125366666D01*
X155492857Y-125271428D01*
X155540476Y-125223809D01*
X155635714Y-125176190D01*
X155826190Y-125128571D01*
X155921428Y-125080952D01*
X155969047Y-125033333D01*
X156016666Y-124938095D01*
X156016666Y-124842857D01*
X155969047Y-124747619D01*
X155921428Y-124700000D01*
X155826190Y-124652380D01*
X155588095Y-124652380D01*
X155445238Y-124700000D01*
X155016666Y-125128571D02*
X154683333Y-125128571D01*
X154540476Y-125652380D02*
X155016666Y-125652380D01*
X155016666Y-124652380D01*
X154540476Y-124652380D01*
X154254761Y-124652380D02*
X153683333Y-124652380D01*
X153969047Y-125652380D02*
X153969047Y-124652380D01*
%LPC*%
D13*
X123500000Y-124900000D03*
X165200000Y-125400000D03*
X129800000Y-90200000D03*
X159700000Y-90400000D03*
X50500000Y-76900000D03*
X53600000Y-58100000D03*
X236200000Y-58500000D03*
X239500000Y-77000000D03*
D14*
X147200000Y-89700000D03*
D15*
X144700000Y-89700000D03*
X142200000Y-89700000D03*
D16*
X150300000Y-97200000D03*
X139100000Y-97200000D03*
D15*
X147200000Y-104200000D03*
X142200000Y-104200000D03*
D17*
X201188833Y-121270089D03*
X177738098Y-125405087D03*
D18*
X198542435Y-106261619D03*
X175091700Y-110396616D03*
D19*
X193032823Y-114325867D03*
X183027177Y-116090133D03*
D20*
X183836816Y-113368188D03*
D17*
X188030000Y-115208000D03*
D20*
X189649279Y-109764110D03*
D17*
X112004402Y-125164587D03*
X88553667Y-121029589D03*
D18*
X114650800Y-110156116D03*
X91200065Y-106021119D03*
D19*
X106715323Y-115849633D03*
X96709677Y-114085367D03*
D20*
X98401449Y-111804489D03*
D17*
X101712500Y-114967500D03*
D20*
X105096044Y-110405743D03*
D19*
X173632823Y-59700867D03*
X163627177Y-61465133D03*
D20*
X164436816Y-58743188D03*
D17*
X168630000Y-60583000D03*
D20*
X170249279Y-55139110D03*
D19*
X255432823Y-83925867D03*
X245427177Y-85690133D03*
D20*
X246236816Y-82968188D03*
D17*
X250430000Y-84808000D03*
D20*
X252049279Y-79364110D03*
D19*
X236657823Y-87275867D03*
X226652177Y-89040133D03*
D20*
X227461816Y-86318188D03*
D17*
X231655000Y-88158000D03*
D20*
X233274279Y-82714110D03*
D19*
X217932823Y-90575867D03*
X207927177Y-92340133D03*
D20*
X208736816Y-89618188D03*
D17*
X212930000Y-91458000D03*
D20*
X214549279Y-86014110D03*
D19*
X199157823Y-93900867D03*
X189152177Y-95665133D03*
D20*
X189961816Y-92943188D03*
D17*
X194155000Y-94783000D03*
D20*
X195774279Y-89339110D03*
D19*
X180307823Y-97225867D03*
X170302177Y-98990133D03*
D20*
X171111816Y-96268188D03*
D17*
X175305000Y-98108000D03*
D20*
X176924279Y-92664110D03*
D19*
X119415323Y-98699633D03*
X109409677Y-96935367D03*
D20*
X111101449Y-94654489D03*
D17*
X114412500Y-97817500D03*
D20*
X117796044Y-93255743D03*
D19*
X100715323Y-95349633D03*
X90709677Y-93585367D03*
D20*
X92401449Y-91304489D03*
D17*
X95712500Y-94467500D03*
D20*
X99096044Y-89905743D03*
D19*
X82015323Y-92049633D03*
X72009677Y-90285367D03*
D20*
X73701449Y-88004489D03*
D17*
X77012500Y-91167500D03*
D20*
X80396044Y-86605743D03*
D19*
X63215323Y-88774633D03*
X53209677Y-87010367D03*
D20*
X54901449Y-84729489D03*
D17*
X58212500Y-87892500D03*
D20*
X61596044Y-83330743D03*
D19*
X44415323Y-85474633D03*
X34409677Y-83710367D03*
D20*
X36101449Y-81429489D03*
D17*
X39412500Y-84592500D03*
D20*
X42796044Y-80030743D03*
D19*
X252157823Y-65225867D03*
X242152177Y-66990133D03*
D20*
X242961816Y-64268188D03*
D17*
X247155000Y-66108000D03*
D20*
X248774279Y-60664110D03*
D19*
X233382823Y-68550867D03*
X223377177Y-70315133D03*
D20*
X224186816Y-67593188D03*
D17*
X228380000Y-69433000D03*
D20*
X229999279Y-63989110D03*
D19*
X214607823Y-71850867D03*
X204602177Y-73615133D03*
D20*
X205411816Y-70893188D03*
D17*
X209605000Y-72733000D03*
D20*
X211224279Y-67289110D03*
D19*
X195782823Y-75200867D03*
X185777177Y-76965133D03*
D20*
X186586816Y-74243188D03*
D17*
X190780000Y-76083000D03*
D20*
X192399279Y-70639110D03*
D19*
X176986709Y-78493143D03*
X166981063Y-80257409D03*
D20*
X167790702Y-77535464D03*
D17*
X171983886Y-79375276D03*
D20*
X173603165Y-73931386D03*
D19*
X122715323Y-79949633D03*
X112709677Y-78185367D03*
D20*
X114401449Y-75904489D03*
D17*
X117712500Y-79067500D03*
D20*
X121096044Y-74505743D03*
D19*
X103990323Y-76624633D03*
X93984677Y-74860367D03*
D20*
X95676449Y-72579489D03*
D17*
X98987500Y-75742500D03*
D20*
X102371044Y-71180743D03*
D19*
X85265323Y-73299633D03*
X75259677Y-71535367D03*
D20*
X76951449Y-69254489D03*
D17*
X80262500Y-72417500D03*
D20*
X83646044Y-67855743D03*
D19*
X66515323Y-69999633D03*
X56509677Y-68235367D03*
D20*
X58201449Y-65954489D03*
D17*
X61512500Y-69117500D03*
D20*
X64896044Y-64555743D03*
D19*
X47740323Y-66699633D03*
X37734677Y-64935367D03*
D20*
X39426449Y-62654489D03*
D17*
X42737500Y-65817500D03*
D20*
X46121044Y-61255743D03*
D19*
X248832823Y-46572867D03*
X238827177Y-48337133D03*
D20*
X239636816Y-45615188D03*
D17*
X243830000Y-47455000D03*
D20*
X245449279Y-42011110D03*
D19*
X230046823Y-49822867D03*
X220041177Y-51587133D03*
D20*
X220850816Y-48865188D03*
D17*
X225044000Y-50705000D03*
D20*
X226663279Y-45261110D03*
D19*
X211257823Y-53050867D03*
X201252177Y-54815133D03*
D20*
X202061816Y-52093188D03*
D17*
X206255000Y-53933000D03*
D20*
X207874279Y-48489110D03*
D19*
X192432823Y-56375867D03*
X182427177Y-58140133D03*
D20*
X183236816Y-55418188D03*
D17*
X187430000Y-57258000D03*
D20*
X189049279Y-51814110D03*
D19*
X126040323Y-61174633D03*
X116034677Y-59410367D03*
D20*
X117726449Y-57129489D03*
D17*
X121037500Y-60292500D03*
D20*
X124421044Y-55730743D03*
D19*
X107290323Y-57874633D03*
X97284677Y-56110367D03*
D20*
X98976449Y-53829489D03*
D17*
X102287500Y-56992500D03*
D20*
X105671044Y-52430743D03*
D19*
X88540323Y-54549633D03*
X78534677Y-52785367D03*
D20*
X80226449Y-50504489D03*
D17*
X83537500Y-53667500D03*
D20*
X86921044Y-49105743D03*
D19*
X69815323Y-51249633D03*
X59809677Y-49485367D03*
D20*
X61501449Y-47204489D03*
D17*
X64812500Y-50367500D03*
D20*
X68196044Y-45805743D03*
D19*
X51065323Y-47949633D03*
X41059677Y-46185367D03*
D20*
X42751449Y-43904489D03*
D17*
X46062500Y-47067500D03*
D20*
X49446044Y-42505743D03*
D21*
X140460000Y-125171200D03*
X143000000Y-125171200D03*
X145540000Y-125171200D03*
X148080000Y-125171200D03*
D22*
X133000000Y-125900000D03*
D23*
X133000000Y-124000000D03*
D22*
X129000000Y-125900000D03*
D23*
X129000000Y-124000000D03*
M02*
