M48
; DRILL file {KiCad 5.1.7} date Sun Oct 25 02:46:22 2020
; FORMAT={-:-/ absolute / inch / decimal}
; #@! TF.CreationDate,2020-10-25T02:46:22-04:00
; #@! TF.GenerationSoftware,Kicad,Pcbnew,5.1.7
; #@! TF.FileFunction,NonPlated,1,2,NPTH
FMAT,2
INCH
T1C0.0256
T2C0.0689
T3C0.1200
T4C0.1570
%
G90
G05
T1
X5.3594Y-3.7291
X5.587Y-3.7291
T2
X3.5517Y-3.6128
X3.9456Y-3.6823
X4.0299Y-5.2202
X4.4238Y-5.2897
X3.4215Y-4.3514
X3.8154Y-4.4209
X9.3379Y-4.0301
X9.7318Y-3.9607
X7.2523Y-5.1595
X7.6463Y-5.09
X3.2912Y-5.09
X3.6852Y-5.1595
X1.2057Y-3.9607
X1.5996Y-4.0301
X1.3359Y-3.2221
X1.7298Y-3.2915
X2.6829Y-4.2212
X3.0768Y-4.2906
X8.4691Y-3.4218
X8.863Y-3.3523
X1.9443Y-4.0909
X2.3382Y-4.1604
X6.2533Y-3.8125
X6.6472Y-3.743
X2.5526Y-4.9598
X2.9466Y-5.0292
X7.8607Y-4.2906
X8.2546Y-4.2212
X8.5993Y-4.1604
X8.9932Y-4.0909
X7.7305Y-3.552
X8.1244Y-3.4826
X9.4682Y-4.7688
X9.8621Y-4.6993
X8.7295Y-4.899
X9.1235Y-4.8295
X6.3835Y-4.5511
X6.7774Y-4.4816
X7.1221Y-4.4209
X7.516Y-4.3514
X9.2077Y-3.2915
X9.6016Y-3.2221
X7.0133Y-5.9632
X7.4072Y-5.8937
X4.1601Y-4.4816
X4.554Y-4.5511
X1.814Y-4.8295
X2.208Y-4.899
X1.0754Y-4.6993
X1.4693Y-4.7688
X2.0745Y-3.3523
X2.4684Y-3.4218
X2.8131Y-3.4826
X3.207Y-3.552
X6.9919Y-3.6823
X7.3858Y-3.6128
X7.9909Y-5.0292
X8.3849Y-4.9598
X3.5303Y-5.8937
X3.9242Y-5.9632
X4.2903Y-3.743
X4.6842Y-3.8125
X6.5137Y-5.2897
X6.9076Y-5.2202
T3
X6.7008Y-5.739
X7.6241Y-5.5762
X3.3134Y-5.5762
X4.2367Y-5.739
T4
X1.4026Y-3.9954
X1.5329Y-3.2568
X2.8798Y-4.2559
X8.666Y-3.387
X2.1412Y-4.1257
X6.4502Y-3.7778
X2.7496Y-4.9945
X8.0577Y-4.2559
X8.7963Y-4.1257
X7.9274Y-3.5173
X9.6651Y-4.734
X8.9265Y-4.8643
X6.5805Y-4.5164
X7.3191Y-4.3861
X9.4046Y-3.2568
X6.805Y-6.3299
X7.2102Y-5.9285
X7.7283Y-6.1671
X4.357Y-4.5164
X2.011Y-4.8643
X1.2724Y-4.734
X2.2715Y-3.387
X3.0101Y-3.5173
X7.1888Y-3.6475
X8.1879Y-4.9945
X3.2092Y-6.1671
X3.7273Y-5.9285
X4.1325Y-6.3299
X4.4873Y-3.7778
X6.7107Y-5.255
X3.7487Y-3.6475
X4.2268Y-5.255
X3.6184Y-4.3861
X9.5349Y-3.9954
X7.4493Y-5.1247
X3.4882Y-5.1247
T0
M30
