G04 #@! TF.GenerationSoftware,KiCad,Pcbnew,5.1.7*
G04 #@! TF.CreationDate,2020-11-02T00:43:52-05:00*
G04 #@! TF.ProjectId,pcb,7063622e-6b69-4636-9164-5f7063625858,rev?*
G04 #@! TF.SameCoordinates,Original*
G04 #@! TF.FileFunction,Legend,Top*
G04 #@! TF.FilePolarity,Positive*
%FSLAX46Y46*%
G04 Gerber Fmt 4.6, Leading zero omitted, Abs format (unit mm)*
G04 Created by KiCad (PCBNEW 5.1.7) date 2020-11-02 00:43:52*
%MOMM*%
%LPD*%
G01*
G04 APERTURE LIST*
%ADD10C,0.120000*%
%ADD11C,0.150000*%
%ADD12C,4.300000*%
%ADD13R,2.000000X2.000000*%
%ADD14C,2.000000*%
%ADD15R,2.000000X3.200000*%
%ADD16C,1.397000*%
%ADD17C,0.100000*%
%ADD18C,1.524000*%
%ADD19C,3.987800*%
%ADD20C,3.048000*%
%ADD21C,1.750000*%
%ADD22O,1.400000X1.400000*%
%ADD23C,1.400000*%
G04 APERTURE END LIST*
D10*
X144700000Y-96700000D02*
X144700000Y-97700000D01*
X145200000Y-97200000D02*
X144200000Y-97200000D01*
X141200000Y-103300000D02*
X138800000Y-103300000D01*
X146000000Y-103300000D02*
X143400000Y-103300000D01*
X150600000Y-103300000D02*
X148200000Y-103300000D01*
X148800000Y-90000000D02*
X148500000Y-89700000D01*
X148800000Y-89400000D02*
X148800000Y-90000000D01*
X148500000Y-89700000D02*
X148800000Y-89400000D01*
X150600000Y-91100000D02*
X138800000Y-91100000D01*
X150600000Y-95200000D02*
X150600000Y-91100000D01*
X138800000Y-95200000D02*
X138800000Y-91100000D01*
X138800000Y-103300000D02*
X138800000Y-99200000D01*
X150600000Y-99200000D02*
X150600000Y-103300000D01*
X147700000Y-97200000D02*
G75*
G03*
X147700000Y-97200000I-3000000J0D01*
G01*
D11*
X172143283Y-118736157D02*
X171158475Y-118909805D01*
X170984827Y-117924997D02*
X171633514Y-118724500D01*
X171969635Y-117751349D02*
X170984827Y-117924997D01*
X171633514Y-118724500D02*
X171969635Y-117751349D01*
X118515580Y-118689228D02*
X117530772Y-118515580D01*
X117704420Y-117530772D02*
X118040541Y-118503923D01*
X118689228Y-117704420D02*
X117704420Y-117530772D01*
X118040541Y-118503923D02*
X118689228Y-117704420D01*
X259372709Y-86410647D02*
X258387901Y-86584295D01*
X258214253Y-85599487D02*
X258862940Y-86398990D01*
X259199061Y-85425839D02*
X258214253Y-85599487D01*
X258862940Y-86398990D02*
X259199061Y-85425839D01*
X240576709Y-89712647D02*
X239591901Y-89886295D01*
X239418253Y-88901487D02*
X240066940Y-89700990D01*
X240403061Y-88727839D02*
X239418253Y-88901487D01*
X240066940Y-89700990D02*
X240403061Y-88727839D01*
X221907709Y-93141647D02*
X220922901Y-93315295D01*
X220749253Y-92330487D02*
X221397940Y-93129990D01*
X221734061Y-92156839D02*
X220749253Y-92330487D01*
X221397940Y-93129990D02*
X221734061Y-92156839D01*
X202984709Y-96316647D02*
X201999901Y-96490295D01*
X201826253Y-95505487D02*
X202474940Y-96304990D01*
X202811061Y-95331839D02*
X201826253Y-95505487D01*
X202474940Y-96304990D02*
X202811061Y-95331839D01*
X184315709Y-99745647D02*
X183330901Y-99919295D01*
X183157253Y-98934487D02*
X183805940Y-99733990D01*
X184142061Y-98760839D02*
X183157253Y-98934487D01*
X183805940Y-99733990D02*
X184142061Y-98760839D01*
X122294599Y-102522795D02*
X121309791Y-102349147D01*
X121483439Y-101364339D02*
X121819560Y-102337490D01*
X122468247Y-101537987D02*
X121483439Y-101364339D01*
X121819560Y-102337490D02*
X122468247Y-101537987D01*
X103560561Y-99168661D02*
X102575753Y-98995013D01*
X102749401Y-98010205D02*
X103085522Y-98983356D01*
X103734209Y-98183853D02*
X102749401Y-98010205D01*
X103085522Y-98983356D02*
X103734209Y-98183853D01*
X84891561Y-95866661D02*
X83906753Y-95693013D01*
X84080401Y-94708205D02*
X84416522Y-95681356D01*
X85065209Y-94881853D02*
X84080401Y-94708205D01*
X84416522Y-95681356D02*
X85065209Y-94881853D01*
X66222561Y-92564661D02*
X65237753Y-92391013D01*
X65411401Y-91406205D02*
X65747522Y-92379356D01*
X66396209Y-91579853D02*
X65411401Y-91406205D01*
X65747522Y-92379356D02*
X66396209Y-91579853D01*
X47299561Y-89262661D02*
X46314753Y-89089013D01*
X46488401Y-88104205D02*
X46824522Y-89077356D01*
X47473209Y-88277853D02*
X46488401Y-88104205D01*
X46824522Y-89077356D02*
X47473209Y-88277853D01*
X256197709Y-67614647D02*
X255212901Y-67788295D01*
X255039253Y-66803487D02*
X255687940Y-67602990D01*
X256024061Y-66629839D02*
X255039253Y-66803487D01*
X255687940Y-67602990D02*
X256024061Y-66629839D01*
X237274709Y-71043647D02*
X236289901Y-71217295D01*
X236116253Y-70232487D02*
X236764940Y-71031990D01*
X237101061Y-70058839D02*
X236116253Y-70232487D01*
X236764940Y-71031990D02*
X237101061Y-70058839D01*
X218478709Y-74345647D02*
X217493901Y-74519295D01*
X217320253Y-73534487D02*
X217968940Y-74333990D01*
X218305061Y-73360839D02*
X217320253Y-73534487D01*
X217968940Y-74333990D02*
X218305061Y-73360839D01*
X199809709Y-77647647D02*
X198824901Y-77821295D01*
X198651253Y-76836487D02*
X199299940Y-77635990D01*
X199636061Y-76662839D02*
X198651253Y-76836487D01*
X199299940Y-77635990D02*
X199636061Y-76662839D01*
X181013709Y-81076647D02*
X180028901Y-81250295D01*
X179855253Y-80265487D02*
X180503940Y-81064990D01*
X180840061Y-80091839D02*
X179855253Y-80265487D01*
X180503940Y-81064990D02*
X180840061Y-80091839D01*
X125658561Y-83674661D02*
X124673753Y-83501013D01*
X124847401Y-82516205D02*
X125183522Y-83489356D01*
X125832209Y-82689853D02*
X124847401Y-82516205D01*
X125183522Y-83489356D02*
X125832209Y-82689853D01*
X106989561Y-80372661D02*
X106004753Y-80199013D01*
X106178401Y-79214205D02*
X106514522Y-80187356D01*
X107163209Y-79387853D02*
X106178401Y-79214205D01*
X106514522Y-80187356D02*
X107163209Y-79387853D01*
X88226080Y-76969728D02*
X87241272Y-76796080D01*
X87414920Y-75811272D02*
X87751041Y-76784423D01*
X88399728Y-75984920D02*
X87414920Y-75811272D01*
X87751041Y-76784423D02*
X88399728Y-75984920D01*
X69397561Y-73768661D02*
X68412753Y-73595013D01*
X68586401Y-72610205D02*
X68922522Y-73583356D01*
X69571209Y-72783853D02*
X68586401Y-72610205D01*
X68922522Y-73583356D02*
X69571209Y-72783853D01*
X50728561Y-70466661D02*
X49743753Y-70293013D01*
X49917401Y-69308205D02*
X50253522Y-70281356D01*
X50902209Y-69481853D02*
X49917401Y-69308205D01*
X50253522Y-70281356D02*
X50902209Y-69481853D01*
X252641709Y-49199647D02*
X251656901Y-49373295D01*
X251483253Y-48388487D02*
X252131940Y-49187990D01*
X252468061Y-48214839D02*
X251483253Y-48388487D01*
X252131940Y-49187990D02*
X252468061Y-48214839D01*
X233972709Y-52247647D02*
X232987901Y-52421295D01*
X232814253Y-51436487D02*
X233462940Y-52235990D01*
X233799061Y-51262839D02*
X232814253Y-51436487D01*
X233462940Y-52235990D02*
X233799061Y-51262839D01*
X215176709Y-55549647D02*
X214191901Y-55723295D01*
X214018253Y-54738487D02*
X214666940Y-55537990D01*
X215003061Y-54564839D02*
X214018253Y-54738487D01*
X214666940Y-55537990D02*
X215003061Y-54564839D01*
X196380709Y-58978647D02*
X195395901Y-59152295D01*
X195222253Y-58167487D02*
X195870940Y-58966990D01*
X196207061Y-57993839D02*
X195222253Y-58167487D01*
X195870940Y-58966990D02*
X196207061Y-57993839D01*
X177617228Y-62127580D02*
X176632420Y-62301228D01*
X176458772Y-61316420D02*
X177107459Y-62115923D01*
X177443580Y-61142772D02*
X176458772Y-61316420D01*
X177107459Y-62115923D02*
X177443580Y-61142772D01*
X129025599Y-64930795D02*
X128040791Y-64757147D01*
X128214439Y-63772339D02*
X128550560Y-64745490D01*
X129199247Y-63945987D02*
X128214439Y-63772339D01*
X128550560Y-64745490D02*
X129199247Y-63945987D01*
X110229599Y-61628795D02*
X109244791Y-61455147D01*
X109418439Y-60470339D02*
X109754560Y-61443490D01*
X110403247Y-60643987D02*
X109418439Y-60470339D01*
X109754560Y-61443490D02*
X110403247Y-60643987D01*
X91622561Y-58274661D02*
X90637753Y-58101013D01*
X90811401Y-57116205D02*
X91147522Y-58089356D01*
X91796209Y-57289853D02*
X90811401Y-57116205D01*
X91147522Y-58089356D02*
X91796209Y-57289853D01*
X72891599Y-54897795D02*
X71906791Y-54724147D01*
X72080439Y-53739339D02*
X72416560Y-54712490D01*
X73065247Y-53912987D02*
X72080439Y-53739339D01*
X72416560Y-54712490D02*
X73065247Y-53912987D01*
X54095599Y-51595795D02*
X53110791Y-51422147D01*
X53284439Y-50437339D02*
X53620560Y-51410490D01*
X54269247Y-50610987D02*
X53284439Y-50437339D01*
X53620560Y-51410490D02*
X54269247Y-50610987D01*
X149350000Y-123901200D02*
X149350000Y-126441200D01*
X139190000Y-126441200D02*
X139190000Y-123901200D01*
X149350000Y-126441200D02*
X139190000Y-126441200D01*
X149350000Y-123901200D02*
X139190000Y-123901200D01*
X142827619Y-126723580D02*
X143018095Y-126723580D01*
X143113333Y-126771200D01*
X143208571Y-126866438D01*
X143256190Y-127056914D01*
X143256190Y-127390247D01*
X143208571Y-127580723D01*
X143113333Y-127675961D01*
X143018095Y-127723580D01*
X142827619Y-127723580D01*
X142732380Y-127675961D01*
X142637142Y-127580723D01*
X142589523Y-127390247D01*
X142589523Y-127056914D01*
X142637142Y-126866438D01*
X142732380Y-126771200D01*
X142827619Y-126723580D01*
X144160952Y-127723580D02*
X143684761Y-127723580D01*
X143684761Y-126723580D01*
X144494285Y-127199771D02*
X144827619Y-127199771D01*
X144970476Y-127723580D02*
X144494285Y-127723580D01*
X144494285Y-126723580D01*
X144970476Y-126723580D01*
X145399047Y-127723580D02*
X145399047Y-126723580D01*
X145637142Y-126723580D01*
X145780000Y-126771200D01*
X145875238Y-126866438D01*
X145922857Y-126961676D01*
X145970476Y-127152152D01*
X145970476Y-127295009D01*
X145922857Y-127485485D01*
X145875238Y-127580723D01*
X145780000Y-127675961D01*
X145637142Y-127723580D01*
X145399047Y-127723580D01*
%LPC*%
D12*
X123500000Y-124900000D03*
X165200000Y-125400000D03*
X129800000Y-90200000D03*
X159700000Y-90400000D03*
X50500000Y-76900000D03*
X53600000Y-58100000D03*
X236200000Y-58500000D03*
X239500000Y-77000000D03*
D13*
X147200000Y-89700000D03*
D14*
X144700000Y-89700000D03*
X142200000Y-89700000D03*
D15*
X150300000Y-97200000D03*
X139100000Y-97200000D03*
D14*
X147200000Y-104200000D03*
X142200000Y-104200000D03*
D16*
X171043110Y-115376154D03*
D17*
G36*
X172894181Y-121851595D02*
G01*
X171518405Y-122094181D01*
X171275819Y-120718405D01*
X172651595Y-120475819D01*
X172894181Y-121851595D01*
G37*
D16*
X118630945Y-115155577D03*
D17*
G36*
X118155650Y-121873604D02*
G01*
X116779874Y-121631018D01*
X117022460Y-120255242D01*
X118398236Y-120497828D01*
X118155650Y-121873604D01*
G37*
D16*
X258272536Y-83050644D03*
D17*
G36*
X260123607Y-89526085D02*
G01*
X258747831Y-89768671D01*
X258505245Y-88392895D01*
X259881021Y-88150309D01*
X260123607Y-89526085D01*
G37*
D16*
X239476536Y-86352644D03*
D17*
G36*
X241327607Y-92828085D02*
G01*
X239951831Y-93070671D01*
X239709245Y-91694895D01*
X241085021Y-91452309D01*
X241327607Y-92828085D01*
G37*
D16*
X220807536Y-89781644D03*
D17*
G36*
X222658607Y-96257085D02*
G01*
X221282831Y-96499671D01*
X221040245Y-95123895D01*
X222416021Y-94881309D01*
X222658607Y-96257085D01*
G37*
D16*
X201884536Y-92956644D03*
D17*
G36*
X203735607Y-99432085D02*
G01*
X202359831Y-99674671D01*
X202117245Y-98298895D01*
X203493021Y-98056309D01*
X203735607Y-99432085D01*
G37*
D16*
X183215536Y-96385644D03*
D17*
G36*
X185066607Y-102861085D02*
G01*
X183690831Y-103103671D01*
X183448245Y-101727895D01*
X184824021Y-101485309D01*
X185066607Y-102861085D01*
G37*
D16*
X122409964Y-98989144D03*
D17*
G36*
X121934669Y-105707171D02*
G01*
X120558893Y-105464585D01*
X120801479Y-104088809D01*
X122177255Y-104331395D01*
X121934669Y-105707171D01*
G37*
D16*
X103675926Y-95635010D03*
D17*
G36*
X103200631Y-102353037D02*
G01*
X101824855Y-102110451D01*
X102067441Y-100734675D01*
X103443217Y-100977261D01*
X103200631Y-102353037D01*
G37*
D16*
X85006926Y-92333010D03*
D17*
G36*
X84531631Y-99051037D02*
G01*
X83155855Y-98808451D01*
X83398441Y-97432675D01*
X84774217Y-97675261D01*
X84531631Y-99051037D01*
G37*
D16*
X66337926Y-89031010D03*
D17*
G36*
X65862631Y-95749037D02*
G01*
X64486855Y-95506451D01*
X64729441Y-94130675D01*
X66105217Y-94373261D01*
X65862631Y-95749037D01*
G37*
D16*
X47414926Y-85729010D03*
D17*
G36*
X46939631Y-92447037D02*
G01*
X45563855Y-92204451D01*
X45806441Y-90828675D01*
X47182217Y-91071261D01*
X46939631Y-92447037D01*
G37*
D16*
X255097536Y-64254644D03*
D17*
G36*
X256948607Y-70730085D02*
G01*
X255572831Y-70972671D01*
X255330245Y-69596895D01*
X256706021Y-69354309D01*
X256948607Y-70730085D01*
G37*
D16*
X236174536Y-67683644D03*
D17*
G36*
X238025607Y-74159085D02*
G01*
X236649831Y-74401671D01*
X236407245Y-73025895D01*
X237783021Y-72783309D01*
X238025607Y-74159085D01*
G37*
D16*
X217378536Y-70985644D03*
D17*
G36*
X219229607Y-77461085D02*
G01*
X217853831Y-77703671D01*
X217611245Y-76327895D01*
X218987021Y-76085309D01*
X219229607Y-77461085D01*
G37*
D16*
X198709536Y-74287644D03*
D17*
G36*
X200560607Y-80763085D02*
G01*
X199184831Y-81005671D01*
X198942245Y-79629895D01*
X200318021Y-79387309D01*
X200560607Y-80763085D01*
G37*
D16*
X179913536Y-77716644D03*
D17*
G36*
X181764607Y-84192085D02*
G01*
X180388831Y-84434671D01*
X180146245Y-83058895D01*
X181522021Y-82816309D01*
X181764607Y-84192085D01*
G37*
D16*
X125773926Y-80141010D03*
D17*
G36*
X125298631Y-86859037D02*
G01*
X123922855Y-86616451D01*
X124165441Y-85240675D01*
X125541217Y-85483261D01*
X125298631Y-86859037D01*
G37*
D16*
X107104926Y-76839010D03*
D17*
G36*
X106629631Y-83557037D02*
G01*
X105253855Y-83314451D01*
X105496441Y-81938675D01*
X106872217Y-82181261D01*
X106629631Y-83557037D01*
G37*
D16*
X88341445Y-73436077D03*
D17*
G36*
X87866150Y-80154104D02*
G01*
X86490374Y-79911518D01*
X86732960Y-78535742D01*
X88108736Y-78778328D01*
X87866150Y-80154104D01*
G37*
D16*
X69512926Y-70235010D03*
D17*
G36*
X69037631Y-76953037D02*
G01*
X67661855Y-76710451D01*
X67904441Y-75334675D01*
X69280217Y-75577261D01*
X69037631Y-76953037D01*
G37*
D16*
X50843926Y-66933010D03*
D17*
G36*
X50368631Y-73651037D02*
G01*
X48992855Y-73408451D01*
X49235441Y-72032675D01*
X50611217Y-72275261D01*
X50368631Y-73651037D01*
G37*
D16*
X251541536Y-45839644D03*
D17*
G36*
X253392607Y-52315085D02*
G01*
X252016831Y-52557671D01*
X251774245Y-51181895D01*
X253150021Y-50939309D01*
X253392607Y-52315085D01*
G37*
D16*
X232872536Y-48887644D03*
D17*
G36*
X234723607Y-55363085D02*
G01*
X233347831Y-55605671D01*
X233105245Y-54229895D01*
X234481021Y-53987309D01*
X234723607Y-55363085D01*
G37*
D16*
X214076536Y-52189644D03*
D17*
G36*
X215927607Y-58665085D02*
G01*
X214551831Y-58907671D01*
X214309245Y-57531895D01*
X215685021Y-57289309D01*
X215927607Y-58665085D01*
G37*
D16*
X195280536Y-55618644D03*
D17*
G36*
X197131607Y-62094085D02*
G01*
X195755831Y-62336671D01*
X195513245Y-60960895D01*
X196889021Y-60718309D01*
X197131607Y-62094085D01*
G37*
D16*
X176517055Y-58767577D03*
D17*
G36*
X178368126Y-65243018D02*
G01*
X176992350Y-65485604D01*
X176749764Y-64109828D01*
X178125540Y-63867242D01*
X178368126Y-65243018D01*
G37*
D16*
X129140964Y-61397144D03*
D17*
G36*
X128665669Y-68115171D02*
G01*
X127289893Y-67872585D01*
X127532479Y-66496809D01*
X128908255Y-66739395D01*
X128665669Y-68115171D01*
G37*
D16*
X110344964Y-58095144D03*
D17*
G36*
X109869669Y-64813171D02*
G01*
X108493893Y-64570585D01*
X108736479Y-63194809D01*
X110112255Y-63437395D01*
X109869669Y-64813171D01*
G37*
D16*
X91737926Y-54741010D03*
D17*
G36*
X91262631Y-61459037D02*
G01*
X89886855Y-61216451D01*
X90129441Y-59840675D01*
X91505217Y-60083261D01*
X91262631Y-61459037D01*
G37*
D16*
X73006964Y-51364144D03*
D17*
G36*
X72531669Y-58082171D02*
G01*
X71155893Y-57839585D01*
X71398479Y-56463809D01*
X72774255Y-56706395D01*
X72531669Y-58082171D01*
G37*
D16*
X54210964Y-48062144D03*
D17*
G36*
X53735669Y-54780171D02*
G01*
X52359893Y-54537585D01*
X52602479Y-53161809D01*
X53978255Y-53404395D01*
X53735669Y-54780171D01*
G37*
D18*
X137088600Y-57022000D03*
X137088600Y-59562000D03*
X137088600Y-62102000D03*
X137088600Y-64642000D03*
X137088600Y-67182000D03*
X137088600Y-69722000D03*
X137088600Y-72262000D03*
X137088600Y-74802000D03*
X137088600Y-77342000D03*
X137088600Y-79882000D03*
X137088600Y-82422000D03*
X137088600Y-84962000D03*
X152308600Y-84962000D03*
X152308600Y-82422000D03*
X152308600Y-79882000D03*
X152308600Y-77342000D03*
X152308600Y-74802000D03*
X152308600Y-72262000D03*
X152308600Y-69722000D03*
X152308600Y-67182000D03*
X152308600Y-64642000D03*
X152308600Y-62102000D03*
X152308600Y-59562000D03*
X152308600Y-57022000D03*
D14*
X152600000Y-125200000D03*
X159100000Y-125200000D03*
D19*
X201188833Y-121270089D03*
X177738098Y-125405087D03*
D20*
X198542435Y-106261619D03*
X175091700Y-110396616D03*
D21*
X193032823Y-114325867D03*
X183027177Y-116090133D03*
D19*
X188030000Y-115208000D03*
X112004402Y-125164587D03*
X88553667Y-121029589D03*
D20*
X114650800Y-110156116D03*
X91200065Y-106021119D03*
D21*
X106715323Y-115849633D03*
X96709677Y-114085367D03*
D19*
X101712500Y-114967500D03*
D21*
X173632823Y-59700867D03*
X163627177Y-61465133D03*
D19*
X168630000Y-60583000D03*
D21*
X255432823Y-83925867D03*
X245427177Y-85690133D03*
D19*
X250430000Y-84808000D03*
D21*
X236657823Y-87275867D03*
X226652177Y-89040133D03*
D19*
X231655000Y-88158000D03*
D21*
X217932823Y-90575867D03*
X207927177Y-92340133D03*
D19*
X212930000Y-91458000D03*
D21*
X199157823Y-93900867D03*
X189152177Y-95665133D03*
D19*
X194155000Y-94783000D03*
D21*
X180307823Y-97225867D03*
X170302177Y-98990133D03*
D19*
X175305000Y-98108000D03*
D21*
X119415323Y-98699633D03*
X109409677Y-96935367D03*
D19*
X114412500Y-97817500D03*
D21*
X100715323Y-95349633D03*
X90709677Y-93585367D03*
D19*
X95712500Y-94467500D03*
D21*
X82015323Y-92049633D03*
X72009677Y-90285367D03*
D19*
X77012500Y-91167500D03*
D21*
X63215323Y-88774633D03*
X53209677Y-87010367D03*
D19*
X58212500Y-87892500D03*
D21*
X44415323Y-85474633D03*
X34409677Y-83710367D03*
D19*
X39412500Y-84592500D03*
D21*
X252157823Y-65225867D03*
X242152177Y-66990133D03*
D19*
X247155000Y-66108000D03*
D21*
X233382823Y-68550867D03*
X223377177Y-70315133D03*
D19*
X228380000Y-69433000D03*
D21*
X214607823Y-71850867D03*
X204602177Y-73615133D03*
D19*
X209605000Y-72733000D03*
D21*
X195782823Y-75200867D03*
X185777177Y-76965133D03*
D19*
X190780000Y-76083000D03*
D21*
X176986709Y-78493143D03*
X166981063Y-80257409D03*
D19*
X171983886Y-79375276D03*
D21*
X122715323Y-79949633D03*
X112709677Y-78185367D03*
D19*
X117712500Y-79067500D03*
D21*
X103990323Y-76624633D03*
X93984677Y-74860367D03*
D19*
X98987500Y-75742500D03*
D21*
X85265323Y-73299633D03*
X75259677Y-71535367D03*
D19*
X80262500Y-72417500D03*
D21*
X66515323Y-69999633D03*
X56509677Y-68235367D03*
D19*
X61512500Y-69117500D03*
D21*
X47740323Y-66699633D03*
X37734677Y-64935367D03*
D19*
X42737500Y-65817500D03*
D21*
X248832823Y-46572867D03*
X238827177Y-48337133D03*
D19*
X243830000Y-47455000D03*
D21*
X230046823Y-49822867D03*
X220041177Y-51587133D03*
D19*
X225044000Y-50705000D03*
D21*
X211257823Y-53050867D03*
X201252177Y-54815133D03*
D19*
X206255000Y-53933000D03*
D21*
X192432823Y-56375867D03*
X182427177Y-58140133D03*
D19*
X187430000Y-57258000D03*
D21*
X126040323Y-61174633D03*
X116034677Y-59410367D03*
D19*
X121037500Y-60292500D03*
D21*
X107290323Y-57874633D03*
X97284677Y-56110367D03*
D19*
X102287500Y-56992500D03*
D21*
X88540323Y-54549633D03*
X78534677Y-52785367D03*
D19*
X83537500Y-53667500D03*
D21*
X69815323Y-51249633D03*
X59809677Y-49485367D03*
D19*
X64812500Y-50367500D03*
D21*
X51065323Y-47949633D03*
X41059677Y-46185367D03*
D19*
X46062500Y-47067500D03*
D22*
X133000000Y-125900000D03*
D23*
X133000000Y-124000000D03*
D22*
X129000000Y-125900000D03*
D23*
X129000000Y-124000000D03*
M02*
