M48
; DRILL file {KiCad 5.1.6} date Fri Sep 11 23:12:01 2020
; FORMAT={-:-/ absolute / inch / decimal}
; #@! TF.CreationDate,2020-09-11T23:12:01-04:00
; #@! TF.GenerationSoftware,Kicad,Pcbnew,5.1.6
; #@! TF.FileFunction,Plated,1,2,PTH
FMAT,2
INCH
T1C0.0157
T2C0.0236
T3C0.0320
T4C0.0394
T5C0.0512
T6C0.0579
T7C0.0591
%
G90
G05
T1
X1.685Y-4.705
X1.745Y-5.155
X1.81Y-3.96
X1.945Y-3.21
X2.2425Y-5.235
X2.28Y-4.815
X2.33Y-5.25
X2.395Y-4.075
X2.425Y-4.815
X2.54Y-3.335
X2.545Y-4.1
X2.68Y-3.37
X3.015Y-4.955
X3.16Y-4.215
X3.165Y-4.97
X3.29Y-3.475
X3.29Y-4.235
X3.42Y-3.5
X3.765Y-5.09
X3.815Y-5.54
X3.8454Y-5.515
X3.8732Y-5.4871
X3.88Y-4.335
X3.9011Y-5.4593
X3.905Y-5.11
X4.02Y-3.6
X4.045Y-4.345
X4.13Y-5.5678
X4.17Y-3.61
X4.47Y-5.21
X4.525Y-5.925
X4.635Y-4.48
X4.66Y-5.22
X4.76Y-3.73
X4.78Y-4.475
X4.875Y-4.845
X4.885Y-6.39
X4.905Y-3.725
X4.9075Y-5.315
X4.9825Y-5.7825
X4.99Y-6.37
X5.0535Y-5.6047
X5.0554Y-5.1893
X5.0596Y-5.5658
X5.08Y-5.22
X5.0864Y-5.537
X5.115Y-4.635
X5.1676Y-5.5471
X5.17Y-5.59
X5.1708Y-5.8292
X5.18Y-6.315
X5.1825Y-5.36
X5.2Y-5.475
X5.2082Y-5.8918
X5.225Y-6.14
X5.235Y-5.3
X5.2415Y-5.9505
X5.2475Y-6.2225
X5.2559Y-5.9902
X5.2884Y-6.3234
X5.2914Y-6.0072
X5.315Y-5.7925
X5.3175Y-5.255
X5.32Y-6.04
X5.33Y-5.415
X5.35Y-6.1
X5.353Y-4.595
X5.385Y-3.935
X5.39Y-3.995
X5.4Y-4.46
X5.41Y-4.32
X5.42Y-4.08
X5.43Y-3.8886
X5.43Y-5.87
X5.445Y-4.18
X5.445Y-4.42
X5.4451Y-5.2756
X5.45Y-6.1
X5.455Y-4.785
X5.47Y-3.64
X5.47Y-3.71
X5.475Y-4.325
X5.48Y-3.995
X5.48Y-4.26
X5.4825Y-5.1125
X5.485Y-5.275
X5.4908Y-5.365
X5.4917Y-5.8405
X5.525Y-3.885
X5.5425Y-4.79
X5.5486Y-4.205
X5.555Y-5.2
X5.56Y-4.325
X5.5649Y-4.0799
X5.565Y-3.89
X5.565Y-3.93
X5.57Y-4.01
X5.5926Y-5.2115
X5.6Y-5.87
X5.615Y-5.335
X5.6221Y-5.2376
X5.625Y-4.42
X5.625Y-5.29
X5.6325Y-6.2925
X5.635Y-4.575
X5.6515Y-5.1835
X5.66Y-4.09
X5.6741Y-4.5941
X5.685Y-4.24
X5.7Y-5.335
X5.705Y-5.15
X5.7185Y-4.3914
X5.72Y-5.625
X5.725Y-5.525
X5.7264Y-5.39
X5.75Y-5.9725
X5.755Y-5.145
X5.78Y-4.545
X5.79Y-5.39
X5.8175Y-5.7775
X5.83Y-5.085
X5.855Y-5.21
X5.8612Y-5.7319
X5.89Y-5.705
X5.8975Y-6.2875
X5.935Y-5.39
X5.95Y-5.9225
X5.974Y-5.3956
X5.9848Y-5.1702
X6.005Y-5.67
X6.01Y-3.67
X6.01Y-6.235
X6.0298Y-6.3598
X6.04Y-5.14
X6.0598Y-5.9621
X6.0615Y-5.6333
X6.0664Y-5.915
X6.0909Y-5.5791
X6.185Y-5.57
X6.185Y-6.19
X6.205Y-5.96
X6.2575Y-6.39
X6.315Y-6.28
X6.32Y-6.105
X6.405Y-6.36
X6.455Y-5.11
X6.555Y-5.105
X6.6125Y-6.175
X6.625Y-5.99
X6.81Y-4.38
X6.825Y-3.59
X6.85Y-6.08
X6.925Y-5.685
X6.9574Y-5.9233
X6.965Y-4.325
X6.965Y-5.8846
X7.07Y-5.085
X7.1325Y-6.2425
X7.205Y-5.075
X7.3725Y-5.775
X7.405Y-3.505
X7.5Y-5.585
X7.5075Y-5.67
X7.5275Y-5.975
X7.545Y-4.245
X7.565Y-3.455
X7.62Y-5.7575
X7.635Y-5.83
X7.69Y-4.98
X7.695Y-4.19
X7.7475Y-5.68
X7.77Y-5.3925
X7.825Y-4.955
X7.85Y-6.0625
X7.95Y-4.955
X7.95Y-5.345
X8.155Y-3.38
X8.2575Y-5.3
X8.295Y-4.11
X8.3Y-3.345
X8.425Y-4.08
X8.425Y-4.855
X8.58Y-4.835
X8.6312Y-3.9564
X8.905Y-3.24
X8.915Y-5.215
X9.05Y-3.22
X9.05Y-3.985
X9.165Y-4.715
X9.18Y-3.965
X9.295Y-4.705
X9.635Y-3.12
X9.785Y-3.855
X9.895Y-4.58
T3
X5.35Y-6.15
X5.45Y-6.15
X5.55Y-6.15
X5.65Y-6.15
T4
X5.2047Y-4.6316
X5.2047Y-4.73
X5.2047Y-4.8284
X5.7756Y-4.6316
X5.7756Y-4.8284
T5
X4.8138Y-6.3559
X5.0697Y-6.3559
T6
X4.3569Y-3.6532
X4.6205Y-3.5982
X2.0109Y-4.0011
X2.2744Y-3.9461
X2.8797Y-3.3928
X3.1433Y-3.3377
X7.0451Y-5.856
X7.274Y-5.7141
X6.4154Y-4.4439
X6.6442Y-4.302
X1.2723Y-3.8709
X1.5358Y-3.8158
X1.142Y-4.6095
X1.4056Y-4.5544
X7.2842Y-5.0523
X7.513Y-4.9104
X7.8926Y-4.1835
X8.1214Y-4.0416
X8.5009Y-3.3146
X8.7298Y-3.1727
X1.4025Y-3.1323
X1.6661Y-3.0772
X3.6183Y-3.523
X3.8819Y-3.4679
X9.3698Y-3.923
X9.5986Y-3.7811
X4.0965Y-5.1304
X4.36Y-5.0754
X1.8806Y-4.7397
X2.1442Y-4.6847
X8.7614Y-4.7918
X8.9903Y-4.6499
X7.154Y-4.3137
X7.3828Y-4.1718
X2.1411Y-3.2625
X2.4047Y-3.2075
X8.6312Y-4.0532
X8.86Y-3.9113
X2.6192Y-4.87
X2.8828Y-4.8149
X3.4881Y-4.2616
X3.7517Y-4.2065
X3.3578Y-5.0002
X3.6214Y-4.9451
X6.2851Y-3.7053
X6.514Y-3.5634
X2.7495Y-4.1314
X3.013Y-4.0763
X8.0228Y-4.9221
X8.2517Y-4.7802
X7.7623Y-3.4449
X7.9912Y-3.303
X9.2396Y-3.1844
X9.4684Y-3.0425
X9.5Y-4.6616
X9.7289Y-4.5197
X7.0237Y-3.5751
X7.2526Y-3.4332
X3.5969Y-5.8039
X3.8605Y-5.7489
X6.5456Y-5.1825
X6.7744Y-5.0406
X4.2267Y-4.3918
X4.4903Y-4.3368
T2
G00X5.3028Y-3.5854
M15
G01X5.3028Y-3.6091
M16
G05
G00X5.3028Y-3.7402
M15
G01X5.3028Y-3.7835
M16
G05
G00X5.6429Y-3.5854
M15
G01X5.6429Y-3.6091
M16
G05
G00X5.6429Y-3.7402
M15
G01X5.6429Y-3.7835
M16
G05
T7
G00X5.4744Y-4.5095
M15
G01X5.5256Y-4.5095
M16
G05
G00X5.4744Y-4.9505
M15
G01X5.5256Y-4.9505
M16
G05
T0
M30
