G04 #@! TF.GenerationSoftware,KiCad,Pcbnew,5.1.4*
G04 #@! TF.CreationDate,2020-08-18T00:09:42-04:00*
G04 #@! TF.ProjectId,pcb,7063622e-6b69-4636-9164-5f7063625858,rev?*
G04 #@! TF.SameCoordinates,Original*
G04 #@! TF.FileFunction,Soldermask,Bot*
G04 #@! TF.FilePolarity,Negative*
%FSLAX46Y46*%
G04 Gerber Fmt 4.6, Leading zero omitted, Abs format (unit mm)*
G04 Created by KiCad (PCBNEW 5.1.4) date 2020-08-18 00:09:42*
%MOMM*%
%LPD*%
G04 APERTURE LIST*
%ADD10C,0.100000*%
G04 APERTURE END LIST*
D10*
G36*
X178334572Y-123438771D02*
G01*
X178552572Y-123529070D01*
X178706721Y-123592920D01*
X179041646Y-123816710D01*
X179326475Y-124101539D01*
X179550265Y-124436464D01*
X179613458Y-124589025D01*
X179704414Y-124808613D01*
X179782998Y-125203681D01*
X179782998Y-125606493D01*
X179704414Y-126001561D01*
X179649883Y-126133210D01*
X179550265Y-126373710D01*
X179326475Y-126708635D01*
X179041646Y-126993464D01*
X178706721Y-127217254D01*
X178552572Y-127281104D01*
X178334572Y-127371403D01*
X177939504Y-127449987D01*
X177536692Y-127449987D01*
X177141624Y-127371403D01*
X176923624Y-127281104D01*
X176769475Y-127217254D01*
X176434550Y-126993464D01*
X176149721Y-126708635D01*
X175925931Y-126373710D01*
X175826313Y-126133210D01*
X175771782Y-126001561D01*
X175693198Y-125606493D01*
X175693198Y-125203681D01*
X175771782Y-124808613D01*
X175862738Y-124589025D01*
X175925931Y-124436464D01*
X176149721Y-124101539D01*
X176434550Y-123816710D01*
X176769475Y-123592920D01*
X176923624Y-123529070D01*
X177141624Y-123438771D01*
X177536692Y-123360187D01*
X177939504Y-123360187D01*
X178334572Y-123438771D01*
X178334572Y-123438771D01*
G37*
G36*
X112600876Y-123198271D02*
G01*
X112692939Y-123236405D01*
X112973025Y-123352420D01*
X113307950Y-123576210D01*
X113592779Y-123861039D01*
X113816569Y-124195964D01*
X113816569Y-124195965D01*
X113970718Y-124568113D01*
X114049302Y-124963181D01*
X114049302Y-125365993D01*
X113970718Y-125761061D01*
X113939926Y-125835399D01*
X113816569Y-126133210D01*
X113592779Y-126468135D01*
X113307950Y-126752964D01*
X112973025Y-126976754D01*
X112932683Y-126993464D01*
X112600876Y-127130903D01*
X112205808Y-127209487D01*
X111802996Y-127209487D01*
X111407928Y-127130903D01*
X111076121Y-126993464D01*
X111035779Y-126976754D01*
X110700854Y-126752964D01*
X110416025Y-126468135D01*
X110192235Y-126133210D01*
X110068878Y-125835399D01*
X110038086Y-125761061D01*
X109959502Y-125365993D01*
X109959502Y-124963181D01*
X110038086Y-124568113D01*
X110192235Y-124195965D01*
X110192235Y-124195964D01*
X110416025Y-123861039D01*
X110700854Y-123576210D01*
X111035779Y-123352420D01*
X111315865Y-123236405D01*
X111407928Y-123198271D01*
X111802996Y-123119687D01*
X112205808Y-123119687D01*
X112600876Y-123198271D01*
X112600876Y-123198271D01*
G37*
G36*
X146919125Y-124425799D02*
G01*
X147043321Y-124450502D01*
X147179722Y-124507001D01*
X147302479Y-124589025D01*
X147406875Y-124693421D01*
X147488899Y-124816178D01*
X147545398Y-124952579D01*
X147574200Y-125097381D01*
X147574200Y-125245019D01*
X147545398Y-125389821D01*
X147488899Y-125526222D01*
X147406875Y-125648979D01*
X147302479Y-125753375D01*
X147179722Y-125835399D01*
X147043321Y-125891898D01*
X146919125Y-125916601D01*
X146898520Y-125920700D01*
X146750880Y-125920700D01*
X146730275Y-125916601D01*
X146606079Y-125891898D01*
X146469678Y-125835399D01*
X146346921Y-125753375D01*
X146242525Y-125648979D01*
X146160501Y-125526222D01*
X146104002Y-125389821D01*
X146075200Y-125245019D01*
X146075200Y-125097381D01*
X146104002Y-124952579D01*
X146160501Y-124816178D01*
X146242525Y-124693421D01*
X146346921Y-124589025D01*
X146469678Y-124507001D01*
X146606079Y-124450502D01*
X146730275Y-124425799D01*
X146750880Y-124421700D01*
X146898520Y-124421700D01*
X146919125Y-124425799D01*
X146919125Y-124425799D01*
G37*
G36*
X149459125Y-124425799D02*
G01*
X149583321Y-124450502D01*
X149719722Y-124507001D01*
X149842479Y-124589025D01*
X149946875Y-124693421D01*
X150028899Y-124816178D01*
X150085398Y-124952579D01*
X150114200Y-125097381D01*
X150114200Y-125245019D01*
X150085398Y-125389821D01*
X150028899Y-125526222D01*
X149946875Y-125648979D01*
X149842479Y-125753375D01*
X149719722Y-125835399D01*
X149583321Y-125891898D01*
X149459125Y-125916601D01*
X149438520Y-125920700D01*
X149290880Y-125920700D01*
X149270275Y-125916601D01*
X149146079Y-125891898D01*
X149009678Y-125835399D01*
X148886921Y-125753375D01*
X148782525Y-125648979D01*
X148700501Y-125526222D01*
X148644002Y-125389821D01*
X148615200Y-125245019D01*
X148615200Y-125097381D01*
X148644002Y-124952579D01*
X148700501Y-124816178D01*
X148782525Y-124693421D01*
X148886921Y-124589025D01*
X149009678Y-124507001D01*
X149146079Y-124450502D01*
X149270275Y-124425799D01*
X149290880Y-124421700D01*
X149438520Y-124421700D01*
X149459125Y-124425799D01*
X149459125Y-124425799D01*
G37*
G36*
X141839125Y-124425799D02*
G01*
X141963321Y-124450502D01*
X142099722Y-124507001D01*
X142222479Y-124589025D01*
X142326875Y-124693421D01*
X142408899Y-124816178D01*
X142465398Y-124952579D01*
X142494200Y-125097381D01*
X142494200Y-125245019D01*
X142465398Y-125389821D01*
X142408899Y-125526222D01*
X142326875Y-125648979D01*
X142222479Y-125753375D01*
X142099722Y-125835399D01*
X141963321Y-125891898D01*
X141839125Y-125916601D01*
X141818520Y-125920700D01*
X141670880Y-125920700D01*
X141650275Y-125916601D01*
X141526079Y-125891898D01*
X141389678Y-125835399D01*
X141266921Y-125753375D01*
X141162525Y-125648979D01*
X141080501Y-125526222D01*
X141024002Y-125389821D01*
X140995200Y-125245019D01*
X140995200Y-125097381D01*
X141024002Y-124952579D01*
X141080501Y-124816178D01*
X141162525Y-124693421D01*
X141266921Y-124589025D01*
X141389678Y-124507001D01*
X141526079Y-124450502D01*
X141650275Y-124425799D01*
X141670880Y-124421700D01*
X141818520Y-124421700D01*
X141839125Y-124425799D01*
X141839125Y-124425799D01*
G37*
G36*
X144379125Y-124425799D02*
G01*
X144503321Y-124450502D01*
X144639722Y-124507001D01*
X144762479Y-124589025D01*
X144866875Y-124693421D01*
X144948899Y-124816178D01*
X145005398Y-124952579D01*
X145034200Y-125097381D01*
X145034200Y-125245019D01*
X145005398Y-125389821D01*
X144948899Y-125526222D01*
X144866875Y-125648979D01*
X144762479Y-125753375D01*
X144639722Y-125835399D01*
X144503321Y-125891898D01*
X144379125Y-125916601D01*
X144358520Y-125920700D01*
X144210880Y-125920700D01*
X144190275Y-125916601D01*
X144066079Y-125891898D01*
X143929678Y-125835399D01*
X143806921Y-125753375D01*
X143702525Y-125648979D01*
X143620501Y-125526222D01*
X143564002Y-125389821D01*
X143535200Y-125245019D01*
X143535200Y-125097381D01*
X143564002Y-124952579D01*
X143620501Y-124816178D01*
X143702525Y-124693421D01*
X143806921Y-124589025D01*
X143929678Y-124507001D01*
X144066079Y-124450502D01*
X144190275Y-124425799D01*
X144210880Y-124421700D01*
X144358520Y-124421700D01*
X144379125Y-124425799D01*
X144379125Y-124425799D01*
G37*
G36*
X201785307Y-119303773D02*
G01*
X202003307Y-119394072D01*
X202157456Y-119457922D01*
X202492381Y-119681712D01*
X202777210Y-119966541D01*
X203001000Y-120301466D01*
X203064850Y-120455615D01*
X203155149Y-120673615D01*
X203233733Y-121068683D01*
X203233733Y-121471495D01*
X203155149Y-121866563D01*
X203100618Y-121998212D01*
X203001000Y-122238712D01*
X202777210Y-122573637D01*
X202492381Y-122858466D01*
X202157456Y-123082256D01*
X202067089Y-123119687D01*
X201785307Y-123236405D01*
X201390239Y-123314989D01*
X200987427Y-123314989D01*
X200592359Y-123236405D01*
X200310577Y-123119687D01*
X200220210Y-123082256D01*
X199885285Y-122858466D01*
X199600456Y-122573637D01*
X199376666Y-122238712D01*
X199277048Y-121998212D01*
X199222517Y-121866563D01*
X199143933Y-121471495D01*
X199143933Y-121068683D01*
X199222517Y-120673615D01*
X199312816Y-120455615D01*
X199376666Y-120301466D01*
X199600456Y-119966541D01*
X199885285Y-119681712D01*
X200220210Y-119457922D01*
X200374359Y-119394072D01*
X200592359Y-119303773D01*
X200987427Y-119225189D01*
X201390239Y-119225189D01*
X201785307Y-119303773D01*
X201785307Y-119303773D01*
G37*
G36*
X89150141Y-119063273D02*
G01*
X89368141Y-119153572D01*
X89522290Y-119217422D01*
X89857215Y-119441212D01*
X90142044Y-119726041D01*
X90365834Y-120060966D01*
X90365834Y-120060967D01*
X90519983Y-120433115D01*
X90598567Y-120828183D01*
X90598567Y-121230995D01*
X90519983Y-121626063D01*
X90429684Y-121844063D01*
X90365834Y-121998212D01*
X90142044Y-122333137D01*
X89857215Y-122617966D01*
X89522290Y-122841756D01*
X89481948Y-122858466D01*
X89150141Y-122995905D01*
X88755073Y-123074489D01*
X88352261Y-123074489D01*
X87957193Y-122995905D01*
X87625386Y-122858466D01*
X87585044Y-122841756D01*
X87250119Y-122617966D01*
X86965290Y-122333137D01*
X86741500Y-121998212D01*
X86677650Y-121844063D01*
X86587351Y-121626063D01*
X86508767Y-121230995D01*
X86508767Y-120828183D01*
X86587351Y-120433115D01*
X86741500Y-120060967D01*
X86741500Y-120060966D01*
X86965290Y-119726041D01*
X87250119Y-119441212D01*
X87585044Y-119217422D01*
X87739193Y-119153572D01*
X87957193Y-119063273D01*
X88352261Y-118984689D01*
X88755073Y-118984689D01*
X89150141Y-119063273D01*
X89150141Y-119063273D01*
G37*
G36*
X188626474Y-113241684D02*
G01*
X188844474Y-113331983D01*
X188998623Y-113395833D01*
X189333548Y-113619623D01*
X189618377Y-113904452D01*
X189842167Y-114239377D01*
X189906017Y-114393526D01*
X189996316Y-114611526D01*
X190074900Y-115006594D01*
X190074900Y-115409406D01*
X189996316Y-115804474D01*
X189906017Y-116022474D01*
X189842167Y-116176623D01*
X189618377Y-116511548D01*
X189333548Y-116796377D01*
X188998623Y-117020167D01*
X188844474Y-117084017D01*
X188626474Y-117174316D01*
X188231406Y-117252900D01*
X187828594Y-117252900D01*
X187433526Y-117174316D01*
X187215526Y-117084017D01*
X187061377Y-117020167D01*
X186726452Y-116796377D01*
X186441623Y-116511548D01*
X186217833Y-116176623D01*
X186153983Y-116022474D01*
X186063684Y-115804474D01*
X185985100Y-115409406D01*
X185985100Y-115006594D01*
X186063684Y-114611526D01*
X186153983Y-114393526D01*
X186217833Y-114239377D01*
X186441623Y-113904452D01*
X186726452Y-113619623D01*
X187061377Y-113395833D01*
X187215526Y-113331983D01*
X187433526Y-113241684D01*
X187828594Y-113163100D01*
X188231406Y-113163100D01*
X188626474Y-113241684D01*
X188626474Y-113241684D01*
G37*
G36*
X183297281Y-115199718D02*
G01*
X183465803Y-115269522D01*
X183617468Y-115370861D01*
X183746449Y-115499842D01*
X183847788Y-115651507D01*
X183917592Y-115820029D01*
X183953177Y-115998930D01*
X183953177Y-116181336D01*
X183917592Y-116360237D01*
X183847788Y-116528759D01*
X183746449Y-116680424D01*
X183617468Y-116809405D01*
X183465803Y-116910744D01*
X183297281Y-116980548D01*
X183118380Y-117016133D01*
X182935974Y-117016133D01*
X182757073Y-116980548D01*
X182588551Y-116910744D01*
X182436886Y-116809405D01*
X182307905Y-116680424D01*
X182206566Y-116528759D01*
X182136762Y-116360237D01*
X182101177Y-116181336D01*
X182101177Y-115998930D01*
X182136762Y-115820029D01*
X182206566Y-115651507D01*
X182307905Y-115499842D01*
X182436886Y-115370861D01*
X182588551Y-115269522D01*
X182757073Y-115199718D01*
X182935974Y-115164133D01*
X183118380Y-115164133D01*
X183297281Y-115199718D01*
X183297281Y-115199718D01*
G37*
G36*
X102308974Y-113001184D02*
G01*
X102526974Y-113091483D01*
X102681123Y-113155333D01*
X103016048Y-113379123D01*
X103300877Y-113663952D01*
X103524667Y-113998877D01*
X103588517Y-114153026D01*
X103678816Y-114371026D01*
X103757400Y-114766094D01*
X103757400Y-115168906D01*
X103678816Y-115563974D01*
X103588517Y-115781974D01*
X103524667Y-115936123D01*
X103300877Y-116271048D01*
X103016048Y-116555877D01*
X102681123Y-116779667D01*
X102526974Y-116843517D01*
X102308974Y-116933816D01*
X101913906Y-117012400D01*
X101511094Y-117012400D01*
X101116026Y-116933816D01*
X100898026Y-116843517D01*
X100743877Y-116779667D01*
X100408952Y-116555877D01*
X100124123Y-116271048D01*
X99900333Y-115936123D01*
X99836483Y-115781974D01*
X99746184Y-115563974D01*
X99667600Y-115168906D01*
X99667600Y-114766094D01*
X99746184Y-114371026D01*
X99836483Y-114153026D01*
X99900333Y-113998877D01*
X100124123Y-113663952D01*
X100408952Y-113379123D01*
X100743877Y-113155333D01*
X100898026Y-113091483D01*
X101116026Y-113001184D01*
X101511094Y-112922600D01*
X101913906Y-112922600D01*
X102308974Y-113001184D01*
X102308974Y-113001184D01*
G37*
G36*
X106985427Y-114959218D02*
G01*
X107153949Y-115029022D01*
X107305614Y-115130361D01*
X107434595Y-115259342D01*
X107535934Y-115411007D01*
X107605738Y-115579529D01*
X107641323Y-115758430D01*
X107641323Y-115940836D01*
X107605738Y-116119737D01*
X107535934Y-116288259D01*
X107434595Y-116439924D01*
X107305614Y-116568905D01*
X107153949Y-116670244D01*
X106985427Y-116740048D01*
X106806526Y-116775633D01*
X106624120Y-116775633D01*
X106445219Y-116740048D01*
X106276697Y-116670244D01*
X106125032Y-116568905D01*
X105996051Y-116439924D01*
X105894712Y-116288259D01*
X105824908Y-116119737D01*
X105789323Y-115940836D01*
X105789323Y-115758430D01*
X105824908Y-115579529D01*
X105894712Y-115411007D01*
X105996051Y-115259342D01*
X106125032Y-115130361D01*
X106276697Y-115029022D01*
X106445219Y-114959218D01*
X106624120Y-114923633D01*
X106806526Y-114923633D01*
X106985427Y-114959218D01*
X106985427Y-114959218D01*
G37*
G36*
X193302927Y-113435452D02*
G01*
X193471449Y-113505256D01*
X193623114Y-113606595D01*
X193752095Y-113735576D01*
X193853434Y-113887241D01*
X193923238Y-114055763D01*
X193958823Y-114234664D01*
X193958823Y-114417070D01*
X193923238Y-114595971D01*
X193853434Y-114764493D01*
X193752095Y-114916158D01*
X193623114Y-115045139D01*
X193471449Y-115146478D01*
X193302927Y-115216282D01*
X193124026Y-115251867D01*
X192941620Y-115251867D01*
X192762719Y-115216282D01*
X192594197Y-115146478D01*
X192442532Y-115045139D01*
X192313551Y-114916158D01*
X192212212Y-114764493D01*
X192142408Y-114595971D01*
X192106823Y-114417070D01*
X192106823Y-114234664D01*
X192142408Y-114055763D01*
X192212212Y-113887241D01*
X192313551Y-113735576D01*
X192442532Y-113606595D01*
X192594197Y-113505256D01*
X192762719Y-113435452D01*
X192941620Y-113399867D01*
X193124026Y-113399867D01*
X193302927Y-113435452D01*
X193302927Y-113435452D01*
G37*
G36*
X96979781Y-113194952D02*
G01*
X97148303Y-113264756D01*
X97299968Y-113366095D01*
X97428949Y-113495076D01*
X97530288Y-113646741D01*
X97600092Y-113815263D01*
X97635677Y-113994164D01*
X97635677Y-114176570D01*
X97600092Y-114355471D01*
X97530288Y-114523993D01*
X97428949Y-114675658D01*
X97299968Y-114804639D01*
X97148303Y-114905978D01*
X96979781Y-114975782D01*
X96800880Y-115011367D01*
X96618474Y-115011367D01*
X96439573Y-114975782D01*
X96271051Y-114905978D01*
X96119386Y-114804639D01*
X95990405Y-114675658D01*
X95889066Y-114523993D01*
X95819262Y-114355471D01*
X95783677Y-114176570D01*
X95783677Y-113994164D01*
X95819262Y-113815263D01*
X95889066Y-113646741D01*
X95990405Y-113495076D01*
X96119386Y-113366095D01*
X96271051Y-113264756D01*
X96439573Y-113194952D01*
X96618474Y-113159367D01*
X96800880Y-113159367D01*
X96979781Y-113194952D01*
X96979781Y-113194952D01*
G37*
G36*
X184028376Y-112207252D02*
G01*
X184179843Y-112237381D01*
X184393861Y-112326030D01*
X184393862Y-112326031D01*
X184586470Y-112454727D01*
X184750277Y-112618534D01*
X184816703Y-112717948D01*
X184878974Y-112811143D01*
X184967623Y-113025161D01*
X184967623Y-113025163D01*
X185012816Y-113252361D01*
X185012816Y-113484015D01*
X185008591Y-113505256D01*
X184967623Y-113711215D01*
X184878974Y-113925233D01*
X184878973Y-113925234D01*
X184750277Y-114117842D01*
X184586470Y-114281649D01*
X184475987Y-114355471D01*
X184393861Y-114410346D01*
X184179843Y-114498995D01*
X184054174Y-114523992D01*
X183952643Y-114544188D01*
X183720989Y-114544188D01*
X183619458Y-114523992D01*
X183493789Y-114498995D01*
X183279771Y-114410346D01*
X183197645Y-114355471D01*
X183087162Y-114281649D01*
X182923355Y-114117842D01*
X182794659Y-113925234D01*
X182794658Y-113925233D01*
X182706009Y-113711215D01*
X182665041Y-113505256D01*
X182660816Y-113484015D01*
X182660816Y-113252361D01*
X182706009Y-113025163D01*
X182706009Y-113025161D01*
X182794658Y-112811143D01*
X182856929Y-112717948D01*
X182923355Y-112618534D01*
X183087162Y-112454727D01*
X183279770Y-112326031D01*
X183279771Y-112326030D01*
X183493789Y-112237381D01*
X183645256Y-112207252D01*
X183720989Y-112192188D01*
X183952643Y-112192188D01*
X184028376Y-112207252D01*
X184028376Y-112207252D01*
G37*
G36*
X98593009Y-110643553D02*
G01*
X98744476Y-110673682D01*
X98958494Y-110762331D01*
X98958495Y-110762332D01*
X99151103Y-110891028D01*
X99314910Y-111054835D01*
X99373591Y-111142658D01*
X99443607Y-111247444D01*
X99532256Y-111461462D01*
X99577449Y-111688663D01*
X99577449Y-111920315D01*
X99532256Y-112147516D01*
X99443607Y-112361534D01*
X99443606Y-112361535D01*
X99314910Y-112554143D01*
X99151103Y-112717950D01*
X99022698Y-112803747D01*
X98958494Y-112846647D01*
X98744476Y-112935296D01*
X98593009Y-112965425D01*
X98517276Y-112980489D01*
X98285622Y-112980489D01*
X98209889Y-112965425D01*
X98058422Y-112935296D01*
X97844404Y-112846647D01*
X97780200Y-112803747D01*
X97651795Y-112717950D01*
X97487988Y-112554143D01*
X97359292Y-112361535D01*
X97359291Y-112361534D01*
X97270642Y-112147516D01*
X97225449Y-111920315D01*
X97225449Y-111688663D01*
X97270642Y-111461462D01*
X97359291Y-111247444D01*
X97429307Y-111142658D01*
X97487988Y-111054835D01*
X97651795Y-110891028D01*
X97844403Y-110762332D01*
X97844404Y-110762331D01*
X98058422Y-110673682D01*
X98209889Y-110643553D01*
X98285622Y-110628489D01*
X98517276Y-110628489D01*
X98593009Y-110643553D01*
X98593009Y-110643553D01*
G37*
G36*
X175392784Y-108850649D02*
G01*
X175551111Y-108882142D01*
X175669837Y-108931320D01*
X175837741Y-109000868D01*
X175923339Y-109058063D01*
X176095704Y-109173233D01*
X176315083Y-109392612D01*
X176381680Y-109492282D01*
X176487448Y-109650575D01*
X176506556Y-109696706D01*
X176606174Y-109937205D01*
X176666700Y-110241492D01*
X176666700Y-110551740D01*
X176606174Y-110856027D01*
X176556996Y-110974753D01*
X176487448Y-111142657D01*
X176430253Y-111228255D01*
X176315083Y-111400620D01*
X176095704Y-111619999D01*
X175929405Y-111731116D01*
X175837741Y-111792364D01*
X175669837Y-111861912D01*
X175551111Y-111911090D01*
X175504733Y-111920315D01*
X175246825Y-111971616D01*
X174936575Y-111971616D01*
X174678667Y-111920315D01*
X174632289Y-111911090D01*
X174513563Y-111861912D01*
X174345659Y-111792364D01*
X174253995Y-111731116D01*
X174087696Y-111619999D01*
X173868317Y-111400620D01*
X173753147Y-111228255D01*
X173695952Y-111142657D01*
X173626404Y-110974753D01*
X173577226Y-110856027D01*
X173516700Y-110551740D01*
X173516700Y-110241492D01*
X173577226Y-109937205D01*
X173676844Y-109696706D01*
X173695952Y-109650575D01*
X173801720Y-109492282D01*
X173868317Y-109392612D01*
X174087696Y-109173233D01*
X174260061Y-109058063D01*
X174345659Y-109000868D01*
X174513563Y-108931320D01*
X174632289Y-108882142D01*
X174790616Y-108850649D01*
X174936575Y-108821616D01*
X175246825Y-108821616D01*
X175392784Y-108850649D01*
X175392784Y-108850649D01*
G37*
G36*
X114958067Y-108611379D02*
G01*
X115110211Y-108641642D01*
X115228937Y-108690820D01*
X115396841Y-108760368D01*
X115396842Y-108760369D01*
X115654804Y-108932733D01*
X115874183Y-109152112D01*
X115910901Y-109207065D01*
X116046548Y-109410075D01*
X116165274Y-109696706D01*
X116225800Y-110000991D01*
X116225800Y-110311241D01*
X116165274Y-110615526D01*
X116046548Y-110902157D01*
X116006035Y-110962789D01*
X115874183Y-111160120D01*
X115654804Y-111379499D01*
X115532137Y-111461462D01*
X115396841Y-111551864D01*
X115324706Y-111581743D01*
X115110211Y-111670590D01*
X115019356Y-111688662D01*
X114805925Y-111731116D01*
X114495675Y-111731116D01*
X114282244Y-111688662D01*
X114191389Y-111670590D01*
X113976894Y-111581743D01*
X113904759Y-111551864D01*
X113769463Y-111461462D01*
X113646796Y-111379499D01*
X113427417Y-111160120D01*
X113295565Y-110962789D01*
X113255052Y-110902157D01*
X113136326Y-110615526D01*
X113075800Y-110311241D01*
X113075800Y-110000991D01*
X113136326Y-109696706D01*
X113255052Y-109410075D01*
X113390699Y-109207065D01*
X113427417Y-109152112D01*
X113646796Y-108932733D01*
X113904758Y-108760369D01*
X113904759Y-108760368D01*
X114072663Y-108690820D01*
X114191389Y-108641642D01*
X114343533Y-108611379D01*
X114495675Y-108581116D01*
X114805925Y-108581116D01*
X114958067Y-108611379D01*
X114958067Y-108611379D01*
G37*
G36*
X105287604Y-109244807D02*
G01*
X105439071Y-109274936D01*
X105653089Y-109363585D01*
X105653090Y-109363586D01*
X105845698Y-109492282D01*
X106009505Y-109656089D01*
X106036644Y-109696706D01*
X106138202Y-109848698D01*
X106226851Y-110062716D01*
X106226851Y-110062718D01*
X106272044Y-110289916D01*
X106272044Y-110521570D01*
X106256980Y-110597303D01*
X106226851Y-110748770D01*
X106138202Y-110962788D01*
X106138201Y-110962789D01*
X106009505Y-111155397D01*
X105845698Y-111319204D01*
X105723851Y-111400619D01*
X105653089Y-111447901D01*
X105439071Y-111536550D01*
X105287604Y-111566679D01*
X105211871Y-111581743D01*
X104980217Y-111581743D01*
X104904484Y-111566679D01*
X104753017Y-111536550D01*
X104538999Y-111447901D01*
X104468237Y-111400619D01*
X104346390Y-111319204D01*
X104182583Y-111155397D01*
X104053887Y-110962789D01*
X104053886Y-110962788D01*
X103965237Y-110748770D01*
X103935108Y-110597303D01*
X103920044Y-110521570D01*
X103920044Y-110289916D01*
X103965237Y-110062718D01*
X103965237Y-110062716D01*
X104053886Y-109848698D01*
X104155444Y-109696706D01*
X104182583Y-109656089D01*
X104346390Y-109492282D01*
X104538998Y-109363586D01*
X104538999Y-109363585D01*
X104753017Y-109274936D01*
X104904484Y-109244807D01*
X104980217Y-109229743D01*
X105211871Y-109229743D01*
X105287604Y-109244807D01*
X105287604Y-109244807D01*
G37*
G36*
X189840839Y-108603174D02*
G01*
X189992306Y-108633303D01*
X190206324Y-108721952D01*
X190206325Y-108721953D01*
X190398933Y-108850649D01*
X190562740Y-109014456D01*
X190648537Y-109142861D01*
X190691437Y-109207065D01*
X190780086Y-109421083D01*
X190825279Y-109648284D01*
X190825279Y-109879936D01*
X190780086Y-110107137D01*
X190691437Y-110321155D01*
X190691436Y-110321156D01*
X190562740Y-110513764D01*
X190398933Y-110677571D01*
X190292379Y-110748768D01*
X190206324Y-110806268D01*
X189992306Y-110894917D01*
X189840839Y-110925046D01*
X189765106Y-110940110D01*
X189533452Y-110940110D01*
X189457719Y-110925046D01*
X189306252Y-110894917D01*
X189092234Y-110806268D01*
X189006179Y-110748768D01*
X188899625Y-110677571D01*
X188735818Y-110513764D01*
X188607122Y-110321156D01*
X188607121Y-110321155D01*
X188518472Y-110107137D01*
X188473279Y-109879936D01*
X188473279Y-109648284D01*
X188518472Y-109421083D01*
X188607121Y-109207065D01*
X188650021Y-109142861D01*
X188735818Y-109014456D01*
X188899625Y-108850649D01*
X189092233Y-108721953D01*
X189092234Y-108721952D01*
X189306252Y-108633303D01*
X189457719Y-108603174D01*
X189533452Y-108588110D01*
X189765106Y-108588110D01*
X189840839Y-108603174D01*
X189840839Y-108603174D01*
G37*
G36*
X198849702Y-104716882D02*
G01*
X199001846Y-104747145D01*
X199120572Y-104796323D01*
X199288476Y-104865871D01*
X199288477Y-104865872D01*
X199546439Y-105038236D01*
X199765818Y-105257615D01*
X199777486Y-105275078D01*
X199938183Y-105515578D01*
X200056909Y-105802209D01*
X200117435Y-106106494D01*
X200117435Y-106416744D01*
X200056909Y-106721029D01*
X199938183Y-107007660D01*
X199880988Y-107093258D01*
X199765818Y-107265623D01*
X199546439Y-107485002D01*
X199380140Y-107596119D01*
X199288476Y-107657367D01*
X199120572Y-107726915D01*
X199001846Y-107776093D01*
X198849702Y-107806356D01*
X198697560Y-107836619D01*
X198387310Y-107836619D01*
X198235168Y-107806356D01*
X198083024Y-107776093D01*
X197964298Y-107726915D01*
X197796394Y-107657367D01*
X197704730Y-107596119D01*
X197538431Y-107485002D01*
X197319052Y-107265623D01*
X197203882Y-107093258D01*
X197146687Y-107007660D01*
X197027961Y-106721029D01*
X196967435Y-106416744D01*
X196967435Y-106106494D01*
X197027961Y-105802209D01*
X197146687Y-105515578D01*
X197307384Y-105275078D01*
X197319052Y-105257615D01*
X197538431Y-105038236D01*
X197796393Y-104865872D01*
X197796394Y-104865871D01*
X197964298Y-104796323D01*
X198083024Y-104747145D01*
X198387310Y-104686619D01*
X198697560Y-104686619D01*
X198849702Y-104716882D01*
X198849702Y-104716882D01*
G37*
G36*
X91659476Y-104506645D02*
G01*
X91778202Y-104555823D01*
X91946106Y-104625371D01*
X91946107Y-104625372D01*
X92204069Y-104797736D01*
X92423448Y-105017115D01*
X92538618Y-105189480D01*
X92595813Y-105275078D01*
X92714539Y-105561709D01*
X92775065Y-105865994D01*
X92775065Y-106176244D01*
X92714539Y-106480529D01*
X92595813Y-106767160D01*
X92595812Y-106767161D01*
X92423448Y-107025123D01*
X92204069Y-107244502D01*
X92031704Y-107359672D01*
X91946106Y-107416867D01*
X91781613Y-107485002D01*
X91659476Y-107535593D01*
X91355190Y-107596119D01*
X91044940Y-107596119D01*
X90740654Y-107535593D01*
X90618517Y-107485002D01*
X90454024Y-107416867D01*
X90368426Y-107359672D01*
X90196061Y-107244502D01*
X89976682Y-107025123D01*
X89804318Y-106767161D01*
X89804317Y-106767160D01*
X89685591Y-106480529D01*
X89625065Y-106176244D01*
X89625065Y-105865994D01*
X89685591Y-105561709D01*
X89804317Y-105275078D01*
X89861512Y-105189480D01*
X89976682Y-105017115D01*
X90196061Y-104797736D01*
X90454023Y-104625372D01*
X90454024Y-104625371D01*
X90621928Y-104555823D01*
X90740654Y-104506645D01*
X90892798Y-104476382D01*
X91044940Y-104446119D01*
X91355190Y-104446119D01*
X91659476Y-104506645D01*
X91659476Y-104506645D01*
G37*
G36*
X147434164Y-101404489D02*
G01*
X147625433Y-101483715D01*
X147625435Y-101483716D01*
X147797573Y-101598735D01*
X147943965Y-101745127D01*
X148058985Y-101917267D01*
X148138211Y-102108536D01*
X148178600Y-102311584D01*
X148178600Y-102518616D01*
X148138211Y-102721664D01*
X148058985Y-102912933D01*
X148058984Y-102912935D01*
X147943965Y-103085073D01*
X147797573Y-103231465D01*
X147625435Y-103346484D01*
X147625434Y-103346485D01*
X147625433Y-103346485D01*
X147434164Y-103425711D01*
X147231116Y-103466100D01*
X147024084Y-103466100D01*
X146821036Y-103425711D01*
X146629767Y-103346485D01*
X146629766Y-103346485D01*
X146629765Y-103346484D01*
X146457627Y-103231465D01*
X146311235Y-103085073D01*
X146196216Y-102912935D01*
X146196215Y-102912933D01*
X146116989Y-102721664D01*
X146076600Y-102518616D01*
X146076600Y-102311584D01*
X146116989Y-102108536D01*
X146196215Y-101917267D01*
X146311235Y-101745127D01*
X146457627Y-101598735D01*
X146629765Y-101483716D01*
X146629767Y-101483715D01*
X146821036Y-101404489D01*
X147024084Y-101364100D01*
X147231116Y-101364100D01*
X147434164Y-101404489D01*
X147434164Y-101404489D01*
G37*
G36*
X142434164Y-101404489D02*
G01*
X142625433Y-101483715D01*
X142625435Y-101483716D01*
X142797573Y-101598735D01*
X142943965Y-101745127D01*
X143058985Y-101917267D01*
X143138211Y-102108536D01*
X143178600Y-102311584D01*
X143178600Y-102518616D01*
X143138211Y-102721664D01*
X143058985Y-102912933D01*
X143058984Y-102912935D01*
X142943965Y-103085073D01*
X142797573Y-103231465D01*
X142625435Y-103346484D01*
X142625434Y-103346485D01*
X142625433Y-103346485D01*
X142434164Y-103425711D01*
X142231116Y-103466100D01*
X142024084Y-103466100D01*
X141821036Y-103425711D01*
X141629767Y-103346485D01*
X141629766Y-103346485D01*
X141629765Y-103346484D01*
X141457627Y-103231465D01*
X141311235Y-103085073D01*
X141196216Y-102912935D01*
X141196215Y-102912933D01*
X141116989Y-102721664D01*
X141076600Y-102518616D01*
X141076600Y-102311584D01*
X141116989Y-102108536D01*
X141196215Y-101917267D01*
X141311235Y-101745127D01*
X141457627Y-101598735D01*
X141629765Y-101483716D01*
X141629767Y-101483715D01*
X141821036Y-101404489D01*
X142024084Y-101364100D01*
X142231116Y-101364100D01*
X142434164Y-101404489D01*
X142434164Y-101404489D01*
G37*
G36*
X175901474Y-96141684D02*
G01*
X176081118Y-96216095D01*
X176273623Y-96295833D01*
X176608548Y-96519623D01*
X176893377Y-96804452D01*
X177117167Y-97139377D01*
X177150987Y-97221026D01*
X177271316Y-97511526D01*
X177349900Y-97906594D01*
X177349900Y-98309406D01*
X177271316Y-98704474D01*
X177181017Y-98922474D01*
X177117167Y-99076623D01*
X176893377Y-99411548D01*
X176608548Y-99696377D01*
X176273623Y-99920167D01*
X176119474Y-99984017D01*
X175901474Y-100074316D01*
X175506406Y-100152900D01*
X175103594Y-100152900D01*
X174708526Y-100074316D01*
X174490526Y-99984017D01*
X174336377Y-99920167D01*
X174001452Y-99696377D01*
X173716623Y-99411548D01*
X173492833Y-99076623D01*
X173428983Y-98922474D01*
X173338684Y-98704474D01*
X173260100Y-98309406D01*
X173260100Y-97906594D01*
X173338684Y-97511526D01*
X173459013Y-97221026D01*
X173492833Y-97139377D01*
X173716623Y-96804452D01*
X174001452Y-96519623D01*
X174336377Y-96295833D01*
X174528882Y-96216095D01*
X174708526Y-96141684D01*
X175103594Y-96063100D01*
X175506406Y-96063100D01*
X175901474Y-96141684D01*
X175901474Y-96141684D01*
G37*
G36*
X170572281Y-98099718D02*
G01*
X170740803Y-98169522D01*
X170892468Y-98270861D01*
X171021449Y-98399842D01*
X171122788Y-98551507D01*
X171192592Y-98720029D01*
X171228177Y-98898930D01*
X171228177Y-99081336D01*
X171192592Y-99260237D01*
X171122788Y-99428759D01*
X171021449Y-99580424D01*
X170892468Y-99709405D01*
X170740803Y-99810744D01*
X170572281Y-99880548D01*
X170393380Y-99916133D01*
X170210974Y-99916133D01*
X170032073Y-99880548D01*
X169863551Y-99810744D01*
X169711886Y-99709405D01*
X169582905Y-99580424D01*
X169481566Y-99428759D01*
X169411762Y-99260237D01*
X169376177Y-99081336D01*
X169376177Y-98898930D01*
X169411762Y-98720029D01*
X169481566Y-98551507D01*
X169582905Y-98399842D01*
X169711886Y-98270861D01*
X169863551Y-98169522D01*
X170032073Y-98099718D01*
X170210974Y-98064133D01*
X170393380Y-98064133D01*
X170572281Y-98099718D01*
X170572281Y-98099718D01*
G37*
G36*
X115008974Y-95851184D02*
G01*
X115223209Y-95939923D01*
X115381123Y-96005333D01*
X115716048Y-96229123D01*
X116000877Y-96513952D01*
X116224667Y-96848877D01*
X116224667Y-96848878D01*
X116378816Y-97221026D01*
X116457400Y-97616094D01*
X116457400Y-98018906D01*
X116378816Y-98413974D01*
X116288517Y-98631974D01*
X116224667Y-98786123D01*
X116000877Y-99121048D01*
X115716048Y-99405877D01*
X115381123Y-99629667D01*
X115226974Y-99693517D01*
X115008974Y-99783816D01*
X114613906Y-99862400D01*
X114211094Y-99862400D01*
X113816026Y-99783816D01*
X113598026Y-99693517D01*
X113443877Y-99629667D01*
X113108952Y-99405877D01*
X112824123Y-99121048D01*
X112600333Y-98786123D01*
X112536483Y-98631974D01*
X112446184Y-98413974D01*
X112367600Y-98018906D01*
X112367600Y-97616094D01*
X112446184Y-97221026D01*
X112600333Y-96848878D01*
X112600333Y-96848877D01*
X112824123Y-96513952D01*
X113108952Y-96229123D01*
X113443877Y-96005333D01*
X113601791Y-95939923D01*
X113816026Y-95851184D01*
X114211094Y-95772600D01*
X114613906Y-95772600D01*
X115008974Y-95851184D01*
X115008974Y-95851184D01*
G37*
G36*
X119685427Y-97809218D02*
G01*
X119853949Y-97879022D01*
X120005614Y-97980361D01*
X120134595Y-98109342D01*
X120235934Y-98261007D01*
X120305738Y-98429529D01*
X120341323Y-98608430D01*
X120341323Y-98790836D01*
X120305738Y-98969737D01*
X120235934Y-99138259D01*
X120134595Y-99289924D01*
X120005614Y-99418905D01*
X119853949Y-99520244D01*
X119685427Y-99590048D01*
X119506526Y-99625633D01*
X119324120Y-99625633D01*
X119145219Y-99590048D01*
X118976697Y-99520244D01*
X118825032Y-99418905D01*
X118696051Y-99289924D01*
X118594712Y-99138259D01*
X118524908Y-98969737D01*
X118489323Y-98790836D01*
X118489323Y-98608430D01*
X118524908Y-98429529D01*
X118594712Y-98261007D01*
X118696051Y-98109342D01*
X118825032Y-97980361D01*
X118976697Y-97879022D01*
X119145219Y-97809218D01*
X119324120Y-97773633D01*
X119506526Y-97773633D01*
X119685427Y-97809218D01*
X119685427Y-97809218D01*
G37*
G36*
X180577927Y-96335452D02*
G01*
X180746449Y-96405256D01*
X180898114Y-96506595D01*
X181027095Y-96635576D01*
X181128434Y-96787241D01*
X181198238Y-96955763D01*
X181233823Y-97134664D01*
X181233823Y-97317070D01*
X181198238Y-97495971D01*
X181128434Y-97664493D01*
X181027095Y-97816158D01*
X180898114Y-97945139D01*
X180746449Y-98046478D01*
X180577927Y-98116282D01*
X180399026Y-98151867D01*
X180216620Y-98151867D01*
X180037719Y-98116282D01*
X179869197Y-98046478D01*
X179717532Y-97945139D01*
X179588551Y-97816158D01*
X179487212Y-97664493D01*
X179417408Y-97495971D01*
X179381823Y-97317070D01*
X179381823Y-97134664D01*
X179417408Y-96955763D01*
X179487212Y-96787241D01*
X179588551Y-96635576D01*
X179717532Y-96506595D01*
X179869197Y-96405256D01*
X180037719Y-96335452D01*
X180216620Y-96299867D01*
X180399026Y-96299867D01*
X180577927Y-96335452D01*
X180577927Y-96335452D01*
G37*
G36*
X109679781Y-96044952D02*
G01*
X109848303Y-96114756D01*
X109999968Y-96216095D01*
X110128949Y-96345076D01*
X110230288Y-96496741D01*
X110300092Y-96665263D01*
X110335677Y-96844164D01*
X110335677Y-97026570D01*
X110300092Y-97205471D01*
X110230288Y-97373993D01*
X110128949Y-97525658D01*
X109999968Y-97654639D01*
X109848303Y-97755978D01*
X109679781Y-97825782D01*
X109500880Y-97861367D01*
X109318474Y-97861367D01*
X109139573Y-97825782D01*
X108971051Y-97755978D01*
X108819386Y-97654639D01*
X108690405Y-97525658D01*
X108589066Y-97373993D01*
X108519262Y-97205471D01*
X108483677Y-97026570D01*
X108483677Y-96844164D01*
X108519262Y-96665263D01*
X108589066Y-96496741D01*
X108690405Y-96345076D01*
X108819386Y-96216095D01*
X108971051Y-96114756D01*
X109139573Y-96044952D01*
X109318474Y-96009367D01*
X109500880Y-96009367D01*
X109679781Y-96044952D01*
X109679781Y-96044952D01*
G37*
G36*
X171303376Y-95107252D02*
G01*
X171454843Y-95137381D01*
X171668861Y-95226030D01*
X171669576Y-95226508D01*
X171861470Y-95354727D01*
X172025277Y-95518534D01*
X172062291Y-95573930D01*
X172153974Y-95711143D01*
X172242623Y-95925161D01*
X172266451Y-96044952D01*
X172287816Y-96152361D01*
X172287816Y-96384015D01*
X172287738Y-96384405D01*
X172242623Y-96611215D01*
X172153974Y-96825233D01*
X172138175Y-96848878D01*
X172025277Y-97017842D01*
X171861470Y-97181649D01*
X171733065Y-97267446D01*
X171668861Y-97310346D01*
X171454843Y-97398995D01*
X171303376Y-97429124D01*
X171227643Y-97444188D01*
X170995989Y-97444188D01*
X170920256Y-97429124D01*
X170768789Y-97398995D01*
X170554771Y-97310346D01*
X170490567Y-97267446D01*
X170362162Y-97181649D01*
X170198355Y-97017842D01*
X170085457Y-96848878D01*
X170069658Y-96825233D01*
X169981009Y-96611215D01*
X169935894Y-96384405D01*
X169935816Y-96384015D01*
X169935816Y-96152361D01*
X169957181Y-96044952D01*
X169981009Y-95925161D01*
X170069658Y-95711143D01*
X170161341Y-95573930D01*
X170198355Y-95518534D01*
X170362162Y-95354727D01*
X170554056Y-95226508D01*
X170554771Y-95226030D01*
X170768789Y-95137381D01*
X170920256Y-95107252D01*
X170995989Y-95092188D01*
X171227643Y-95092188D01*
X171303376Y-95107252D01*
X171303376Y-95107252D01*
G37*
G36*
X140078600Y-97066100D02*
G01*
X137976600Y-97066100D01*
X137976600Y-93764100D01*
X140078600Y-93764100D01*
X140078600Y-97066100D01*
X140078600Y-97066100D01*
G37*
G36*
X151278600Y-97066100D02*
G01*
X149176600Y-97066100D01*
X149176600Y-93764100D01*
X151278600Y-93764100D01*
X151278600Y-97066100D01*
X151278600Y-97066100D01*
G37*
G36*
X194751474Y-92816684D02*
G01*
X194969474Y-92906983D01*
X195123623Y-92970833D01*
X195458548Y-93194623D01*
X195743377Y-93479452D01*
X195967167Y-93814377D01*
X196004635Y-93904833D01*
X196121316Y-94186526D01*
X196199900Y-94581594D01*
X196199900Y-94984406D01*
X196121316Y-95379474D01*
X196031017Y-95597474D01*
X195967167Y-95751623D01*
X195743377Y-96086548D01*
X195458548Y-96371377D01*
X195123623Y-96595167D01*
X195026064Y-96635577D01*
X194751474Y-96749316D01*
X194356406Y-96827900D01*
X193953594Y-96827900D01*
X193558526Y-96749316D01*
X193283936Y-96635577D01*
X193186377Y-96595167D01*
X192851452Y-96371377D01*
X192566623Y-96086548D01*
X192342833Y-95751623D01*
X192278983Y-95597474D01*
X192188684Y-95379474D01*
X192110100Y-94984406D01*
X192110100Y-94581594D01*
X192188684Y-94186526D01*
X192305365Y-93904833D01*
X192342833Y-93814377D01*
X192566623Y-93479452D01*
X192851452Y-93194623D01*
X193186377Y-92970833D01*
X193340526Y-92906983D01*
X193558526Y-92816684D01*
X193953594Y-92738100D01*
X194356406Y-92738100D01*
X194751474Y-92816684D01*
X194751474Y-92816684D01*
G37*
G36*
X189422281Y-94774718D02*
G01*
X189590803Y-94844522D01*
X189742468Y-94945861D01*
X189871449Y-95074842D01*
X189972788Y-95226507D01*
X190042592Y-95395029D01*
X190078177Y-95573930D01*
X190078177Y-95756336D01*
X190042592Y-95935237D01*
X189972788Y-96103759D01*
X189871449Y-96255424D01*
X189742468Y-96384405D01*
X189590803Y-96485744D01*
X189422281Y-96555548D01*
X189243380Y-96591133D01*
X189060974Y-96591133D01*
X188882073Y-96555548D01*
X188713551Y-96485744D01*
X188561886Y-96384405D01*
X188432905Y-96255424D01*
X188331566Y-96103759D01*
X188261762Y-95935237D01*
X188226177Y-95756336D01*
X188226177Y-95573930D01*
X188261762Y-95395029D01*
X188331566Y-95226507D01*
X188432905Y-95074842D01*
X188561886Y-94945861D01*
X188713551Y-94844522D01*
X188882073Y-94774718D01*
X189060974Y-94739133D01*
X189243380Y-94739133D01*
X189422281Y-94774718D01*
X189422281Y-94774718D01*
G37*
G36*
X96308974Y-92501184D02*
G01*
X96422683Y-92548284D01*
X96681123Y-92655333D01*
X97016048Y-92879123D01*
X97300877Y-93163952D01*
X97524667Y-93498877D01*
X97557262Y-93577569D01*
X97678816Y-93871026D01*
X97757400Y-94266094D01*
X97757400Y-94668906D01*
X97678816Y-95063974D01*
X97588517Y-95281974D01*
X97524667Y-95436123D01*
X97300877Y-95771048D01*
X97016048Y-96055877D01*
X96681123Y-96279667D01*
X96546445Y-96335452D01*
X96308974Y-96433816D01*
X95913906Y-96512400D01*
X95511094Y-96512400D01*
X95116026Y-96433816D01*
X94878555Y-96335452D01*
X94743877Y-96279667D01*
X94408952Y-96055877D01*
X94124123Y-95771048D01*
X93900333Y-95436123D01*
X93836483Y-95281974D01*
X93746184Y-95063974D01*
X93667600Y-94668906D01*
X93667600Y-94266094D01*
X93746184Y-93871026D01*
X93867738Y-93577569D01*
X93900333Y-93498877D01*
X94124123Y-93163952D01*
X94408952Y-92879123D01*
X94743877Y-92655333D01*
X95002317Y-92548284D01*
X95116026Y-92501184D01*
X95511094Y-92422600D01*
X95913906Y-92422600D01*
X96308974Y-92501184D01*
X96308974Y-92501184D01*
G37*
G36*
X100985427Y-94459218D02*
G01*
X101153949Y-94529022D01*
X101305614Y-94630361D01*
X101434595Y-94759342D01*
X101535934Y-94911007D01*
X101605738Y-95079529D01*
X101641323Y-95258430D01*
X101641323Y-95440836D01*
X101605738Y-95619737D01*
X101535934Y-95788259D01*
X101434595Y-95939924D01*
X101305614Y-96068905D01*
X101153949Y-96170244D01*
X100985427Y-96240048D01*
X100806526Y-96275633D01*
X100624120Y-96275633D01*
X100445219Y-96240048D01*
X100276697Y-96170244D01*
X100125032Y-96068905D01*
X99996051Y-95939924D01*
X99894712Y-95788259D01*
X99824908Y-95619737D01*
X99789323Y-95440836D01*
X99789323Y-95258430D01*
X99824908Y-95079529D01*
X99894712Y-94911007D01*
X99996051Y-94759342D01*
X100125032Y-94630361D01*
X100276697Y-94529022D01*
X100445219Y-94459218D01*
X100624120Y-94423633D01*
X100806526Y-94423633D01*
X100985427Y-94459218D01*
X100985427Y-94459218D01*
G37*
G36*
X111293009Y-93493553D02*
G01*
X111444476Y-93523682D01*
X111658494Y-93612331D01*
X111658495Y-93612332D01*
X111851103Y-93741028D01*
X112014910Y-93904835D01*
X112068705Y-93985345D01*
X112143607Y-94097444D01*
X112232256Y-94311462D01*
X112247192Y-94386550D01*
X112277449Y-94538662D01*
X112277449Y-94770316D01*
X112266200Y-94826867D01*
X112232256Y-94997516D01*
X112143607Y-95211534D01*
X112112272Y-95258430D01*
X112014910Y-95404143D01*
X111851103Y-95567950D01*
X111773599Y-95619736D01*
X111658494Y-95696647D01*
X111444476Y-95785296D01*
X111293009Y-95815425D01*
X111217276Y-95830489D01*
X110985622Y-95830489D01*
X110909889Y-95815425D01*
X110758422Y-95785296D01*
X110544404Y-95696647D01*
X110429299Y-95619736D01*
X110351795Y-95567950D01*
X110187988Y-95404143D01*
X110090626Y-95258430D01*
X110059291Y-95211534D01*
X109970642Y-94997516D01*
X109936698Y-94826867D01*
X109925449Y-94770316D01*
X109925449Y-94538662D01*
X109955706Y-94386550D01*
X109970642Y-94311462D01*
X110059291Y-94097444D01*
X110134193Y-93985345D01*
X110187988Y-93904835D01*
X110351795Y-93741028D01*
X110544403Y-93612332D01*
X110544404Y-93612331D01*
X110758422Y-93523682D01*
X110909889Y-93493553D01*
X110985622Y-93478489D01*
X111217276Y-93478489D01*
X111293009Y-93493553D01*
X111293009Y-93493553D01*
G37*
G36*
X199427927Y-93010452D02*
G01*
X199596449Y-93080256D01*
X199748114Y-93181595D01*
X199877095Y-93310576D01*
X199978434Y-93462241D01*
X200048238Y-93630763D01*
X200083823Y-93809664D01*
X200083823Y-93992070D01*
X200048238Y-94170971D01*
X199978434Y-94339493D01*
X199877095Y-94491158D01*
X199748114Y-94620139D01*
X199596449Y-94721478D01*
X199427927Y-94791282D01*
X199249026Y-94826867D01*
X199066620Y-94826867D01*
X198887719Y-94791282D01*
X198719197Y-94721478D01*
X198567532Y-94620139D01*
X198438551Y-94491158D01*
X198337212Y-94339493D01*
X198267408Y-94170971D01*
X198231823Y-93992070D01*
X198231823Y-93809664D01*
X198267408Y-93630763D01*
X198337212Y-93462241D01*
X198438551Y-93310576D01*
X198567532Y-93181595D01*
X198719197Y-93080256D01*
X198887719Y-93010452D01*
X199066620Y-92974867D01*
X199249026Y-92974867D01*
X199427927Y-93010452D01*
X199427927Y-93010452D01*
G37*
G36*
X90979781Y-92694952D02*
G01*
X91148303Y-92764756D01*
X91299968Y-92866095D01*
X91428949Y-92995076D01*
X91530288Y-93146741D01*
X91600092Y-93315263D01*
X91635677Y-93494164D01*
X91635677Y-93676570D01*
X91600092Y-93855471D01*
X91530288Y-94023993D01*
X91428949Y-94175658D01*
X91299968Y-94304639D01*
X91148303Y-94405978D01*
X90979781Y-94475782D01*
X90800880Y-94511367D01*
X90618474Y-94511367D01*
X90439573Y-94475782D01*
X90271051Y-94405978D01*
X90119386Y-94304639D01*
X89990405Y-94175658D01*
X89889066Y-94023993D01*
X89819262Y-93855471D01*
X89783677Y-93676570D01*
X89783677Y-93494164D01*
X89819262Y-93315263D01*
X89889066Y-93146741D01*
X89990405Y-92995076D01*
X90119386Y-92866095D01*
X90271051Y-92764756D01*
X90439573Y-92694952D01*
X90618474Y-92659367D01*
X90800880Y-92659367D01*
X90979781Y-92694952D01*
X90979781Y-92694952D01*
G37*
G36*
X117987604Y-92094807D02*
G01*
X118139071Y-92124936D01*
X118353089Y-92213585D01*
X118405986Y-92248930D01*
X118545698Y-92342282D01*
X118709505Y-92506089D01*
X118779094Y-92610237D01*
X118838202Y-92698698D01*
X118926851Y-92912716D01*
X118945632Y-93007135D01*
X118970831Y-93133816D01*
X118972044Y-93139917D01*
X118972044Y-93371569D01*
X118926851Y-93598770D01*
X118838202Y-93812788D01*
X118819946Y-93840110D01*
X118709505Y-94005397D01*
X118545698Y-94169204D01*
X118417293Y-94255001D01*
X118353089Y-94297901D01*
X118139071Y-94386550D01*
X117987604Y-94416679D01*
X117911871Y-94431743D01*
X117680217Y-94431743D01*
X117604484Y-94416679D01*
X117453017Y-94386550D01*
X117238999Y-94297901D01*
X117174795Y-94255001D01*
X117046390Y-94169204D01*
X116882583Y-94005397D01*
X116772142Y-93840110D01*
X116753886Y-93812788D01*
X116665237Y-93598770D01*
X116620044Y-93371569D01*
X116620044Y-93139917D01*
X116621258Y-93133816D01*
X116646456Y-93007135D01*
X116665237Y-92912716D01*
X116753886Y-92698698D01*
X116812994Y-92610237D01*
X116882583Y-92506089D01*
X117046390Y-92342282D01*
X117186102Y-92248930D01*
X117238999Y-92213585D01*
X117453017Y-92124936D01*
X117604484Y-92094807D01*
X117680217Y-92079743D01*
X117911871Y-92079743D01*
X117987604Y-92094807D01*
X117987604Y-92094807D01*
G37*
G36*
X190139685Y-91779529D02*
G01*
X190304843Y-91812381D01*
X190518861Y-91901030D01*
X190519576Y-91901508D01*
X190711470Y-92029727D01*
X190875277Y-92193534D01*
X190891591Y-92217950D01*
X191003974Y-92386143D01*
X191092623Y-92600161D01*
X191092623Y-92600163D01*
X191137816Y-92827361D01*
X191137816Y-93059015D01*
X191137738Y-93059405D01*
X191092623Y-93286215D01*
X191003974Y-93500233D01*
X191003973Y-93500234D01*
X190875277Y-93692842D01*
X190711470Y-93856649D01*
X190639357Y-93904833D01*
X190518861Y-93985346D01*
X190304843Y-94073995D01*
X190153376Y-94104124D01*
X190077643Y-94119188D01*
X189845989Y-94119188D01*
X189770256Y-94104124D01*
X189618789Y-94073995D01*
X189404771Y-93985346D01*
X189284275Y-93904833D01*
X189212162Y-93856649D01*
X189048355Y-93692842D01*
X188919659Y-93500234D01*
X188919658Y-93500233D01*
X188831009Y-93286215D01*
X188785894Y-93059405D01*
X188785816Y-93059015D01*
X188785816Y-92827361D01*
X188831009Y-92600163D01*
X188831009Y-92600161D01*
X188919658Y-92386143D01*
X189032041Y-92217950D01*
X189048355Y-92193534D01*
X189212162Y-92029727D01*
X189404056Y-91901508D01*
X189404771Y-91901030D01*
X189618789Y-91812381D01*
X189783947Y-91779529D01*
X189845989Y-91767188D01*
X190077643Y-91767188D01*
X190139685Y-91779529D01*
X190139685Y-91779529D01*
G37*
G36*
X177109266Y-91501867D02*
G01*
X177267306Y-91533303D01*
X177481324Y-91621952D01*
X177481325Y-91621953D01*
X177673933Y-91750649D01*
X177837740Y-91914456D01*
X177867122Y-91958430D01*
X177966437Y-92107065D01*
X178055086Y-92321083D01*
X178060171Y-92346647D01*
X178090911Y-92501185D01*
X178100279Y-92548284D01*
X178100279Y-92779936D01*
X178055086Y-93007137D01*
X177966437Y-93221155D01*
X177933688Y-93270167D01*
X177837740Y-93413764D01*
X177673933Y-93577571D01*
X177545528Y-93663368D01*
X177481324Y-93706268D01*
X177267306Y-93794917D01*
X177115839Y-93825046D01*
X177040106Y-93840110D01*
X176808452Y-93840110D01*
X176732719Y-93825046D01*
X176581252Y-93794917D01*
X176367234Y-93706268D01*
X176303030Y-93663368D01*
X176174625Y-93577571D01*
X176010818Y-93413764D01*
X175914870Y-93270167D01*
X175882121Y-93221155D01*
X175793472Y-93007137D01*
X175748279Y-92779936D01*
X175748279Y-92548284D01*
X175757648Y-92501185D01*
X175788387Y-92346647D01*
X175793472Y-92321083D01*
X175882121Y-92107065D01*
X175981436Y-91958430D01*
X176010818Y-91914456D01*
X176174625Y-91750649D01*
X176367233Y-91621953D01*
X176367234Y-91621952D01*
X176581252Y-91533303D01*
X176739292Y-91501867D01*
X176808452Y-91488110D01*
X177040106Y-91488110D01*
X177109266Y-91501867D01*
X177109266Y-91501867D01*
G37*
G36*
X213526474Y-89491684D02*
G01*
X213697960Y-89562716D01*
X213898623Y-89645833D01*
X214233548Y-89869623D01*
X214518377Y-90154452D01*
X214742167Y-90489377D01*
X214775987Y-90571026D01*
X214896316Y-90861526D01*
X214974900Y-91256594D01*
X214974900Y-91659406D01*
X214896316Y-92054474D01*
X214806017Y-92272474D01*
X214742167Y-92426623D01*
X214518377Y-92761548D01*
X214233548Y-93046377D01*
X213898623Y-93270167D01*
X213744474Y-93334017D01*
X213526474Y-93424316D01*
X213131406Y-93502900D01*
X212728594Y-93502900D01*
X212333526Y-93424316D01*
X212115526Y-93334017D01*
X211961377Y-93270167D01*
X211626452Y-93046377D01*
X211341623Y-92761548D01*
X211117833Y-92426623D01*
X211053983Y-92272474D01*
X210963684Y-92054474D01*
X210885100Y-91659406D01*
X210885100Y-91256594D01*
X210963684Y-90861526D01*
X211084013Y-90571026D01*
X211117833Y-90489377D01*
X211341623Y-90154452D01*
X211626452Y-89869623D01*
X211961377Y-89645833D01*
X212162040Y-89562716D01*
X212333526Y-89491684D01*
X212728594Y-89413100D01*
X213131406Y-89413100D01*
X213526474Y-89491684D01*
X213526474Y-89491684D01*
G37*
G36*
X208197281Y-91449718D02*
G01*
X208365803Y-91519522D01*
X208517468Y-91620861D01*
X208646449Y-91749842D01*
X208747788Y-91901507D01*
X208817592Y-92070029D01*
X208853177Y-92248930D01*
X208853177Y-92431336D01*
X208817592Y-92610237D01*
X208747788Y-92778759D01*
X208646449Y-92930424D01*
X208517468Y-93059405D01*
X208365803Y-93160744D01*
X208197281Y-93230548D01*
X208018380Y-93266133D01*
X207835974Y-93266133D01*
X207657073Y-93230548D01*
X207488551Y-93160744D01*
X207336886Y-93059405D01*
X207207905Y-92930424D01*
X207106566Y-92778759D01*
X207036762Y-92610237D01*
X207001177Y-92431336D01*
X207001177Y-92248930D01*
X207036762Y-92070029D01*
X207106566Y-91901507D01*
X207207905Y-91749842D01*
X207336886Y-91620861D01*
X207488551Y-91519522D01*
X207657073Y-91449718D01*
X207835974Y-91414133D01*
X208018380Y-91414133D01*
X208197281Y-91449718D01*
X208197281Y-91449718D01*
G37*
G36*
X77608974Y-89201184D02*
G01*
X77787570Y-89275161D01*
X77981123Y-89355333D01*
X78316048Y-89579123D01*
X78600877Y-89863952D01*
X78824667Y-90198877D01*
X78850950Y-90262331D01*
X78978816Y-90571026D01*
X79057400Y-90966094D01*
X79057400Y-91368906D01*
X78978816Y-91763974D01*
X78888517Y-91981974D01*
X78824667Y-92136123D01*
X78600877Y-92471048D01*
X78316048Y-92755877D01*
X77981123Y-92979667D01*
X77826974Y-93043517D01*
X77608974Y-93133816D01*
X77213906Y-93212400D01*
X76811094Y-93212400D01*
X76416026Y-93133816D01*
X76198026Y-93043517D01*
X76043877Y-92979667D01*
X75708952Y-92755877D01*
X75424123Y-92471048D01*
X75200333Y-92136123D01*
X75136483Y-91981974D01*
X75046184Y-91763974D01*
X74967600Y-91368906D01*
X74967600Y-90966094D01*
X75046184Y-90571026D01*
X75174050Y-90262331D01*
X75200333Y-90198877D01*
X75424123Y-89863952D01*
X75708952Y-89579123D01*
X76043877Y-89355333D01*
X76237430Y-89275161D01*
X76416026Y-89201184D01*
X76811094Y-89122600D01*
X77213906Y-89122600D01*
X77608974Y-89201184D01*
X77608974Y-89201184D01*
G37*
G36*
X82285427Y-91159218D02*
G01*
X82453949Y-91229022D01*
X82605614Y-91330361D01*
X82734595Y-91459342D01*
X82835934Y-91611007D01*
X82905738Y-91779529D01*
X82941323Y-91958430D01*
X82941323Y-92140836D01*
X82905738Y-92319737D01*
X82835934Y-92488259D01*
X82734595Y-92639924D01*
X82605614Y-92768905D01*
X82453949Y-92870244D01*
X82285427Y-92940048D01*
X82106526Y-92975633D01*
X81924120Y-92975633D01*
X81745219Y-92940048D01*
X81576697Y-92870244D01*
X81425032Y-92768905D01*
X81296051Y-92639924D01*
X81194712Y-92488259D01*
X81124908Y-92319737D01*
X81089323Y-92140836D01*
X81089323Y-91958430D01*
X81124908Y-91779529D01*
X81194712Y-91611007D01*
X81296051Y-91459342D01*
X81425032Y-91330361D01*
X81576697Y-91229022D01*
X81745219Y-91159218D01*
X81924120Y-91123633D01*
X82106526Y-91123633D01*
X82285427Y-91159218D01*
X82285427Y-91159218D01*
G37*
G36*
X92593009Y-90143553D02*
G01*
X92744476Y-90173682D01*
X92958494Y-90262331D01*
X92958495Y-90262332D01*
X93151103Y-90391028D01*
X93314910Y-90554835D01*
X93325728Y-90571026D01*
X93443607Y-90747444D01*
X93532256Y-90961462D01*
X93547192Y-91036550D01*
X93577449Y-91188662D01*
X93577449Y-91420316D01*
X93571600Y-91449719D01*
X93532256Y-91647516D01*
X93443607Y-91861534D01*
X93400707Y-91925738D01*
X93314910Y-92054143D01*
X93151103Y-92217950D01*
X93022698Y-92303747D01*
X92958494Y-92346647D01*
X92744476Y-92435296D01*
X92593009Y-92465425D01*
X92517276Y-92480489D01*
X92285622Y-92480489D01*
X92209889Y-92465425D01*
X92058422Y-92435296D01*
X91844404Y-92346647D01*
X91780200Y-92303747D01*
X91651795Y-92217950D01*
X91487988Y-92054143D01*
X91402191Y-91925738D01*
X91359291Y-91861534D01*
X91270642Y-91647516D01*
X91231298Y-91449719D01*
X91225449Y-91420316D01*
X91225449Y-91188662D01*
X91255706Y-91036550D01*
X91270642Y-90961462D01*
X91359291Y-90747444D01*
X91477170Y-90571026D01*
X91487988Y-90554835D01*
X91651795Y-90391028D01*
X91844403Y-90262332D01*
X91844404Y-90262331D01*
X92058422Y-90173682D01*
X92209889Y-90143553D01*
X92285622Y-90128489D01*
X92517276Y-90128489D01*
X92593009Y-90143553D01*
X92593009Y-90143553D01*
G37*
G36*
X218202927Y-89685452D02*
G01*
X218371449Y-89755256D01*
X218523114Y-89856595D01*
X218652095Y-89985576D01*
X218753434Y-90137241D01*
X218823238Y-90305763D01*
X218858823Y-90484664D01*
X218858823Y-90667070D01*
X218823238Y-90845971D01*
X218753434Y-91014493D01*
X218652095Y-91166158D01*
X218523114Y-91295139D01*
X218371449Y-91396478D01*
X218202927Y-91466282D01*
X218024026Y-91501867D01*
X217841620Y-91501867D01*
X217662719Y-91466282D01*
X217494197Y-91396478D01*
X217342532Y-91295139D01*
X217213551Y-91166158D01*
X217112212Y-91014493D01*
X217042408Y-90845971D01*
X217006823Y-90667070D01*
X217006823Y-90484664D01*
X217042408Y-90305763D01*
X217112212Y-90137241D01*
X217213551Y-89985576D01*
X217342532Y-89856595D01*
X217494197Y-89755256D01*
X217662719Y-89685452D01*
X217841620Y-89649867D01*
X218024026Y-89649867D01*
X218202927Y-89685452D01*
X218202927Y-89685452D01*
G37*
G36*
X72279781Y-89394952D02*
G01*
X72448303Y-89464756D01*
X72599968Y-89566095D01*
X72728949Y-89695076D01*
X72830288Y-89846741D01*
X72900092Y-90015263D01*
X72935677Y-90194164D01*
X72935677Y-90376570D01*
X72900092Y-90555471D01*
X72830288Y-90723993D01*
X72728949Y-90875658D01*
X72599968Y-91004639D01*
X72448303Y-91105978D01*
X72279781Y-91175782D01*
X72100880Y-91211367D01*
X71918474Y-91211367D01*
X71739573Y-91175782D01*
X71571051Y-91105978D01*
X71419386Y-91004639D01*
X71290405Y-90875658D01*
X71189066Y-90723993D01*
X71119262Y-90555471D01*
X71083677Y-90376570D01*
X71083677Y-90194164D01*
X71119262Y-90015263D01*
X71189066Y-89846741D01*
X71290405Y-89695076D01*
X71419386Y-89566095D01*
X71571051Y-89464756D01*
X71739573Y-89394952D01*
X71918474Y-89359367D01*
X72100880Y-89359367D01*
X72279781Y-89394952D01*
X72279781Y-89394952D01*
G37*
G36*
X99287604Y-88744807D02*
G01*
X99439071Y-88774936D01*
X99653089Y-88863585D01*
X99717293Y-88906485D01*
X99845698Y-88992282D01*
X100009505Y-89156089D01*
X100054402Y-89223283D01*
X100138202Y-89348698D01*
X100226851Y-89562716D01*
X100272044Y-89789917D01*
X100272044Y-90021569D01*
X100226851Y-90248770D01*
X100138202Y-90462788D01*
X100123585Y-90484664D01*
X100009505Y-90655397D01*
X99845698Y-90819204D01*
X99761208Y-90875658D01*
X99653089Y-90947901D01*
X99439071Y-91036550D01*
X99287604Y-91066679D01*
X99211871Y-91081743D01*
X98980217Y-91081743D01*
X98904484Y-91066679D01*
X98753017Y-91036550D01*
X98538999Y-90947901D01*
X98430880Y-90875658D01*
X98346390Y-90819204D01*
X98182583Y-90655397D01*
X98068503Y-90484664D01*
X98053886Y-90462788D01*
X97965237Y-90248770D01*
X97920044Y-90021569D01*
X97920044Y-89789917D01*
X97965237Y-89562716D01*
X98053886Y-89348698D01*
X98137686Y-89223283D01*
X98182583Y-89156089D01*
X98346390Y-88992282D01*
X98474795Y-88906485D01*
X98538999Y-88863585D01*
X98753017Y-88774936D01*
X98904484Y-88744807D01*
X98980217Y-88729743D01*
X99211871Y-88729743D01*
X99287604Y-88744807D01*
X99287604Y-88744807D01*
G37*
G36*
X208928376Y-88457252D02*
G01*
X209079843Y-88487381D01*
X209293861Y-88576030D01*
X209313951Y-88589454D01*
X209486470Y-88704727D01*
X209650277Y-88868534D01*
X209715468Y-88966100D01*
X209778974Y-89061143D01*
X209867623Y-89275161D01*
X209885478Y-89364923D01*
X209912816Y-89502361D01*
X209912816Y-89734015D01*
X209901696Y-89789916D01*
X209867623Y-89961215D01*
X209778974Y-90175233D01*
X209763175Y-90198878D01*
X209650277Y-90367842D01*
X209486470Y-90531649D01*
X209358065Y-90617446D01*
X209293861Y-90660346D01*
X209079843Y-90748995D01*
X208928376Y-90779124D01*
X208852643Y-90794188D01*
X208620989Y-90794188D01*
X208545256Y-90779124D01*
X208393789Y-90748995D01*
X208179771Y-90660346D01*
X208115567Y-90617446D01*
X207987162Y-90531649D01*
X207823355Y-90367842D01*
X207710457Y-90198878D01*
X207694658Y-90175233D01*
X207606009Y-89961215D01*
X207571936Y-89789916D01*
X207560816Y-89734015D01*
X207560816Y-89502361D01*
X207588154Y-89364923D01*
X207606009Y-89275161D01*
X207694658Y-89061143D01*
X207758164Y-88966100D01*
X207823355Y-88868534D01*
X207987162Y-88704727D01*
X208159681Y-88589454D01*
X208179771Y-88576030D01*
X208393789Y-88487381D01*
X208545256Y-88457252D01*
X208620989Y-88442188D01*
X208852643Y-88442188D01*
X208928376Y-88457252D01*
X208928376Y-88457252D01*
G37*
G36*
X195965839Y-88178174D02*
G01*
X196117306Y-88208303D01*
X196331324Y-88296952D01*
X196331325Y-88296953D01*
X196523933Y-88425649D01*
X196687740Y-88589456D01*
X196750531Y-88683430D01*
X196816437Y-88782065D01*
X196905086Y-88996083D01*
X196915144Y-89046647D01*
X196944862Y-89196048D01*
X196950279Y-89223284D01*
X196950279Y-89454936D01*
X196905086Y-89682137D01*
X196816437Y-89896155D01*
X196816436Y-89896156D01*
X196687740Y-90088764D01*
X196523933Y-90252571D01*
X196395528Y-90338368D01*
X196331324Y-90381268D01*
X196117306Y-90469917D01*
X195965839Y-90500046D01*
X195890106Y-90515110D01*
X195658452Y-90515110D01*
X195582719Y-90500046D01*
X195431252Y-90469917D01*
X195217234Y-90381268D01*
X195153030Y-90338368D01*
X195024625Y-90252571D01*
X194860818Y-90088764D01*
X194732122Y-89896156D01*
X194732121Y-89896155D01*
X194643472Y-89682137D01*
X194598279Y-89454936D01*
X194598279Y-89223284D01*
X194603697Y-89196048D01*
X194633414Y-89046647D01*
X194643472Y-88996083D01*
X194732121Y-88782065D01*
X194798027Y-88683430D01*
X194860818Y-88589456D01*
X195024625Y-88425649D01*
X195217233Y-88296953D01*
X195217234Y-88296952D01*
X195431252Y-88208303D01*
X195582719Y-88178174D01*
X195658452Y-88163110D01*
X195890106Y-88163110D01*
X195965839Y-88178174D01*
X195965839Y-88178174D01*
G37*
G36*
X232251474Y-86191684D02*
G01*
X232422960Y-86262716D01*
X232623623Y-86345833D01*
X232958548Y-86569623D01*
X233243377Y-86854452D01*
X233467167Y-87189377D01*
X233494280Y-87254835D01*
X233621316Y-87561526D01*
X233699900Y-87956594D01*
X233699900Y-88359406D01*
X233621316Y-88754474D01*
X233533657Y-88966100D01*
X233467167Y-89126623D01*
X233243377Y-89461548D01*
X232958548Y-89746377D01*
X232623623Y-89970167D01*
X232469474Y-90034017D01*
X232251474Y-90124316D01*
X231856406Y-90202900D01*
X231453594Y-90202900D01*
X231058526Y-90124316D01*
X230840526Y-90034017D01*
X230686377Y-89970167D01*
X230351452Y-89746377D01*
X230066623Y-89461548D01*
X229842833Y-89126623D01*
X229776343Y-88966100D01*
X229688684Y-88754474D01*
X229610100Y-88359406D01*
X229610100Y-87956594D01*
X229688684Y-87561526D01*
X229815720Y-87254835D01*
X229842833Y-87189377D01*
X230066623Y-86854452D01*
X230351452Y-86569623D01*
X230686377Y-86345833D01*
X230887040Y-86262716D01*
X231058526Y-86191684D01*
X231453594Y-86113100D01*
X231856406Y-86113100D01*
X232251474Y-86191684D01*
X232251474Y-86191684D01*
G37*
G36*
X226922281Y-88149718D02*
G01*
X227090803Y-88219522D01*
X227242468Y-88320861D01*
X227371449Y-88449842D01*
X227472788Y-88601507D01*
X227542592Y-88770029D01*
X227578177Y-88948930D01*
X227578177Y-89131336D01*
X227542592Y-89310237D01*
X227472788Y-89478759D01*
X227371449Y-89630424D01*
X227242468Y-89759405D01*
X227090803Y-89860744D01*
X226922281Y-89930548D01*
X226743380Y-89966133D01*
X226560974Y-89966133D01*
X226382073Y-89930548D01*
X226213551Y-89860744D01*
X226061886Y-89759405D01*
X225932905Y-89630424D01*
X225831566Y-89478759D01*
X225761762Y-89310237D01*
X225726177Y-89131336D01*
X225726177Y-88948930D01*
X225761762Y-88770029D01*
X225831566Y-88601507D01*
X225932905Y-88449842D01*
X226061886Y-88320861D01*
X226213551Y-88219522D01*
X226382073Y-88149718D01*
X226560974Y-88114133D01*
X226743380Y-88114133D01*
X226922281Y-88149718D01*
X226922281Y-88149718D01*
G37*
G36*
X58808974Y-85926184D02*
G01*
X59026974Y-86016483D01*
X59181123Y-86080333D01*
X59516048Y-86304123D01*
X59800877Y-86588952D01*
X60024667Y-86923877D01*
X60079504Y-87056267D01*
X60178816Y-87296026D01*
X60257400Y-87691094D01*
X60257400Y-88093906D01*
X60178816Y-88488974D01*
X60089448Y-88704727D01*
X60024667Y-88861123D01*
X59800877Y-89196048D01*
X59516048Y-89480877D01*
X59181123Y-89704667D01*
X59048973Y-89759405D01*
X58808974Y-89858816D01*
X58413906Y-89937400D01*
X58011094Y-89937400D01*
X57616026Y-89858816D01*
X57376027Y-89759405D01*
X57243877Y-89704667D01*
X56908952Y-89480877D01*
X56624123Y-89196048D01*
X56400333Y-88861123D01*
X56335552Y-88704727D01*
X56246184Y-88488974D01*
X56167600Y-88093906D01*
X56167600Y-87691094D01*
X56246184Y-87296026D01*
X56345496Y-87056267D01*
X56400333Y-86923877D01*
X56624123Y-86588952D01*
X56908952Y-86304123D01*
X57243877Y-86080333D01*
X57398026Y-86016483D01*
X57616026Y-85926184D01*
X58011094Y-85847600D01*
X58413906Y-85847600D01*
X58808974Y-85926184D01*
X58808974Y-85926184D01*
G37*
G36*
X63485427Y-87884218D02*
G01*
X63653949Y-87954022D01*
X63805614Y-88055361D01*
X63934595Y-88184342D01*
X64035934Y-88336007D01*
X64105738Y-88504529D01*
X64141323Y-88683430D01*
X64141323Y-88865836D01*
X64105738Y-89044737D01*
X64035934Y-89213259D01*
X63934595Y-89364924D01*
X63805614Y-89493905D01*
X63653949Y-89595244D01*
X63485427Y-89665048D01*
X63306526Y-89700633D01*
X63124120Y-89700633D01*
X62945219Y-89665048D01*
X62776697Y-89595244D01*
X62625032Y-89493905D01*
X62496051Y-89364924D01*
X62394712Y-89213259D01*
X62324908Y-89044737D01*
X62289323Y-88865836D01*
X62289323Y-88683430D01*
X62324908Y-88504529D01*
X62394712Y-88336007D01*
X62496051Y-88184342D01*
X62625032Y-88055361D01*
X62776697Y-87954022D01*
X62945219Y-87884218D01*
X63124120Y-87848633D01*
X63306526Y-87848633D01*
X63485427Y-87884218D01*
X63485427Y-87884218D01*
G37*
G36*
X73893009Y-86843553D02*
G01*
X74044476Y-86873682D01*
X74258494Y-86962331D01*
X74258495Y-86962332D01*
X74451103Y-87091028D01*
X74614910Y-87254835D01*
X74682103Y-87355397D01*
X74743607Y-87447444D01*
X74832256Y-87661462D01*
X74845817Y-87729638D01*
X74877449Y-87888662D01*
X74877449Y-88120316D01*
X74871600Y-88149719D01*
X74832256Y-88347516D01*
X74743607Y-88561534D01*
X74724951Y-88589454D01*
X74614910Y-88754143D01*
X74451103Y-88917950D01*
X74379041Y-88966100D01*
X74258494Y-89046647D01*
X74044476Y-89135296D01*
X73939952Y-89156087D01*
X73817276Y-89180489D01*
X73585622Y-89180489D01*
X73462946Y-89156087D01*
X73358422Y-89135296D01*
X73144404Y-89046647D01*
X73023857Y-88966100D01*
X72951795Y-88917950D01*
X72787988Y-88754143D01*
X72677947Y-88589454D01*
X72659291Y-88561534D01*
X72570642Y-88347516D01*
X72531298Y-88149719D01*
X72525449Y-88120316D01*
X72525449Y-87888662D01*
X72557081Y-87729638D01*
X72570642Y-87661462D01*
X72659291Y-87447444D01*
X72720795Y-87355397D01*
X72787988Y-87254835D01*
X72951795Y-87091028D01*
X73144403Y-86962332D01*
X73144404Y-86962331D01*
X73358422Y-86873682D01*
X73509889Y-86843553D01*
X73585622Y-86828489D01*
X73817276Y-86828489D01*
X73893009Y-86843553D01*
X73893009Y-86843553D01*
G37*
G36*
X142434164Y-86904489D02*
G01*
X142625433Y-86983715D01*
X142625435Y-86983716D01*
X142751338Y-87067842D01*
X142797573Y-87098735D01*
X142943965Y-87245127D01*
X143058985Y-87417267D01*
X143138211Y-87608536D01*
X143178600Y-87811584D01*
X143178600Y-88018616D01*
X143138211Y-88221664D01*
X143058985Y-88412933D01*
X143058984Y-88412935D01*
X142943965Y-88585073D01*
X142797573Y-88731465D01*
X142625435Y-88846484D01*
X142625434Y-88846485D01*
X142625433Y-88846485D01*
X142434164Y-88925711D01*
X142231116Y-88966100D01*
X142024084Y-88966100D01*
X141821036Y-88925711D01*
X141629767Y-88846485D01*
X141629766Y-88846485D01*
X141629765Y-88846484D01*
X141457627Y-88731465D01*
X141311235Y-88585073D01*
X141196216Y-88412935D01*
X141196215Y-88412933D01*
X141116989Y-88221664D01*
X141076600Y-88018616D01*
X141076600Y-87811584D01*
X141116989Y-87608536D01*
X141196215Y-87417267D01*
X141311235Y-87245127D01*
X141457627Y-87098735D01*
X141503862Y-87067842D01*
X141629765Y-86983716D01*
X141629767Y-86983715D01*
X141821036Y-86904489D01*
X142024084Y-86864100D01*
X142231116Y-86864100D01*
X142434164Y-86904489D01*
X142434164Y-86904489D01*
G37*
G36*
X148178600Y-88966100D02*
G01*
X146076600Y-88966100D01*
X146076600Y-86864100D01*
X148178600Y-86864100D01*
X148178600Y-88966100D01*
X148178600Y-88966100D01*
G37*
G36*
X144934164Y-86904489D02*
G01*
X145125433Y-86983715D01*
X145125435Y-86983716D01*
X145251338Y-87067842D01*
X145297573Y-87098735D01*
X145443965Y-87245127D01*
X145558985Y-87417267D01*
X145638211Y-87608536D01*
X145678600Y-87811584D01*
X145678600Y-88018616D01*
X145638211Y-88221664D01*
X145558985Y-88412933D01*
X145558984Y-88412935D01*
X145443965Y-88585073D01*
X145297573Y-88731465D01*
X145125435Y-88846484D01*
X145125434Y-88846485D01*
X145125433Y-88846485D01*
X144934164Y-88925711D01*
X144731116Y-88966100D01*
X144524084Y-88966100D01*
X144321036Y-88925711D01*
X144129767Y-88846485D01*
X144129766Y-88846485D01*
X144129765Y-88846484D01*
X143957627Y-88731465D01*
X143811235Y-88585073D01*
X143696216Y-88412935D01*
X143696215Y-88412933D01*
X143616989Y-88221664D01*
X143576600Y-88018616D01*
X143576600Y-87811584D01*
X143616989Y-87608536D01*
X143696215Y-87417267D01*
X143811235Y-87245127D01*
X143957627Y-87098735D01*
X144003862Y-87067842D01*
X144129765Y-86983716D01*
X144129767Y-86983715D01*
X144321036Y-86904489D01*
X144524084Y-86864100D01*
X144731116Y-86864100D01*
X144934164Y-86904489D01*
X144934164Y-86904489D01*
G37*
G36*
X236927927Y-86385452D02*
G01*
X237096449Y-86455256D01*
X237248114Y-86556595D01*
X237377095Y-86685576D01*
X237478434Y-86837241D01*
X237548238Y-87005763D01*
X237583823Y-87184664D01*
X237583823Y-87367070D01*
X237548238Y-87545971D01*
X237478434Y-87714493D01*
X237377095Y-87866158D01*
X237248114Y-87995139D01*
X237096449Y-88096478D01*
X236927927Y-88166282D01*
X236749026Y-88201867D01*
X236566620Y-88201867D01*
X236387719Y-88166282D01*
X236219197Y-88096478D01*
X236067532Y-87995139D01*
X235938551Y-87866158D01*
X235837212Y-87714493D01*
X235767408Y-87545971D01*
X235731823Y-87367070D01*
X235731823Y-87184664D01*
X235767408Y-87005763D01*
X235837212Y-86837241D01*
X235938551Y-86685576D01*
X236067532Y-86556595D01*
X236219197Y-86455256D01*
X236387719Y-86385452D01*
X236566620Y-86349867D01*
X236749026Y-86349867D01*
X236927927Y-86385452D01*
X236927927Y-86385452D01*
G37*
G36*
X53479781Y-86119952D02*
G01*
X53648303Y-86189756D01*
X53799968Y-86291095D01*
X53928949Y-86420076D01*
X54030288Y-86571741D01*
X54100092Y-86740263D01*
X54135677Y-86919164D01*
X54135677Y-87101570D01*
X54100092Y-87280471D01*
X54030288Y-87448993D01*
X53928949Y-87600658D01*
X53799968Y-87729639D01*
X53648303Y-87830978D01*
X53479781Y-87900782D01*
X53300880Y-87936367D01*
X53118474Y-87936367D01*
X52939573Y-87900782D01*
X52771051Y-87830978D01*
X52619386Y-87729639D01*
X52490405Y-87600658D01*
X52389066Y-87448993D01*
X52319262Y-87280471D01*
X52283677Y-87101570D01*
X52283677Y-86919164D01*
X52319262Y-86740263D01*
X52389066Y-86571741D01*
X52490405Y-86420076D01*
X52619386Y-86291095D01*
X52771051Y-86189756D01*
X52939573Y-86119952D01*
X53118474Y-86084367D01*
X53300880Y-86084367D01*
X53479781Y-86119952D01*
X53479781Y-86119952D01*
G37*
G36*
X80587604Y-85444807D02*
G01*
X80739071Y-85474936D01*
X80953089Y-85563585D01*
X81005986Y-85598930D01*
X81145698Y-85692282D01*
X81309505Y-85856089D01*
X81379094Y-85960237D01*
X81438202Y-86048698D01*
X81526851Y-86262716D01*
X81572044Y-86489917D01*
X81572044Y-86721569D01*
X81526851Y-86948770D01*
X81438202Y-87162788D01*
X81438201Y-87162789D01*
X81309505Y-87355397D01*
X81145698Y-87519204D01*
X81082358Y-87561526D01*
X80953089Y-87647901D01*
X80739071Y-87736550D01*
X80587604Y-87766679D01*
X80511871Y-87781743D01*
X80280217Y-87781743D01*
X80204484Y-87766679D01*
X80053017Y-87736550D01*
X79838999Y-87647901D01*
X79709730Y-87561526D01*
X79646390Y-87519204D01*
X79482583Y-87355397D01*
X79353887Y-87162789D01*
X79353886Y-87162788D01*
X79265237Y-86948770D01*
X79220044Y-86721569D01*
X79220044Y-86489917D01*
X79265237Y-86262716D01*
X79353886Y-86048698D01*
X79412994Y-85960237D01*
X79482583Y-85856089D01*
X79646390Y-85692282D01*
X79786102Y-85598930D01*
X79838999Y-85563585D01*
X80053017Y-85474936D01*
X80204484Y-85444807D01*
X80280217Y-85429743D01*
X80511871Y-85429743D01*
X80587604Y-85444807D01*
X80587604Y-85444807D01*
G37*
G36*
X227653376Y-85157252D02*
G01*
X227804843Y-85187381D01*
X228018861Y-85276030D01*
X228083065Y-85318930D01*
X228211470Y-85404727D01*
X228375277Y-85568534D01*
X228425000Y-85642950D01*
X228503974Y-85761143D01*
X228592623Y-85975161D01*
X228592623Y-85975163D01*
X228633543Y-86180877D01*
X228637816Y-86202362D01*
X228637816Y-86434014D01*
X228592623Y-86661215D01*
X228503974Y-86875233D01*
X228503973Y-86875234D01*
X228375277Y-87067842D01*
X228211470Y-87231649D01*
X228083065Y-87317446D01*
X228018861Y-87360346D01*
X227804843Y-87448995D01*
X227653376Y-87479124D01*
X227577643Y-87494188D01*
X227345989Y-87494188D01*
X227270256Y-87479124D01*
X227118789Y-87448995D01*
X226904771Y-87360346D01*
X226840567Y-87317446D01*
X226712162Y-87231649D01*
X226548355Y-87067842D01*
X226419659Y-86875234D01*
X226419658Y-86875233D01*
X226331009Y-86661215D01*
X226285816Y-86434014D01*
X226285816Y-86202362D01*
X226290090Y-86180877D01*
X226331009Y-85975163D01*
X226331009Y-85975161D01*
X226419658Y-85761143D01*
X226498632Y-85642950D01*
X226548355Y-85568534D01*
X226712162Y-85404727D01*
X226840567Y-85318930D01*
X226904771Y-85276030D01*
X227118789Y-85187381D01*
X227270256Y-85157252D01*
X227345989Y-85142188D01*
X227577643Y-85142188D01*
X227653376Y-85157252D01*
X227653376Y-85157252D01*
G37*
G36*
X214734266Y-84851867D02*
G01*
X214892306Y-84883303D01*
X215106324Y-84971952D01*
X215106325Y-84971953D01*
X215298933Y-85100649D01*
X215462740Y-85264456D01*
X215548537Y-85392861D01*
X215591437Y-85457065D01*
X215680086Y-85671083D01*
X215725279Y-85898284D01*
X215725279Y-86129936D01*
X215680086Y-86357137D01*
X215591437Y-86571155D01*
X215558688Y-86620167D01*
X215462740Y-86763764D01*
X215298933Y-86927571D01*
X215181910Y-87005763D01*
X215106324Y-87056268D01*
X214892306Y-87144917D01*
X214740839Y-87175046D01*
X214665106Y-87190110D01*
X214433452Y-87190110D01*
X214357719Y-87175046D01*
X214206252Y-87144917D01*
X213992234Y-87056268D01*
X213916648Y-87005763D01*
X213799625Y-86927571D01*
X213635818Y-86763764D01*
X213539870Y-86620167D01*
X213507121Y-86571155D01*
X213418472Y-86357137D01*
X213373279Y-86129936D01*
X213373279Y-85898284D01*
X213418472Y-85671083D01*
X213507121Y-85457065D01*
X213550021Y-85392861D01*
X213635818Y-85264456D01*
X213799625Y-85100649D01*
X213992233Y-84971953D01*
X213992234Y-84971952D01*
X214206252Y-84883303D01*
X214364292Y-84851867D01*
X214433452Y-84838110D01*
X214665106Y-84838110D01*
X214734266Y-84851867D01*
X214734266Y-84851867D01*
G37*
G36*
X251026474Y-82841684D02*
G01*
X251244474Y-82931983D01*
X251398623Y-82995833D01*
X251733548Y-83219623D01*
X252018377Y-83504452D01*
X252242167Y-83839377D01*
X252262219Y-83887788D01*
X252396316Y-84211526D01*
X252474900Y-84606594D01*
X252474900Y-85009406D01*
X252396316Y-85404474D01*
X252306017Y-85622474D01*
X252242167Y-85776623D01*
X252018377Y-86111548D01*
X251733548Y-86396377D01*
X251398623Y-86620167D01*
X251299524Y-86661215D01*
X251026474Y-86774316D01*
X250631406Y-86852900D01*
X250228594Y-86852900D01*
X249833526Y-86774316D01*
X249560476Y-86661215D01*
X249461377Y-86620167D01*
X249126452Y-86396377D01*
X248841623Y-86111548D01*
X248617833Y-85776623D01*
X248553983Y-85622474D01*
X248463684Y-85404474D01*
X248385100Y-85009406D01*
X248385100Y-84606594D01*
X248463684Y-84211526D01*
X248597781Y-83887788D01*
X248617833Y-83839377D01*
X248841623Y-83504452D01*
X249126452Y-83219623D01*
X249461377Y-82995833D01*
X249615526Y-82931983D01*
X249833526Y-82841684D01*
X250228594Y-82763100D01*
X250631406Y-82763100D01*
X251026474Y-82841684D01*
X251026474Y-82841684D01*
G37*
G36*
X40008974Y-82626184D02*
G01*
X40226974Y-82716483D01*
X40381123Y-82780333D01*
X40716048Y-83004123D01*
X41000877Y-83288952D01*
X41224667Y-83623877D01*
X41237875Y-83655764D01*
X41378816Y-83996026D01*
X41457400Y-84391094D01*
X41457400Y-84793906D01*
X41378816Y-85188974D01*
X41289553Y-85404474D01*
X41224667Y-85561123D01*
X41000877Y-85896048D01*
X40716048Y-86180877D01*
X40381123Y-86404667D01*
X40310270Y-86434015D01*
X40008974Y-86558816D01*
X39613906Y-86637400D01*
X39211094Y-86637400D01*
X38816026Y-86558816D01*
X38514730Y-86434015D01*
X38443877Y-86404667D01*
X38108952Y-86180877D01*
X37824123Y-85896048D01*
X37600333Y-85561123D01*
X37535447Y-85404474D01*
X37446184Y-85188974D01*
X37367600Y-84793906D01*
X37367600Y-84391094D01*
X37446184Y-83996026D01*
X37587125Y-83655764D01*
X37600333Y-83623877D01*
X37824123Y-83288952D01*
X38108952Y-83004123D01*
X38443877Y-82780333D01*
X38598026Y-82716483D01*
X38816026Y-82626184D01*
X39211094Y-82547600D01*
X39613906Y-82547600D01*
X40008974Y-82626184D01*
X40008974Y-82626184D01*
G37*
G36*
X245697281Y-84799718D02*
G01*
X245865803Y-84869522D01*
X246017468Y-84970861D01*
X246146449Y-85099842D01*
X246247788Y-85251507D01*
X246317592Y-85420029D01*
X246353177Y-85598930D01*
X246353177Y-85781336D01*
X246317592Y-85960237D01*
X246247788Y-86128759D01*
X246146449Y-86280424D01*
X246017468Y-86409405D01*
X245865803Y-86510744D01*
X245697281Y-86580548D01*
X245518380Y-86616133D01*
X245335974Y-86616133D01*
X245157073Y-86580548D01*
X244988551Y-86510744D01*
X244836886Y-86409405D01*
X244707905Y-86280424D01*
X244606566Y-86128759D01*
X244536762Y-85960237D01*
X244501177Y-85781336D01*
X244501177Y-85598930D01*
X244536762Y-85420029D01*
X244606566Y-85251507D01*
X244707905Y-85099842D01*
X244836886Y-84970861D01*
X244988551Y-84869522D01*
X245157073Y-84799718D01*
X245335974Y-84764133D01*
X245518380Y-84764133D01*
X245697281Y-84799718D01*
X245697281Y-84799718D01*
G37*
G36*
X44685427Y-84584218D02*
G01*
X44853949Y-84654022D01*
X45005614Y-84755361D01*
X45134595Y-84884342D01*
X45235934Y-85036007D01*
X45305738Y-85204529D01*
X45341323Y-85383430D01*
X45341323Y-85565836D01*
X45305738Y-85744737D01*
X45235934Y-85913259D01*
X45134595Y-86064924D01*
X45005614Y-86193905D01*
X44853949Y-86295244D01*
X44685427Y-86365048D01*
X44506526Y-86400633D01*
X44324120Y-86400633D01*
X44145219Y-86365048D01*
X43976697Y-86295244D01*
X43825032Y-86193905D01*
X43696051Y-86064924D01*
X43594712Y-85913259D01*
X43524908Y-85744737D01*
X43489323Y-85565836D01*
X43489323Y-85383430D01*
X43524908Y-85204529D01*
X43594712Y-85036007D01*
X43696051Y-84884342D01*
X43825032Y-84755361D01*
X43976697Y-84654022D01*
X44145219Y-84584218D01*
X44324120Y-84548633D01*
X44506526Y-84548633D01*
X44685427Y-84584218D01*
X44685427Y-84584218D01*
G37*
G36*
X55093009Y-83568553D02*
G01*
X55244476Y-83598682D01*
X55458494Y-83687331D01*
X55458495Y-83687332D01*
X55651103Y-83816028D01*
X55814910Y-83979835D01*
X55882103Y-84080397D01*
X55943607Y-84172444D01*
X56032256Y-84386462D01*
X56077449Y-84613663D01*
X56077449Y-84845315D01*
X56032256Y-85072516D01*
X55943607Y-85286534D01*
X55943606Y-85286535D01*
X55814910Y-85479143D01*
X55651103Y-85642950D01*
X55577272Y-85692282D01*
X55458494Y-85771647D01*
X55244476Y-85860296D01*
X55093009Y-85890425D01*
X55017276Y-85905489D01*
X54785622Y-85905489D01*
X54709889Y-85890425D01*
X54558422Y-85860296D01*
X54344404Y-85771647D01*
X54225626Y-85692282D01*
X54151795Y-85642950D01*
X53987988Y-85479143D01*
X53859292Y-85286535D01*
X53859291Y-85286534D01*
X53770642Y-85072516D01*
X53725449Y-84845315D01*
X53725449Y-84613663D01*
X53770642Y-84386462D01*
X53859291Y-84172444D01*
X53920795Y-84080397D01*
X53987988Y-83979835D01*
X54151795Y-83816028D01*
X54344403Y-83687332D01*
X54344404Y-83687331D01*
X54558422Y-83598682D01*
X54709889Y-83568553D01*
X54785622Y-83553489D01*
X55017276Y-83553489D01*
X55093009Y-83568553D01*
X55093009Y-83568553D01*
G37*
G36*
X255702927Y-83035452D02*
G01*
X255871449Y-83105256D01*
X256023114Y-83206595D01*
X256152095Y-83335576D01*
X256253434Y-83487241D01*
X256323238Y-83655763D01*
X256358823Y-83834664D01*
X256358823Y-84017070D01*
X256323238Y-84195971D01*
X256253434Y-84364493D01*
X256152095Y-84516158D01*
X256023114Y-84645139D01*
X255871449Y-84746478D01*
X255702927Y-84816282D01*
X255524026Y-84851867D01*
X255341620Y-84851867D01*
X255162719Y-84816282D01*
X254994197Y-84746478D01*
X254842532Y-84645139D01*
X254713551Y-84516158D01*
X254612212Y-84364493D01*
X254542408Y-84195971D01*
X254506823Y-84017070D01*
X254506823Y-83834664D01*
X254542408Y-83655763D01*
X254612212Y-83487241D01*
X254713551Y-83335576D01*
X254842532Y-83206595D01*
X254994197Y-83105256D01*
X255162719Y-83035452D01*
X255341620Y-82999867D01*
X255524026Y-82999867D01*
X255702927Y-83035452D01*
X255702927Y-83035452D01*
G37*
G36*
X34679781Y-82819952D02*
G01*
X34848303Y-82889756D01*
X34999968Y-82991095D01*
X35128949Y-83120076D01*
X35230288Y-83271741D01*
X35300092Y-83440263D01*
X35335677Y-83619164D01*
X35335677Y-83801570D01*
X35300092Y-83980471D01*
X35230288Y-84148993D01*
X35128949Y-84300658D01*
X34999968Y-84429639D01*
X34848303Y-84530978D01*
X34679781Y-84600782D01*
X34500880Y-84636367D01*
X34318474Y-84636367D01*
X34139573Y-84600782D01*
X33971051Y-84530978D01*
X33819386Y-84429639D01*
X33690405Y-84300658D01*
X33589066Y-84148993D01*
X33519262Y-83980471D01*
X33483677Y-83801570D01*
X33483677Y-83619164D01*
X33519262Y-83440263D01*
X33589066Y-83271741D01*
X33690405Y-83120076D01*
X33819386Y-82991095D01*
X33971051Y-82889756D01*
X34139573Y-82819952D01*
X34318474Y-82784367D01*
X34500880Y-82784367D01*
X34679781Y-82819952D01*
X34679781Y-82819952D01*
G37*
G36*
X61723544Y-82157065D02*
G01*
X61939071Y-82199936D01*
X62153089Y-82288585D01*
X62153090Y-82288586D01*
X62345698Y-82417282D01*
X62509505Y-82581089D01*
X62538954Y-82625163D01*
X62638202Y-82773698D01*
X62726851Y-82987716D01*
X62772044Y-83214917D01*
X62772044Y-83446569D01*
X62726851Y-83673770D01*
X62638202Y-83887788D01*
X62638201Y-83887789D01*
X62509505Y-84080397D01*
X62345698Y-84244204D01*
X62261208Y-84300658D01*
X62153089Y-84372901D01*
X61939071Y-84461550D01*
X61787604Y-84491679D01*
X61711871Y-84506743D01*
X61480217Y-84506743D01*
X61404484Y-84491679D01*
X61253017Y-84461550D01*
X61038999Y-84372901D01*
X60930880Y-84300658D01*
X60846390Y-84244204D01*
X60682583Y-84080397D01*
X60553887Y-83887789D01*
X60553886Y-83887788D01*
X60465237Y-83673770D01*
X60420044Y-83446569D01*
X60420044Y-83214917D01*
X60465237Y-82987716D01*
X60553886Y-82773698D01*
X60653134Y-82625163D01*
X60682583Y-82581089D01*
X60846390Y-82417282D01*
X61038998Y-82288586D01*
X61038999Y-82288585D01*
X61253017Y-82199936D01*
X61468544Y-82157065D01*
X61480217Y-82154743D01*
X61711871Y-82154743D01*
X61723544Y-82157065D01*
X61723544Y-82157065D01*
G37*
G36*
X246428376Y-81807252D02*
G01*
X246579843Y-81837381D01*
X246793861Y-81926030D01*
X246793862Y-81926031D01*
X246986470Y-82054727D01*
X247150277Y-82218534D01*
X247197083Y-82288585D01*
X247278974Y-82411143D01*
X247367623Y-82625161D01*
X247395061Y-82763100D01*
X247408356Y-82829937D01*
X247412816Y-82852362D01*
X247412816Y-83084014D01*
X247367623Y-83311215D01*
X247278974Y-83525233D01*
X247278973Y-83525234D01*
X247150277Y-83717842D01*
X246986470Y-83881649D01*
X246858065Y-83967446D01*
X246793861Y-84010346D01*
X246579843Y-84098995D01*
X246428376Y-84129124D01*
X246352643Y-84144188D01*
X246120989Y-84144188D01*
X246045256Y-84129124D01*
X245893789Y-84098995D01*
X245679771Y-84010346D01*
X245615567Y-83967446D01*
X245487162Y-83881649D01*
X245323355Y-83717842D01*
X245194659Y-83525234D01*
X245194658Y-83525233D01*
X245106009Y-83311215D01*
X245060816Y-83084014D01*
X245060816Y-82852362D01*
X245065277Y-82829937D01*
X245078571Y-82763100D01*
X245106009Y-82625161D01*
X245194658Y-82411143D01*
X245276549Y-82288585D01*
X245323355Y-82218534D01*
X245487162Y-82054727D01*
X245679770Y-81926031D01*
X245679771Y-81926030D01*
X245893789Y-81837381D01*
X246045256Y-81807252D01*
X246120989Y-81792188D01*
X246352643Y-81792188D01*
X246428376Y-81807252D01*
X246428376Y-81807252D01*
G37*
G36*
X233465839Y-81553174D02*
G01*
X233617306Y-81583303D01*
X233831324Y-81671952D01*
X233831325Y-81671953D01*
X234023933Y-81800649D01*
X234187740Y-81964456D01*
X234248057Y-82054727D01*
X234316437Y-82157065D01*
X234405086Y-82371083D01*
X234414276Y-82417284D01*
X234450279Y-82598283D01*
X234450279Y-82829937D01*
X234445818Y-82852362D01*
X234405086Y-83057137D01*
X234316437Y-83271155D01*
X234289671Y-83311213D01*
X234187740Y-83463764D01*
X234023933Y-83627571D01*
X233954794Y-83673768D01*
X233831324Y-83756268D01*
X233617306Y-83844917D01*
X233465839Y-83875046D01*
X233390106Y-83890110D01*
X233158452Y-83890110D01*
X233082719Y-83875046D01*
X232931252Y-83844917D01*
X232717234Y-83756268D01*
X232593764Y-83673768D01*
X232524625Y-83627571D01*
X232360818Y-83463764D01*
X232258887Y-83311213D01*
X232232121Y-83271155D01*
X232143472Y-83057137D01*
X232102740Y-82852362D01*
X232098279Y-82829937D01*
X232098279Y-82598283D01*
X232134282Y-82417284D01*
X232143472Y-82371083D01*
X232232121Y-82157065D01*
X232300501Y-82054727D01*
X232360818Y-81964456D01*
X232524625Y-81800649D01*
X232717233Y-81671953D01*
X232717234Y-81671952D01*
X232931252Y-81583303D01*
X233082719Y-81553174D01*
X233158452Y-81538110D01*
X233390106Y-81538110D01*
X233465839Y-81553174D01*
X233465839Y-81553174D01*
G37*
G36*
X36293009Y-80268553D02*
G01*
X36444476Y-80298682D01*
X36658494Y-80387331D01*
X36686835Y-80406268D01*
X36851103Y-80516028D01*
X37014910Y-80679835D01*
X37025734Y-80696035D01*
X37143607Y-80872444D01*
X37232256Y-81086462D01*
X37277449Y-81313663D01*
X37277449Y-81545315D01*
X37232256Y-81772516D01*
X37143607Y-81986534D01*
X37143606Y-81986535D01*
X37014910Y-82179143D01*
X36851103Y-82342950D01*
X36739857Y-82417282D01*
X36658494Y-82471647D01*
X36444476Y-82560296D01*
X36339952Y-82581087D01*
X36217276Y-82605489D01*
X35985622Y-82605489D01*
X35862946Y-82581087D01*
X35758422Y-82560296D01*
X35544404Y-82471647D01*
X35463041Y-82417282D01*
X35351795Y-82342950D01*
X35187988Y-82179143D01*
X35059292Y-81986535D01*
X35059291Y-81986534D01*
X34970642Y-81772516D01*
X34925449Y-81545315D01*
X34925449Y-81313663D01*
X34970642Y-81086462D01*
X35059291Y-80872444D01*
X35177164Y-80696035D01*
X35187988Y-80679835D01*
X35351795Y-80516028D01*
X35516063Y-80406268D01*
X35544404Y-80387331D01*
X35758422Y-80298682D01*
X35909889Y-80268553D01*
X35985622Y-80253489D01*
X36217276Y-80253489D01*
X36293009Y-80268553D01*
X36293009Y-80268553D01*
G37*
G36*
X172580360Y-77408960D02*
G01*
X172718298Y-77466096D01*
X172952509Y-77563109D01*
X173287434Y-77786899D01*
X173572263Y-78071728D01*
X173796053Y-78406653D01*
X173822717Y-78471026D01*
X173950202Y-78778802D01*
X174028786Y-79173870D01*
X174028786Y-79576682D01*
X173950202Y-79971750D01*
X173859903Y-80189750D01*
X173796053Y-80343899D01*
X173572263Y-80678824D01*
X173287434Y-80963653D01*
X172952509Y-81187443D01*
X172905914Y-81206743D01*
X172580360Y-81341592D01*
X172185292Y-81420176D01*
X171782480Y-81420176D01*
X171387412Y-81341592D01*
X171061858Y-81206743D01*
X171015263Y-81187443D01*
X170680338Y-80963653D01*
X170395509Y-80678824D01*
X170171719Y-80343899D01*
X170107869Y-80189750D01*
X170017570Y-79971750D01*
X169938986Y-79576682D01*
X169938986Y-79173870D01*
X170017570Y-78778802D01*
X170145055Y-78471026D01*
X170171719Y-78406653D01*
X170395509Y-78071728D01*
X170680338Y-77786899D01*
X171015263Y-77563109D01*
X171249474Y-77466096D01*
X171387412Y-77408960D01*
X171782480Y-77330376D01*
X172185292Y-77330376D01*
X172580360Y-77408960D01*
X172580360Y-77408960D01*
G37*
G36*
X42987604Y-78869807D02*
G01*
X43139071Y-78899936D01*
X43353089Y-78988585D01*
X43405542Y-79023633D01*
X43545698Y-79117282D01*
X43709505Y-79281089D01*
X43766905Y-79366995D01*
X43838202Y-79473698D01*
X43926851Y-79687716D01*
X43972044Y-79914917D01*
X43972044Y-80146569D01*
X43926851Y-80373770D01*
X43838202Y-80587788D01*
X43838201Y-80587789D01*
X43709505Y-80780397D01*
X43545698Y-80944204D01*
X43417293Y-81030001D01*
X43353089Y-81072901D01*
X43139071Y-81161550D01*
X43029178Y-81183409D01*
X42911871Y-81206743D01*
X42680217Y-81206743D01*
X42562910Y-81183409D01*
X42453017Y-81161550D01*
X42238999Y-81072901D01*
X42174795Y-81030001D01*
X42046390Y-80944204D01*
X41882583Y-80780397D01*
X41753887Y-80587789D01*
X41753886Y-80587788D01*
X41665237Y-80373770D01*
X41620044Y-80146569D01*
X41620044Y-79914917D01*
X41665237Y-79687716D01*
X41753886Y-79473698D01*
X41825183Y-79366995D01*
X41882583Y-79281089D01*
X42046390Y-79117282D01*
X42186546Y-79023633D01*
X42238999Y-78988585D01*
X42453017Y-78899936D01*
X42604484Y-78869807D01*
X42680217Y-78854743D01*
X42911871Y-78854743D01*
X42987604Y-78869807D01*
X42987604Y-78869807D01*
G37*
G36*
X167251167Y-79366994D02*
G01*
X167419689Y-79436798D01*
X167571354Y-79538137D01*
X167700335Y-79667118D01*
X167801674Y-79818783D01*
X167871478Y-79987305D01*
X167907063Y-80166206D01*
X167907063Y-80348612D01*
X167871478Y-80527513D01*
X167801674Y-80696035D01*
X167700335Y-80847700D01*
X167571354Y-80976681D01*
X167419689Y-81078020D01*
X167251167Y-81147824D01*
X167072266Y-81183409D01*
X166889860Y-81183409D01*
X166710959Y-81147824D01*
X166542437Y-81078020D01*
X166390772Y-80976681D01*
X166261791Y-80847700D01*
X166160452Y-80696035D01*
X166090648Y-80527513D01*
X166055063Y-80348612D01*
X166055063Y-80166206D01*
X166090648Y-79987305D01*
X166160452Y-79818783D01*
X166261791Y-79667118D01*
X166390772Y-79538137D01*
X166542437Y-79436798D01*
X166710959Y-79366994D01*
X166889860Y-79331409D01*
X167072266Y-79331409D01*
X167251167Y-79366994D01*
X167251167Y-79366994D01*
G37*
G36*
X118308974Y-77101184D02*
G01*
X118526974Y-77191483D01*
X118681123Y-77255333D01*
X119016048Y-77479123D01*
X119300877Y-77763952D01*
X119524667Y-78098877D01*
X119561628Y-78188110D01*
X119678816Y-78471026D01*
X119757400Y-78866094D01*
X119757400Y-79268906D01*
X119678816Y-79663974D01*
X119588517Y-79881974D01*
X119524667Y-80036123D01*
X119300877Y-80371048D01*
X119016048Y-80655877D01*
X118681123Y-80879667D01*
X118526974Y-80943517D01*
X118308974Y-81033816D01*
X117913906Y-81112400D01*
X117511094Y-81112400D01*
X117116026Y-81033816D01*
X116898026Y-80943517D01*
X116743877Y-80879667D01*
X116408952Y-80655877D01*
X116124123Y-80371048D01*
X115900333Y-80036123D01*
X115836483Y-79881974D01*
X115746184Y-79663974D01*
X115667600Y-79268906D01*
X115667600Y-78866094D01*
X115746184Y-78471026D01*
X115863372Y-78188110D01*
X115900333Y-78098877D01*
X116124123Y-77763952D01*
X116408952Y-77479123D01*
X116743877Y-77255333D01*
X116898026Y-77191483D01*
X117116026Y-77101184D01*
X117511094Y-77022600D01*
X117913906Y-77022600D01*
X118308974Y-77101184D01*
X118308974Y-77101184D01*
G37*
G36*
X122985427Y-79059218D02*
G01*
X123153949Y-79129022D01*
X123305614Y-79230361D01*
X123434595Y-79359342D01*
X123535934Y-79511007D01*
X123605738Y-79679529D01*
X123641323Y-79858430D01*
X123641323Y-80040836D01*
X123605738Y-80219737D01*
X123535934Y-80388259D01*
X123434595Y-80539924D01*
X123305614Y-80668905D01*
X123153949Y-80770244D01*
X122985427Y-80840048D01*
X122806526Y-80875633D01*
X122624120Y-80875633D01*
X122445219Y-80840048D01*
X122276697Y-80770244D01*
X122125032Y-80668905D01*
X121996051Y-80539924D01*
X121894712Y-80388259D01*
X121824908Y-80219737D01*
X121789323Y-80040836D01*
X121789323Y-79858430D01*
X121824908Y-79679529D01*
X121894712Y-79511007D01*
X121996051Y-79359342D01*
X122125032Y-79230361D01*
X122276697Y-79129022D01*
X122445219Y-79059218D01*
X122624120Y-79023633D01*
X122806526Y-79023633D01*
X122985427Y-79059218D01*
X122985427Y-79059218D01*
G37*
G36*
X252240839Y-78203174D02*
G01*
X252392306Y-78233303D01*
X252606324Y-78321952D01*
X252606325Y-78321953D01*
X252798933Y-78450649D01*
X252962740Y-78614456D01*
X253027558Y-78711464D01*
X253091437Y-78807065D01*
X253180086Y-79021083D01*
X253201556Y-79129022D01*
X253225279Y-79248283D01*
X253225279Y-79479937D01*
X253213702Y-79538137D01*
X253180086Y-79707137D01*
X253091437Y-79921155D01*
X253091436Y-79921156D01*
X252962740Y-80113764D01*
X252798933Y-80277571D01*
X252692612Y-80348612D01*
X252606324Y-80406268D01*
X252392306Y-80494917D01*
X252240839Y-80525046D01*
X252165106Y-80540110D01*
X251933452Y-80540110D01*
X251857719Y-80525046D01*
X251706252Y-80494917D01*
X251492234Y-80406268D01*
X251405946Y-80348612D01*
X251299625Y-80277571D01*
X251135818Y-80113764D01*
X251007122Y-79921156D01*
X251007121Y-79921155D01*
X250918472Y-79707137D01*
X250884856Y-79538137D01*
X250873279Y-79479937D01*
X250873279Y-79248283D01*
X250897002Y-79129022D01*
X250918472Y-79021083D01*
X251007121Y-78807065D01*
X251071000Y-78711464D01*
X251135818Y-78614456D01*
X251299625Y-78450649D01*
X251492233Y-78321953D01*
X251492234Y-78321952D01*
X251706252Y-78233303D01*
X251857719Y-78203174D01*
X251933452Y-78188110D01*
X252165106Y-78188110D01*
X252240839Y-78203174D01*
X252240839Y-78203174D01*
G37*
G36*
X177256813Y-77602728D02*
G01*
X177425335Y-77672532D01*
X177577000Y-77773871D01*
X177705981Y-77902852D01*
X177807320Y-78054517D01*
X177877124Y-78223039D01*
X177912709Y-78401940D01*
X177912709Y-78584346D01*
X177877124Y-78763247D01*
X177807320Y-78931769D01*
X177705981Y-79083434D01*
X177577000Y-79212415D01*
X177425335Y-79313754D01*
X177256813Y-79383558D01*
X177077912Y-79419143D01*
X176895506Y-79419143D01*
X176716605Y-79383558D01*
X176548083Y-79313754D01*
X176396418Y-79212415D01*
X176267437Y-79083434D01*
X176166098Y-78931769D01*
X176096294Y-78763247D01*
X176060709Y-78584346D01*
X176060709Y-78401940D01*
X176096294Y-78223039D01*
X176166098Y-78054517D01*
X176267437Y-77902852D01*
X176396418Y-77773871D01*
X176548083Y-77672532D01*
X176716605Y-77602728D01*
X176895506Y-77567143D01*
X177077912Y-77567143D01*
X177256813Y-77602728D01*
X177256813Y-77602728D01*
G37*
G36*
X112979781Y-77294952D02*
G01*
X113148303Y-77364756D01*
X113299968Y-77466095D01*
X113428949Y-77595076D01*
X113530288Y-77746741D01*
X113600092Y-77915263D01*
X113635677Y-78094164D01*
X113635677Y-78276570D01*
X113600092Y-78455471D01*
X113530288Y-78623993D01*
X113428949Y-78775658D01*
X113299968Y-78904639D01*
X113148303Y-79005978D01*
X112979781Y-79075782D01*
X112800880Y-79111367D01*
X112618474Y-79111367D01*
X112439573Y-79075782D01*
X112271051Y-79005978D01*
X112119386Y-78904639D01*
X111990405Y-78775658D01*
X111889066Y-78623993D01*
X111819262Y-78455471D01*
X111783677Y-78276570D01*
X111783677Y-78094164D01*
X111819262Y-77915263D01*
X111889066Y-77746741D01*
X111990405Y-77595076D01*
X112119386Y-77466095D01*
X112271051Y-77364756D01*
X112439573Y-77294952D01*
X112618474Y-77259367D01*
X112800880Y-77259367D01*
X112979781Y-77294952D01*
X112979781Y-77294952D01*
G37*
G36*
X167982262Y-76374528D02*
G01*
X168133729Y-76404657D01*
X168347747Y-76493306D01*
X168347748Y-76493307D01*
X168540356Y-76622003D01*
X168704163Y-76785810D01*
X168776945Y-76894736D01*
X168832860Y-76978419D01*
X168921509Y-77192437D01*
X168925982Y-77214924D01*
X168966702Y-77419637D01*
X168966702Y-77651291D01*
X168962477Y-77672532D01*
X168921509Y-77878491D01*
X168832860Y-78092509D01*
X168832859Y-78092510D01*
X168704163Y-78285118D01*
X168540356Y-78448925D01*
X168507279Y-78471026D01*
X168347747Y-78577622D01*
X168133729Y-78666271D01*
X167982262Y-78696400D01*
X167906529Y-78711464D01*
X167674875Y-78711464D01*
X167599142Y-78696400D01*
X167447675Y-78666271D01*
X167233657Y-78577622D01*
X167074125Y-78471026D01*
X167041048Y-78448925D01*
X166877241Y-78285118D01*
X166748545Y-78092510D01*
X166748544Y-78092509D01*
X166659895Y-77878491D01*
X166618927Y-77672532D01*
X166614702Y-77651291D01*
X166614702Y-77419637D01*
X166655422Y-77214924D01*
X166659895Y-77192437D01*
X166748544Y-76978419D01*
X166804459Y-76894736D01*
X166877241Y-76785810D01*
X167041048Y-76622003D01*
X167233656Y-76493307D01*
X167233657Y-76493306D01*
X167447675Y-76404657D01*
X167599142Y-76374528D01*
X167674875Y-76359464D01*
X167906529Y-76359464D01*
X167982262Y-76374528D01*
X167982262Y-76374528D01*
G37*
G36*
X191376474Y-74116684D02*
G01*
X191553590Y-74190048D01*
X191748623Y-74270833D01*
X192083548Y-74494623D01*
X192368377Y-74779452D01*
X192592167Y-75114377D01*
X192650579Y-75255397D01*
X192746316Y-75486526D01*
X192824900Y-75881594D01*
X192824900Y-76284406D01*
X192746316Y-76679474D01*
X192657151Y-76894736D01*
X192592167Y-77051623D01*
X192368377Y-77386548D01*
X192083548Y-77671377D01*
X191748623Y-77895167D01*
X191700104Y-77915264D01*
X191376474Y-78049316D01*
X190981406Y-78127900D01*
X190578594Y-78127900D01*
X190183526Y-78049316D01*
X189859896Y-77915264D01*
X189811377Y-77895167D01*
X189476452Y-77671377D01*
X189191623Y-77386548D01*
X188967833Y-77051623D01*
X188902849Y-76894736D01*
X188813684Y-76679474D01*
X188735100Y-76284406D01*
X188735100Y-75881594D01*
X188813684Y-75486526D01*
X188909421Y-75255397D01*
X188967833Y-75114377D01*
X189191623Y-74779452D01*
X189476452Y-74494623D01*
X189811377Y-74270833D01*
X190006410Y-74190048D01*
X190183526Y-74116684D01*
X190578594Y-74038100D01*
X190981406Y-74038100D01*
X191376474Y-74116684D01*
X191376474Y-74116684D01*
G37*
G36*
X186047281Y-76074718D02*
G01*
X186215803Y-76144522D01*
X186367468Y-76245861D01*
X186496449Y-76374842D01*
X186597788Y-76526507D01*
X186667592Y-76695029D01*
X186703177Y-76873930D01*
X186703177Y-77056336D01*
X186667592Y-77235237D01*
X186597788Y-77403759D01*
X186496449Y-77555424D01*
X186367468Y-77684405D01*
X186215803Y-77785744D01*
X186047281Y-77855548D01*
X185868380Y-77891133D01*
X185685974Y-77891133D01*
X185507073Y-77855548D01*
X185338551Y-77785744D01*
X185186886Y-77684405D01*
X185057905Y-77555424D01*
X184956566Y-77403759D01*
X184886762Y-77235237D01*
X184851177Y-77056336D01*
X184851177Y-76873930D01*
X184886762Y-76695029D01*
X184956566Y-76526507D01*
X185057905Y-76374842D01*
X185186886Y-76245861D01*
X185338551Y-76144522D01*
X185507073Y-76074718D01*
X185685974Y-76039133D01*
X185868380Y-76039133D01*
X186047281Y-76074718D01*
X186047281Y-76074718D01*
G37*
G36*
X99583974Y-73776184D02*
G01*
X99801974Y-73866483D01*
X99956123Y-73930333D01*
X100291048Y-74154123D01*
X100575877Y-74438952D01*
X100799667Y-74773877D01*
X100836306Y-74862332D01*
X100953816Y-75146026D01*
X101032400Y-75541094D01*
X101032400Y-75943906D01*
X100953816Y-76338974D01*
X100863517Y-76556974D01*
X100799667Y-76711123D01*
X100575877Y-77046048D01*
X100291048Y-77330877D01*
X99956123Y-77554667D01*
X99801974Y-77618517D01*
X99583974Y-77708816D01*
X99188906Y-77787400D01*
X98786094Y-77787400D01*
X98391026Y-77708816D01*
X98173026Y-77618517D01*
X98018877Y-77554667D01*
X97683952Y-77330877D01*
X97399123Y-77046048D01*
X97175333Y-76711123D01*
X97111483Y-76556974D01*
X97021184Y-76338974D01*
X96942600Y-75943906D01*
X96942600Y-75541094D01*
X97021184Y-75146026D01*
X97138694Y-74862332D01*
X97175333Y-74773877D01*
X97399123Y-74438952D01*
X97683952Y-74154123D01*
X98018877Y-73930333D01*
X98173026Y-73866483D01*
X98391026Y-73776184D01*
X98786094Y-73697600D01*
X99188906Y-73697600D01*
X99583974Y-73776184D01*
X99583974Y-73776184D01*
G37*
G36*
X104260427Y-75734218D02*
G01*
X104428949Y-75804022D01*
X104580614Y-75905361D01*
X104709595Y-76034342D01*
X104810934Y-76186007D01*
X104880738Y-76354529D01*
X104916323Y-76533430D01*
X104916323Y-76715836D01*
X104880738Y-76894737D01*
X104810934Y-77063259D01*
X104709595Y-77214924D01*
X104580614Y-77343905D01*
X104428949Y-77445244D01*
X104260427Y-77515048D01*
X104081526Y-77550633D01*
X103899120Y-77550633D01*
X103720219Y-77515048D01*
X103551697Y-77445244D01*
X103400032Y-77343905D01*
X103271051Y-77214924D01*
X103169712Y-77063259D01*
X103099908Y-76894737D01*
X103064323Y-76715836D01*
X103064323Y-76533430D01*
X103099908Y-76354529D01*
X103169712Y-76186007D01*
X103271051Y-76034342D01*
X103400032Y-75905361D01*
X103551697Y-75804022D01*
X103720219Y-75734218D01*
X103899120Y-75698633D01*
X104081526Y-75698633D01*
X104260427Y-75734218D01*
X104260427Y-75734218D01*
G37*
G36*
X114593009Y-74743553D02*
G01*
X114744476Y-74773682D01*
X114958494Y-74862331D01*
X114958495Y-74862332D01*
X115151103Y-74991028D01*
X115314910Y-75154835D01*
X115382103Y-75255397D01*
X115443607Y-75347444D01*
X115532256Y-75561462D01*
X115577449Y-75788663D01*
X115577449Y-76020315D01*
X115532256Y-76247516D01*
X115443607Y-76461534D01*
X115422377Y-76493307D01*
X115314910Y-76654143D01*
X115151103Y-76817950D01*
X115036184Y-76894736D01*
X114958494Y-76946647D01*
X114744476Y-77035296D01*
X114603901Y-77063258D01*
X114517276Y-77080489D01*
X114285622Y-77080489D01*
X114198997Y-77063258D01*
X114058422Y-77035296D01*
X113844404Y-76946647D01*
X113766714Y-76894736D01*
X113651795Y-76817950D01*
X113487988Y-76654143D01*
X113380521Y-76493307D01*
X113359291Y-76461534D01*
X113270642Y-76247516D01*
X113225449Y-76020315D01*
X113225449Y-75788663D01*
X113270642Y-75561462D01*
X113359291Y-75347444D01*
X113420795Y-75255397D01*
X113487988Y-75154835D01*
X113651795Y-74991028D01*
X113844403Y-74862332D01*
X113844404Y-74862331D01*
X114058422Y-74773682D01*
X114209889Y-74743553D01*
X114285622Y-74728489D01*
X114517276Y-74728489D01*
X114593009Y-74743553D01*
X114593009Y-74743553D01*
G37*
G36*
X196052927Y-74310452D02*
G01*
X196221449Y-74380256D01*
X196373114Y-74481595D01*
X196502095Y-74610576D01*
X196603434Y-74762241D01*
X196673238Y-74930763D01*
X196708823Y-75109664D01*
X196708823Y-75292070D01*
X196673238Y-75470971D01*
X196603434Y-75639493D01*
X196502095Y-75791158D01*
X196373114Y-75920139D01*
X196221449Y-76021478D01*
X196052927Y-76091282D01*
X195874026Y-76126867D01*
X195691620Y-76126867D01*
X195512719Y-76091282D01*
X195344197Y-76021478D01*
X195192532Y-75920139D01*
X195063551Y-75791158D01*
X194962212Y-75639493D01*
X194892408Y-75470971D01*
X194856823Y-75292070D01*
X194856823Y-75109664D01*
X194892408Y-74930763D01*
X194962212Y-74762241D01*
X195063551Y-74610576D01*
X195192532Y-74481595D01*
X195344197Y-74380256D01*
X195512719Y-74310452D01*
X195691620Y-74274867D01*
X195874026Y-74274867D01*
X196052927Y-74310452D01*
X196052927Y-74310452D01*
G37*
G36*
X94254781Y-73969952D02*
G01*
X94423303Y-74039756D01*
X94574968Y-74141095D01*
X94703949Y-74270076D01*
X94805288Y-74421741D01*
X94875092Y-74590263D01*
X94910677Y-74769164D01*
X94910677Y-74951570D01*
X94875092Y-75130471D01*
X94805288Y-75298993D01*
X94703949Y-75450658D01*
X94574968Y-75579639D01*
X94423303Y-75680978D01*
X94254781Y-75750782D01*
X94075880Y-75786367D01*
X93893474Y-75786367D01*
X93714573Y-75750782D01*
X93546051Y-75680978D01*
X93394386Y-75579639D01*
X93265405Y-75450658D01*
X93164066Y-75298993D01*
X93094262Y-75130471D01*
X93058677Y-74951570D01*
X93058677Y-74769164D01*
X93094262Y-74590263D01*
X93164066Y-74421741D01*
X93265405Y-74270076D01*
X93394386Y-74141095D01*
X93546051Y-74039756D01*
X93714573Y-73969952D01*
X93893474Y-73934367D01*
X94075880Y-73934367D01*
X94254781Y-73969952D01*
X94254781Y-73969952D01*
G37*
G36*
X121287604Y-73344807D02*
G01*
X121439071Y-73374936D01*
X121653089Y-73463585D01*
X121653090Y-73463586D01*
X121845698Y-73592282D01*
X122009505Y-73756089D01*
X122049241Y-73815559D01*
X122138202Y-73948698D01*
X122226851Y-74162716D01*
X122235346Y-74205423D01*
X122270831Y-74383816D01*
X122272044Y-74389917D01*
X122272044Y-74621569D01*
X122226851Y-74848770D01*
X122138202Y-75062788D01*
X122095302Y-75126992D01*
X122009505Y-75255397D01*
X121845698Y-75419204D01*
X121744943Y-75486526D01*
X121653089Y-75547901D01*
X121439071Y-75636550D01*
X121287604Y-75666679D01*
X121211871Y-75681743D01*
X120980217Y-75681743D01*
X120904484Y-75666679D01*
X120753017Y-75636550D01*
X120538999Y-75547901D01*
X120447145Y-75486526D01*
X120346390Y-75419204D01*
X120182583Y-75255397D01*
X120096786Y-75126992D01*
X120053886Y-75062788D01*
X119965237Y-74848770D01*
X119920044Y-74621569D01*
X119920044Y-74389917D01*
X119921258Y-74383816D01*
X119956742Y-74205423D01*
X119965237Y-74162716D01*
X120053886Y-73948698D01*
X120142847Y-73815559D01*
X120182583Y-73756089D01*
X120346390Y-73592282D01*
X120538998Y-73463586D01*
X120538999Y-73463585D01*
X120753017Y-73374936D01*
X120904484Y-73344807D01*
X120980217Y-73329743D01*
X121211871Y-73329743D01*
X121287604Y-73344807D01*
X121287604Y-73344807D01*
G37*
G36*
X186778376Y-73082252D02*
G01*
X186929843Y-73112381D01*
X187143861Y-73201030D01*
X187208065Y-73243930D01*
X187336470Y-73329727D01*
X187500277Y-73493534D01*
X187551193Y-73569736D01*
X187628974Y-73686143D01*
X187717623Y-73900161D01*
X187762816Y-74127362D01*
X187762816Y-74359014D01*
X187717623Y-74586215D01*
X187628974Y-74800233D01*
X187587481Y-74862331D01*
X187500277Y-74992842D01*
X187336470Y-75156649D01*
X187208065Y-75242446D01*
X187143861Y-75285346D01*
X186929843Y-75373995D01*
X186778376Y-75404124D01*
X186702643Y-75419188D01*
X186470989Y-75419188D01*
X186395256Y-75404124D01*
X186243789Y-75373995D01*
X186029771Y-75285346D01*
X185965567Y-75242446D01*
X185837162Y-75156649D01*
X185673355Y-74992842D01*
X185586151Y-74862331D01*
X185544658Y-74800233D01*
X185456009Y-74586215D01*
X185410816Y-74359014D01*
X185410816Y-74127362D01*
X185456009Y-73900161D01*
X185544658Y-73686143D01*
X185622439Y-73569736D01*
X185673355Y-73493534D01*
X185837162Y-73329727D01*
X185965567Y-73243930D01*
X186029771Y-73201030D01*
X186243789Y-73112381D01*
X186395256Y-73082252D01*
X186470989Y-73067188D01*
X186702643Y-73067188D01*
X186778376Y-73082252D01*
X186778376Y-73082252D01*
G37*
G36*
X173794725Y-72770450D02*
G01*
X173946192Y-72800579D01*
X174160210Y-72889228D01*
X174160211Y-72889229D01*
X174352819Y-73017925D01*
X174516626Y-73181732D01*
X174602423Y-73310137D01*
X174645323Y-73374341D01*
X174733972Y-73588359D01*
X174779165Y-73815560D01*
X174779165Y-74047212D01*
X174733972Y-74274413D01*
X174645323Y-74488431D01*
X174607413Y-74545167D01*
X174516626Y-74681040D01*
X174352819Y-74844847D01*
X174224414Y-74930644D01*
X174160210Y-74973544D01*
X173946192Y-75062193D01*
X173794725Y-75092322D01*
X173718992Y-75107386D01*
X173487338Y-75107386D01*
X173411605Y-75092322D01*
X173260138Y-75062193D01*
X173046120Y-74973544D01*
X172981916Y-74930644D01*
X172853511Y-74844847D01*
X172689704Y-74681040D01*
X172598917Y-74545167D01*
X172561007Y-74488431D01*
X172472358Y-74274413D01*
X172427165Y-74047212D01*
X172427165Y-73815560D01*
X172472358Y-73588359D01*
X172561007Y-73374341D01*
X172603907Y-73310137D01*
X172689704Y-73181732D01*
X172853511Y-73017925D01*
X173046119Y-72889229D01*
X173046120Y-72889228D01*
X173260138Y-72800579D01*
X173411605Y-72770450D01*
X173487338Y-72755386D01*
X173718992Y-72755386D01*
X173794725Y-72770450D01*
X173794725Y-72770450D01*
G37*
G36*
X210201474Y-70766684D02*
G01*
X210372960Y-70837716D01*
X210573623Y-70920833D01*
X210908548Y-71144623D01*
X211193377Y-71429452D01*
X211417167Y-71764377D01*
X211444280Y-71829835D01*
X211571316Y-72136526D01*
X211649900Y-72531594D01*
X211649900Y-72934406D01*
X211571316Y-73329474D01*
X211481017Y-73547474D01*
X211417167Y-73701623D01*
X211193377Y-74036548D01*
X210908548Y-74321377D01*
X210573623Y-74545167D01*
X210419474Y-74609017D01*
X210201474Y-74699316D01*
X209806406Y-74777900D01*
X209403594Y-74777900D01*
X209008526Y-74699316D01*
X208790526Y-74609017D01*
X208636377Y-74545167D01*
X208301452Y-74321377D01*
X208016623Y-74036548D01*
X207792833Y-73701623D01*
X207728983Y-73547474D01*
X207638684Y-73329474D01*
X207560100Y-72934406D01*
X207560100Y-72531594D01*
X207638684Y-72136526D01*
X207765720Y-71829835D01*
X207792833Y-71764377D01*
X208016623Y-71429452D01*
X208301452Y-71144623D01*
X208636377Y-70920833D01*
X208837040Y-70837716D01*
X209008526Y-70766684D01*
X209403594Y-70688100D01*
X209806406Y-70688100D01*
X210201474Y-70766684D01*
X210201474Y-70766684D01*
G37*
G36*
X204872281Y-72724718D02*
G01*
X205040803Y-72794522D01*
X205192468Y-72895861D01*
X205321449Y-73024842D01*
X205422788Y-73176507D01*
X205492592Y-73345029D01*
X205528177Y-73523930D01*
X205528177Y-73706336D01*
X205492592Y-73885237D01*
X205422788Y-74053759D01*
X205321449Y-74205424D01*
X205192468Y-74334405D01*
X205040803Y-74435744D01*
X204872281Y-74505548D01*
X204693380Y-74541133D01*
X204510974Y-74541133D01*
X204332073Y-74505548D01*
X204163551Y-74435744D01*
X204011886Y-74334405D01*
X203882905Y-74205424D01*
X203781566Y-74053759D01*
X203711762Y-73885237D01*
X203676177Y-73706336D01*
X203676177Y-73523930D01*
X203711762Y-73345029D01*
X203781566Y-73176507D01*
X203882905Y-73024842D01*
X204011886Y-72895861D01*
X204163551Y-72794522D01*
X204332073Y-72724718D01*
X204510974Y-72689133D01*
X204693380Y-72689133D01*
X204872281Y-72724718D01*
X204872281Y-72724718D01*
G37*
G36*
X80858974Y-70451184D02*
G01*
X81076974Y-70541483D01*
X81231123Y-70605333D01*
X81566048Y-70829123D01*
X81850877Y-71113952D01*
X82074667Y-71448877D01*
X82111306Y-71537332D01*
X82228816Y-71821026D01*
X82307400Y-72216094D01*
X82307400Y-72618906D01*
X82228816Y-73013974D01*
X82138517Y-73231974D01*
X82074667Y-73386123D01*
X81850877Y-73721048D01*
X81566048Y-74005877D01*
X81231123Y-74229667D01*
X81133564Y-74270077D01*
X80858974Y-74383816D01*
X80463906Y-74462400D01*
X80061094Y-74462400D01*
X79666026Y-74383816D01*
X79391436Y-74270077D01*
X79293877Y-74229667D01*
X78958952Y-74005877D01*
X78674123Y-73721048D01*
X78450333Y-73386123D01*
X78386483Y-73231974D01*
X78296184Y-73013974D01*
X78217600Y-72618906D01*
X78217600Y-72216094D01*
X78296184Y-71821026D01*
X78413694Y-71537332D01*
X78450333Y-71448877D01*
X78674123Y-71113952D01*
X78958952Y-70829123D01*
X79293877Y-70605333D01*
X79448026Y-70541483D01*
X79666026Y-70451184D01*
X80061094Y-70372600D01*
X80463906Y-70372600D01*
X80858974Y-70451184D01*
X80858974Y-70451184D01*
G37*
G36*
X85535427Y-72409218D02*
G01*
X85703949Y-72479022D01*
X85855614Y-72580361D01*
X85984595Y-72709342D01*
X86085934Y-72861007D01*
X86155738Y-73029529D01*
X86191323Y-73208430D01*
X86191323Y-73390836D01*
X86155738Y-73569737D01*
X86085934Y-73738259D01*
X85984595Y-73889924D01*
X85855614Y-74018905D01*
X85703949Y-74120244D01*
X85535427Y-74190048D01*
X85356526Y-74225633D01*
X85174120Y-74225633D01*
X84995219Y-74190048D01*
X84826697Y-74120244D01*
X84675032Y-74018905D01*
X84546051Y-73889924D01*
X84444712Y-73738259D01*
X84374908Y-73569737D01*
X84339323Y-73390836D01*
X84339323Y-73208430D01*
X84374908Y-73029529D01*
X84444712Y-72861007D01*
X84546051Y-72709342D01*
X84675032Y-72580361D01*
X84826697Y-72479022D01*
X84995219Y-72409218D01*
X85174120Y-72373633D01*
X85356526Y-72373633D01*
X85535427Y-72409218D01*
X85535427Y-72409218D01*
G37*
G36*
X95868009Y-71418553D02*
G01*
X96019476Y-71448682D01*
X96233494Y-71537331D01*
X96233495Y-71537332D01*
X96426103Y-71666028D01*
X96589910Y-71829835D01*
X96657103Y-71930397D01*
X96718607Y-72022444D01*
X96807256Y-72236462D01*
X96822192Y-72311550D01*
X96852449Y-72463662D01*
X96852449Y-72695316D01*
X96846600Y-72724719D01*
X96807256Y-72922516D01*
X96718607Y-73136534D01*
X96675707Y-73200738D01*
X96589910Y-73329143D01*
X96426103Y-73492950D01*
X96311184Y-73569736D01*
X96233494Y-73621647D01*
X96019476Y-73710296D01*
X95878901Y-73738258D01*
X95792276Y-73755489D01*
X95560622Y-73755489D01*
X95473997Y-73738258D01*
X95333422Y-73710296D01*
X95119404Y-73621647D01*
X95041714Y-73569736D01*
X94926795Y-73492950D01*
X94762988Y-73329143D01*
X94677191Y-73200738D01*
X94634291Y-73136534D01*
X94545642Y-72922516D01*
X94506298Y-72724719D01*
X94500449Y-72695316D01*
X94500449Y-72463662D01*
X94530706Y-72311550D01*
X94545642Y-72236462D01*
X94634291Y-72022444D01*
X94695795Y-71930397D01*
X94762988Y-71829835D01*
X94926795Y-71666028D01*
X95119403Y-71537332D01*
X95119404Y-71537331D01*
X95333422Y-71448682D01*
X95484889Y-71418553D01*
X95560622Y-71403489D01*
X95792276Y-71403489D01*
X95868009Y-71418553D01*
X95868009Y-71418553D01*
G37*
G36*
X214877927Y-70960452D02*
G01*
X215046449Y-71030256D01*
X215198114Y-71131595D01*
X215327095Y-71260576D01*
X215428434Y-71412241D01*
X215498238Y-71580763D01*
X215533823Y-71759664D01*
X215533823Y-71942070D01*
X215498238Y-72120971D01*
X215428434Y-72289493D01*
X215327095Y-72441158D01*
X215198114Y-72570139D01*
X215046449Y-72671478D01*
X214877927Y-72741282D01*
X214699026Y-72776867D01*
X214516620Y-72776867D01*
X214337719Y-72741282D01*
X214169197Y-72671478D01*
X214017532Y-72570139D01*
X213888551Y-72441158D01*
X213787212Y-72289493D01*
X213717408Y-72120971D01*
X213681823Y-71942070D01*
X213681823Y-71759664D01*
X213717408Y-71580763D01*
X213787212Y-71412241D01*
X213888551Y-71260576D01*
X214017532Y-71131595D01*
X214169197Y-71030256D01*
X214337719Y-70960452D01*
X214516620Y-70924867D01*
X214699026Y-70924867D01*
X214877927Y-70960452D01*
X214877927Y-70960452D01*
G37*
G36*
X75529781Y-70644952D02*
G01*
X75698303Y-70714756D01*
X75849968Y-70816095D01*
X75978949Y-70945076D01*
X76080288Y-71096741D01*
X76150092Y-71265263D01*
X76185677Y-71444164D01*
X76185677Y-71626570D01*
X76150092Y-71805471D01*
X76080288Y-71973993D01*
X75978949Y-72125658D01*
X75849968Y-72254639D01*
X75698303Y-72355978D01*
X75529781Y-72425782D01*
X75350880Y-72461367D01*
X75168474Y-72461367D01*
X74989573Y-72425782D01*
X74821051Y-72355978D01*
X74669386Y-72254639D01*
X74540405Y-72125658D01*
X74439066Y-71973993D01*
X74369262Y-71805471D01*
X74333677Y-71626570D01*
X74333677Y-71444164D01*
X74369262Y-71265263D01*
X74439066Y-71096741D01*
X74540405Y-70945076D01*
X74669386Y-70816095D01*
X74821051Y-70714756D01*
X74989573Y-70644952D01*
X75168474Y-70609367D01*
X75350880Y-70609367D01*
X75529781Y-70644952D01*
X75529781Y-70644952D01*
G37*
G36*
X102562604Y-70019807D02*
G01*
X102714071Y-70049936D01*
X102928089Y-70138585D01*
X102972034Y-70167948D01*
X103120698Y-70267282D01*
X103284505Y-70431089D01*
X103346107Y-70523283D01*
X103413202Y-70623698D01*
X103501851Y-70837716D01*
X103547044Y-71064917D01*
X103547044Y-71296569D01*
X103501851Y-71523770D01*
X103413202Y-71737788D01*
X103413201Y-71737789D01*
X103284505Y-71930397D01*
X103120698Y-72094204D01*
X103057358Y-72136526D01*
X102928089Y-72222901D01*
X102714071Y-72311550D01*
X102562604Y-72341679D01*
X102486871Y-72356743D01*
X102255217Y-72356743D01*
X102179484Y-72341679D01*
X102028017Y-72311550D01*
X101813999Y-72222901D01*
X101684730Y-72136526D01*
X101621390Y-72094204D01*
X101457583Y-71930397D01*
X101328887Y-71737789D01*
X101328886Y-71737788D01*
X101240237Y-71523770D01*
X101195044Y-71296569D01*
X101195044Y-71064917D01*
X101240237Y-70837716D01*
X101328886Y-70623698D01*
X101395981Y-70523283D01*
X101457583Y-70431089D01*
X101621390Y-70267282D01*
X101770054Y-70167948D01*
X101813999Y-70138585D01*
X102028017Y-70049936D01*
X102179484Y-70019807D01*
X102255217Y-70004743D01*
X102486871Y-70004743D01*
X102562604Y-70019807D01*
X102562604Y-70019807D01*
G37*
G36*
X205589685Y-69729529D02*
G01*
X205754843Y-69762381D01*
X205968861Y-69851030D01*
X205968862Y-69851031D01*
X206161470Y-69979727D01*
X206325277Y-70143534D01*
X206407962Y-70267282D01*
X206453974Y-70336143D01*
X206542623Y-70550161D01*
X206542623Y-70550163D01*
X206587816Y-70777361D01*
X206587816Y-71009015D01*
X206576696Y-71064916D01*
X206542623Y-71236215D01*
X206453974Y-71450233D01*
X206453973Y-71450234D01*
X206325277Y-71642842D01*
X206161470Y-71806649D01*
X206033065Y-71892446D01*
X205968861Y-71935346D01*
X205754843Y-72023995D01*
X205603376Y-72054124D01*
X205527643Y-72069188D01*
X205295989Y-72069188D01*
X205220256Y-72054124D01*
X205068789Y-72023995D01*
X204854771Y-71935346D01*
X204790567Y-71892446D01*
X204662162Y-71806649D01*
X204498355Y-71642842D01*
X204369659Y-71450234D01*
X204369658Y-71450233D01*
X204281009Y-71236215D01*
X204246936Y-71064916D01*
X204235816Y-71009015D01*
X204235816Y-70777361D01*
X204281009Y-70550163D01*
X204281009Y-70550161D01*
X204369658Y-70336143D01*
X204415670Y-70267282D01*
X204498355Y-70143534D01*
X204662162Y-69979727D01*
X204854770Y-69851031D01*
X204854771Y-69851030D01*
X205068789Y-69762381D01*
X205233947Y-69729529D01*
X205295989Y-69717188D01*
X205527643Y-69717188D01*
X205589685Y-69729529D01*
X205589685Y-69729529D01*
G37*
G36*
X192584266Y-69476867D02*
G01*
X192742306Y-69508303D01*
X192956324Y-69596952D01*
X192956325Y-69596953D01*
X193148933Y-69725649D01*
X193312740Y-69889456D01*
X193373057Y-69979727D01*
X193441437Y-70082065D01*
X193530086Y-70296083D01*
X193560215Y-70447550D01*
X193575279Y-70523283D01*
X193575279Y-70754937D01*
X193570818Y-70777362D01*
X193530086Y-70982137D01*
X193441437Y-71196155D01*
X193408688Y-71245167D01*
X193312740Y-71388764D01*
X193148933Y-71552571D01*
X193038185Y-71626570D01*
X192956324Y-71681268D01*
X192742306Y-71769917D01*
X192590839Y-71800046D01*
X192515106Y-71815110D01*
X192283452Y-71815110D01*
X192207719Y-71800046D01*
X192056252Y-71769917D01*
X191842234Y-71681268D01*
X191760373Y-71626570D01*
X191649625Y-71552571D01*
X191485818Y-71388764D01*
X191389870Y-71245167D01*
X191357121Y-71196155D01*
X191268472Y-70982137D01*
X191227740Y-70777362D01*
X191223279Y-70754937D01*
X191223279Y-70523283D01*
X191238343Y-70447550D01*
X191268472Y-70296083D01*
X191357121Y-70082065D01*
X191425501Y-69979727D01*
X191485818Y-69889456D01*
X191649625Y-69725649D01*
X191842233Y-69596953D01*
X191842234Y-69596952D01*
X192056252Y-69508303D01*
X192214292Y-69476867D01*
X192283452Y-69463110D01*
X192515106Y-69463110D01*
X192584266Y-69476867D01*
X192584266Y-69476867D01*
G37*
G36*
X228976474Y-67466684D02*
G01*
X229194474Y-67556983D01*
X229348623Y-67620833D01*
X229683548Y-67844623D01*
X229968377Y-68129452D01*
X230192167Y-68464377D01*
X230250579Y-68605397D01*
X230346316Y-68836526D01*
X230424900Y-69231594D01*
X230424900Y-69634406D01*
X230346316Y-70029474D01*
X230256017Y-70247474D01*
X230192167Y-70401623D01*
X229968377Y-70736548D01*
X229683548Y-71021377D01*
X229348623Y-71245167D01*
X229194474Y-71309017D01*
X228976474Y-71399316D01*
X228581406Y-71477900D01*
X228178594Y-71477900D01*
X227783526Y-71399316D01*
X227565526Y-71309017D01*
X227411377Y-71245167D01*
X227076452Y-71021377D01*
X226791623Y-70736548D01*
X226567833Y-70401623D01*
X226503983Y-70247474D01*
X226413684Y-70029474D01*
X226335100Y-69634406D01*
X226335100Y-69231594D01*
X226413684Y-68836526D01*
X226509421Y-68605397D01*
X226567833Y-68464377D01*
X226791623Y-68129452D01*
X227076452Y-67844623D01*
X227411377Y-67620833D01*
X227565526Y-67556983D01*
X227783526Y-67466684D01*
X228178594Y-67388100D01*
X228581406Y-67388100D01*
X228976474Y-67466684D01*
X228976474Y-67466684D01*
G37*
G36*
X223647281Y-69424718D02*
G01*
X223815803Y-69494522D01*
X223967468Y-69595861D01*
X224096449Y-69724842D01*
X224197788Y-69876507D01*
X224267592Y-70045029D01*
X224303177Y-70223930D01*
X224303177Y-70406336D01*
X224267592Y-70585237D01*
X224197788Y-70753759D01*
X224096449Y-70905424D01*
X223967468Y-71034405D01*
X223815803Y-71135744D01*
X223647281Y-71205548D01*
X223468380Y-71241133D01*
X223285974Y-71241133D01*
X223107073Y-71205548D01*
X222938551Y-71135744D01*
X222786886Y-71034405D01*
X222657905Y-70905424D01*
X222556566Y-70753759D01*
X222486762Y-70585237D01*
X222451177Y-70406336D01*
X222451177Y-70223930D01*
X222486762Y-70045029D01*
X222556566Y-69876507D01*
X222657905Y-69724842D01*
X222786886Y-69595861D01*
X222938551Y-69494522D01*
X223107073Y-69424718D01*
X223285974Y-69389133D01*
X223468380Y-69389133D01*
X223647281Y-69424718D01*
X223647281Y-69424718D01*
G37*
G36*
X62108974Y-67151184D02*
G01*
X62326974Y-67241483D01*
X62481123Y-67305333D01*
X62816048Y-67529123D01*
X63100877Y-67813952D01*
X63324667Y-68148877D01*
X63350950Y-68212331D01*
X63478816Y-68521026D01*
X63557400Y-68916094D01*
X63557400Y-69318906D01*
X63478816Y-69713974D01*
X63388517Y-69931974D01*
X63324667Y-70086123D01*
X63100877Y-70421048D01*
X62816048Y-70705877D01*
X62481123Y-70929667D01*
X62326974Y-70993517D01*
X62108974Y-71083816D01*
X61713906Y-71162400D01*
X61311094Y-71162400D01*
X60916026Y-71083816D01*
X60698026Y-70993517D01*
X60543877Y-70929667D01*
X60208952Y-70705877D01*
X59924123Y-70421048D01*
X59700333Y-70086123D01*
X59636483Y-69931974D01*
X59546184Y-69713974D01*
X59467600Y-69318906D01*
X59467600Y-68916094D01*
X59546184Y-68521026D01*
X59674050Y-68212331D01*
X59700333Y-68148877D01*
X59924123Y-67813952D01*
X60208952Y-67529123D01*
X60543877Y-67305333D01*
X60698026Y-67241483D01*
X60916026Y-67151184D01*
X61311094Y-67072600D01*
X61713906Y-67072600D01*
X62108974Y-67151184D01*
X62108974Y-67151184D01*
G37*
G36*
X66785427Y-69109218D02*
G01*
X66953949Y-69179022D01*
X67105614Y-69280361D01*
X67234595Y-69409342D01*
X67335934Y-69561007D01*
X67405738Y-69729529D01*
X67441323Y-69908430D01*
X67441323Y-70090836D01*
X67405738Y-70269737D01*
X67335934Y-70438259D01*
X67234595Y-70589924D01*
X67105614Y-70718905D01*
X66953949Y-70820244D01*
X66785427Y-70890048D01*
X66606526Y-70925633D01*
X66424120Y-70925633D01*
X66245219Y-70890048D01*
X66076697Y-70820244D01*
X65925032Y-70718905D01*
X65796051Y-70589924D01*
X65694712Y-70438259D01*
X65624908Y-70269737D01*
X65589323Y-70090836D01*
X65589323Y-69908430D01*
X65624908Y-69729529D01*
X65694712Y-69561007D01*
X65796051Y-69409342D01*
X65925032Y-69280361D01*
X66076697Y-69179022D01*
X66245219Y-69109218D01*
X66424120Y-69073633D01*
X66606526Y-69073633D01*
X66785427Y-69109218D01*
X66785427Y-69109218D01*
G37*
G36*
X77143009Y-68093553D02*
G01*
X77294476Y-68123682D01*
X77508494Y-68212331D01*
X77508495Y-68212332D01*
X77701103Y-68341028D01*
X77864910Y-68504835D01*
X77875728Y-68521026D01*
X77993607Y-68697444D01*
X78082256Y-68911462D01*
X78127449Y-69138663D01*
X78127449Y-69370315D01*
X78082256Y-69597516D01*
X77993607Y-69811534D01*
X77967216Y-69851031D01*
X77864910Y-70004143D01*
X77701103Y-70167950D01*
X77572698Y-70253747D01*
X77508494Y-70296647D01*
X77294476Y-70385296D01*
X77143009Y-70415425D01*
X77067276Y-70430489D01*
X76835622Y-70430489D01*
X76759889Y-70415425D01*
X76608422Y-70385296D01*
X76394404Y-70296647D01*
X76330200Y-70253747D01*
X76201795Y-70167950D01*
X76037988Y-70004143D01*
X75935682Y-69851031D01*
X75909291Y-69811534D01*
X75820642Y-69597516D01*
X75775449Y-69370315D01*
X75775449Y-69138663D01*
X75820642Y-68911462D01*
X75909291Y-68697444D01*
X76027170Y-68521026D01*
X76037988Y-68504835D01*
X76201795Y-68341028D01*
X76394403Y-68212332D01*
X76394404Y-68212331D01*
X76608422Y-68123682D01*
X76759889Y-68093553D01*
X76835622Y-68078489D01*
X77067276Y-68078489D01*
X77143009Y-68093553D01*
X77143009Y-68093553D01*
G37*
G36*
X233652927Y-67660452D02*
G01*
X233821449Y-67730256D01*
X233973114Y-67831595D01*
X234102095Y-67960576D01*
X234203434Y-68112241D01*
X234273238Y-68280763D01*
X234308823Y-68459664D01*
X234308823Y-68642070D01*
X234273238Y-68820971D01*
X234203434Y-68989493D01*
X234102095Y-69141158D01*
X233973114Y-69270139D01*
X233821449Y-69371478D01*
X233652927Y-69441282D01*
X233474026Y-69476867D01*
X233291620Y-69476867D01*
X233112719Y-69441282D01*
X232944197Y-69371478D01*
X232792532Y-69270139D01*
X232663551Y-69141158D01*
X232562212Y-68989493D01*
X232492408Y-68820971D01*
X232456823Y-68642070D01*
X232456823Y-68459664D01*
X232492408Y-68280763D01*
X232562212Y-68112241D01*
X232663551Y-67960576D01*
X232792532Y-67831595D01*
X232944197Y-67730256D01*
X233112719Y-67660452D01*
X233291620Y-67624867D01*
X233474026Y-67624867D01*
X233652927Y-67660452D01*
X233652927Y-67660452D01*
G37*
G36*
X56779781Y-67344952D02*
G01*
X56948303Y-67414756D01*
X57099968Y-67516095D01*
X57228949Y-67645076D01*
X57330288Y-67796741D01*
X57400092Y-67965263D01*
X57435677Y-68144164D01*
X57435677Y-68326570D01*
X57400092Y-68505471D01*
X57330288Y-68673993D01*
X57228949Y-68825658D01*
X57099968Y-68954639D01*
X56948303Y-69055978D01*
X56779781Y-69125782D01*
X56600880Y-69161367D01*
X56418474Y-69161367D01*
X56239573Y-69125782D01*
X56071051Y-69055978D01*
X55919386Y-68954639D01*
X55790405Y-68825658D01*
X55689066Y-68673993D01*
X55619262Y-68505471D01*
X55583677Y-68326570D01*
X55583677Y-68144164D01*
X55619262Y-67965263D01*
X55689066Y-67796741D01*
X55790405Y-67645076D01*
X55919386Y-67516095D01*
X56071051Y-67414756D01*
X56239573Y-67344952D01*
X56418474Y-67309367D01*
X56600880Y-67309367D01*
X56779781Y-67344952D01*
X56779781Y-67344952D01*
G37*
G36*
X83837604Y-66694807D02*
G01*
X83989071Y-66724936D01*
X84203089Y-66813585D01*
X84203090Y-66813586D01*
X84395698Y-66942282D01*
X84559505Y-67106089D01*
X84581000Y-67138259D01*
X84688202Y-67298698D01*
X84776851Y-67512716D01*
X84822044Y-67739917D01*
X84822044Y-67971569D01*
X84776851Y-68198770D01*
X84688202Y-68412788D01*
X84653241Y-68465110D01*
X84559505Y-68605397D01*
X84395698Y-68769204D01*
X84294943Y-68836526D01*
X84203089Y-68897901D01*
X83989071Y-68986550D01*
X83837604Y-69016679D01*
X83761871Y-69031743D01*
X83530217Y-69031743D01*
X83454484Y-69016679D01*
X83303017Y-68986550D01*
X83088999Y-68897901D01*
X82997145Y-68836526D01*
X82896390Y-68769204D01*
X82732583Y-68605397D01*
X82638847Y-68465110D01*
X82603886Y-68412788D01*
X82515237Y-68198770D01*
X82470044Y-67971569D01*
X82470044Y-67739917D01*
X82515237Y-67512716D01*
X82603886Y-67298698D01*
X82711088Y-67138259D01*
X82732583Y-67106089D01*
X82896390Y-66942282D01*
X83088998Y-66813586D01*
X83088999Y-66813585D01*
X83303017Y-66724936D01*
X83454484Y-66694807D01*
X83530217Y-66679743D01*
X83761871Y-66679743D01*
X83837604Y-66694807D01*
X83837604Y-66694807D01*
G37*
G36*
X224364685Y-66429529D02*
G01*
X224529843Y-66462381D01*
X224743861Y-66551030D01*
X224744576Y-66551508D01*
X224936470Y-66679727D01*
X225100277Y-66843534D01*
X225116591Y-66867950D01*
X225228974Y-67036143D01*
X225317623Y-67250161D01*
X225328597Y-67305333D01*
X225362816Y-67477361D01*
X225362816Y-67709015D01*
X225362738Y-67709405D01*
X225317623Y-67936215D01*
X225228974Y-68150233D01*
X225194004Y-68202569D01*
X225100277Y-68342842D01*
X224936470Y-68506649D01*
X224808065Y-68592446D01*
X224743861Y-68635346D01*
X224529843Y-68723995D01*
X224378376Y-68754124D01*
X224302643Y-68769188D01*
X224070989Y-68769188D01*
X223995256Y-68754124D01*
X223843789Y-68723995D01*
X223629771Y-68635346D01*
X223565567Y-68592446D01*
X223437162Y-68506649D01*
X223273355Y-68342842D01*
X223179628Y-68202569D01*
X223144658Y-68150233D01*
X223056009Y-67936215D01*
X223010894Y-67709405D01*
X223010816Y-67709015D01*
X223010816Y-67477361D01*
X223045035Y-67305333D01*
X223056009Y-67250161D01*
X223144658Y-67036143D01*
X223257041Y-66867950D01*
X223273355Y-66843534D01*
X223437162Y-66679727D01*
X223629056Y-66551508D01*
X223629771Y-66551030D01*
X223843789Y-66462381D01*
X224008947Y-66429529D01*
X224070989Y-66417188D01*
X224302643Y-66417188D01*
X224364685Y-66429529D01*
X224364685Y-66429529D01*
G37*
G36*
X211415839Y-66128174D02*
G01*
X211567306Y-66158303D01*
X211781324Y-66246952D01*
X211802360Y-66261008D01*
X211973933Y-66375649D01*
X212137740Y-66539456D01*
X212223537Y-66667861D01*
X212266437Y-66732065D01*
X212355086Y-66946083D01*
X212365144Y-66996647D01*
X212400279Y-67173283D01*
X212400279Y-67404937D01*
X212395541Y-67428758D01*
X212355086Y-67632137D01*
X212266437Y-67846155D01*
X212266436Y-67846156D01*
X212137740Y-68038764D01*
X211973933Y-68202571D01*
X211856910Y-68280763D01*
X211781324Y-68331268D01*
X211567306Y-68419917D01*
X211415839Y-68450046D01*
X211340106Y-68465110D01*
X211108452Y-68465110D01*
X211032719Y-68450046D01*
X210881252Y-68419917D01*
X210667234Y-68331268D01*
X210591648Y-68280763D01*
X210474625Y-68202571D01*
X210310818Y-68038764D01*
X210182122Y-67846156D01*
X210182121Y-67846155D01*
X210093472Y-67632137D01*
X210053017Y-67428758D01*
X210048279Y-67404937D01*
X210048279Y-67173283D01*
X210083414Y-66996647D01*
X210093472Y-66946083D01*
X210182121Y-66732065D01*
X210225021Y-66667861D01*
X210310818Y-66539456D01*
X210474625Y-66375649D01*
X210646198Y-66261008D01*
X210667234Y-66246952D01*
X210881252Y-66158303D01*
X211032719Y-66128174D01*
X211108452Y-66113110D01*
X211340106Y-66113110D01*
X211415839Y-66128174D01*
X211415839Y-66128174D01*
G37*
G36*
X247751474Y-64141684D02*
G01*
X247922960Y-64212716D01*
X248123623Y-64295833D01*
X248458548Y-64519623D01*
X248743377Y-64804452D01*
X248967167Y-65139377D01*
X249000987Y-65221026D01*
X249121316Y-65511526D01*
X249199900Y-65906594D01*
X249199900Y-66309406D01*
X249121316Y-66704474D01*
X249031017Y-66922474D01*
X248967167Y-67076623D01*
X248743377Y-67411548D01*
X248458548Y-67696377D01*
X248123623Y-67920167D01*
X247969474Y-67984017D01*
X247751474Y-68074316D01*
X247356406Y-68152900D01*
X246953594Y-68152900D01*
X246558526Y-68074316D01*
X246340526Y-67984017D01*
X246186377Y-67920167D01*
X245851452Y-67696377D01*
X245566623Y-67411548D01*
X245342833Y-67076623D01*
X245278983Y-66922474D01*
X245188684Y-66704474D01*
X245110100Y-66309406D01*
X245110100Y-65906594D01*
X245188684Y-65511526D01*
X245309013Y-65221026D01*
X245342833Y-65139377D01*
X245566623Y-64804452D01*
X245851452Y-64519623D01*
X246186377Y-64295833D01*
X246387040Y-64212716D01*
X246558526Y-64141684D01*
X246953594Y-64063100D01*
X247356406Y-64063100D01*
X247751474Y-64141684D01*
X247751474Y-64141684D01*
G37*
G36*
X242422281Y-66099718D02*
G01*
X242590803Y-66169522D01*
X242742468Y-66270861D01*
X242871449Y-66399842D01*
X242972788Y-66551507D01*
X243042592Y-66720029D01*
X243078177Y-66898930D01*
X243078177Y-67081336D01*
X243042592Y-67260237D01*
X242972788Y-67428759D01*
X242871449Y-67580424D01*
X242742468Y-67709405D01*
X242590803Y-67810744D01*
X242422281Y-67880548D01*
X242243380Y-67916133D01*
X242060974Y-67916133D01*
X241882073Y-67880548D01*
X241713551Y-67810744D01*
X241561886Y-67709405D01*
X241432905Y-67580424D01*
X241331566Y-67428759D01*
X241261762Y-67260237D01*
X241226177Y-67081336D01*
X241226177Y-66898930D01*
X241261762Y-66720029D01*
X241331566Y-66551507D01*
X241432905Y-66399842D01*
X241561886Y-66270861D01*
X241713551Y-66169522D01*
X241882073Y-66099718D01*
X242060974Y-66064133D01*
X242243380Y-66064133D01*
X242422281Y-66099718D01*
X242422281Y-66099718D01*
G37*
G36*
X43333974Y-63851184D02*
G01*
X43512570Y-63925161D01*
X43706123Y-64005333D01*
X44041048Y-64229123D01*
X44325877Y-64513952D01*
X44549667Y-64848877D01*
X44575950Y-64912331D01*
X44703816Y-65221026D01*
X44782400Y-65616094D01*
X44782400Y-66018906D01*
X44703816Y-66413974D01*
X44613517Y-66631974D01*
X44549667Y-66786123D01*
X44325877Y-67121048D01*
X44041048Y-67405877D01*
X43706123Y-67629667D01*
X43551974Y-67693517D01*
X43333974Y-67783816D01*
X42938906Y-67862400D01*
X42536094Y-67862400D01*
X42141026Y-67783816D01*
X41923026Y-67693517D01*
X41768877Y-67629667D01*
X41433952Y-67405877D01*
X41149123Y-67121048D01*
X40925333Y-66786123D01*
X40861483Y-66631974D01*
X40771184Y-66413974D01*
X40692600Y-66018906D01*
X40692600Y-65616094D01*
X40771184Y-65221026D01*
X40899050Y-64912331D01*
X40925333Y-64848877D01*
X41149123Y-64513952D01*
X41433952Y-64229123D01*
X41768877Y-64005333D01*
X41962430Y-63925161D01*
X42141026Y-63851184D01*
X42536094Y-63772600D01*
X42938906Y-63772600D01*
X43333974Y-63851184D01*
X43333974Y-63851184D01*
G37*
G36*
X48010427Y-65809218D02*
G01*
X48178949Y-65879022D01*
X48330614Y-65980361D01*
X48459595Y-66109342D01*
X48560934Y-66261007D01*
X48630738Y-66429529D01*
X48666323Y-66608430D01*
X48666323Y-66790836D01*
X48630738Y-66969737D01*
X48560934Y-67138259D01*
X48459595Y-67289924D01*
X48330614Y-67418905D01*
X48178949Y-67520244D01*
X48010427Y-67590048D01*
X47831526Y-67625633D01*
X47649120Y-67625633D01*
X47470219Y-67590048D01*
X47301697Y-67520244D01*
X47150032Y-67418905D01*
X47021051Y-67289924D01*
X46919712Y-67138259D01*
X46849908Y-66969737D01*
X46814323Y-66790836D01*
X46814323Y-66608430D01*
X46849908Y-66429529D01*
X46919712Y-66261007D01*
X47021051Y-66109342D01*
X47150032Y-65980361D01*
X47301697Y-65879022D01*
X47470219Y-65809218D01*
X47649120Y-65773633D01*
X47831526Y-65773633D01*
X48010427Y-65809218D01*
X48010427Y-65809218D01*
G37*
G36*
X58393009Y-64793553D02*
G01*
X58544476Y-64823682D01*
X58758494Y-64912331D01*
X58758495Y-64912332D01*
X58951103Y-65041028D01*
X59114910Y-65204835D01*
X59125728Y-65221026D01*
X59243607Y-65397444D01*
X59332256Y-65611462D01*
X59347192Y-65686550D01*
X59377449Y-65838662D01*
X59377449Y-66070316D01*
X59371600Y-66099719D01*
X59332256Y-66297516D01*
X59243607Y-66511534D01*
X59217216Y-66551031D01*
X59114910Y-66704143D01*
X58951103Y-66867950D01*
X58839857Y-66942282D01*
X58758494Y-66996647D01*
X58544476Y-67085296D01*
X58439952Y-67106087D01*
X58317276Y-67130489D01*
X58085622Y-67130489D01*
X57962946Y-67106087D01*
X57858422Y-67085296D01*
X57644404Y-66996647D01*
X57563041Y-66942282D01*
X57451795Y-66867950D01*
X57287988Y-66704143D01*
X57185682Y-66551031D01*
X57159291Y-66511534D01*
X57070642Y-66297516D01*
X57031298Y-66099719D01*
X57025449Y-66070316D01*
X57025449Y-65838662D01*
X57055706Y-65686550D01*
X57070642Y-65611462D01*
X57159291Y-65397444D01*
X57277170Y-65221026D01*
X57287988Y-65204835D01*
X57451795Y-65041028D01*
X57644403Y-64912332D01*
X57644404Y-64912331D01*
X57858422Y-64823682D01*
X58009889Y-64793553D01*
X58085622Y-64778489D01*
X58317276Y-64778489D01*
X58393009Y-64793553D01*
X58393009Y-64793553D01*
G37*
G36*
X252427927Y-64335452D02*
G01*
X252596449Y-64405256D01*
X252748114Y-64506595D01*
X252877095Y-64635576D01*
X252978434Y-64787241D01*
X253048238Y-64955763D01*
X253083823Y-65134664D01*
X253083823Y-65317070D01*
X253048238Y-65495971D01*
X252978434Y-65664493D01*
X252877095Y-65816158D01*
X252748114Y-65945139D01*
X252596449Y-66046478D01*
X252427927Y-66116282D01*
X252249026Y-66151867D01*
X252066620Y-66151867D01*
X251887719Y-66116282D01*
X251719197Y-66046478D01*
X251567532Y-65945139D01*
X251438551Y-65816158D01*
X251337212Y-65664493D01*
X251267408Y-65495971D01*
X251231823Y-65317070D01*
X251231823Y-65134664D01*
X251267408Y-64955763D01*
X251337212Y-64787241D01*
X251438551Y-64635576D01*
X251567532Y-64506595D01*
X251719197Y-64405256D01*
X251887719Y-64335452D01*
X252066620Y-64299867D01*
X252249026Y-64299867D01*
X252427927Y-64335452D01*
X252427927Y-64335452D01*
G37*
G36*
X38004781Y-64044952D02*
G01*
X38173303Y-64114756D01*
X38324968Y-64216095D01*
X38453949Y-64345076D01*
X38555288Y-64496741D01*
X38625092Y-64665263D01*
X38660677Y-64844164D01*
X38660677Y-65026570D01*
X38625092Y-65205471D01*
X38555288Y-65373993D01*
X38453949Y-65525658D01*
X38324968Y-65654639D01*
X38173303Y-65755978D01*
X38004781Y-65825782D01*
X37825880Y-65861367D01*
X37643474Y-65861367D01*
X37464573Y-65825782D01*
X37296051Y-65755978D01*
X37144386Y-65654639D01*
X37015405Y-65525658D01*
X36914066Y-65373993D01*
X36844262Y-65205471D01*
X36808677Y-65026570D01*
X36808677Y-64844164D01*
X36844262Y-64665263D01*
X36914066Y-64496741D01*
X37015405Y-64345076D01*
X37144386Y-64216095D01*
X37296051Y-64114756D01*
X37464573Y-64044952D01*
X37643474Y-64009367D01*
X37825880Y-64009367D01*
X38004781Y-64044952D01*
X38004781Y-64044952D01*
G37*
G36*
X65087604Y-63394807D02*
G01*
X65239071Y-63424936D01*
X65453089Y-63513585D01*
X65517293Y-63556485D01*
X65645698Y-63642282D01*
X65809505Y-63806089D01*
X65825808Y-63830489D01*
X65938202Y-63998698D01*
X66026851Y-64212716D01*
X66072044Y-64439917D01*
X66072044Y-64671569D01*
X66026851Y-64898770D01*
X65938202Y-65112788D01*
X65923585Y-65134664D01*
X65809505Y-65305397D01*
X65645698Y-65469204D01*
X65561208Y-65525658D01*
X65453089Y-65597901D01*
X65239071Y-65686550D01*
X65087604Y-65716679D01*
X65011871Y-65731743D01*
X64780217Y-65731743D01*
X64704484Y-65716679D01*
X64553017Y-65686550D01*
X64338999Y-65597901D01*
X64230880Y-65525658D01*
X64146390Y-65469204D01*
X63982583Y-65305397D01*
X63868503Y-65134664D01*
X63853886Y-65112788D01*
X63765237Y-64898770D01*
X63720044Y-64671569D01*
X63720044Y-64439917D01*
X63765237Y-64212716D01*
X63853886Y-63998698D01*
X63966280Y-63830489D01*
X63982583Y-63806089D01*
X64146390Y-63642282D01*
X64274795Y-63556485D01*
X64338999Y-63513585D01*
X64553017Y-63424936D01*
X64704484Y-63394807D01*
X64780217Y-63379743D01*
X65011871Y-63379743D01*
X65087604Y-63394807D01*
X65087604Y-63394807D01*
G37*
G36*
X243153376Y-63107252D02*
G01*
X243304843Y-63137381D01*
X243518861Y-63226030D01*
X243518862Y-63226031D01*
X243711470Y-63354727D01*
X243875277Y-63518534D01*
X243957962Y-63642282D01*
X244003974Y-63711143D01*
X244092623Y-63925161D01*
X244137816Y-64152362D01*
X244137816Y-64384014D01*
X244092623Y-64611215D01*
X244003974Y-64825233D01*
X243988175Y-64848878D01*
X243875277Y-65017842D01*
X243711470Y-65181649D01*
X243583065Y-65267446D01*
X243518861Y-65310346D01*
X243304843Y-65398995D01*
X243153376Y-65429124D01*
X243077643Y-65444188D01*
X242845989Y-65444188D01*
X242770256Y-65429124D01*
X242618789Y-65398995D01*
X242404771Y-65310346D01*
X242340567Y-65267446D01*
X242212162Y-65181649D01*
X242048355Y-65017842D01*
X241935457Y-64848878D01*
X241919658Y-64825233D01*
X241831009Y-64611215D01*
X241785816Y-64384014D01*
X241785816Y-64152362D01*
X241831009Y-63925161D01*
X241919658Y-63711143D01*
X241965670Y-63642282D01*
X242048355Y-63518534D01*
X242212162Y-63354727D01*
X242404770Y-63226031D01*
X242404771Y-63226030D01*
X242618789Y-63137381D01*
X242770256Y-63107252D01*
X242845989Y-63092188D01*
X243077643Y-63092188D01*
X243153376Y-63107252D01*
X243153376Y-63107252D01*
G37*
G36*
X230190839Y-62828174D02*
G01*
X230342306Y-62858303D01*
X230556324Y-62946952D01*
X230556325Y-62946953D01*
X230748933Y-63075649D01*
X230912740Y-63239456D01*
X230989761Y-63354727D01*
X231041437Y-63432065D01*
X231130086Y-63646083D01*
X231175279Y-63873284D01*
X231175279Y-64104936D01*
X231130086Y-64332137D01*
X231041437Y-64546155D01*
X231041436Y-64546156D01*
X230912740Y-64738764D01*
X230748933Y-64902571D01*
X230620528Y-64988368D01*
X230556324Y-65031268D01*
X230342306Y-65119917D01*
X230190839Y-65150046D01*
X230115106Y-65165110D01*
X229883452Y-65165110D01*
X229807719Y-65150046D01*
X229656252Y-65119917D01*
X229442234Y-65031268D01*
X229378030Y-64988368D01*
X229249625Y-64902571D01*
X229085818Y-64738764D01*
X228957122Y-64546156D01*
X228957121Y-64546155D01*
X228868472Y-64332137D01*
X228823279Y-64104936D01*
X228823279Y-63873284D01*
X228868472Y-63646083D01*
X228957121Y-63432065D01*
X229008797Y-63354727D01*
X229085818Y-63239456D01*
X229249625Y-63075649D01*
X229442233Y-62946953D01*
X229442234Y-62946952D01*
X229656252Y-62858303D01*
X229807719Y-62828174D01*
X229883452Y-62813110D01*
X230115106Y-62813110D01*
X230190839Y-62828174D01*
X230190839Y-62828174D01*
G37*
G36*
X39618009Y-61493553D02*
G01*
X39769476Y-61523682D01*
X39983494Y-61612331D01*
X40047698Y-61655231D01*
X40176103Y-61741028D01*
X40339910Y-61904835D01*
X40400319Y-61995244D01*
X40468607Y-62097444D01*
X40557256Y-62311462D01*
X40602449Y-62538663D01*
X40602449Y-62770315D01*
X40557256Y-62997516D01*
X40468607Y-63211534D01*
X40468606Y-63211535D01*
X40339910Y-63404143D01*
X40176103Y-63567950D01*
X40064857Y-63642282D01*
X39983494Y-63696647D01*
X39769476Y-63785296D01*
X39664952Y-63806087D01*
X39542276Y-63830489D01*
X39310622Y-63830489D01*
X39187946Y-63806087D01*
X39083422Y-63785296D01*
X38869404Y-63696647D01*
X38788041Y-63642282D01*
X38676795Y-63567950D01*
X38512988Y-63404143D01*
X38384292Y-63211535D01*
X38384291Y-63211534D01*
X38295642Y-62997516D01*
X38250449Y-62770315D01*
X38250449Y-62538663D01*
X38295642Y-62311462D01*
X38384291Y-62097444D01*
X38452579Y-61995244D01*
X38512988Y-61904835D01*
X38676795Y-61741028D01*
X38805200Y-61655231D01*
X38869404Y-61612331D01*
X39083422Y-61523682D01*
X39234889Y-61493553D01*
X39310622Y-61478489D01*
X39542276Y-61478489D01*
X39618009Y-61493553D01*
X39618009Y-61493553D01*
G37*
G36*
X169226474Y-58616684D02*
G01*
X169406118Y-58691095D01*
X169598623Y-58770833D01*
X169933548Y-58994623D01*
X170218377Y-59279452D01*
X170442167Y-59614377D01*
X170475987Y-59696026D01*
X170596316Y-59986526D01*
X170674900Y-60381594D01*
X170674900Y-60784406D01*
X170596316Y-61179474D01*
X170506017Y-61397474D01*
X170442167Y-61551623D01*
X170218377Y-61886548D01*
X169933548Y-62171377D01*
X169598623Y-62395167D01*
X169510320Y-62431743D01*
X169226474Y-62549316D01*
X168831406Y-62627900D01*
X168428594Y-62627900D01*
X168033526Y-62549316D01*
X167749680Y-62431743D01*
X167661377Y-62395167D01*
X167326452Y-62171377D01*
X167041623Y-61886548D01*
X166817833Y-61551623D01*
X166753983Y-61397474D01*
X166663684Y-61179474D01*
X166585100Y-60784406D01*
X166585100Y-60381594D01*
X166663684Y-59986526D01*
X166784013Y-59696026D01*
X166817833Y-59614377D01*
X167041623Y-59279452D01*
X167326452Y-58994623D01*
X167661377Y-58770833D01*
X167853882Y-58691095D01*
X168033526Y-58616684D01*
X168428594Y-58538100D01*
X168831406Y-58538100D01*
X169226474Y-58616684D01*
X169226474Y-58616684D01*
G37*
G36*
X46312604Y-60094807D02*
G01*
X46464071Y-60124936D01*
X46678089Y-60213585D01*
X46678090Y-60213586D01*
X46870698Y-60342282D01*
X47034505Y-60506089D01*
X47086792Y-60584343D01*
X47163202Y-60698698D01*
X47251851Y-60912716D01*
X47281980Y-61064183D01*
X47297044Y-61139916D01*
X47297044Y-61371570D01*
X47288651Y-61413764D01*
X47251851Y-61598770D01*
X47163202Y-61812788D01*
X47163201Y-61812789D01*
X47034505Y-62005397D01*
X46870698Y-62169204D01*
X46742293Y-62255001D01*
X46678089Y-62297901D01*
X46464071Y-62386550D01*
X46312604Y-62416679D01*
X46236871Y-62431743D01*
X46005217Y-62431743D01*
X45929484Y-62416679D01*
X45778017Y-62386550D01*
X45563999Y-62297901D01*
X45499795Y-62255001D01*
X45371390Y-62169204D01*
X45207583Y-62005397D01*
X45078887Y-61812789D01*
X45078886Y-61812788D01*
X44990237Y-61598770D01*
X44953437Y-61413764D01*
X44945044Y-61371570D01*
X44945044Y-61139916D01*
X44960108Y-61064183D01*
X44990237Y-60912716D01*
X45078886Y-60698698D01*
X45155296Y-60584343D01*
X45207583Y-60506089D01*
X45371390Y-60342282D01*
X45563998Y-60213586D01*
X45563999Y-60213585D01*
X45778017Y-60124936D01*
X45929484Y-60094807D01*
X46005217Y-60079743D01*
X46236871Y-60079743D01*
X46312604Y-60094807D01*
X46312604Y-60094807D01*
G37*
G36*
X163897281Y-60574718D02*
G01*
X164065803Y-60644522D01*
X164217468Y-60745861D01*
X164346449Y-60874842D01*
X164447788Y-61026507D01*
X164517592Y-61195029D01*
X164553177Y-61373930D01*
X164553177Y-61556336D01*
X164517592Y-61735237D01*
X164447788Y-61903759D01*
X164346449Y-62055424D01*
X164217468Y-62184405D01*
X164065803Y-62285744D01*
X163897281Y-62355548D01*
X163718380Y-62391133D01*
X163535974Y-62391133D01*
X163357073Y-62355548D01*
X163188551Y-62285744D01*
X163036886Y-62184405D01*
X162907905Y-62055424D01*
X162806566Y-61903759D01*
X162736762Y-61735237D01*
X162701177Y-61556336D01*
X162701177Y-61373930D01*
X162736762Y-61195029D01*
X162806566Y-61026507D01*
X162907905Y-60874842D01*
X163036886Y-60745861D01*
X163188551Y-60644522D01*
X163357073Y-60574718D01*
X163535974Y-60539133D01*
X163718380Y-60539133D01*
X163897281Y-60574718D01*
X163897281Y-60574718D01*
G37*
G36*
X121633974Y-58326184D02*
G01*
X121851974Y-58416483D01*
X122006123Y-58480333D01*
X122341048Y-58704123D01*
X122625877Y-58988952D01*
X122849667Y-59323877D01*
X122849667Y-59323878D01*
X123003816Y-59696026D01*
X123082400Y-60091094D01*
X123082400Y-60493906D01*
X123003816Y-60888974D01*
X122913517Y-61106974D01*
X122849667Y-61261123D01*
X122625877Y-61596048D01*
X122341048Y-61880877D01*
X122006123Y-62104667D01*
X121851974Y-62168517D01*
X121633974Y-62258816D01*
X121238906Y-62337400D01*
X120836094Y-62337400D01*
X120441026Y-62258816D01*
X120223026Y-62168517D01*
X120068877Y-62104667D01*
X119733952Y-61880877D01*
X119449123Y-61596048D01*
X119225333Y-61261123D01*
X119161483Y-61106974D01*
X119071184Y-60888974D01*
X118992600Y-60493906D01*
X118992600Y-60091094D01*
X119071184Y-59696026D01*
X119225333Y-59323878D01*
X119225333Y-59323877D01*
X119449123Y-58988952D01*
X119733952Y-58704123D01*
X120068877Y-58480333D01*
X120223026Y-58416483D01*
X120441026Y-58326184D01*
X120836094Y-58247600D01*
X121238906Y-58247600D01*
X121633974Y-58326184D01*
X121633974Y-58326184D01*
G37*
G36*
X126310427Y-60284218D02*
G01*
X126478949Y-60354022D01*
X126630614Y-60455361D01*
X126759595Y-60584342D01*
X126860934Y-60736007D01*
X126930738Y-60904529D01*
X126966323Y-61083430D01*
X126966323Y-61265836D01*
X126930738Y-61444737D01*
X126860934Y-61613259D01*
X126759595Y-61764924D01*
X126630614Y-61893905D01*
X126478949Y-61995244D01*
X126310427Y-62065048D01*
X126131526Y-62100633D01*
X125949120Y-62100633D01*
X125770219Y-62065048D01*
X125601697Y-61995244D01*
X125450032Y-61893905D01*
X125321051Y-61764924D01*
X125219712Y-61613259D01*
X125149908Y-61444737D01*
X125114323Y-61265836D01*
X125114323Y-61083430D01*
X125149908Y-60904529D01*
X125219712Y-60736007D01*
X125321051Y-60584342D01*
X125450032Y-60455361D01*
X125601697Y-60354022D01*
X125770219Y-60284218D01*
X125949120Y-60248633D01*
X126131526Y-60248633D01*
X126310427Y-60284218D01*
X126310427Y-60284218D01*
G37*
G36*
X248957773Y-59501570D02*
G01*
X249117306Y-59533303D01*
X249331324Y-59621952D01*
X249395528Y-59664852D01*
X249523933Y-59750649D01*
X249687740Y-59914456D01*
X249735895Y-59986526D01*
X249816437Y-60107065D01*
X249905086Y-60321083D01*
X249950279Y-60548284D01*
X249950279Y-60779936D01*
X249905086Y-61007137D01*
X249816437Y-61221155D01*
X249816436Y-61221156D01*
X249687740Y-61413764D01*
X249523933Y-61577571D01*
X249395528Y-61663368D01*
X249331324Y-61706268D01*
X249117306Y-61794917D01*
X248965839Y-61825046D01*
X248890106Y-61840110D01*
X248658452Y-61840110D01*
X248582719Y-61825046D01*
X248431252Y-61794917D01*
X248217234Y-61706268D01*
X248153030Y-61663368D01*
X248024625Y-61577571D01*
X247860818Y-61413764D01*
X247732122Y-61221156D01*
X247732121Y-61221155D01*
X247643472Y-61007137D01*
X247598279Y-60779936D01*
X247598279Y-60548284D01*
X247643472Y-60321083D01*
X247732121Y-60107065D01*
X247812663Y-59986526D01*
X247860818Y-59914456D01*
X248024625Y-59750649D01*
X248153030Y-59664852D01*
X248217234Y-59621952D01*
X248431252Y-59533303D01*
X248590785Y-59501570D01*
X248658452Y-59488110D01*
X248890106Y-59488110D01*
X248957773Y-59501570D01*
X248957773Y-59501570D01*
G37*
G36*
X173902927Y-58810452D02*
G01*
X174071449Y-58880256D01*
X174223114Y-58981595D01*
X174352095Y-59110576D01*
X174453434Y-59262241D01*
X174523238Y-59430763D01*
X174558823Y-59609664D01*
X174558823Y-59792070D01*
X174523238Y-59970971D01*
X174453434Y-60139493D01*
X174352095Y-60291158D01*
X174223114Y-60420139D01*
X174071449Y-60521478D01*
X173902927Y-60591282D01*
X173724026Y-60626867D01*
X173541620Y-60626867D01*
X173362719Y-60591282D01*
X173194197Y-60521478D01*
X173042532Y-60420139D01*
X172913551Y-60291158D01*
X172812212Y-60139493D01*
X172742408Y-59970971D01*
X172706823Y-59792070D01*
X172706823Y-59609664D01*
X172742408Y-59430763D01*
X172812212Y-59262241D01*
X172913551Y-59110576D01*
X173042532Y-58981595D01*
X173194197Y-58880256D01*
X173362719Y-58810452D01*
X173541620Y-58774867D01*
X173724026Y-58774867D01*
X173902927Y-58810452D01*
X173902927Y-58810452D01*
G37*
G36*
X116304781Y-58519952D02*
G01*
X116473303Y-58589756D01*
X116624968Y-58691095D01*
X116753949Y-58820076D01*
X116855288Y-58971741D01*
X116925092Y-59140263D01*
X116960677Y-59319164D01*
X116960677Y-59501570D01*
X116925092Y-59680471D01*
X116855288Y-59848993D01*
X116753949Y-60000658D01*
X116624968Y-60129639D01*
X116473303Y-60230978D01*
X116304781Y-60300782D01*
X116125880Y-60336367D01*
X115943474Y-60336367D01*
X115764573Y-60300782D01*
X115596051Y-60230978D01*
X115444386Y-60129639D01*
X115315405Y-60000658D01*
X115214066Y-59848993D01*
X115144262Y-59680471D01*
X115108677Y-59501570D01*
X115108677Y-59319164D01*
X115144262Y-59140263D01*
X115214066Y-58971741D01*
X115315405Y-58820076D01*
X115444386Y-58691095D01*
X115596051Y-58589756D01*
X115764573Y-58519952D01*
X115943474Y-58484367D01*
X116125880Y-58484367D01*
X116304781Y-58519952D01*
X116304781Y-58519952D01*
G37*
G36*
X164628376Y-57582252D02*
G01*
X164779843Y-57612381D01*
X164993861Y-57701030D01*
X164994576Y-57701508D01*
X165186470Y-57829727D01*
X165350277Y-57993534D01*
X165387291Y-58048930D01*
X165478974Y-58186143D01*
X165567623Y-58400161D01*
X165591451Y-58519952D01*
X165612816Y-58627361D01*
X165612816Y-58859015D01*
X165612738Y-58859405D01*
X165567623Y-59086215D01*
X165478974Y-59300233D01*
X165463175Y-59323878D01*
X165350277Y-59492842D01*
X165186470Y-59656649D01*
X165058065Y-59742446D01*
X164993861Y-59785346D01*
X164779843Y-59873995D01*
X164628376Y-59904124D01*
X164552643Y-59919188D01*
X164320989Y-59919188D01*
X164245256Y-59904124D01*
X164093789Y-59873995D01*
X163879771Y-59785346D01*
X163815567Y-59742446D01*
X163687162Y-59656649D01*
X163523355Y-59492842D01*
X163410457Y-59323878D01*
X163394658Y-59300233D01*
X163306009Y-59086215D01*
X163260894Y-58859405D01*
X163260816Y-58859015D01*
X163260816Y-58627361D01*
X163282181Y-58519952D01*
X163306009Y-58400161D01*
X163394658Y-58186143D01*
X163486341Y-58048930D01*
X163523355Y-57993534D01*
X163687162Y-57829727D01*
X163879056Y-57701508D01*
X163879771Y-57701030D01*
X164093789Y-57612381D01*
X164245256Y-57582252D01*
X164320989Y-57567188D01*
X164552643Y-57567188D01*
X164628376Y-57582252D01*
X164628376Y-57582252D01*
G37*
G36*
X188026474Y-55291684D02*
G01*
X188216134Y-55370244D01*
X188398623Y-55445833D01*
X188733548Y-55669623D01*
X189018377Y-55954452D01*
X189242167Y-56289377D01*
X189279635Y-56379833D01*
X189396316Y-56661526D01*
X189474900Y-57056594D01*
X189474900Y-57459406D01*
X189396316Y-57854474D01*
X189306017Y-58072474D01*
X189242167Y-58226623D01*
X189018377Y-58561548D01*
X188733548Y-58846377D01*
X188398623Y-59070167D01*
X188301064Y-59110577D01*
X188026474Y-59224316D01*
X187631406Y-59302900D01*
X187228594Y-59302900D01*
X186833526Y-59224316D01*
X186558936Y-59110577D01*
X186461377Y-59070167D01*
X186126452Y-58846377D01*
X185841623Y-58561548D01*
X185617833Y-58226623D01*
X185553983Y-58072474D01*
X185463684Y-57854474D01*
X185385100Y-57459406D01*
X185385100Y-57056594D01*
X185463684Y-56661526D01*
X185580365Y-56379833D01*
X185617833Y-56289377D01*
X185841623Y-55954452D01*
X186126452Y-55669623D01*
X186461377Y-55445833D01*
X186643866Y-55370244D01*
X186833526Y-55291684D01*
X187228594Y-55213100D01*
X187631406Y-55213100D01*
X188026474Y-55291684D01*
X188026474Y-55291684D01*
G37*
G36*
X182697281Y-57249718D02*
G01*
X182865803Y-57319522D01*
X183017468Y-57420861D01*
X183146449Y-57549842D01*
X183247788Y-57701507D01*
X183317592Y-57870029D01*
X183353177Y-58048930D01*
X183353177Y-58231336D01*
X183317592Y-58410237D01*
X183247788Y-58578759D01*
X183146449Y-58730424D01*
X183017468Y-58859405D01*
X182865803Y-58960744D01*
X182697281Y-59030548D01*
X182518380Y-59066133D01*
X182335974Y-59066133D01*
X182157073Y-59030548D01*
X181988551Y-58960744D01*
X181836886Y-58859405D01*
X181707905Y-58730424D01*
X181606566Y-58578759D01*
X181536762Y-58410237D01*
X181501177Y-58231336D01*
X181501177Y-58048930D01*
X181536762Y-57870029D01*
X181606566Y-57701507D01*
X181707905Y-57549842D01*
X181836886Y-57420861D01*
X181988551Y-57319522D01*
X182157073Y-57249718D01*
X182335974Y-57214133D01*
X182518380Y-57214133D01*
X182697281Y-57249718D01*
X182697281Y-57249718D01*
G37*
G36*
X102883974Y-55026184D02*
G01*
X103026540Y-55085237D01*
X103256123Y-55180333D01*
X103591048Y-55404123D01*
X103875877Y-55688952D01*
X104099667Y-56023877D01*
X104159299Y-56167842D01*
X104253816Y-56396026D01*
X104332400Y-56791094D01*
X104332400Y-57193906D01*
X104253816Y-57588974D01*
X104163517Y-57806974D01*
X104099667Y-57961123D01*
X103875877Y-58296048D01*
X103591048Y-58580877D01*
X103256123Y-58804667D01*
X103123973Y-58859405D01*
X102883974Y-58958816D01*
X102488906Y-59037400D01*
X102086094Y-59037400D01*
X101691026Y-58958816D01*
X101451027Y-58859405D01*
X101318877Y-58804667D01*
X100983952Y-58580877D01*
X100699123Y-58296048D01*
X100475333Y-57961123D01*
X100411483Y-57806974D01*
X100321184Y-57588974D01*
X100242600Y-57193906D01*
X100242600Y-56791094D01*
X100321184Y-56396026D01*
X100415701Y-56167842D01*
X100475333Y-56023877D01*
X100699123Y-55688952D01*
X100983952Y-55404123D01*
X101318877Y-55180333D01*
X101548460Y-55085237D01*
X101691026Y-55026184D01*
X102086094Y-54947600D01*
X102488906Y-54947600D01*
X102883974Y-55026184D01*
X102883974Y-55026184D01*
G37*
G36*
X107560427Y-56984218D02*
G01*
X107728949Y-57054022D01*
X107880614Y-57155361D01*
X108009595Y-57284342D01*
X108110934Y-57436007D01*
X108180738Y-57604529D01*
X108216323Y-57783430D01*
X108216323Y-57965836D01*
X108180738Y-58144737D01*
X108110934Y-58313259D01*
X108009595Y-58464924D01*
X107880614Y-58593905D01*
X107728949Y-58695244D01*
X107560427Y-58765048D01*
X107381526Y-58800633D01*
X107199120Y-58800633D01*
X107020219Y-58765048D01*
X106851697Y-58695244D01*
X106700032Y-58593905D01*
X106571051Y-58464924D01*
X106469712Y-58313259D01*
X106399908Y-58144737D01*
X106364323Y-57965836D01*
X106364323Y-57783430D01*
X106399908Y-57604529D01*
X106469712Y-57436007D01*
X106571051Y-57284342D01*
X106700032Y-57155361D01*
X106851697Y-57054022D01*
X107020219Y-56984218D01*
X107199120Y-56948633D01*
X107381526Y-56948633D01*
X107560427Y-56984218D01*
X107560427Y-56984218D01*
G37*
G36*
X117918009Y-55968553D02*
G01*
X118069476Y-55998682D01*
X118283494Y-56087331D01*
X118283495Y-56087332D01*
X118476103Y-56216028D01*
X118639910Y-56379835D01*
X118650728Y-56396026D01*
X118768607Y-56572444D01*
X118857256Y-56786462D01*
X118865844Y-56829638D01*
X118902449Y-57013662D01*
X118902449Y-57245316D01*
X118894686Y-57284342D01*
X118857256Y-57472516D01*
X118768607Y-57686534D01*
X118725707Y-57750738D01*
X118639910Y-57879143D01*
X118476103Y-58042950D01*
X118347698Y-58128747D01*
X118283494Y-58171647D01*
X118069476Y-58260296D01*
X117918009Y-58290425D01*
X117842276Y-58305489D01*
X117610622Y-58305489D01*
X117534889Y-58290425D01*
X117383422Y-58260296D01*
X117169404Y-58171647D01*
X117105200Y-58128747D01*
X116976795Y-58042950D01*
X116812988Y-57879143D01*
X116727191Y-57750738D01*
X116684291Y-57686534D01*
X116595642Y-57472516D01*
X116558212Y-57284342D01*
X116550449Y-57245316D01*
X116550449Y-57013662D01*
X116587054Y-56829638D01*
X116595642Y-56786462D01*
X116684291Y-56572444D01*
X116802170Y-56396026D01*
X116812988Y-56379835D01*
X116976795Y-56216028D01*
X117169403Y-56087332D01*
X117169404Y-56087331D01*
X117383422Y-55998682D01*
X117534889Y-55968553D01*
X117610622Y-55953489D01*
X117842276Y-55953489D01*
X117918009Y-55968553D01*
X117918009Y-55968553D01*
G37*
G36*
X192702927Y-55485452D02*
G01*
X192871449Y-55555256D01*
X193023114Y-55656595D01*
X193152095Y-55785576D01*
X193253434Y-55937241D01*
X193323238Y-56105763D01*
X193358823Y-56284664D01*
X193358823Y-56467070D01*
X193323238Y-56645971D01*
X193253434Y-56814493D01*
X193152095Y-56966158D01*
X193023114Y-57095139D01*
X192871449Y-57196478D01*
X192702927Y-57266282D01*
X192524026Y-57301867D01*
X192341620Y-57301867D01*
X192162719Y-57266282D01*
X191994197Y-57196478D01*
X191842532Y-57095139D01*
X191713551Y-56966158D01*
X191612212Y-56814493D01*
X191542408Y-56645971D01*
X191506823Y-56467070D01*
X191506823Y-56284664D01*
X191542408Y-56105763D01*
X191612212Y-55937241D01*
X191713551Y-55785576D01*
X191842532Y-55656595D01*
X191994197Y-55555256D01*
X192162719Y-55485452D01*
X192341620Y-55449867D01*
X192524026Y-55449867D01*
X192702927Y-55485452D01*
X192702927Y-55485452D01*
G37*
G36*
X97554781Y-55219952D02*
G01*
X97723303Y-55289756D01*
X97874968Y-55391095D01*
X98003949Y-55520076D01*
X98105288Y-55671741D01*
X98175092Y-55840263D01*
X98210677Y-56019164D01*
X98210677Y-56201570D01*
X98175092Y-56380471D01*
X98105288Y-56548993D01*
X98003949Y-56700658D01*
X97874968Y-56829639D01*
X97723303Y-56930978D01*
X97554781Y-57000782D01*
X97375880Y-57036367D01*
X97193474Y-57036367D01*
X97014573Y-57000782D01*
X96846051Y-56930978D01*
X96694386Y-56829639D01*
X96565405Y-56700658D01*
X96464066Y-56548993D01*
X96394262Y-56380471D01*
X96358677Y-56201570D01*
X96358677Y-56019164D01*
X96394262Y-55840263D01*
X96464066Y-55671741D01*
X96565405Y-55520076D01*
X96694386Y-55391095D01*
X96846051Y-55289756D01*
X97014573Y-55219952D01*
X97193474Y-55184367D01*
X97375880Y-55184367D01*
X97554781Y-55219952D01*
X97554781Y-55219952D01*
G37*
G36*
X124612604Y-54569807D02*
G01*
X124764071Y-54599936D01*
X124978089Y-54688585D01*
X124978090Y-54688586D01*
X125170698Y-54817282D01*
X125334505Y-54981089D01*
X125404094Y-55085237D01*
X125463202Y-55173698D01*
X125551851Y-55387716D01*
X125597044Y-55614917D01*
X125597044Y-55846569D01*
X125551851Y-56073770D01*
X125463202Y-56287788D01*
X125444946Y-56315110D01*
X125334505Y-56480397D01*
X125170698Y-56644204D01*
X125086208Y-56700658D01*
X124978089Y-56772901D01*
X124764071Y-56861550D01*
X124612604Y-56891679D01*
X124536871Y-56906743D01*
X124305217Y-56906743D01*
X124229484Y-56891679D01*
X124078017Y-56861550D01*
X123863999Y-56772901D01*
X123755880Y-56700658D01*
X123671390Y-56644204D01*
X123507583Y-56480397D01*
X123397142Y-56315110D01*
X123378886Y-56287788D01*
X123290237Y-56073770D01*
X123245044Y-55846569D01*
X123245044Y-55614917D01*
X123290237Y-55387716D01*
X123378886Y-55173698D01*
X123437994Y-55085237D01*
X123507583Y-54981089D01*
X123671390Y-54817282D01*
X123863998Y-54688586D01*
X123863999Y-54688585D01*
X124078017Y-54599936D01*
X124229484Y-54569807D01*
X124305217Y-54554743D01*
X124536871Y-54554743D01*
X124612604Y-54569807D01*
X124612604Y-54569807D01*
G37*
G36*
X183428376Y-54257252D02*
G01*
X183579843Y-54287381D01*
X183793861Y-54376030D01*
X183813951Y-54389454D01*
X183986470Y-54504727D01*
X184150277Y-54668534D01*
X184200000Y-54742950D01*
X184278974Y-54861143D01*
X184367623Y-55075161D01*
X184367623Y-55075163D01*
X184412816Y-55302361D01*
X184412816Y-55534015D01*
X184412738Y-55534405D01*
X184367623Y-55761215D01*
X184278974Y-55975233D01*
X184278973Y-55975234D01*
X184150277Y-56167842D01*
X183986470Y-56331649D01*
X183858065Y-56417446D01*
X183793861Y-56460346D01*
X183579843Y-56548995D01*
X183428376Y-56579124D01*
X183352643Y-56594188D01*
X183120989Y-56594188D01*
X183045256Y-56579124D01*
X182893789Y-56548995D01*
X182679771Y-56460346D01*
X182615567Y-56417446D01*
X182487162Y-56331649D01*
X182323355Y-56167842D01*
X182194659Y-55975234D01*
X182194658Y-55975233D01*
X182106009Y-55761215D01*
X182060894Y-55534405D01*
X182060816Y-55534015D01*
X182060816Y-55302361D01*
X182106009Y-55075163D01*
X182106009Y-55075161D01*
X182194658Y-54861143D01*
X182273632Y-54742950D01*
X182323355Y-54668534D01*
X182487162Y-54504727D01*
X182659681Y-54389454D01*
X182679771Y-54376030D01*
X182893789Y-54287381D01*
X183045256Y-54257252D01*
X183120989Y-54242188D01*
X183352643Y-54242188D01*
X183428376Y-54257252D01*
X183428376Y-54257252D01*
G37*
G36*
X170434266Y-53976867D02*
G01*
X170592306Y-54008303D01*
X170806324Y-54096952D01*
X170827360Y-54111008D01*
X170998933Y-54225649D01*
X171162740Y-54389456D01*
X171239761Y-54504727D01*
X171291437Y-54582065D01*
X171380086Y-54796083D01*
X171401079Y-54901622D01*
X171425279Y-55023283D01*
X171425279Y-55254937D01*
X171418353Y-55289756D01*
X171380086Y-55482137D01*
X171291437Y-55696155D01*
X171258688Y-55745167D01*
X171162740Y-55888764D01*
X170998933Y-56052571D01*
X170870528Y-56138368D01*
X170806324Y-56181268D01*
X170592306Y-56269917D01*
X170440839Y-56300046D01*
X170365106Y-56315110D01*
X170133452Y-56315110D01*
X170057719Y-56300046D01*
X169906252Y-56269917D01*
X169692234Y-56181268D01*
X169628030Y-56138368D01*
X169499625Y-56052571D01*
X169335818Y-55888764D01*
X169239870Y-55745167D01*
X169207121Y-55696155D01*
X169118472Y-55482137D01*
X169080205Y-55289756D01*
X169073279Y-55254937D01*
X169073279Y-55023283D01*
X169097479Y-54901622D01*
X169118472Y-54796083D01*
X169207121Y-54582065D01*
X169258797Y-54504727D01*
X169335818Y-54389456D01*
X169499625Y-54225649D01*
X169671198Y-54111008D01*
X169692234Y-54096952D01*
X169906252Y-54008303D01*
X170064292Y-53976867D01*
X170133452Y-53963110D01*
X170365106Y-53963110D01*
X170434266Y-53976867D01*
X170434266Y-53976867D01*
G37*
G36*
X206851474Y-51966684D02*
G01*
X206952542Y-52008548D01*
X207223623Y-52120833D01*
X207558548Y-52344623D01*
X207843377Y-52629452D01*
X208067167Y-52964377D01*
X208104899Y-53055470D01*
X208221316Y-53336526D01*
X208299900Y-53731594D01*
X208299900Y-54134406D01*
X208221316Y-54529474D01*
X208132892Y-54742948D01*
X208067167Y-54901623D01*
X207843377Y-55236548D01*
X207558548Y-55521377D01*
X207223623Y-55745167D01*
X207126064Y-55785577D01*
X206851474Y-55899316D01*
X206456406Y-55977900D01*
X206053594Y-55977900D01*
X205658526Y-55899316D01*
X205383936Y-55785577D01*
X205286377Y-55745167D01*
X204951452Y-55521377D01*
X204666623Y-55236548D01*
X204442833Y-54901623D01*
X204377108Y-54742948D01*
X204288684Y-54529474D01*
X204210100Y-54134406D01*
X204210100Y-53731594D01*
X204288684Y-53336526D01*
X204405101Y-53055470D01*
X204442833Y-52964377D01*
X204666623Y-52629452D01*
X204951452Y-52344623D01*
X205286377Y-52120833D01*
X205557458Y-52008548D01*
X205658526Y-51966684D01*
X206053594Y-51888100D01*
X206456406Y-51888100D01*
X206851474Y-51966684D01*
X206851474Y-51966684D01*
G37*
G36*
X201522281Y-53924718D02*
G01*
X201690803Y-53994522D01*
X201842468Y-54095861D01*
X201971449Y-54224842D01*
X202072788Y-54376507D01*
X202142592Y-54545029D01*
X202178177Y-54723930D01*
X202178177Y-54906336D01*
X202142592Y-55085237D01*
X202072788Y-55253759D01*
X201971449Y-55405424D01*
X201842468Y-55534405D01*
X201690803Y-55635744D01*
X201522281Y-55705548D01*
X201343380Y-55741133D01*
X201160974Y-55741133D01*
X200982073Y-55705548D01*
X200813551Y-55635744D01*
X200661886Y-55534405D01*
X200532905Y-55405424D01*
X200431566Y-55253759D01*
X200361762Y-55085237D01*
X200326177Y-54906336D01*
X200326177Y-54723930D01*
X200361762Y-54545029D01*
X200431566Y-54376507D01*
X200532905Y-54224842D01*
X200661886Y-54095861D01*
X200813551Y-53994522D01*
X200982073Y-53924718D01*
X201160974Y-53889133D01*
X201343380Y-53889133D01*
X201522281Y-53924718D01*
X201522281Y-53924718D01*
G37*
G36*
X84133974Y-51701184D02*
G01*
X84351974Y-51791483D01*
X84506123Y-51855333D01*
X84841048Y-52079123D01*
X85125877Y-52363952D01*
X85349667Y-52698877D01*
X85386306Y-52787332D01*
X85503816Y-53071026D01*
X85582400Y-53466094D01*
X85582400Y-53868906D01*
X85503816Y-54263974D01*
X85413517Y-54481974D01*
X85349667Y-54636123D01*
X85125877Y-54971048D01*
X84841048Y-55255877D01*
X84506123Y-55479667D01*
X84373973Y-55534405D01*
X84133974Y-55633816D01*
X83738906Y-55712400D01*
X83336094Y-55712400D01*
X82941026Y-55633816D01*
X82701027Y-55534405D01*
X82568877Y-55479667D01*
X82233952Y-55255877D01*
X81949123Y-54971048D01*
X81725333Y-54636123D01*
X81661483Y-54481974D01*
X81571184Y-54263974D01*
X81492600Y-53868906D01*
X81492600Y-53466094D01*
X81571184Y-53071026D01*
X81688694Y-52787332D01*
X81725333Y-52698877D01*
X81949123Y-52363952D01*
X82233952Y-52079123D01*
X82568877Y-51855333D01*
X82723026Y-51791483D01*
X82941026Y-51701184D01*
X83336094Y-51622600D01*
X83738906Y-51622600D01*
X84133974Y-51701184D01*
X84133974Y-51701184D01*
G37*
G36*
X88810427Y-53659218D02*
G01*
X88978949Y-53729022D01*
X89130614Y-53830361D01*
X89259595Y-53959342D01*
X89360934Y-54111007D01*
X89430738Y-54279529D01*
X89466323Y-54458430D01*
X89466323Y-54640836D01*
X89430738Y-54819737D01*
X89360934Y-54988259D01*
X89259595Y-55139924D01*
X89130614Y-55268905D01*
X88978949Y-55370244D01*
X88810427Y-55440048D01*
X88631526Y-55475633D01*
X88449120Y-55475633D01*
X88270219Y-55440048D01*
X88101697Y-55370244D01*
X87950032Y-55268905D01*
X87821051Y-55139924D01*
X87719712Y-54988259D01*
X87649908Y-54819737D01*
X87614323Y-54640836D01*
X87614323Y-54458430D01*
X87649908Y-54279529D01*
X87719712Y-54111007D01*
X87821051Y-53959342D01*
X87950032Y-53830361D01*
X88101697Y-53729022D01*
X88270219Y-53659218D01*
X88449120Y-53623633D01*
X88631526Y-53623633D01*
X88810427Y-53659218D01*
X88810427Y-53659218D01*
G37*
G36*
X99168009Y-52668553D02*
G01*
X99319476Y-52698682D01*
X99533494Y-52787331D01*
X99533495Y-52787332D01*
X99726103Y-52916028D01*
X99889910Y-53079835D01*
X99927000Y-53135345D01*
X100018607Y-53272444D01*
X100107256Y-53486462D01*
X100122192Y-53561550D01*
X100152449Y-53713662D01*
X100152449Y-53945316D01*
X100146173Y-53976867D01*
X100107256Y-54172516D01*
X100018607Y-54386534D01*
X99975707Y-54450738D01*
X99889910Y-54579143D01*
X99726103Y-54742950D01*
X99614857Y-54817282D01*
X99533494Y-54871647D01*
X99319476Y-54960296D01*
X99214952Y-54981087D01*
X99092276Y-55005489D01*
X98860622Y-55005489D01*
X98737946Y-54981087D01*
X98633422Y-54960296D01*
X98419404Y-54871647D01*
X98338041Y-54817282D01*
X98226795Y-54742950D01*
X98062988Y-54579143D01*
X97977191Y-54450738D01*
X97934291Y-54386534D01*
X97845642Y-54172516D01*
X97806725Y-53976867D01*
X97800449Y-53945316D01*
X97800449Y-53713662D01*
X97830706Y-53561550D01*
X97845642Y-53486462D01*
X97934291Y-53272444D01*
X98025898Y-53135345D01*
X98062988Y-53079835D01*
X98226795Y-52916028D01*
X98419403Y-52787332D01*
X98419404Y-52787331D01*
X98633422Y-52698682D01*
X98784889Y-52668553D01*
X98860622Y-52653489D01*
X99092276Y-52653489D01*
X99168009Y-52668553D01*
X99168009Y-52668553D01*
G37*
G36*
X211527927Y-52160452D02*
G01*
X211696449Y-52230256D01*
X211848114Y-52331595D01*
X211977095Y-52460576D01*
X212078434Y-52612241D01*
X212148238Y-52780763D01*
X212183823Y-52959664D01*
X212183823Y-53142070D01*
X212148238Y-53320971D01*
X212078434Y-53489493D01*
X211977095Y-53641158D01*
X211848114Y-53770139D01*
X211696449Y-53871478D01*
X211527927Y-53941282D01*
X211349026Y-53976867D01*
X211166620Y-53976867D01*
X210987719Y-53941282D01*
X210819197Y-53871478D01*
X210667532Y-53770139D01*
X210538551Y-53641158D01*
X210437212Y-53489493D01*
X210367408Y-53320971D01*
X210331823Y-53142070D01*
X210331823Y-52959664D01*
X210367408Y-52780763D01*
X210437212Y-52612241D01*
X210538551Y-52460576D01*
X210667532Y-52331595D01*
X210819197Y-52230256D01*
X210987719Y-52160452D01*
X211166620Y-52124867D01*
X211349026Y-52124867D01*
X211527927Y-52160452D01*
X211527927Y-52160452D01*
G37*
G36*
X78804781Y-51894952D02*
G01*
X78973303Y-51964756D01*
X79124968Y-52066095D01*
X79253949Y-52195076D01*
X79355288Y-52346741D01*
X79425092Y-52515263D01*
X79460677Y-52694164D01*
X79460677Y-52876570D01*
X79425092Y-53055471D01*
X79355288Y-53223993D01*
X79253949Y-53375658D01*
X79124968Y-53504639D01*
X78973303Y-53605978D01*
X78804781Y-53675782D01*
X78625880Y-53711367D01*
X78443474Y-53711367D01*
X78264573Y-53675782D01*
X78096051Y-53605978D01*
X77944386Y-53504639D01*
X77815405Y-53375658D01*
X77714066Y-53223993D01*
X77644262Y-53055471D01*
X77608677Y-52876570D01*
X77608677Y-52694164D01*
X77644262Y-52515263D01*
X77714066Y-52346741D01*
X77815405Y-52195076D01*
X77944386Y-52066095D01*
X78096051Y-51964756D01*
X78264573Y-51894952D01*
X78443474Y-51859367D01*
X78625880Y-51859367D01*
X78804781Y-51894952D01*
X78804781Y-51894952D01*
G37*
G36*
X105798544Y-51257065D02*
G01*
X106014071Y-51299936D01*
X106228089Y-51388585D01*
X106228090Y-51388586D01*
X106420698Y-51517282D01*
X106584505Y-51681089D01*
X106670302Y-51809494D01*
X106713202Y-51873698D01*
X106801851Y-52087716D01*
X106816319Y-52160452D01*
X106842760Y-52293377D01*
X106847044Y-52314917D01*
X106847044Y-52546569D01*
X106801851Y-52773770D01*
X106713202Y-52987788D01*
X106713201Y-52987789D01*
X106584505Y-53180397D01*
X106420698Y-53344204D01*
X106292293Y-53430001D01*
X106228089Y-53472901D01*
X106014071Y-53561550D01*
X105862604Y-53591679D01*
X105786871Y-53606743D01*
X105555217Y-53606743D01*
X105479484Y-53591679D01*
X105328017Y-53561550D01*
X105113999Y-53472901D01*
X105049795Y-53430001D01*
X104921390Y-53344204D01*
X104757583Y-53180397D01*
X104628887Y-52987789D01*
X104628886Y-52987788D01*
X104540237Y-52773770D01*
X104495044Y-52546569D01*
X104495044Y-52314917D01*
X104499329Y-52293377D01*
X104525769Y-52160452D01*
X104540237Y-52087716D01*
X104628886Y-51873698D01*
X104671786Y-51809494D01*
X104757583Y-51681089D01*
X104921390Y-51517282D01*
X105113998Y-51388586D01*
X105113999Y-51388585D01*
X105328017Y-51299936D01*
X105543544Y-51257065D01*
X105555217Y-51254743D01*
X105786871Y-51254743D01*
X105798544Y-51257065D01*
X105798544Y-51257065D01*
G37*
G36*
X202253376Y-50932252D02*
G01*
X202404843Y-50962381D01*
X202618861Y-51051030D01*
X202638951Y-51064454D01*
X202811470Y-51179727D01*
X202975277Y-51343534D01*
X203025000Y-51417950D01*
X203103974Y-51536143D01*
X203192623Y-51750161D01*
X203192623Y-51750163D01*
X203233543Y-51955877D01*
X203237816Y-51977362D01*
X203237816Y-52209014D01*
X203192623Y-52436215D01*
X203103974Y-52650233D01*
X203103973Y-52650234D01*
X202975277Y-52842842D01*
X202811470Y-53006649D01*
X202701942Y-53079833D01*
X202618861Y-53135346D01*
X202404843Y-53223995D01*
X202253376Y-53254124D01*
X202177643Y-53269188D01*
X201945989Y-53269188D01*
X201870256Y-53254124D01*
X201718789Y-53223995D01*
X201504771Y-53135346D01*
X201421690Y-53079833D01*
X201312162Y-53006649D01*
X201148355Y-52842842D01*
X201019659Y-52650234D01*
X201019658Y-52650233D01*
X200931009Y-52436215D01*
X200885816Y-52209014D01*
X200885816Y-51977362D01*
X200890090Y-51955877D01*
X200931009Y-51750163D01*
X200931009Y-51750161D01*
X201019658Y-51536143D01*
X201098632Y-51417950D01*
X201148355Y-51343534D01*
X201312162Y-51179727D01*
X201484681Y-51064454D01*
X201504771Y-51051030D01*
X201718789Y-50962381D01*
X201870256Y-50932252D01*
X201945989Y-50917188D01*
X202177643Y-50917188D01*
X202253376Y-50932252D01*
X202253376Y-50932252D01*
G37*
G36*
X189192092Y-50643478D02*
G01*
X189392306Y-50683303D01*
X189606324Y-50771952D01*
X189606325Y-50771953D01*
X189798933Y-50900649D01*
X189962740Y-51064456D01*
X190025531Y-51158430D01*
X190091437Y-51257065D01*
X190180086Y-51471083D01*
X190210215Y-51622550D01*
X190221740Y-51680489D01*
X190225279Y-51698284D01*
X190225279Y-51929936D01*
X190180086Y-52157137D01*
X190091437Y-52371155D01*
X190091436Y-52371156D01*
X189962740Y-52563764D01*
X189798933Y-52727571D01*
X189709495Y-52787331D01*
X189606324Y-52856268D01*
X189392306Y-52944917D01*
X189240839Y-52975046D01*
X189165106Y-52990110D01*
X188933452Y-52990110D01*
X188857719Y-52975046D01*
X188706252Y-52944917D01*
X188492234Y-52856268D01*
X188389063Y-52787331D01*
X188299625Y-52727571D01*
X188135818Y-52563764D01*
X188007122Y-52371156D01*
X188007121Y-52371155D01*
X187918472Y-52157137D01*
X187873279Y-51929936D01*
X187873279Y-51698284D01*
X187876819Y-51680489D01*
X187888343Y-51622550D01*
X187918472Y-51471083D01*
X188007121Y-51257065D01*
X188073027Y-51158430D01*
X188135818Y-51064456D01*
X188299625Y-50900649D01*
X188492233Y-50771953D01*
X188492234Y-50771952D01*
X188706252Y-50683303D01*
X188906466Y-50643478D01*
X188933452Y-50638110D01*
X189165106Y-50638110D01*
X189192092Y-50643478D01*
X189192092Y-50643478D01*
G37*
G36*
X225640474Y-48738684D02*
G01*
X225858474Y-48828983D01*
X226012623Y-48892833D01*
X226347548Y-49116623D01*
X226632377Y-49401452D01*
X226856167Y-49736377D01*
X226905466Y-49855397D01*
X227010316Y-50108526D01*
X227088900Y-50503594D01*
X227088900Y-50906406D01*
X227010316Y-51301474D01*
X226920925Y-51517282D01*
X226856167Y-51673623D01*
X226632377Y-52008548D01*
X226347548Y-52293377D01*
X226012623Y-52517167D01*
X225858474Y-52581017D01*
X225640474Y-52671316D01*
X225245406Y-52749900D01*
X224842594Y-52749900D01*
X224447526Y-52671316D01*
X224229526Y-52581017D01*
X224075377Y-52517167D01*
X223740452Y-52293377D01*
X223455623Y-52008548D01*
X223231833Y-51673623D01*
X223167075Y-51517282D01*
X223077684Y-51301474D01*
X222999100Y-50906406D01*
X222999100Y-50503594D01*
X223077684Y-50108526D01*
X223182534Y-49855397D01*
X223231833Y-49736377D01*
X223455623Y-49401452D01*
X223740452Y-49116623D01*
X224075377Y-48892833D01*
X224229526Y-48828983D01*
X224447526Y-48738684D01*
X224842594Y-48660100D01*
X225245406Y-48660100D01*
X225640474Y-48738684D01*
X225640474Y-48738684D01*
G37*
G36*
X220311281Y-50696718D02*
G01*
X220479803Y-50766522D01*
X220631468Y-50867861D01*
X220760449Y-50996842D01*
X220861788Y-51148507D01*
X220931592Y-51317029D01*
X220967177Y-51495930D01*
X220967177Y-51678336D01*
X220931592Y-51857237D01*
X220861788Y-52025759D01*
X220760449Y-52177424D01*
X220631468Y-52306405D01*
X220479803Y-52407744D01*
X220311281Y-52477548D01*
X220132380Y-52513133D01*
X219949974Y-52513133D01*
X219771073Y-52477548D01*
X219602551Y-52407744D01*
X219450886Y-52306405D01*
X219321905Y-52177424D01*
X219220566Y-52025759D01*
X219150762Y-51857237D01*
X219115177Y-51678336D01*
X219115177Y-51495930D01*
X219150762Y-51317029D01*
X219220566Y-51148507D01*
X219321905Y-50996842D01*
X219450886Y-50867861D01*
X219602551Y-50766522D01*
X219771073Y-50696718D01*
X219949974Y-50661133D01*
X220132380Y-50661133D01*
X220311281Y-50696718D01*
X220311281Y-50696718D01*
G37*
G36*
X65408974Y-48401184D02*
G01*
X65626974Y-48491483D01*
X65781123Y-48555333D01*
X66116048Y-48779123D01*
X66400877Y-49063952D01*
X66624667Y-49398877D01*
X66645332Y-49448768D01*
X66778816Y-49771026D01*
X66857400Y-50166094D01*
X66857400Y-50568906D01*
X66778816Y-50963974D01*
X66689448Y-51179727D01*
X66624667Y-51336123D01*
X66400877Y-51671048D01*
X66116048Y-51955877D01*
X65781123Y-52179667D01*
X65710270Y-52209015D01*
X65408974Y-52333816D01*
X65013906Y-52412400D01*
X64611094Y-52412400D01*
X64216026Y-52333816D01*
X63914730Y-52209015D01*
X63843877Y-52179667D01*
X63508952Y-51955877D01*
X63224123Y-51671048D01*
X63000333Y-51336123D01*
X62935552Y-51179727D01*
X62846184Y-50963974D01*
X62767600Y-50568906D01*
X62767600Y-50166094D01*
X62846184Y-49771026D01*
X62979668Y-49448768D01*
X63000333Y-49398877D01*
X63224123Y-49063952D01*
X63508952Y-48779123D01*
X63843877Y-48555333D01*
X63998026Y-48491483D01*
X64216026Y-48401184D01*
X64611094Y-48322600D01*
X65013906Y-48322600D01*
X65408974Y-48401184D01*
X65408974Y-48401184D01*
G37*
G36*
X70085427Y-50359218D02*
G01*
X70253949Y-50429022D01*
X70405614Y-50530361D01*
X70534595Y-50659342D01*
X70635934Y-50811007D01*
X70705738Y-50979529D01*
X70741323Y-51158430D01*
X70741323Y-51340836D01*
X70705738Y-51519737D01*
X70635934Y-51688259D01*
X70534595Y-51839924D01*
X70405614Y-51968905D01*
X70253949Y-52070244D01*
X70085427Y-52140048D01*
X69906526Y-52175633D01*
X69724120Y-52175633D01*
X69545219Y-52140048D01*
X69376697Y-52070244D01*
X69225032Y-51968905D01*
X69096051Y-51839924D01*
X68994712Y-51688259D01*
X68924908Y-51519737D01*
X68889323Y-51340836D01*
X68889323Y-51158430D01*
X68924908Y-50979529D01*
X68994712Y-50811007D01*
X69096051Y-50659342D01*
X69225032Y-50530361D01*
X69376697Y-50429022D01*
X69545219Y-50359218D01*
X69724120Y-50323633D01*
X69906526Y-50323633D01*
X70085427Y-50359218D01*
X70085427Y-50359218D01*
G37*
G36*
X80418009Y-49343553D02*
G01*
X80569476Y-49373682D01*
X80783494Y-49462331D01*
X80783495Y-49462332D01*
X80976103Y-49591028D01*
X81139910Y-49754835D01*
X81207103Y-49855397D01*
X81268607Y-49947444D01*
X81357256Y-50161462D01*
X81365844Y-50204638D01*
X81402449Y-50388662D01*
X81402449Y-50620316D01*
X81397842Y-50643478D01*
X81357256Y-50847516D01*
X81268607Y-51061534D01*
X81225707Y-51125738D01*
X81139910Y-51254143D01*
X80976103Y-51417950D01*
X80859397Y-51495930D01*
X80783494Y-51546647D01*
X80569476Y-51635296D01*
X80418009Y-51665425D01*
X80342276Y-51680489D01*
X80110622Y-51680489D01*
X80034889Y-51665425D01*
X79883422Y-51635296D01*
X79669404Y-51546647D01*
X79593501Y-51495930D01*
X79476795Y-51417950D01*
X79312988Y-51254143D01*
X79227191Y-51125738D01*
X79184291Y-51061534D01*
X79095642Y-50847516D01*
X79055056Y-50643478D01*
X79050449Y-50620316D01*
X79050449Y-50388662D01*
X79087054Y-50204638D01*
X79095642Y-50161462D01*
X79184291Y-49947444D01*
X79245795Y-49855397D01*
X79312988Y-49754835D01*
X79476795Y-49591028D01*
X79669403Y-49462332D01*
X79669404Y-49462331D01*
X79883422Y-49373682D01*
X80034889Y-49343553D01*
X80110622Y-49328489D01*
X80342276Y-49328489D01*
X80418009Y-49343553D01*
X80418009Y-49343553D01*
G37*
G36*
X230316927Y-48932452D02*
G01*
X230485449Y-49002256D01*
X230637114Y-49103595D01*
X230766095Y-49232576D01*
X230867434Y-49384241D01*
X230937238Y-49552763D01*
X230972823Y-49731664D01*
X230972823Y-49914070D01*
X230937238Y-50092971D01*
X230867434Y-50261493D01*
X230766095Y-50413158D01*
X230637114Y-50542139D01*
X230485449Y-50643478D01*
X230316927Y-50713282D01*
X230138026Y-50748867D01*
X229955620Y-50748867D01*
X229776719Y-50713282D01*
X229608197Y-50643478D01*
X229456532Y-50542139D01*
X229327551Y-50413158D01*
X229226212Y-50261493D01*
X229156408Y-50092971D01*
X229120823Y-49914070D01*
X229120823Y-49731664D01*
X229156408Y-49552763D01*
X229226212Y-49384241D01*
X229327551Y-49232576D01*
X229456532Y-49103595D01*
X229608197Y-49002256D01*
X229776719Y-48932452D01*
X229955620Y-48896867D01*
X230138026Y-48896867D01*
X230316927Y-48932452D01*
X230316927Y-48932452D01*
G37*
G36*
X60079781Y-48594952D02*
G01*
X60248303Y-48664756D01*
X60399968Y-48766095D01*
X60528949Y-48895076D01*
X60630288Y-49046741D01*
X60700092Y-49215263D01*
X60735677Y-49394164D01*
X60735677Y-49576570D01*
X60700092Y-49755471D01*
X60630288Y-49923993D01*
X60528949Y-50075658D01*
X60399968Y-50204639D01*
X60248303Y-50305978D01*
X60079781Y-50375782D01*
X59900880Y-50411367D01*
X59718474Y-50411367D01*
X59539573Y-50375782D01*
X59371051Y-50305978D01*
X59219386Y-50204639D01*
X59090405Y-50075658D01*
X58989066Y-49923993D01*
X58919262Y-49755471D01*
X58883677Y-49576570D01*
X58883677Y-49394164D01*
X58919262Y-49215263D01*
X58989066Y-49046741D01*
X59090405Y-48895076D01*
X59219386Y-48766095D01*
X59371051Y-48664756D01*
X59539573Y-48594952D01*
X59718474Y-48559367D01*
X59900880Y-48559367D01*
X60079781Y-48594952D01*
X60079781Y-48594952D01*
G37*
G36*
X87048544Y-47932065D02*
G01*
X87264071Y-47974936D01*
X87478089Y-48063585D01*
X87542293Y-48106485D01*
X87670698Y-48192282D01*
X87834505Y-48356089D01*
X87920302Y-48484494D01*
X87963202Y-48548698D01*
X88051851Y-48762716D01*
X88075114Y-48879667D01*
X88097044Y-48989916D01*
X88097044Y-49221570D01*
X88087974Y-49267167D01*
X88051851Y-49448770D01*
X87963202Y-49662788D01*
X87963201Y-49662789D01*
X87834505Y-49855397D01*
X87670698Y-50019204D01*
X87586208Y-50075658D01*
X87478089Y-50147901D01*
X87264071Y-50236550D01*
X87112604Y-50266679D01*
X87036871Y-50281743D01*
X86805217Y-50281743D01*
X86729484Y-50266679D01*
X86578017Y-50236550D01*
X86363999Y-50147901D01*
X86255880Y-50075658D01*
X86171390Y-50019204D01*
X86007583Y-49855397D01*
X85878887Y-49662789D01*
X85878886Y-49662788D01*
X85790237Y-49448770D01*
X85754114Y-49267167D01*
X85745044Y-49221570D01*
X85745044Y-48989916D01*
X85766974Y-48879667D01*
X85790237Y-48762716D01*
X85878886Y-48548698D01*
X85921786Y-48484494D01*
X86007583Y-48356089D01*
X86171390Y-48192282D01*
X86299795Y-48106485D01*
X86363999Y-48063585D01*
X86578017Y-47974936D01*
X86793544Y-47932065D01*
X86805217Y-47929743D01*
X87036871Y-47929743D01*
X87048544Y-47932065D01*
X87048544Y-47932065D01*
G37*
G36*
X221042376Y-47704252D02*
G01*
X221193843Y-47734381D01*
X221407861Y-47823030D01*
X221407862Y-47823031D01*
X221600470Y-47951727D01*
X221764277Y-48115534D01*
X221765891Y-48117950D01*
X221892974Y-48308143D01*
X221981623Y-48522161D01*
X222008221Y-48655877D01*
X222026816Y-48749361D01*
X222026816Y-48981015D01*
X222013742Y-49046741D01*
X221981623Y-49208215D01*
X221892974Y-49422233D01*
X221850074Y-49486437D01*
X221764277Y-49614842D01*
X221600470Y-49778649D01*
X221485608Y-49855397D01*
X221407861Y-49907346D01*
X221193843Y-49995995D01*
X221077173Y-50019202D01*
X220966643Y-50041188D01*
X220734989Y-50041188D01*
X220624459Y-50019202D01*
X220507789Y-49995995D01*
X220293771Y-49907346D01*
X220216024Y-49855397D01*
X220101162Y-49778649D01*
X219937355Y-49614842D01*
X219851558Y-49486437D01*
X219808658Y-49422233D01*
X219720009Y-49208215D01*
X219687890Y-49046741D01*
X219674816Y-48981015D01*
X219674816Y-48749361D01*
X219693411Y-48655877D01*
X219720009Y-48522161D01*
X219808658Y-48308143D01*
X219935741Y-48117950D01*
X219937355Y-48115534D01*
X220101162Y-47951727D01*
X220293770Y-47823031D01*
X220293771Y-47823030D01*
X220507789Y-47734381D01*
X220659256Y-47704252D01*
X220734989Y-47689188D01*
X220966643Y-47689188D01*
X221042376Y-47704252D01*
X221042376Y-47704252D01*
G37*
G36*
X208065839Y-47328174D02*
G01*
X208217306Y-47358303D01*
X208431324Y-47446952D01*
X208431325Y-47446953D01*
X208623933Y-47575649D01*
X208787740Y-47739456D01*
X208873537Y-47867861D01*
X208916437Y-47932065D01*
X209005086Y-48146083D01*
X209024947Y-48245930D01*
X209037322Y-48308142D01*
X209050279Y-48373284D01*
X209050279Y-48604936D01*
X209005086Y-48832137D01*
X208916437Y-49046155D01*
X208878057Y-49103595D01*
X208787740Y-49238764D01*
X208623933Y-49402571D01*
X208554794Y-49448768D01*
X208431324Y-49531268D01*
X208217306Y-49619917D01*
X208065839Y-49650046D01*
X207990106Y-49665110D01*
X207758452Y-49665110D01*
X207682719Y-49650046D01*
X207531252Y-49619917D01*
X207317234Y-49531268D01*
X207193764Y-49448768D01*
X207124625Y-49402571D01*
X206960818Y-49238764D01*
X206870501Y-49103595D01*
X206832121Y-49046155D01*
X206743472Y-48832137D01*
X206698279Y-48604936D01*
X206698279Y-48373284D01*
X206711237Y-48308142D01*
X206723611Y-48245930D01*
X206743472Y-48146083D01*
X206832121Y-47932065D01*
X206875021Y-47867861D01*
X206960818Y-47739456D01*
X207124625Y-47575649D01*
X207317233Y-47446953D01*
X207317234Y-47446952D01*
X207531252Y-47358303D01*
X207682719Y-47328174D01*
X207758452Y-47313110D01*
X207990106Y-47313110D01*
X208065839Y-47328174D01*
X208065839Y-47328174D01*
G37*
G36*
X244426474Y-45488684D02*
G01*
X244644474Y-45578983D01*
X244798623Y-45642833D01*
X245133548Y-45866623D01*
X245418377Y-46151452D01*
X245642167Y-46486377D01*
X245699169Y-46623992D01*
X245796316Y-46858526D01*
X245874900Y-47253594D01*
X245874900Y-47656406D01*
X245796316Y-48051474D01*
X245715473Y-48246646D01*
X245642167Y-48423623D01*
X245418377Y-48758548D01*
X245133548Y-49043377D01*
X244798623Y-49267167D01*
X244650578Y-49328489D01*
X244426474Y-49421316D01*
X244031406Y-49499900D01*
X243628594Y-49499900D01*
X243233526Y-49421316D01*
X243009422Y-49328489D01*
X242861377Y-49267167D01*
X242526452Y-49043377D01*
X242241623Y-48758548D01*
X242017833Y-48423623D01*
X241944527Y-48246646D01*
X241863684Y-48051474D01*
X241785100Y-47656406D01*
X241785100Y-47253594D01*
X241863684Y-46858526D01*
X241960831Y-46623992D01*
X242017833Y-46486377D01*
X242241623Y-46151452D01*
X242526452Y-45866623D01*
X242861377Y-45642833D01*
X243015526Y-45578983D01*
X243233526Y-45488684D01*
X243628594Y-45410100D01*
X244031406Y-45410100D01*
X244426474Y-45488684D01*
X244426474Y-45488684D01*
G37*
G36*
X239097281Y-47446718D02*
G01*
X239265803Y-47516522D01*
X239417468Y-47617861D01*
X239546449Y-47746842D01*
X239647788Y-47898507D01*
X239717592Y-48067029D01*
X239753177Y-48245930D01*
X239753177Y-48428336D01*
X239717592Y-48607237D01*
X239647788Y-48775759D01*
X239546449Y-48927424D01*
X239417468Y-49056405D01*
X239265803Y-49157744D01*
X239097281Y-49227548D01*
X238918380Y-49263133D01*
X238735974Y-49263133D01*
X238557073Y-49227548D01*
X238388551Y-49157744D01*
X238236886Y-49056405D01*
X238107905Y-48927424D01*
X238006566Y-48775759D01*
X237936762Y-48607237D01*
X237901177Y-48428336D01*
X237901177Y-48245930D01*
X237936762Y-48067029D01*
X238006566Y-47898507D01*
X238107905Y-47746842D01*
X238236886Y-47617861D01*
X238388551Y-47516522D01*
X238557073Y-47446718D01*
X238735974Y-47411133D01*
X238918380Y-47411133D01*
X239097281Y-47446718D01*
X239097281Y-47446718D01*
G37*
G36*
X46658974Y-45101184D02*
G01*
X46876974Y-45191483D01*
X47031123Y-45255333D01*
X47366048Y-45479123D01*
X47650877Y-45763952D01*
X47874667Y-46098877D01*
X47906020Y-46174571D01*
X48028816Y-46471026D01*
X48107400Y-46866094D01*
X48107400Y-47268906D01*
X48028816Y-47663974D01*
X47938517Y-47881974D01*
X47874667Y-48036123D01*
X47650877Y-48371048D01*
X47366048Y-48655877D01*
X47031123Y-48879667D01*
X46989598Y-48896867D01*
X46658974Y-49033816D01*
X46263906Y-49112400D01*
X45861094Y-49112400D01*
X45466026Y-49033816D01*
X45135402Y-48896867D01*
X45093877Y-48879667D01*
X44758952Y-48655877D01*
X44474123Y-48371048D01*
X44250333Y-48036123D01*
X44186483Y-47881974D01*
X44096184Y-47663974D01*
X44017600Y-47268906D01*
X44017600Y-46866094D01*
X44096184Y-46471026D01*
X44218980Y-46174571D01*
X44250333Y-46098877D01*
X44474123Y-45763952D01*
X44758952Y-45479123D01*
X45093877Y-45255333D01*
X45248026Y-45191483D01*
X45466026Y-45101184D01*
X45861094Y-45022600D01*
X46263906Y-45022600D01*
X46658974Y-45101184D01*
X46658974Y-45101184D01*
G37*
G36*
X51335427Y-47059218D02*
G01*
X51503949Y-47129022D01*
X51655614Y-47230361D01*
X51784595Y-47359342D01*
X51885934Y-47511007D01*
X51955738Y-47679529D01*
X51991323Y-47858430D01*
X51991323Y-48040836D01*
X51955738Y-48219737D01*
X51885934Y-48388259D01*
X51784595Y-48539924D01*
X51655614Y-48668905D01*
X51503949Y-48770244D01*
X51335427Y-48840048D01*
X51156526Y-48875633D01*
X50974120Y-48875633D01*
X50795219Y-48840048D01*
X50626697Y-48770244D01*
X50475032Y-48668905D01*
X50346051Y-48539924D01*
X50244712Y-48388259D01*
X50174908Y-48219737D01*
X50139323Y-48040836D01*
X50139323Y-47858430D01*
X50174908Y-47679529D01*
X50244712Y-47511007D01*
X50346051Y-47359342D01*
X50475032Y-47230361D01*
X50626697Y-47129022D01*
X50795219Y-47059218D01*
X50974120Y-47023633D01*
X51156526Y-47023633D01*
X51335427Y-47059218D01*
X51335427Y-47059218D01*
G37*
G36*
X61693009Y-46043553D02*
G01*
X61844476Y-46073682D01*
X62058494Y-46162331D01*
X62076809Y-46174569D01*
X62251103Y-46291028D01*
X62414910Y-46454835D01*
X62482103Y-46555397D01*
X62543607Y-46647444D01*
X62632256Y-46861462D01*
X62677449Y-47088663D01*
X62677449Y-47320315D01*
X62632256Y-47547516D01*
X62543607Y-47761534D01*
X62543606Y-47761535D01*
X62414910Y-47954143D01*
X62251103Y-48117950D01*
X62139857Y-48192282D01*
X62058494Y-48246647D01*
X61844476Y-48335296D01*
X61739952Y-48356087D01*
X61617276Y-48380489D01*
X61385622Y-48380489D01*
X61262946Y-48356087D01*
X61158422Y-48335296D01*
X60944404Y-48246647D01*
X60863041Y-48192282D01*
X60751795Y-48117950D01*
X60587988Y-47954143D01*
X60459292Y-47761535D01*
X60459291Y-47761534D01*
X60370642Y-47547516D01*
X60325449Y-47320315D01*
X60325449Y-47088663D01*
X60370642Y-46861462D01*
X60459291Y-46647444D01*
X60520795Y-46555397D01*
X60587988Y-46454835D01*
X60751795Y-46291028D01*
X60926089Y-46174569D01*
X60944404Y-46162331D01*
X61158422Y-46073682D01*
X61309889Y-46043553D01*
X61385622Y-46028489D01*
X61617276Y-46028489D01*
X61693009Y-46043553D01*
X61693009Y-46043553D01*
G37*
G36*
X249102927Y-45682452D02*
G01*
X249271449Y-45752256D01*
X249423114Y-45853595D01*
X249552095Y-45982576D01*
X249653434Y-46134241D01*
X249723238Y-46302763D01*
X249758823Y-46481664D01*
X249758823Y-46664070D01*
X249723238Y-46842971D01*
X249653434Y-47011493D01*
X249552095Y-47163158D01*
X249423114Y-47292139D01*
X249271449Y-47393478D01*
X249102927Y-47463282D01*
X248924026Y-47498867D01*
X248741620Y-47498867D01*
X248562719Y-47463282D01*
X248394197Y-47393478D01*
X248242532Y-47292139D01*
X248113551Y-47163158D01*
X248012212Y-47011493D01*
X247942408Y-46842971D01*
X247906823Y-46664070D01*
X247906823Y-46481664D01*
X247942408Y-46302763D01*
X248012212Y-46134241D01*
X248113551Y-45982576D01*
X248242532Y-45853595D01*
X248394197Y-45752256D01*
X248562719Y-45682452D01*
X248741620Y-45646867D01*
X248924026Y-45646867D01*
X249102927Y-45682452D01*
X249102927Y-45682452D01*
G37*
G36*
X41329781Y-45294952D02*
G01*
X41498303Y-45364756D01*
X41649968Y-45466095D01*
X41778949Y-45595076D01*
X41880288Y-45746741D01*
X41950092Y-45915263D01*
X41985677Y-46094164D01*
X41985677Y-46276570D01*
X41950092Y-46455471D01*
X41880288Y-46623993D01*
X41778949Y-46775658D01*
X41649968Y-46904639D01*
X41498303Y-47005978D01*
X41329781Y-47075782D01*
X41150880Y-47111367D01*
X40968474Y-47111367D01*
X40789573Y-47075782D01*
X40621051Y-47005978D01*
X40469386Y-46904639D01*
X40340405Y-46775658D01*
X40239066Y-46623993D01*
X40169262Y-46455471D01*
X40133677Y-46276570D01*
X40133677Y-46094164D01*
X40169262Y-45915263D01*
X40239066Y-45746741D01*
X40340405Y-45595076D01*
X40469386Y-45466095D01*
X40621051Y-45364756D01*
X40789573Y-45294952D01*
X40968474Y-45259367D01*
X41150880Y-45259367D01*
X41329781Y-45294952D01*
X41329781Y-45294952D01*
G37*
G36*
X68387604Y-44644807D02*
G01*
X68539071Y-44674936D01*
X68753089Y-44763585D01*
X68753090Y-44763586D01*
X68945698Y-44892282D01*
X69109505Y-45056089D01*
X69110877Y-45058143D01*
X69238202Y-45248698D01*
X69326851Y-45462716D01*
X69334140Y-45499361D01*
X69370560Y-45682453D01*
X69372044Y-45689917D01*
X69372044Y-45921569D01*
X69326851Y-46148770D01*
X69238202Y-46362788D01*
X69195302Y-46426992D01*
X69109505Y-46555397D01*
X68945698Y-46719204D01*
X68861208Y-46775658D01*
X68753089Y-46847901D01*
X68539071Y-46936550D01*
X68387604Y-46966679D01*
X68311871Y-46981743D01*
X68080217Y-46981743D01*
X68004484Y-46966679D01*
X67853017Y-46936550D01*
X67638999Y-46847901D01*
X67530880Y-46775658D01*
X67446390Y-46719204D01*
X67282583Y-46555397D01*
X67196786Y-46426992D01*
X67153886Y-46362788D01*
X67065237Y-46148770D01*
X67020044Y-45921569D01*
X67020044Y-45689917D01*
X67021529Y-45682453D01*
X67057948Y-45499361D01*
X67065237Y-45462716D01*
X67153886Y-45248698D01*
X67281211Y-45058143D01*
X67282583Y-45056089D01*
X67446390Y-44892282D01*
X67638998Y-44763586D01*
X67638999Y-44763585D01*
X67853017Y-44674936D01*
X68004484Y-44644807D01*
X68080217Y-44629743D01*
X68311871Y-44629743D01*
X68387604Y-44644807D01*
X68387604Y-44644807D01*
G37*
G36*
X239828376Y-44454252D02*
G01*
X239979843Y-44484381D01*
X240193861Y-44573030D01*
X240193862Y-44573031D01*
X240386470Y-44701727D01*
X240550277Y-44865534D01*
X240636074Y-44993939D01*
X240678974Y-45058143D01*
X240767623Y-45272161D01*
X240812816Y-45499362D01*
X240812816Y-45731014D01*
X240767623Y-45958215D01*
X240678974Y-46172233D01*
X240636074Y-46236437D01*
X240550277Y-46364842D01*
X240386470Y-46528649D01*
X240258065Y-46614446D01*
X240193861Y-46657346D01*
X239979843Y-46745995D01*
X239830722Y-46775657D01*
X239752643Y-46791188D01*
X239520989Y-46791188D01*
X239442910Y-46775657D01*
X239293789Y-46745995D01*
X239079771Y-46657346D01*
X239015567Y-46614446D01*
X238887162Y-46528649D01*
X238723355Y-46364842D01*
X238637558Y-46236437D01*
X238594658Y-46172233D01*
X238506009Y-45958215D01*
X238460816Y-45731014D01*
X238460816Y-45499362D01*
X238506009Y-45272161D01*
X238594658Y-45058143D01*
X238637558Y-44993939D01*
X238723355Y-44865534D01*
X238887162Y-44701727D01*
X239079770Y-44573031D01*
X239079771Y-44573030D01*
X239293789Y-44484381D01*
X239445256Y-44454252D01*
X239520989Y-44439188D01*
X239752643Y-44439188D01*
X239828376Y-44454252D01*
X239828376Y-44454252D01*
G37*
G36*
X226854839Y-44100174D02*
G01*
X227006306Y-44130303D01*
X227220324Y-44218952D01*
X227220325Y-44218953D01*
X227412933Y-44347649D01*
X227576740Y-44511456D01*
X227662537Y-44639861D01*
X227705437Y-44704065D01*
X227794086Y-44918083D01*
X227814876Y-45022600D01*
X227826391Y-45080489D01*
X227839279Y-45145284D01*
X227839279Y-45376936D01*
X227794086Y-45604137D01*
X227705437Y-45818155D01*
X227705436Y-45818156D01*
X227576740Y-46010764D01*
X227412933Y-46174571D01*
X227284528Y-46260368D01*
X227220324Y-46303268D01*
X227006306Y-46391917D01*
X226854839Y-46422046D01*
X226779106Y-46437110D01*
X226547452Y-46437110D01*
X226471719Y-46422046D01*
X226320252Y-46391917D01*
X226106234Y-46303268D01*
X226042030Y-46260368D01*
X225913625Y-46174571D01*
X225749818Y-46010764D01*
X225621122Y-45818156D01*
X225621121Y-45818155D01*
X225532472Y-45604137D01*
X225487279Y-45376936D01*
X225487279Y-45145284D01*
X225500168Y-45080489D01*
X225511682Y-45022600D01*
X225532472Y-44918083D01*
X225621121Y-44704065D01*
X225664021Y-44639861D01*
X225749818Y-44511456D01*
X225913625Y-44347649D01*
X226106233Y-44218953D01*
X226106234Y-44218952D01*
X226320252Y-44130303D01*
X226471719Y-44100174D01*
X226547452Y-44085110D01*
X226779106Y-44085110D01*
X226854839Y-44100174D01*
X226854839Y-44100174D01*
G37*
G36*
X42943009Y-42743553D02*
G01*
X43094476Y-42773682D01*
X43308494Y-42862331D01*
X43308495Y-42862332D01*
X43501103Y-42991028D01*
X43664910Y-43154835D01*
X43686475Y-43187110D01*
X43793607Y-43347444D01*
X43882256Y-43561462D01*
X43882256Y-43561464D01*
X43927449Y-43788662D01*
X43927449Y-44020316D01*
X43912385Y-44096049D01*
X43882256Y-44247516D01*
X43793607Y-44461534D01*
X43793606Y-44461535D01*
X43664910Y-44654143D01*
X43501103Y-44817950D01*
X43429891Y-44865532D01*
X43308494Y-44946647D01*
X43094476Y-45035296D01*
X42989952Y-45056087D01*
X42867276Y-45080489D01*
X42635622Y-45080489D01*
X42512946Y-45056087D01*
X42408422Y-45035296D01*
X42194404Y-44946647D01*
X42073007Y-44865532D01*
X42001795Y-44817950D01*
X41837988Y-44654143D01*
X41709292Y-44461535D01*
X41709291Y-44461534D01*
X41620642Y-44247516D01*
X41590513Y-44096049D01*
X41575449Y-44020316D01*
X41575449Y-43788662D01*
X41620642Y-43561464D01*
X41620642Y-43561462D01*
X41709291Y-43347444D01*
X41816423Y-43187110D01*
X41837988Y-43154835D01*
X42001795Y-42991028D01*
X42194403Y-42862332D01*
X42194404Y-42862331D01*
X42408422Y-42773682D01*
X42559889Y-42743553D01*
X42635622Y-42728489D01*
X42867276Y-42728489D01*
X42943009Y-42743553D01*
X42943009Y-42743553D01*
G37*
G36*
X49637604Y-41344807D02*
G01*
X49789071Y-41374936D01*
X50003089Y-41463585D01*
X50003090Y-41463586D01*
X50195698Y-41592282D01*
X50359505Y-41756089D01*
X50445302Y-41884494D01*
X50488202Y-41948698D01*
X50576851Y-42162716D01*
X50622044Y-42389917D01*
X50622044Y-42621569D01*
X50576851Y-42848770D01*
X50488202Y-43062788D01*
X50488201Y-43062789D01*
X50359505Y-43255397D01*
X50195698Y-43419204D01*
X50067293Y-43505001D01*
X50003089Y-43547901D01*
X49789071Y-43636550D01*
X49637604Y-43666679D01*
X49561871Y-43681743D01*
X49330217Y-43681743D01*
X49254484Y-43666679D01*
X49103017Y-43636550D01*
X48888999Y-43547901D01*
X48824795Y-43505001D01*
X48696390Y-43419204D01*
X48532583Y-43255397D01*
X48403887Y-43062789D01*
X48403886Y-43062788D01*
X48315237Y-42848770D01*
X48270044Y-42621569D01*
X48270044Y-42389917D01*
X48315237Y-42162716D01*
X48403886Y-41948698D01*
X48446786Y-41884494D01*
X48532583Y-41756089D01*
X48696390Y-41592282D01*
X48888998Y-41463586D01*
X48888999Y-41463585D01*
X49103017Y-41374936D01*
X49254484Y-41344807D01*
X49330217Y-41329743D01*
X49561871Y-41329743D01*
X49637604Y-41344807D01*
X49637604Y-41344807D01*
G37*
G36*
X245640839Y-40850174D02*
G01*
X245792306Y-40880303D01*
X246006324Y-40968952D01*
X246006325Y-40968953D01*
X246198933Y-41097649D01*
X246362740Y-41261456D01*
X246438565Y-41374936D01*
X246491437Y-41454065D01*
X246580086Y-41668083D01*
X246625279Y-41895284D01*
X246625279Y-42126936D01*
X246580086Y-42354137D01*
X246491437Y-42568155D01*
X246491436Y-42568156D01*
X246362740Y-42760764D01*
X246198933Y-42924571D01*
X246070528Y-43010368D01*
X246006324Y-43053268D01*
X245792306Y-43141917D01*
X245640839Y-43172046D01*
X245565106Y-43187110D01*
X245333452Y-43187110D01*
X245257719Y-43172046D01*
X245106252Y-43141917D01*
X244892234Y-43053268D01*
X244828030Y-43010368D01*
X244699625Y-42924571D01*
X244535818Y-42760764D01*
X244407122Y-42568156D01*
X244407121Y-42568155D01*
X244318472Y-42354137D01*
X244273279Y-42126936D01*
X244273279Y-41895284D01*
X244318472Y-41668083D01*
X244407121Y-41454065D01*
X244459993Y-41374936D01*
X244535818Y-41261456D01*
X244699625Y-41097649D01*
X244892233Y-40968953D01*
X244892234Y-40968952D01*
X245106252Y-40880303D01*
X245257719Y-40850174D01*
X245333452Y-40835110D01*
X245565106Y-40835110D01*
X245640839Y-40850174D01*
X245640839Y-40850174D01*
G37*
M02*
