M48
; DRILL file {KiCad 5.1.8} date Tue Nov 10 13:53:46 2020
; FORMAT={-:-/ absolute / inch / decimal}
; #@! TF.CreationDate,2020-11-10T13:53:46-05:00
; #@! TF.GenerationSoftware,Kicad,Pcbnew,5.1.8
; #@! TF.FileFunction,Plated,1,2,PTH
FMAT,2
INCH
T1C0.0157
T2C0.0276
T3C0.0320
T4C0.0394
T5C0.0512
T6C0.0579
%
G90
G05
T1
X2.8465Y-2.7598
X3.5709Y-2.9764
X3.5984Y-2.6575
X4.311Y-3.0827
X4.3622Y-2.8031
X4.9803Y-2.9331
X5.1299Y-2.7953
X5.1654Y-3.2283
X5.2638Y-4.9291
X5.5439Y-4.7672
X5.6969Y-3.0079
X5.9327Y-2.651
X5.9331Y-2.5039
T2
X4.9961Y-4.9016
X4.9961Y-4.9764
X4.8386Y-4.9016
X4.8386Y-4.9764
T3
X7.0832Y-3.0597
X7.1242Y-3.2923
X8.6932Y-3.5347
X8.7342Y-3.7673
X7.9482Y-3.6597
X7.9892Y-3.8923
X4.1757Y-3.2578
X4.2167Y-3.0252
X8.0236Y-4.2756
X8.0646Y-4.5082
X10.1682Y-3.2697
X10.2092Y-3.5023
X4.3033Y-2.5198
X4.3443Y-2.2872
X8.4282Y-2.0547
X8.4692Y-2.2873
X9.1682Y-1.9247
X9.2092Y-2.1573
X4.6295Y-4.7663
X4.6705Y-4.5337
X7.8232Y-2.9247
X7.8642Y-3.1573
X7.6882Y-2.1897
X7.7292Y-2.4223
X2.8333Y-2.2548
X2.8743Y-2.0222
X9.9032Y-1.8047
X9.9442Y-2.0373
X1.8257Y-3.6078
X1.8667Y-3.3752
X5.3933Y-2.241
X5.3933Y-2.341
X5.3933Y-2.441
X5.3933Y-2.541
X5.3933Y-2.641
X5.3933Y-2.741
X5.3933Y-2.841
X5.3933Y-2.941
X5.3933Y-3.041
X5.3933Y-3.141
X5.3933Y-3.241
X5.3933Y-3.341
X5.9925Y-2.241
X5.9925Y-2.341
X5.9925Y-2.441
X5.9925Y-2.541
X5.9925Y-2.641
X5.9925Y-2.741
X5.9925Y-2.841
X5.9925Y-2.941
X5.9925Y-3.041
X5.9925Y-3.141
X5.9925Y-3.241
X5.9925Y-3.341
X6.9495Y-2.3137
X6.9905Y-2.5463
X4.7783Y-4.1298
X4.8193Y-3.8972
X3.5707Y-2.3878
X3.6117Y-2.1552
X4.9107Y-3.3878
X4.9517Y-3.1552
X9.2982Y-2.6647
X9.3392Y-2.8973
X8.5582Y-2.7947
X8.5992Y-3.0273
X1.9607Y-2.8678
X2.0017Y-2.6352
X10.0432Y-2.5297
X10.0842Y-2.7623
X7.2132Y-3.7947
X7.2542Y-4.0273
X4.0407Y-3.9978
X4.0817Y-3.7652
X9.4282Y-3.3997
X9.4692Y-3.6323
X2.6957Y-2.9978
X2.7367Y-2.7652
X2.0933Y-2.1248
X2.1343Y-1.8922
X5.0433Y-2.6498
X5.0843Y-2.4172
X2.5707Y-3.7378
X2.6117Y-3.5052
X3.3057Y-3.8678
X3.3467Y-3.6352
X3.437Y-3.1238
X3.478Y-2.8912
T4
X5.5315Y-4.937
X5.6315Y-4.937
X5.7315Y-4.937
X5.8315Y-4.937
T5
X6.3366Y-4.9291
X6.5925Y-4.9291
T6
X3.1585Y-1.9884
X3.4221Y-1.9333
X4.504Y-2.9884
X4.7676Y-2.9333
X4.3741Y-3.7266
X4.6376Y-3.6715
X8.8263Y-2.6611
X9.0551Y-2.5193
X6.7367Y-3.7901
X6.9655Y-3.6482
X1.5522Y-2.4667
X1.8158Y-2.4116
X2.4213Y-1.8584
X2.6849Y-1.8034
X7.9552Y-2.0509
X8.184Y-1.909
X8.6949Y-1.9238
X8.9238Y-1.7819
X6.6059Y-3.0526
X6.8348Y-2.9107
X2.2914Y-2.5966
X2.555Y-2.5416
X7.4788Y-3.6592
X7.7076Y-3.5173
X2.9016Y-3.4647
X3.1652Y-3.4097
X3.7668Y-2.8575
X4.0304Y-2.8024
X8.218Y-3.5283
X8.4468Y-3.3864
X4.6349Y-2.2492
X4.8985Y-2.1941
X7.2377Y-4.4633
X7.4665Y-4.3214
X8.0871Y-2.7911
X8.3159Y-2.6492
X2.1615Y-3.3358
X2.425Y-3.2807
X3.8967Y-2.1193
X4.1603Y-2.0642
X7.3459Y-2.923
X7.5748Y-2.7811
X3.8741Y-4.4018
X4.1376Y-4.3467
X6.4739Y-2.3127
X6.7027Y-2.1708
X9.6944Y-3.2665
X9.9232Y-3.1246
X1.4213Y-3.2059
X1.6849Y-3.1508
X3.0296Y-2.7266
X3.2932Y-2.6715
X9.5654Y-2.5302
X9.7943Y-2.3884
X1.6831Y-1.7285
X1.9467Y-1.6735
X8.9552Y-3.3984
X9.184Y-3.2565
X9.4345Y-1.7959
X9.6634Y-1.654
X7.214Y-2.1818
X7.4429Y-2.0399
X3.6379Y-3.5947
X3.9014Y-3.5396
T0
M30
