G04 #@! TF.GenerationSoftware,KiCad,Pcbnew,5.1.8*
G04 #@! TF.CreationDate,2020-11-07T11:10:48-05:00*
G04 #@! TF.ProjectId,pcb,7063622e-6b69-4636-9164-5f7063625858,rev?*
G04 #@! TF.SameCoordinates,Original*
G04 #@! TF.FileFunction,Soldermask,Top*
G04 #@! TF.FilePolarity,Negative*
%FSLAX46Y46*%
G04 Gerber Fmt 4.6, Leading zero omitted, Abs format (unit mm)*
G04 Created by KiCad (PCBNEW 5.1.8) date 2020-11-07 11:10:48*
%MOMM*%
%LPD*%
G01*
G04 APERTURE LIST*
%ADD10O,1.600000X2.000000*%
%ADD11C,1.397000*%
%ADD12C,0.100000*%
%ADD13C,1.524000*%
%ADD14C,2.000000*%
%ADD15C,3.987800*%
%ADD16C,3.048000*%
%ADD17C,1.750000*%
%ADD18O,1.400000X1.400000*%
%ADD19C,1.400000*%
G04 APERTURE END LIST*
D10*
X140500000Y-125400000D03*
X143040000Y-125400000D03*
X148120000Y-125400000D03*
X145580000Y-125400000D03*
D11*
X203800000Y-108600000D03*
D12*
G36*
X205651071Y-115075441D02*
G01*
X204275295Y-115318027D01*
X204032709Y-113942251D01*
X205408485Y-113699665D01*
X205651071Y-115075441D01*
G37*
D11*
X118630945Y-115155577D03*
D12*
G36*
X118155650Y-121873604D02*
G01*
X116779874Y-121631018D01*
X117022460Y-120255242D01*
X118398236Y-120497828D01*
X118155650Y-121873604D01*
G37*
D11*
X258272536Y-83050644D03*
D12*
G36*
X260123607Y-89526085D02*
G01*
X258747831Y-89768671D01*
X258505245Y-88392895D01*
X259881021Y-88150309D01*
X260123607Y-89526085D01*
G37*
D11*
X239476536Y-86352644D03*
D12*
G36*
X241327607Y-92828085D02*
G01*
X239951831Y-93070671D01*
X239709245Y-91694895D01*
X241085021Y-91452309D01*
X241327607Y-92828085D01*
G37*
D11*
X220807536Y-89781644D03*
D12*
G36*
X222658607Y-96257085D02*
G01*
X221282831Y-96499671D01*
X221040245Y-95123895D01*
X222416021Y-94881309D01*
X222658607Y-96257085D01*
G37*
D11*
X201884536Y-92956644D03*
D12*
G36*
X203735607Y-99432085D02*
G01*
X202359831Y-99674671D01*
X202117245Y-98298895D01*
X203493021Y-98056309D01*
X203735607Y-99432085D01*
G37*
D11*
X183215536Y-96385644D03*
D12*
G36*
X185066607Y-102861085D02*
G01*
X183690831Y-103103671D01*
X183448245Y-101727895D01*
X184824021Y-101485309D01*
X185066607Y-102861085D01*
G37*
D11*
X122409964Y-98989144D03*
D12*
G36*
X121934669Y-105707171D02*
G01*
X120558893Y-105464585D01*
X120801479Y-104088809D01*
X122177255Y-104331395D01*
X121934669Y-105707171D01*
G37*
D11*
X103675926Y-95635010D03*
D12*
G36*
X103200631Y-102353037D02*
G01*
X101824855Y-102110451D01*
X102067441Y-100734675D01*
X103443217Y-100977261D01*
X103200631Y-102353037D01*
G37*
D11*
X85006926Y-92333010D03*
D12*
G36*
X84531631Y-99051037D02*
G01*
X83155855Y-98808451D01*
X83398441Y-97432675D01*
X84774217Y-97675261D01*
X84531631Y-99051037D01*
G37*
D11*
X66337926Y-89031010D03*
D12*
G36*
X65862631Y-95749037D02*
G01*
X64486855Y-95506451D01*
X64729441Y-94130675D01*
X66105217Y-94373261D01*
X65862631Y-95749037D01*
G37*
D11*
X47414926Y-85729010D03*
D12*
G36*
X46939631Y-92447037D02*
G01*
X45563855Y-92204451D01*
X45806441Y-90828675D01*
X47182217Y-91071261D01*
X46939631Y-92447037D01*
G37*
D11*
X255097536Y-64254644D03*
D12*
G36*
X256948607Y-70730085D02*
G01*
X255572831Y-70972671D01*
X255330245Y-69596895D01*
X256706021Y-69354309D01*
X256948607Y-70730085D01*
G37*
D11*
X236174536Y-67683644D03*
D12*
G36*
X238025607Y-74159085D02*
G01*
X236649831Y-74401671D01*
X236407245Y-73025895D01*
X237783021Y-72783309D01*
X238025607Y-74159085D01*
G37*
D11*
X217378536Y-70985644D03*
D12*
G36*
X219229607Y-77461085D02*
G01*
X217853831Y-77703671D01*
X217611245Y-76327895D01*
X218987021Y-76085309D01*
X219229607Y-77461085D01*
G37*
D11*
X198709536Y-74287644D03*
D12*
G36*
X200560607Y-80763085D02*
G01*
X199184831Y-81005671D01*
X198942245Y-79629895D01*
X200318021Y-79387309D01*
X200560607Y-80763085D01*
G37*
D11*
X179913536Y-77716644D03*
D12*
G36*
X181764607Y-84192085D02*
G01*
X180388831Y-84434671D01*
X180146245Y-83058895D01*
X181522021Y-82816309D01*
X181764607Y-84192085D01*
G37*
D11*
X125773926Y-80141010D03*
D12*
G36*
X125298631Y-86859037D02*
G01*
X123922855Y-86616451D01*
X124165441Y-85240675D01*
X125541217Y-85483261D01*
X125298631Y-86859037D01*
G37*
D11*
X107104926Y-76839010D03*
D12*
G36*
X106629631Y-83557037D02*
G01*
X105253855Y-83314451D01*
X105496441Y-81938675D01*
X106872217Y-82181261D01*
X106629631Y-83557037D01*
G37*
D11*
X88341445Y-73436077D03*
D12*
G36*
X87866150Y-80154104D02*
G01*
X86490374Y-79911518D01*
X86732960Y-78535742D01*
X88108736Y-78778328D01*
X87866150Y-80154104D01*
G37*
D11*
X69512926Y-70235010D03*
D12*
G36*
X69037631Y-76953037D02*
G01*
X67661855Y-76710451D01*
X67904441Y-75334675D01*
X69280217Y-75577261D01*
X69037631Y-76953037D01*
G37*
D11*
X50843926Y-66933010D03*
D12*
G36*
X50368631Y-73651037D02*
G01*
X48992855Y-73408451D01*
X49235441Y-72032675D01*
X50611217Y-72275261D01*
X50368631Y-73651037D01*
G37*
D11*
X251541536Y-45839644D03*
D12*
G36*
X253392607Y-52315085D02*
G01*
X252016831Y-52557671D01*
X251774245Y-51181895D01*
X253150021Y-50939309D01*
X253392607Y-52315085D01*
G37*
D11*
X232872536Y-48887644D03*
D12*
G36*
X234723607Y-55363085D02*
G01*
X233347831Y-55605671D01*
X233105245Y-54229895D01*
X234481021Y-53987309D01*
X234723607Y-55363085D01*
G37*
D11*
X214076536Y-52189644D03*
D12*
G36*
X215927607Y-58665085D02*
G01*
X214551831Y-58907671D01*
X214309245Y-57531895D01*
X215685021Y-57289309D01*
X215927607Y-58665085D01*
G37*
D11*
X195280536Y-55618644D03*
D12*
G36*
X197131607Y-62094085D02*
G01*
X195755831Y-62336671D01*
X195513245Y-60960895D01*
X196889021Y-60718309D01*
X197131607Y-62094085D01*
G37*
D11*
X176517055Y-58767577D03*
D12*
G36*
X178368126Y-65243018D02*
G01*
X176992350Y-65485604D01*
X176749764Y-64109828D01*
X178125540Y-63867242D01*
X178368126Y-65243018D01*
G37*
D11*
X129140964Y-61397144D03*
D12*
G36*
X128665669Y-68115171D02*
G01*
X127289893Y-67872585D01*
X127532479Y-66496809D01*
X128908255Y-66739395D01*
X128665669Y-68115171D01*
G37*
D11*
X110344964Y-58095144D03*
D12*
G36*
X109869669Y-64813171D02*
G01*
X108493893Y-64570585D01*
X108736479Y-63194809D01*
X110112255Y-63437395D01*
X109869669Y-64813171D01*
G37*
D11*
X91737926Y-54741010D03*
D12*
G36*
X91262631Y-61459037D02*
G01*
X89886855Y-61216451D01*
X90129441Y-59840675D01*
X91505217Y-60083261D01*
X91262631Y-61459037D01*
G37*
D11*
X73006964Y-51364144D03*
D12*
G36*
X72531669Y-58082171D02*
G01*
X71155893Y-57839585D01*
X71398479Y-56463809D01*
X72774255Y-56706395D01*
X72531669Y-58082171D01*
G37*
D11*
X54210964Y-48062144D03*
D12*
G36*
X53735669Y-54780171D02*
G01*
X52359893Y-54537585D01*
X52602479Y-53161809D01*
X53978255Y-53404395D01*
X53735669Y-54780171D01*
G37*
D13*
X136988600Y-56922000D03*
X136988600Y-59462000D03*
X136988600Y-62002000D03*
X136988600Y-64542000D03*
X136988600Y-67082000D03*
X136988600Y-69622000D03*
X136988600Y-72162000D03*
X136988600Y-74702000D03*
X136988600Y-77242000D03*
X136988600Y-79782000D03*
X136988600Y-82322000D03*
X136988600Y-84862000D03*
X152208600Y-84862000D03*
X152208600Y-82322000D03*
X152208600Y-79782000D03*
X152208600Y-77242000D03*
X152208600Y-74702000D03*
X152208600Y-72162000D03*
X152208600Y-69622000D03*
X152208600Y-67082000D03*
X152208600Y-64542000D03*
X152208600Y-62002000D03*
X152208600Y-59462000D03*
X152208600Y-56922000D03*
D14*
X160950000Y-125200000D03*
X167450000Y-125200000D03*
D15*
X201188833Y-121270089D03*
X177738098Y-125405087D03*
D16*
X198542435Y-106261619D03*
X175091700Y-110396616D03*
D17*
X193032823Y-114325867D03*
X183027177Y-116090133D03*
D15*
X188030000Y-115208000D03*
X112004402Y-125164587D03*
X88553667Y-121029589D03*
D16*
X114650800Y-110156116D03*
X91200065Y-106021119D03*
D17*
X106715323Y-115849633D03*
X96709677Y-114085367D03*
D15*
X101712500Y-114967500D03*
D17*
X173632823Y-59700867D03*
X163627177Y-61465133D03*
D15*
X168630000Y-60583000D03*
D17*
X255432823Y-83925867D03*
X245427177Y-85690133D03*
D15*
X250430000Y-84808000D03*
D17*
X236657823Y-87275867D03*
X226652177Y-89040133D03*
D15*
X231655000Y-88158000D03*
D17*
X217932823Y-90575867D03*
X207927177Y-92340133D03*
D15*
X212930000Y-91458000D03*
D17*
X199157823Y-93900867D03*
X189152177Y-95665133D03*
D15*
X194155000Y-94783000D03*
D17*
X180307823Y-97225867D03*
X170302177Y-98990133D03*
D15*
X175305000Y-98108000D03*
D17*
X119415323Y-98699633D03*
X109409677Y-96935367D03*
D15*
X114412500Y-97817500D03*
D17*
X100715323Y-95349633D03*
X90709677Y-93585367D03*
D15*
X95712500Y-94467500D03*
D17*
X82015323Y-92049633D03*
X72009677Y-90285367D03*
D15*
X77012500Y-91167500D03*
D17*
X63215323Y-88774633D03*
X53209677Y-87010367D03*
D15*
X58212500Y-87892500D03*
D17*
X44415323Y-85474633D03*
X34409677Y-83710367D03*
D15*
X39412500Y-84592500D03*
D17*
X252157823Y-65225867D03*
X242152177Y-66990133D03*
D15*
X247155000Y-66108000D03*
D17*
X233382823Y-68550867D03*
X223377177Y-70315133D03*
D15*
X228380000Y-69433000D03*
D17*
X214607823Y-71850867D03*
X204602177Y-73615133D03*
D15*
X209605000Y-72733000D03*
D17*
X195782823Y-75200867D03*
X185777177Y-76965133D03*
D15*
X190780000Y-76083000D03*
D17*
X176986709Y-78493143D03*
X166981063Y-80257409D03*
D15*
X171983886Y-79375276D03*
D17*
X122715323Y-79949633D03*
X112709677Y-78185367D03*
D15*
X117712500Y-79067500D03*
D17*
X103990323Y-76624633D03*
X93984677Y-74860367D03*
D15*
X98987500Y-75742500D03*
D17*
X85265323Y-73299633D03*
X75259677Y-71535367D03*
D15*
X80262500Y-72417500D03*
D17*
X66515323Y-69999633D03*
X56509677Y-68235367D03*
D15*
X61512500Y-69117500D03*
D17*
X47740323Y-66699633D03*
X37734677Y-64935367D03*
D15*
X42737500Y-65817500D03*
D17*
X248832823Y-46572867D03*
X238827177Y-48337133D03*
D15*
X243830000Y-47455000D03*
D17*
X230046823Y-49822867D03*
X220041177Y-51587133D03*
D15*
X225044000Y-50705000D03*
D17*
X211257823Y-53050867D03*
X201252177Y-54815133D03*
D15*
X206255000Y-53933000D03*
D17*
X192432823Y-56375867D03*
X182427177Y-58140133D03*
D15*
X187430000Y-57258000D03*
D17*
X126040323Y-61174633D03*
X116034677Y-59410367D03*
D15*
X121037500Y-60292500D03*
D17*
X107290323Y-57874633D03*
X97284677Y-56110367D03*
D15*
X102287500Y-56992500D03*
D17*
X88540323Y-54549633D03*
X78534677Y-52785367D03*
D15*
X83537500Y-53667500D03*
D17*
X69815323Y-51249633D03*
X59809677Y-49485367D03*
D15*
X64812500Y-50367500D03*
D17*
X51065323Y-47949633D03*
X41059677Y-46185367D03*
D15*
X46062500Y-47067500D03*
D18*
X126900000Y-126400000D03*
D19*
X126900000Y-124500000D03*
D18*
X122900000Y-126400000D03*
D19*
X122900000Y-124500000D03*
M02*
